<svg width="92" height="30" viewBox="0 0 92 30" fill="none" xmlns="http://www.w3.org/2000/svg">
<path d="M4.73666 10.2252C4.73666 11.3137 5.03111 11.3941 6.28029 11.4387V11.8135H1.43524V11.4476C2.43458 11.4476 2.72904 11.2781 2.72904 10.2342V3.20301C2.72904 2.11443 2.43458 2.02521 1.47093 1.98951V1.6326H10.01V3.89899H9.59956C9.2605 2.76579 8.84113 2.39104 6.8335 2.39104H5.28095C4.78127 2.39104 4.70097 2.47134 4.70097 2.9264V6.19213H6.48552C8.10946 6.19213 8.44852 5.89768 8.62698 4.85372H9.00174V8.4942H8.62698C8.41284 7.28071 7.78824 6.94165 6.48552 6.94165H4.70097V10.243L4.73666 10.2252ZM14.864 10.2252C14.864 11.3137 15.1495 11.3941 16.4076 11.4387V11.8135H11.3038V11.4476C12.5173 11.4476 12.8564 11.2781 12.8564 10.2342V3.20301C12.8564 2.11443 12.6065 2.02521 11.3038 1.98951V1.6326H16.4076V2.01628C15.1941 2.01628 14.864 2.17689 14.864 3.22978V10.2252ZM26.99 3.41715C26.99 2.40889 26.7402 1.98951 25.5713 1.86459V1.48984H29.2118V1.86459C28.0786 1.98951 27.7841 2.39996 27.7841 3.41715V11.983H27.2666L20.2444 3.86329V9.84154C20.2444 10.8498 20.4942 11.2603 21.6631 11.3941V11.7689H18.0048V11.3941C19.138 11.2692 19.4325 10.8587 19.4325 9.84154V2.97102C19.3001 2.69196 19.1002 2.45034 18.851 2.26804C18.6017 2.08575 18.3108 1.96854 18.0048 1.92706V1.5523H20.8065L26.9543 8.6905V3.41715H26.99ZM32.4686 8.1016L34.0212 4.04174L35.5648 8.1016H32.4686ZM39.8299 11.7777V11.4476C39.0268 11.4476 38.8751 11.1532 38.4915 10.1895L34.851 1.31138H34.3513L30.5859 10.4751C30.5017 10.7469 30.3358 10.9862 30.1106 11.1602C29.8854 11.3343 29.612 11.4346 29.3278 11.4476V11.8224H32.6203V11.4476C31.9064 11.4476 31.5763 11.2781 31.5763 10.7784C31.7136 10.1379 31.9077 9.51078 32.1563 8.90465H35.886C36.1552 9.50721 36.3645 10.1349 36.5106 10.7784C36.5106 11.2781 36.1358 11.4476 35.422 11.4476V11.8224L39.8299 11.7777ZM49.8412 3.41715C49.8412 2.40889 49.5913 1.98951 48.4224 1.86459V1.48984H52.0629V1.86459C50.9298 1.98951 50.6353 2.39996 50.6353 3.41715V11.983H50.1L43.0777 3.86329V9.84154C43.0777 10.8498 43.3276 11.2603 44.4965 11.3941V11.7689H40.8382V11.3941C41.9713 11.2692 42.2569 10.8587 42.2569 9.84154V2.97102C42.1309 2.68915 41.9339 2.44478 41.6852 2.2618C41.4366 2.07882 41.1447 1.96347 40.8382 1.92706V1.5523H43.6399L49.7876 8.6905L49.8412 3.41715ZM62.8506 9.3954C62.4221 10.2374 61.7599 10.9379 60.9432 11.4127C60.1265 11.8876 59.1901 12.1165 58.2464 12.0722C54.9004 12.0722 52.8927 9.89507 52.8927 6.59365C52.8927 5.88303 53.0341 5.1795 53.3086 4.52407C53.5833 3.86866 53.9856 3.27447 54.4922 2.77615C54.9989 2.27783 55.5996 1.88537 56.2595 1.62162C56.9193 1.35789 57.6251 1.22816 58.3357 1.24C59.3023 1.35582 60.2556 1.56499 61.182 1.86459C61.4675 1.86459 61.5568 1.69506 61.8512 1.24H62.3866L62.5918 4.66634H62.1725C61.5478 3.07809 60.5039 1.90921 58.6926 1.90921C56.2655 1.90921 55.2126 4.58604 55.2126 6.50443C55.2126 9.27048 56.3816 11.1532 58.9781 11.1532C59.7022 11.1132 60.4058 10.8973 61.0277 10.5242C61.6496 10.1511 62.1712 9.63189 62.5472 9.01172L62.8506 9.3954ZM67.7849 10.1984C67.7849 11.287 68.0793 11.3673 69.3374 11.4119V11.7867H64.2336V11.4476C65.4471 11.403 65.7772 11.2781 65.7772 10.2342V3.21193C65.7772 2.12335 65.4828 2.03413 64.2336 1.99844V1.6326H69.3374V2.01628C68.1239 2.01628 67.7849 2.17689 67.7849 3.22978V10.1984ZM73.5579 8.11052L75.1104 4.05067L76.6541 8.11052H73.5579ZM80.9191 11.7867V11.4476C80.1161 11.4476 79.9555 11.1532 79.5807 10.1895L75.9402 1.32031H75.4495L71.6752 10.4839C71.5895 10.7542 71.4228 10.9916 71.1978 11.1639C70.9728 11.3362 70.7003 11.4353 70.417 11.4476V11.8224H73.7274V11.4476C73.0136 11.4476 72.6834 11.2781 72.6834 10.7784C72.8208 10.1379 73.0148 9.51078 73.2635 8.90465H76.9842C77.2563 9.50695 77.4685 10.1346 77.6178 10.7784C77.6178 11.2781 77.243 11.4476 76.5291 11.4476V11.8224L80.9191 11.7867ZM81.8114 11.7867V11.4476C82.775 11.403 83.0695 11.2781 83.0695 10.2342V3.20301C83.0695 2.11443 82.775 2.03413 81.8114 1.98951V1.6326H86.5404V2.00736C85.4073 2.00736 85.1217 2.1769 85.1217 3.22085V10.4483C85.1217 11.0818 85.2824 11.287 86.4155 11.287C88.2536 11.287 89.3423 10.9569 90.2167 9.14557H90.6181L89.9044 11.9116H81.7489V11.8224L81.8114 11.7867ZM3.61239 28.0618C4.79019 28.0618 5.07573 27.9012 5.07573 26.8483V18.9427H3.81761C2.64874 18.9427 2.14906 19.4513 1.80999 20.8165H1.39062L1.64046 18.1397H10.6792L10.9291 20.8165H10.5097C10.1706 19.3978 9.70663 18.9427 8.50206 18.9427H7.24395V26.8483C7.24395 27.9369 7.53841 28.0261 8.70728 28.0618V28.4454H3.773V28.0618H3.61239ZM15.4975 26.8483C15.4975 27.9369 15.792 28.0261 17.0412 28.0618V28.4454H11.9373V28.0618C13.1508 28.0618 13.4899 27.9012 13.4899 26.8483V19.8261C13.4899 18.7376 13.1954 18.6483 11.9373 18.6126V18.2289H17.0412V18.5859C15.8276 18.5859 15.4975 18.7554 15.4975 19.7993V26.8483ZM27.8377 18.1486H31.4068V18.5233C30.4431 18.5233 30.1576 18.6929 30.1576 19.7369V26.8126C30.1576 27.9012 30.4431 27.9815 31.4068 28.0261V28.4009H26.7313V28.0261C27.7395 28.0261 28.025 27.8565 28.025 26.8126V19.5852L24.5898 28.5793H24.0545L20.6637 19.5852V26.5271C20.6637 27.5264 20.9136 27.9458 22.0825 28.0708V28.4544H18.4063V28.0708C19.5395 27.9458 19.8251 27.5354 19.8251 26.5271V19.4781C19.8251 18.7732 19.5395 18.5145 18.4063 18.5145V18.1397H22.1271L24.8575 25.2779L27.8377 18.1486ZM32.8166 28.4009V28.0261C33.7803 28.0261 34.0658 27.8565 34.0658 26.8126V19.8261C34.0658 18.7376 33.7803 18.6483 32.8166 18.6126V18.2289H41.3824V20.4953H40.9631C40.6329 19.3621 40.2135 18.9873 38.2059 18.9873H36.6534C36.1448 18.9873 36.0644 19.0677 36.0644 19.5227V22.7885H37.849C39.4818 22.7885 39.812 22.494 39.9904 21.4501H40.3652V25.0906H39.9904C39.7853 23.877 39.1518 23.5825 37.849 23.5825H36.0644V27.1517C36.0644 27.7852 36.234 27.9904 38.0721 27.9904C39.9102 27.9904 40.9987 27.6602 41.8821 25.849H42.2569L41.543 28.5882H32.7274V28.4009H32.8166ZM43.7023 25.1887H44.0771C44.4965 26.5271 45.8616 27.9904 47.3428 27.9904C47.5765 28.0126 47.8123 27.9841 48.034 27.9068C48.2559 27.8296 48.4583 27.7054 48.6277 27.5428C48.797 27.3801 48.9294 27.1829 49.0156 26.9646C49.1018 26.7461 49.14 26.5117 49.1273 26.2772C49.1273 23.8949 43.7738 23.4755 43.7738 20.5488C43.8153 19.8088 44.1448 19.1144 44.6917 18.6141C45.2386 18.1139 45.9595 17.8475 46.7004 17.872C48.244 17.872 48.7883 18.4074 49.4575 18.4074C49.5995 18.4074 49.7357 18.351 49.8361 18.2506C49.9365 18.1501 49.9929 18.014 49.9929 17.872H50.3677V21.2626H49.9929C49.8668 20.5723 49.5156 19.9431 48.9942 19.4734C48.4728 19.0036 47.8106 18.7198 47.1108 18.6662C46.9076 18.6445 46.702 18.6665 46.5079 18.7306C46.3138 18.7948 46.1356 18.8996 45.9853 19.0381C45.835 19.1766 45.7159 19.3456 45.6362 19.5338C45.5563 19.7221 45.5177 19.9251 45.5226 20.1295C45.5226 22.2263 50.8762 22.2709 50.8762 25.9025C50.8681 26.3033 50.7775 26.698 50.6101 27.0621C50.4427 27.4264 50.2021 27.7521 49.9032 28.0192C49.6043 28.2863 49.2536 28.4889 48.873 28.6144C48.4924 28.7399 48.0899 28.7857 47.6908 28.7489C45.9062 28.7489 45.4334 28.1242 44.7195 28.1242C44.4697 28.1242 44.3002 28.2938 44.1842 28.6597H43.6488L43.7023 25.1887Z" fill="#323334"/>
</svg>
