<svg width="81" height="20" viewBox="0 0 81 20" fill="none" xmlns="http://www.w3.org/2000/svg">
<g clip-path="url(#clip0_2209_88255)">
<path d="M11.3899 5.04306V14.9129C11.3899 15.4626 11.4983 16.007 11.7087 16.5148C11.9189 17.0226 12.2273 17.4841 12.616 17.8728C13.0047 18.2615 13.4662 18.5698 13.974 18.7802C14.4819 18.9906 15.0261 19.0988 15.5759 19.0988C16.1256 19.0988 16.6698 18.9906 17.1777 18.7802C17.6856 18.5698 18.147 18.2615 18.5357 17.8728C18.9245 17.4841 19.2328 17.0226 19.4431 16.5148C19.6535 16.007 19.7618 15.4626 19.7618 14.9129V5.04306C19.7618 3.9329 19.3207 2.8682 18.5357 2.0832C17.7507 1.29819 16.686 0.857178 15.5759 0.857178C14.4657 0.857178 13.401 1.29819 12.616 2.0832C11.831 2.8682 11.3899 3.9329 11.3899 5.04306ZM14.3862 14.9129V5.04306C14.3839 4.89345 14.4113 4.74488 14.467 4.60598C14.5225 4.46709 14.6053 4.34066 14.7103 4.23403C14.8152 4.12742 14.9404 4.04276 15.0784 3.98496C15.2164 3.92718 15.3645 3.89743 15.5142 3.89745H15.62C15.7658 3.89275 15.9111 3.91683 16.0476 3.96833C16.1842 4.01983 16.3092 4.09772 16.4156 4.19757C16.5219 4.29742 16.6076 4.41726 16.6676 4.55024C16.7277 4.68321 16.761 4.82672 16.7656 4.97256V14.9129C16.761 15.2154 16.6388 15.5041 16.425 15.718C16.2111 15.9318 15.9223 16.054 15.62 16.0585C15.4637 16.0645 15.3078 16.0394 15.1612 15.985C15.0146 15.9306 14.8801 15.8479 14.7656 15.7415C14.651 15.6351 14.5585 15.5071 14.4934 15.365C14.4283 15.2228 14.3919 15.0692 14.3862 14.9129ZM43.9077 1.07749H35.4478V4.0737H38.1797V18.7904H41.1759V4.0737H43.9077V1.07749ZM52.7201 1.07749V14.9129C52.7201 15.2168 52.5994 15.5081 52.3846 15.723C52.1697 15.9378 51.8783 16.0585 51.5745 16.0585C51.2706 16.0585 50.9792 15.9378 50.7643 15.723C50.5496 15.5081 50.4288 15.2168 50.4288 14.9129V1.07749H47.3445V14.9129C47.3445 16.0348 47.7902 17.1107 48.5834 17.9039C49.3767 18.6973 50.4526 19.1429 51.5745 19.1429C52.6963 19.1429 53.7723 18.6973 54.5655 17.9039C55.3587 17.1107 55.8044 16.0348 55.8044 14.9129V1.07749H52.7201ZM80.1266 4.0737V1.07749H72.7242V18.7904H80.1266V15.7941H75.7204V11.2117H78.5403V8.21552H75.7204V4.0737H80.1266ZM32.6279 18.7904H29.4554L27.2522 10.4186C27.8019 10.3099 28.2964 10.0126 28.6504 9.57827C29.0043 9.14388 29.1955 8.59958 29.191 8.03927V5.30743C29.1945 5.14888 29.1667 4.99118 29.1093 4.84336C29.0518 4.69555 28.9659 4.56049 28.8562 4.44592C28.7465 4.33135 28.6153 4.2395 28.4701 4.17564C28.3251 4.11178 28.1687 4.07713 28.0102 4.0737H26.8116V18.7904H23.8154V1.07749H27.9572C29.0512 1.06991 30.105 1.4891 30.8948 2.24601C31.6846 3.00292 32.1482 4.03793 32.1872 5.13119V7.95115C32.2268 8.68289 32.0962 9.41385 31.8056 10.0866C31.5152 10.7593 31.0727 11.3556 30.5128 11.8286L32.6279 18.7904ZM66.0268 1.07749V10.7711L62.9424 1.07749H59.8581V18.7904H62.9424V10.1543L65.7624 18.7904H69.1111V1.07749H66.0268ZM1.25574 1.34186V19.0547H4.42819V11.4761H7.33629V8.47989H4.42819V4.33807H9.01064V1.34186H1.25574Z" fill="#323334"/>
</g>
<defs>
<clipPath id="clip0_2209_88255">
<rect width="79.5428" height="19.2" fill="white" transform="translate(0.848633 0.400024)"/>
</clipPath>
</defs>
</svg>
