<svg width="71" height="20" viewBox="0 0 71 20" fill="none" xmlns="http://www.w3.org/2000/svg">
<g clip-path="url(#clip0_2209_88247)">
<path d="M63.9437 19.1162C63.0482 19.0202 61.6237 18.7082 61.1493 18.5042L60.9177 18.4037L60.886 17.256C60.8684 16.6243 60.8484 15.7802 60.8413 15.3797L60.8282 14.6516L60.9674 14.5852C61.0765 14.5412 61.1921 14.5156 61.3096 14.5094L61.5136 14.4998L61.6869 14.927C62.3639 16.5932 63.1583 17.4896 64.1949 17.765C64.5909 17.869 65.3326 17.87 65.6255 17.765C66.4456 17.4756 66.8958 16.8544 66.8994 16.0063C66.9044 15.0013 66.3516 14.5184 64.2648 13.7034C62.9719 13.1983 62.5211 12.9381 61.984 12.3888C61.4046 11.7959 61.1267 11.1205 61.0745 10.1809C61.0111 9.04475 61.3669 8.087 62.1548 7.27096C62.9427 6.45491 63.9769 6.00467 65.3788 5.87654C66.6134 5.76398 68.5083 6.02728 69.4992 6.44636L69.6806 6.52325L69.7128 7.54632C69.7309 8.10911 69.7489 8.86335 69.754 9.22264L69.762 9.87589L69.5188 9.96632C69.1344 10.109 69.1093 10.0909 68.8953 9.52413C68.2952 7.93525 67.5988 7.18302 66.5129 6.95338C65.8512 6.81369 65.2984 6.96393 64.8964 7.39356C64.5833 7.72873 64.4607 8.0262 64.4311 8.52568C64.3989 9.06736 64.4959 9.35982 64.8266 9.72165C65.2346 10.1678 65.9023 10.5532 67.233 11.109C68.8625 11.7899 69.6404 12.3682 70.063 13.2134C70.3374 13.7622 70.4148 14.2004 70.3876 15.044C70.367 15.6771 70.347 15.8073 70.2027 16.2324C69.7329 17.6182 68.6731 18.5308 67.037 18.9584C66.4843 19.1037 66.4028 19.1092 65.2999 19.1227C64.6648 19.1317 64.0542 19.1277 63.9437 19.1162Z" fill="#323334"/>
<path d="M0.566831 18.8141C0.525125 18.796 0.50402 18.6719 0.50402 18.4403C0.50402 18.0236 0.477388 18.0423 1.28288 17.893C1.90045 17.7784 2.12154 17.6609 2.3944 17.3036C2.92302 16.6102 3.03759 15.275 3.03859 9.77725C3.03859 4.61416 2.9381 3.52827 2.39339 2.73031C2.15069 2.37857 1.74015 2.1841 1.05676 2.1022L0.529145 2.03888L0.514572 1.62684L0.5 1.2153L0.66532 1.18565C0.756271 1.16957 3.95061 1.16254 7.76353 1.17058L14.6979 1.18465L14.7306 1.38565C14.7487 1.49619 14.7778 2.63032 14.7959 3.90564L14.8286 6.22414L14.4693 6.33419C13.9311 6.498 13.9341 6.50001 13.6919 5.85933C13.0975 4.28603 12.4156 3.37954 11.4809 2.92176C10.8373 2.6062 10.5398 2.57002 8.72279 2.57002H7.14395L7.11682 2.83383C7.06657 3.32878 6.98517 6.51106 6.98567 8.0095V9.49989L7.45048 9.49738C7.70625 9.49738 8.21025 9.47678 8.57053 9.45567C9.11272 9.42301 9.27402 9.39437 9.50014 9.28935C10.0574 9.03157 10.4363 8.46376 10.6684 7.53967L10.788 7.06281L11.1986 7.04823L11.6086 7.03366V13.0726L11.198 13.0581L10.788 13.0434L10.6714 12.5661C10.4529 11.6692 10.0318 11.027 9.51119 10.7969C9.27101 10.6908 8.67606 10.63 7.52585 10.5958L6.98567 10.5793V11.7109C6.98567 12.947 7.0535 14.6188 7.14043 15.5263C7.26204 16.7915 7.58514 17.4905 8.16602 17.7433C8.27657 17.7935 8.62732 17.8699 8.94539 17.9177C9.26347 17.9654 9.56295 18.0246 9.6112 18.0498C9.73382 18.1131 9.74086 18.7683 9.61974 18.8146C9.52476 18.8512 0.656778 18.8488 0.566329 18.8121L0.566831 18.8141Z" fill="#323334"/>
<path d="M25.3383 18.8047C25.2926 18.7755 25.2775 18.6594 25.288 18.4157L25.3031 18.0685L25.479 18.0313C25.5755 18.0107 25.7835 17.9695 25.9408 17.9403C26.4272 17.8494 26.7066 17.5851 26.8643 17.068C26.9925 16.6464 27.0488 15.2982 27.0518 12.5913C27.0553 9.2804 26.9865 8.49852 26.6498 8.05532C26.4684 7.81513 26.3372 7.74678 25.8961 7.66237C25.679 7.62066 25.4504 7.57594 25.388 7.56187C25.2876 7.54077 25.275 7.5081 25.275 7.26038C25.275 7.01264 25.29 6.97747 25.388 6.93727C25.5388 6.87546 30.5165 5.88204 30.6752 5.88204H30.8014L30.7773 6.62321C30.7638 7.03073 30.7421 7.62468 30.7296 7.94226L30.7064 8.52012L30.8868 8.19501C31.4642 7.15384 32.1114 6.50764 32.9722 6.11319C33.445 5.89661 33.76 5.83179 34.344 5.83179C35.0364 5.83179 35.7289 6.05791 35.7289 6.28403C35.7289 6.43478 34.5088 9.65981 34.4415 9.68541C34.4088 9.69793 34.1707 9.60705 33.9124 9.4844C33.3731 9.22612 32.8682 9.0995 32.3772 9.10101C31.7662 9.10101 31.0838 9.32713 30.8145 9.61601C30.6989 9.73972 30.6984 9.74721 30.6698 11.5933C30.6416 13.4219 30.7024 15.652 30.8054 16.5489C30.8928 17.3127 31.0958 17.6891 31.5155 17.8645C31.6556 17.9217 32.541 18.0423 32.8299 18.0423C32.8521 18.0423 32.8631 18.2177 32.8551 18.4318L32.8406 18.8212L29.1221 18.8333C27.0769 18.8398 25.374 18.8262 25.3383 18.8037V18.8047Z" fill="#323334"/>
<path d="M25.2802 11.4365C25.0174 9.20642 24.0742 7.57433 22.5114 6.65576C20.7773 5.6352 18.1422 5.57591 16.27 6.51608C14.9198 7.19444 13.8143 8.50192 13.3224 10.0024C12.8164 11.552 12.8164 13.5857 13.3224 15.1675C13.647 16.1805 14.0872 16.9201 14.7661 17.5925C15.5796 18.3965 16.6454 18.9141 17.8639 19.0919C18.3001 19.1553 19.6764 19.1568 20.1252 19.0919C20.4032 19.0495 20.6786 18.9906 20.9497 18.9156C23.1582 18.2759 24.6681 16.5785 25.1837 14.149C25.3083 13.5555 25.3606 12.1173 25.2802 11.4365ZM20.7161 17.1518C20.4824 17.5996 20.0432 18.0111 19.6875 18.1171C18.3141 18.5246 17.3317 17.2167 16.9498 14.4745C16.8268 13.5887 16.8272 11.1751 16.9498 10.1621C17.2187 7.95823 17.8991 6.83868 18.9714 6.83717C19.4542 6.83717 19.7252 6.95475 20.1005 7.33514C20.9999 8.23962 21.4265 9.97122 21.4195 12.6907C21.4155 14.8615 21.201 16.2278 20.7161 17.1518Z" fill="#323334"/>
<path d="M47.7986 10.3803C47.2961 8.08589 45.8655 6.50152 43.9293 6.10104C43.6329 6.03974 43.3656 6.02717 42.7887 6.04727C41.9219 6.07742 41.325 6.20757 40.6782 6.50655C40.4632 6.60705 40.2762 6.68695 40.2617 6.68695C40.2471 6.68695 40.2491 5.37544 40.2662 3.77249C40.2903 1.51379 40.2838 0.858033 40.2371 0.858033C40.0732 0.857028 34.9413 1.83338 34.885 1.87809C34.8433 1.91125 34.8252 2.0198 34.8348 2.18411C34.8513 2.46953 34.8177 2.44692 35.4433 2.58611C35.6317 2.62831 35.8518 2.71022 35.9332 2.768C36.1417 2.91875 36.3156 3.23834 36.4357 3.70014C36.5307 4.06394 36.5433 4.32423 36.5864 6.78594C36.6311 9.2984 36.6221 11.8827 36.5532 16.6157L36.5246 18.582L36.8924 18.6653C37.4246 18.7865 38.9481 19.0402 39.4466 19.0905C40.1777 19.1648 41.8822 19.1543 42.4249 19.0728C44.7816 18.7176 46.5579 17.3509 47.386 15.254C47.6307 14.5934 47.7993 13.907 47.8885 13.2083C47.9774 12.4646 47.9292 10.9788 47.7986 10.3803ZM43.9796 13.7469C43.754 15.5022 43.1802 16.9182 42.4174 17.6046C42.1128 17.8784 41.8289 18.0237 41.4626 18.093C41.1978 18.1433 41.1184 18.1433 40.6395 18.1066C40.4386 18.091 40.3913 18.0679 40.3501 17.9599C40.2858 17.791 40.2094 11.9013 40.2406 9.54864L40.2651 7.71203L40.5983 7.61404C40.8549 7.54419 41.12 7.5112 41.3858 7.51606C41.8108 7.51606 41.8662 7.52862 42.2244 7.7055C43.0882 8.13262 43.6816 9.19338 43.956 10.8069C44.0565 11.4034 44.069 13.0324 43.9771 13.7469H43.9796Z" fill="#323334"/>
<path d="M60.1015 10.9332C59.8694 8.67498 58.9554 7.12027 57.4016 6.34191C56.0212 5.64998 53.8892 5.70023 52.3299 6.46C50.8526 7.18057 49.8355 8.38203 49.2682 10.078C48.9723 10.9614 48.8793 11.6723 48.9089 12.8175C48.928 13.5417 48.9592 13.9155 49.0361 14.2501C49.6185 16.85 51.4014 18.6178 53.8941 19.0675C54.4429 19.168 55.6891 19.168 56.2439 19.0715C57.0358 18.9328 57.9493 18.5806 58.5252 18.1917C59.2286 17.7168 59.9493 17.0028 59.9493 16.7812C59.9493 16.646 59.7075 16.335 59.6025 16.335C59.5568 16.335 59.3613 16.4355 59.1688 16.5616C58.4809 17.0058 57.8237 17.1887 56.9076 17.1887C55.6464 17.1887 54.8475 16.8741 54.0435 16.0631C53.6877 15.7038 53.541 15.5104 53.357 15.1541C52.9523 14.3716 52.7336 13.4714 52.7007 12.4537L52.6867 12.0141L56.4051 12.0015L60.1236 11.9884L60.1402 11.7371C60.1437 11.4686 60.1307 11.2002 60.1015 10.9332ZM55.473 10.8769C54.9921 10.8935 54.1746 10.9141 53.6565 10.9226L52.7144 10.9377V10.7342C52.7261 10.5153 52.7498 10.2972 52.7852 10.081C53.0993 8.05742 53.854 6.84289 54.7987 6.84189C55.668 6.84189 56.2056 8.03731 56.3147 10.2272L56.3464 10.8483L55.473 10.8769Z" fill="#323334"/>
</g>
<defs>
<clipPath id="clip0_2209_88247">
<rect width="70.3999" height="19.2" fill="white" transform="translate(0.5 0.400024)"/>
</clipPath>
</defs>
</svg>
