<svg width="54" height="30" viewBox="0 0 54 30" fill="none" xmlns="http://www.w3.org/2000/svg">
<g clip-path="url(#clip0_2209_88262)">
<path d="M9.76793 1.3744V1.92233L10.2756 2.0432C11.0813 2.23658 11.1781 2.71199 11.4923 4.20267L12.2981 8.4088L10.0338 20.6808L6.92354 5.25823C6.56901 3.5661 6.45619 2.3091 7.72932 2.03513L8.31753 1.91427V1.3744H0.952759V1.92233L1.70213 2.0996C2.4515 2.29299 2.76575 2.64752 3.27339 4.96815L8.26919 28.6176H9.55843L12.9024 10.7536L16.6089 28.6176H17.6323L22.4669 5.70141C23.0149 3.06653 23.2727 2.31716 24.1993 2.07543L24.9488 1.88204V1.3744H19.4855V1.92233L20.2913 2.08348C21.4678 2.31715 21.7498 3.06653 21.1938 6.11235L18.2527 20.6969L15.2713 5.27435C14.949 3.74337 14.7557 2.32522 16.0772 2.05125L16.9393 1.8901V1.34217L9.76793 1.3744ZM44.7707 1.44692V2.0029L45.7538 2.23658C46.6159 2.42997 46.9705 2.74422 46.9705 3.84813V22.9288C46.9705 25.0561 46.9705 27.8441 44.7707 27.8441C43.5138 27.8441 42.5307 26.7482 42.6032 25.9989C42.6838 24.7822 44.811 24.8547 44.9239 22.8886C44.9698 22.642 44.9635 22.3887 44.9057 22.1446C44.8478 21.9007 44.7395 21.6715 44.5877 21.4719C44.4358 21.2723 44.244 21.1066 44.0243 20.9857C43.8047 20.8647 43.5621 20.791 43.3123 20.7694C42.0956 20.6083 40.5968 21.6315 40.5565 23.6783C40.5565 26.3131 42.2487 28.7143 45.1978 28.7143C48.4612 28.7143 50.5965 26.5065 50.5965 22.2681V3.88842C50.5965 2.78451 50.8705 2.42997 51.6521 2.27687L52.5223 1.98679V1.43886L44.7707 1.44692ZM31.5158 1.29382C28.1718 1.29382 26.2863 4.08986 26.2863 7.74002C26.2863 14.5488 35.0612 17.1837 35.0612 23.3237C35.0612 26.2325 33.8364 27.8441 32.0718 27.8441C29.4369 27.8441 27.5514 24.6613 27.0759 19.5849H26.4878V28.5451H26.9631C27.358 27.2558 27.8656 27.1269 28.3007 27.1269C29.0501 27.1269 29.8317 28.6982 32.1121 28.6982C35.6172 28.6982 37.8975 25.6765 37.8975 21.5026C37.8975 13.316 29.1548 11.3096 29.1548 5.45161C29.1548 4.11403 29.5497 2.14795 31.5158 2.14795C34.3521 2.14795 35.5447 5.87868 36.0442 10.4071H36.6324V1.43886H36.1651C35.9636 2.30104 35.6091 2.69587 35.1014 2.69587C34.191 2.69587 33.7316 1.28577 31.556 1.28577L31.5158 1.29382ZM37.8491 9.01314V9.10983V9.02926V9.01314Z" fill="#323334"/>
</g>
<defs>
<clipPath id="clip0_2209_88262">
<rect width="52.1142" height="28.3428" fill="white" transform="translate(0.917236 0.828613)"/>
</clipPath>
</defs>
</svg>
