<svg width="43" height="32" viewBox="0 0 43 32" fill="none" xmlns="http://www.w3.org/2000/svg">
<g clip-path="url(#clip0_2209_88266)">
<path d="M6.44783 6.41508C4.81044 7.89751 4.21396 11.2565 7.16595 13.2202L18.9441 21.3002L13.2325 8.21739C12.036 5.13031 8.76241 4.45723 6.449 6.41508" fill="#323334"/>
<path d="M16.5874 0.0545484C14.6728 0.0937288 11.798 2.37321 13.0787 5.85443L18.985 19.7828L21.0604 5.13281C21.5411 1.49253 18.7862 -0.188721 16.5891 0.0545484" fill="#323334"/>
<path d="M21.9773 4.57359H23.0948C23.0948 4.57359 23.6913 4.57359 23.7725 4.85487C23.3328 5.21393 22.1352 5.25896 22.2954 7.17588L24.1732 19.7808L30.0385 5.81567C31.238 2.69702 28.7193 0.09298 26.4866 0.01345C26.3825 0.00643259 26.2778 0 26.169 0C24.1638 0 21.8662 1.45728 21.9784 4.57359" fill="#323334"/>
<path d="M29.8008 8.33624L24.2531 21.26L36.0265 13.1373C38.7404 11.2122 38.3031 8.13507 36.7867 6.61346C36.1499 5.89769 34.9803 5.34448 33.7418 5.34448C32.2797 5.34448 30.7119 6.12049 29.8038 8.33449" fill="#323334"/>
<path d="M34.7099 14.9776L23.6533 22.7014H37.2671C40.0601 22.7014 41.8554 19.8213 41.0571 17.1787C40.5221 15.5173 38.9431 14.2138 37.1063 14.2115C36.3338 14.2115 35.5145 14.4454 34.7087 14.9782" fill="#323334"/>
<path d="M6.12848 22.7015H19.5417L8.48225 14.9776C5.92732 13.3367 3.05427 14.2969 2.01687 17.0243C1.13969 20.1431 3.33322 22.7044 6.12848 22.7044" fill="#323334"/>
<path d="M1.09253 28.2907C1.09253 29.6059 2.16795 32.0001 6.27313 32.0001C10.0591 32.0001 11.2543 30.2632 11.2543 29.4668H8.32397C8.32397 29.4668 8.18479 30.5194 6.5316 30.5194C4.87842 30.5194 4.42989 29.1381 4.42989 28.3399C4.42989 27.5417 4.87725 26.2382 6.5316 26.2382C8.18597 26.2382 8.32397 27.1545 8.32397 27.1545H11.2543C11.2543 26.3569 10.3771 24.6447 6.27313 24.6447C2.16912 24.6447 1.09253 27.1943 1.09253 28.2907Z" fill="#323334"/>
<path d="M31.8247 28.2907C31.8247 29.6059 32.9007 32.0001 37.0053 32.0001C40.7906 32.0001 41.9865 30.2632 41.9865 29.4668H39.0585C39.0585 29.4668 38.9187 30.5194 37.265 30.5194C35.6112 30.5194 35.1597 29.1387 35.1597 28.3405C35.1597 27.5422 35.6077 26.2387 37.265 26.2387C38.9222 26.2387 39.0585 27.1545 39.0585 27.1545H41.9871C41.9871 26.3569 41.1099 24.6447 37.0059 24.6447C32.9019 24.6447 31.8253 27.1943 31.8253 28.2907" fill="#323334"/>
<path d="M19.2646 24.7675V29.2199L15.8542 24.7675H12.0175V31.8199H14.6478V27.3159L17.9986 31.8199H21.895V24.7675H19.2646Z" fill="#323334"/>
<path d="M27.6918 30.1351V30.1444H25.5V28.8491H27.6918V28.8532C28.1596 28.8532 28.5374 29.1409 28.5374 29.4964C28.5374 29.852 28.1596 30.1351 27.6918 30.1351ZM25.5199 26.1392H27.6315V26.1421C27.9895 26.1421 28.2795 26.3761 28.2795 26.6685C28.2795 26.9609 27.9871 27.1947 27.6315 27.1947V27.1977H25.5199V26.1392ZM29.8438 28.069C30.3227 28.069 31.3239 27.5134 31.3239 26.4362C31.3239 24.903 28.4684 24.7661 28.0303 24.7661H22.7673V31.8192H28.0303C30.5607 31.8192 31.5771 31.0198 31.5771 29.6848C31.5771 28.3497 29.8438 28.0702 29.8438 28.0702V28.069Z" fill="#323334"/>
</g>
<defs>
<clipPath id="clip0_2209_88266">
<rect width="42.0571" height="32" fill="white" transform="translate(0.442871)"/>
</clipPath>
</defs>
</svg>
