<svg width="17" height="16" viewBox="0 0 17 16" fill="none" xmlns="http://www.w3.org/2000/svg">
<path d="M8.50077 14.5C9.2341 14.5 9.8341 13.9 9.8341 13.1667H7.16743C7.16743 13.9 7.76077 14.5 8.50077 14.5ZM12.5008 10.5V7.16667C12.5008 5.12 11.4074 3.40667 9.50077 2.95333V2.5C9.50077 1.94667 9.0541 1.5 8.50077 1.5C7.94743 1.5 7.50077 1.94667 7.50077 2.5V2.95333C5.58743 3.40667 4.50077 5.11333 4.50077 7.16667V10.5L3.64077 11.36C3.22077 11.78 3.5141 12.5 4.10743 12.5H12.8874C13.4808 12.5 13.7808 11.78 13.3608 11.36L12.5008 10.5Z" fill="black"/>
</svg>
