<svg width="16" height="16" viewBox="0 0 16 16" fill="none" xmlns="http://www.w3.org/2000/svg">
<path d="M8.00004 7.26659C7.59337 7.26659 7.26671 7.59325 7.26671 7.99992C7.26671 8.40659 7.59337 8.73325 8.00004 8.73325C8.40671 8.73325 8.73337 8.40659 8.73337 7.99992C8.73337 7.59325 8.40671 7.26659 8.00004 7.26659ZM8.00004 1.33325C4.32004 1.33325 1.33337 4.31992 1.33337 7.99992C1.33337 11.6799 4.32004 14.6666 8.00004 14.6666C11.68 14.6666 14.6667 11.6799 14.6667 7.99992C14.6667 4.31992 11.68 1.33325 8.00004 1.33325ZM9.46004 9.45992L4.00004 11.9999L6.54004 6.53992L12 3.99992L9.46004 9.45992Z" fill="black"/>
</svg>
