<svg width="14" height="14" viewBox="0 0 14 14" fill="none" xmlns="http://www.w3.org/2000/svg">
<path d="M13.3333 7.00016C13.3333 3.32016 10.3467 0.333496 6.66667 0.333496C2.98667 0.333496 0 3.32016 0 7.00016C0 10.6802 2.98667 13.6668 6.66667 13.6668C10.3467 13.6668 13.3333 10.6802 13.3333 7.00016ZM6.66667 8.86016V7.66683H4.66667C4.3 7.66683 4 7.36683 4 7.00016C4 6.6335 4.3 6.3335 4.66667 6.3335H6.66667V5.14016C6.66667 4.84016 7.02667 4.6935 7.23333 4.90683L9.09333 6.76683C9.22667 6.90016 9.22667 7.10683 9.09333 7.24016L7.23333 9.10016C7.02667 9.30683 6.66667 9.16016 6.66667 8.86016Z" fill="white"/>
</svg>
