<svg width="61" height="18" viewBox="0 0 61 18" fill="none" xmlns="http://www.w3.org/2000/svg">
<path d="M4.74219 17.2344C3.875 17.2344 3.08203 17.0156 2.36328 16.5781C1.65234 16.1406 1.08594 15.5547 0.664062 14.8203C0.25 14.0781 0.0429688 13.2539 0.0429688 12.3477L0.0664062 4.85938C0.0664062 3.96875 0.269531 3.16406 0.675781 2.44531C1.08203 1.71875 1.64062 1.13672 2.35156 0.699219C3.07031 0.253906 3.86719 0.03125 4.74219 0.03125C5.63281 0.03125 6.42578 0.246094 7.12109 0.675781C7.82422 1.10547 8.38281 1.6875 8.79688 2.42188C9.21875 3.14844 9.42969 3.96094 9.42969 4.85938V5.96094C9.42969 6.02344 9.39844 6.05469 9.33594 6.05469H6.64062C6.57812 6.05469 6.54688 6.02344 6.54688 5.96094V4.85938C6.54688 4.32813 6.375 3.87109 6.03125 3.48828C5.6875 3.10547 5.25781 2.91406 4.74219 2.91406C4.17188 2.91406 3.73438 3.10938 3.42969 3.5C3.125 3.89062 2.97266 4.34375 2.97266 4.85938V12.3477C2.97266 12.9336 3.14453 13.4141 3.48828 13.7891C3.83203 14.1562 4.25 14.3398 4.74219 14.3398C5.25781 14.3398 5.6875 14.1367 6.03125 13.7305C6.375 13.3164 6.54688 12.8555 6.54688 12.3477V11.2344C6.54688 11.1719 6.57812 11.1406 6.64062 11.1406H9.35938C9.42188 11.1406 9.45312 11.1719 9.45312 11.2344V12.3477C9.45312 13.2461 9.24219 14.0664 8.82031 14.8086C8.39062 15.543 7.82422 16.1328 7.12109 16.5781C6.41797 17.0156 5.625 17.2344 4.74219 17.2344ZM15.1606 17.2344C14.3091 17.2344 13.5239 17.0156 12.8052 16.5781C12.0942 16.1406 11.52 15.5586 11.0825 14.832C10.6528 14.0977 10.438 13.293 10.438 12.418L10.4614 4.8125C10.4614 3.92188 10.6763 3.12109 11.1059 2.41016C11.5278 1.69141 12.0981 1.11719 12.8169 0.6875C13.5356 0.25 14.3169 0.03125 15.1606 0.03125C16.0356 0.03125 16.8208 0.246094 17.5161 0.675781C18.2192 1.10547 18.7817 1.68359 19.2036 2.41016C19.6333 3.12891 19.8481 3.92969 19.8481 4.8125L19.8716 12.418C19.8716 13.293 19.6606 14.0938 19.2388 14.8203C18.8091 15.5547 18.2388 16.1406 17.5278 16.5781C16.8169 17.0156 16.0278 17.2344 15.1606 17.2344ZM15.1606 14.3398C15.645 14.3398 16.0669 14.1445 16.4263 13.7539C16.7856 13.3555 16.9653 12.9102 16.9653 12.418L16.9419 4.8125C16.9419 4.28125 16.7739 3.83203 16.438 3.46484C16.102 3.09766 15.6763 2.91406 15.1606 2.91406C14.6684 2.91406 14.2466 3.09375 13.895 3.45312C13.5434 3.8125 13.3677 4.26562 13.3677 4.8125V12.418C13.3677 12.9414 13.5434 13.3945 13.895 13.7773C14.2466 14.1523 14.6684 14.3398 15.1606 14.3398ZM23.8213 17H21.4189C21.2939 17 21.2314 16.9453 21.2314 16.8359L21.208 0.488281C21.208 0.363281 21.2705 0.300781 21.3955 0.300781H23.5634L27.6181 9.75781L27.5009 0.488281C27.5009 0.363281 27.5713 0.300781 27.7119 0.300781H30.0908C30.1845 0.300781 30.2314 0.363281 30.2314 0.488281L30.2548 16.8594C30.2548 16.9531 30.2158 17 30.1377 17H28.0283L23.8681 8.16406L24.0439 16.8125C24.0439 16.9375 23.9697 17 23.8213 17ZM34.6733 17H31.978C31.8998 17 31.8608 16.9609 31.8608 16.8828L31.9077 0.394531C31.9077 0.332031 31.9389 0.300781 32.0014 0.300781H39.6889C39.767 0.300781 39.8061 0.332031 39.8061 0.394531V3.10156C39.8061 3.16406 39.7748 3.19531 39.7123 3.19531H34.7905V6.92188H39.7123C39.7748 6.92188 39.8061 6.96094 39.8061 7.03906L39.8295 9.75781C39.8295 9.82031 39.7905 9.85156 39.7123 9.85156H34.7905V16.8828C34.7905 16.9609 34.7514 17 34.6733 17ZM40.6738 16.8828L43.6503 0.394531C43.6659 0.332031 43.705 0.300781 43.7675 0.300781H47.248C47.3105 0.300781 47.3495 0.332031 47.3652 0.394531L50.2245 16.8828C50.2323 16.9609 50.2011 17 50.1308 17H47.4706C47.3925 17 47.3495 16.9609 47.3417 16.8828L47.0839 15.125H43.8144L43.5566 16.8828C43.5488 16.9609 43.5097 17 43.4394 17H40.7675C40.705 17 40.6738 16.9609 40.6738 16.8828ZM45.373 5.82031L44.2948 12.5586H46.6034L45.6191 5.82031L45.4784 4.92969L45.373 5.82031ZM55.6391 17H51.3383C51.2758 17 51.2445 16.9609 51.2445 16.8828L51.2914 0.394531C51.2914 0.332031 51.3227 0.300781 51.3852 0.300781H56.0023C56.9008 0.300781 57.7172 0.519531 58.4516 0.957031C59.1703 1.39453 59.7367 1.97656 60.1508 2.70312C60.5648 3.42187 60.7719 4.20312 60.7719 5.04688C60.7719 5.73438 60.6156 6.375 60.3031 6.96875C59.9906 7.5625 59.6195 8.04297 59.1898 8.41016C59.6508 8.87109 60.0102 9.40625 60.268 10.0156C60.5258 10.625 60.6547 11.2656 60.6547 11.9375C60.6547 12.8672 60.432 13.7148 59.9867 14.4805C59.5336 15.2461 58.9281 15.8594 58.1703 16.3203C57.4125 16.7734 56.5687 17 55.6391 17ZM56.0023 3.14844H54.1742V6.92188H56.0023C56.557 6.92188 57.0062 6.72656 57.35 6.33594C57.6937 5.9375 57.8656 5.50781 57.8656 5.04688C57.8656 4.53906 57.682 4.09766 57.3148 3.72266C56.9477 3.33984 56.5102 3.14844 56.0023 3.14844ZM55.6391 9.82812H54.1742L54.1508 14.0703H55.6391C56.2172 14.0703 56.7133 13.8594 57.1273 13.4375C57.5414 13.0156 57.7484 12.5156 57.7484 11.9375C57.7484 11.3594 57.5414 10.8633 57.1273 10.4492C56.7133 10.0352 56.2172 9.82812 55.6391 9.82812Z" fill="#4E4F51"/>
</svg>
