<svg width="48" height="48" viewBox="0 0 48 48" fill="none" xmlns="http://www.w3.org/2000/svg">
<g clip-path="url(#clip0_2218_69485)">
<path fill-rule="evenodd" clip-rule="evenodd" d="M40.2876 39.4196C39.7966 37.5015 39.345 36.6882 38.4727 36.0214C37.6567 35.3978 36.4657 34.8741 34.7278 34.4915C32.9177 34.1727 32.8663 33.2252 32.4125 31.7023C32.2801 31.2445 31.6239 31.1227 31.3408 31.4527C31.3008 31.4093 31.2592 31.3696 31.2161 31.3336C31.2547 31.1153 30.939 30.4895 30.9496 30.2806C31.0597 28.1007 30.3517 27.0059 28.5846 26.599C28.2003 26.5105 25.59 26.4584 25.2153 26.5627C23.5773 27.0188 21.9647 28.467 22.2115 30.2116C21.6973 30.8884 21.194 31.3015 20.4007 31.5195C18.6353 31.7453 16.87 31.946 15.1042 32.1179C11.6475 32.6639 8.40653 34.5067 6.19143 37.1941C5.98713 37.4422 5.9281 37.7789 6.10842 38.0435C5.96717 38.6528 5.17206 40.1308 5.79768 40.5486C4.76889 43.0267 2.40181 47.8165 2.39737 49.1849C2.37871 54.9336 2.99529 62.4163 8.62779 65.5976C8.8533 65.8209 8.88557 66.0679 8.98321 66.4002C9.23084 67.4467 10.1302 68.1947 11.1145 68.1336C15.9635 68.2422 20.6601 67.6464 25.5093 67.6175C27.6477 67.6048 30.2195 67.9262 32.0771 68.1404C33.9348 68.3546 35.81 68.1651 37.5928 67.6175C37.7431 67.8559 38.047 67.9947 38.3553 67.9262C40.2034 67.5564 41.6979 66.4094 42.9996 65.1558C43.3974 64.427 44.9508 62.3506 44.3333 61.6278C44.893 59.2447 44.864 56.684 43.8693 54.4147C44.0103 53.9987 43.7533 53.5416 43.8693 53.112C43.9532 52.8011 44.1682 52.6726 44.2764 52.3648C44.4287 51.9316 44.2631 51.3505 44.0917 50.9085C44.0214 50.6882 44.221 50.451 44.2764 50.2262C44.5395 49.166 43.9372 49.2594 43.5029 48.5506C43.5094 48.5484 43.6223 48.0424 43.6218 48.0449C43.6883 47.6836 43.5217 47.2208 43.3764 46.9192C43.2782 46.7154 43.0679 46.5879 42.8589 46.6112C43.0693 45.8916 43.3355 45.2927 43.6218 44.5994C44.128 43.3772 44.7689 42.2069 45.4958 41.1006C45.7935 40.6476 45.3937 40.1228 44.9119 40.0919C43.3526 39.9921 41.8104 39.766 40.2876 39.4196Z" fill="white"/>
<path fill-rule="evenodd" clip-rule="evenodd" d="M35.737 48.6621C35.1133 48.4158 34.4418 48.2796 33.7669 48.2268C34.1302 48.1627 34.4947 48.1008 34.8621 48.069C35.1184 48.0469 35.3561 48.0492 35.5488 48.245C35.6773 48.3755 35.7376 48.5435 35.8221 48.6978C35.7945 48.6854 35.7657 48.6734 35.737 48.6621ZM42.4311 46.3591C41.4097 46.4114 40.3871 46.656 39.4632 47.0992C39.0852 47.2808 38.7426 47.543 38.6424 47.9743C38.5917 48.1945 38.604 48.4221 38.631 48.6446C38.6514 48.8131 38.6564 49.0281 38.8018 49.1422C38.8266 49.1615 38.8531 49.1763 38.8807 49.187C38.5398 49.342 38.2153 49.5282 37.9268 49.7199C37.6632 49.8953 37.3922 50.1654 37.2705 50.4702C37.2604 50.4356 37.2502 50.4033 37.2401 50.3726C37.0328 49.7552 36.7133 49.2495 36.2102 48.9095C36.2993 48.8693 36.3607 48.7739 36.3319 48.6423C36.2125 48.0923 35.7082 47.6145 35.1387 47.6485C34.515 47.6854 33.8452 47.9141 33.2812 48.203C33.0756 48.1984 32.8705 48.2013 32.6677 48.2104C32.6328 48.2115 32.6345 48.2592 32.6677 48.2631C32.8322 48.2842 32.9967 48.3074 33.1612 48.3346C33.5522 48.3977 33.9421 48.4777 34.3234 48.577C34.7809 48.6962 35.2542 48.8159 35.6818 49.0242C36.511 49.4289 37.0243 50.4867 36.919 51.4072C36.9015 51.5581 36.8435 52.0144 36.6355 51.9673C36.4598 51.9276 36.39 51.5581 36.3286 51.4214C36.164 51.0581 35.8677 50.8209 35.5122 50.6603C35.0948 50.4713 34.648 50.3436 34.2153 50.195C33.9702 50.1104 33.7252 50.0258 33.4795 49.9418C33.2283 49.8551 32.9894 49.7353 32.7218 49.796C32.5601 49.8329 32.5415 50.027 32.6322 50.1383C32.7702 50.3079 32.9753 50.3578 33.1742 50.4276C33.4367 50.5196 33.6987 50.6116 33.9607 50.7034C34.3657 50.8453 34.79 50.9651 35.1848 51.1387L35.1725 51.1671C35.1403 51.158 35.1026 51.1904 35.1088 51.2301C35.168 51.5973 35.2502 52.0218 35.1589 52.3896C35.0869 52.6812 34.8327 53.0042 34.5026 52.9185C34.5545 52.8708 34.5736 52.7885 34.5387 52.7124C34.4079 52.431 32.6953 51.3198 32.5426 51.7324C32.5376 51.7471 32.5533 51.7579 32.5657 51.7557C32.6959 51.7284 32.9139 51.952 33.0181 52.0229C33.1685 52.1251 33.3212 52.225 33.47 52.3299C33.6328 52.4446 33.7917 52.565 33.9466 52.6892C34.0683 52.7868 34.1601 52.8884 34.2998 52.9378C34.2266 52.9729 34.1685 53.0382 34.1438 53.1216C34.0807 53.339 33.959 53.5234 33.7477 53.6194C33.5263 53.7192 33.2767 53.6562 33.0435 53.6807C32.7257 53.713 32.4486 53.8651 32.217 54.0825C31.7308 54.5398 31.4869 55.3458 30.8069 55.5619C30.4007 55.6908 29.95 55.6096 29.5387 55.5512C29.0795 55.4859 28.6322 55.4342 28.1697 55.5024C27.7269 55.5677 27.3083 55.722 26.9038 55.9104C26.5246 56.0869 26.1055 56.2867 25.7691 56.55C25.6998 56.3349 25.63 56.1221 25.5769 55.9024C25.4519 55.3832 25.3843 54.8542 25.3679 54.3208C25.3528 53.8129 25.3809 53.3027 25.4243 52.797C25.4457 52.5445 25.4795 52.2931 25.5009 52.0405C25.5065 51.9769 25.5179 51.9088 25.5263 51.8408C26.1269 51.4838 26.7578 51.2103 27.3939 50.9288C27.3956 50.9282 27.3973 50.927 27.399 50.9265C27.4187 50.9174 27.4379 50.9089 27.4576 50.9004C27.457 50.8992 27.4564 50.8982 27.4553 50.897C27.528 50.8522 27.5787 50.7925 27.6091 50.7256C28.5257 50.1132 29.2919 49.2773 29.8632 48.3023C30.1026 47.8937 30.3331 47.4697 30.6463 47.1117C30.9798 46.7297 31.3759 46.5027 31.866 46.3847C32.439 46.2462 33.0294 46.1633 33.6164 46.1162C33.937 46.0907 34.2953 46.051 34.6446 46.0527C34.888 46.0544 35.1262 46.0754 35.3449 46.1361C35.6688 46.2258 35.8581 46.4738 36.0615 46.7246C36.2559 46.9653 36.4491 47.2065 36.6305 47.4573C36.8023 47.6951 36.9646 47.9408 37.1055 48.1984C37.19 48.3528 37.2683 48.5118 37.3342 48.6757C37.3573 48.7337 37.3877 48.7994 37.4018 48.8596C37.4159 48.9203 37.39 48.9845 37.4576 48.9845C37.1787 48.9884 37.1815 49.4373 37.4587 49.4209C38.5438 49.3573 36.9894 47.2235 36.7623 46.9261C36.4406 46.505 36.1088 45.9556 35.5939 45.7598C35.5866 45.757 35.5787 45.7542 35.5714 45.7519C35.7212 45.6089 35.8395 45.4375 35.9528 45.2632C36.0694 45.0839 36.2085 44.8785 36.2469 44.6657C36.2711 44.5301 36.1038 44.4528 36.0243 44.5714C35.9088 44.7445 35.8531 44.9636 35.7669 45.1538C35.679 45.3467 35.5719 45.5288 35.4874 45.7235C35.284 45.6605 35.0643 45.6316 34.8407 45.622C35.1229 45.2372 35.6051 44.4948 35.6632 44.3995C35.9302 43.958 36.1843 43.5029 36.4271 43.0471C36.6896 42.5534 36.9145 42.0392 37.1657 41.5398C37.3083 41.2567 37.4519 40.9711 37.6102 40.6965C37.6649 40.6023 37.7235 40.508 37.79 40.4223C37.8029 40.4054 37.8193 40.3912 37.8345 40.3752C37.8519 40.3656 37.87 40.3548 37.8801 40.3492C37.9713 40.2964 38.0035 40.1738 38.0677 40.096C38.1702 39.9707 38.2908 39.9559 38.4452 39.9541C38.7741 39.9507 39.1043 39.9638 39.4328 39.9729C39.9156 39.9865 40.3979 40.0058 40.8801 40.0313C41.026 40.0393 41.1714 40.0472 41.3173 40.0563C42.0187 40.0984 42.7195 40.1533 43.4187 40.2209C44.0373 40.2805 44.6559 40.3776 45.275 40.4241C44.4367 42.4303 43.5071 44.4001 42.4547 46.3013C42.444 46.3205 42.4361 46.3398 42.4311 46.3591ZM37.7798 51.5275C37.6446 51.59 37.5133 51.6677 37.3911 51.7562C37.4114 51.6183 37.4164 51.473 37.4108 51.3271C37.5117 51.4361 37.6407 51.4985 37.7798 51.5275ZM43.5517 48.0765C43.5421 48.0776 43.5331 48.0827 43.5286 48.0923C43.3415 48.4811 43.4198 48.9152 43.7252 49.22C43.8852 49.3789 44.2339 49.5582 44.2226 49.8193C44.213 50.0304 43.9849 50.2074 43.8874 50.3817C43.7967 50.544 43.7629 50.7222 43.8356 50.8982C43.9286 51.1234 44.1883 51.2131 44.2773 51.4345C44.39 51.7153 44.2069 52.0542 44.0784 52.2987C43.959 52.5252 43.8046 52.7516 43.7021 52.9911C43.0153 53.3493 42.4007 53.8986 41.8722 54.4565C41.2936 55.0666 40.7973 55.7844 39.8784 55.7663C39.7866 55.7645 39.7167 55.8134 39.675 55.8809C39.4193 55.8928 39.1629 55.8979 38.9071 55.8991C38.4576 55.9013 38.008 55.8968 37.559 55.8826C37.5274 55.7731 37.5505 55.6244 37.5488 55.5319C37.5432 55.2339 37.5404 54.9365 37.528 54.6386C37.5246 54.5558 37.5212 54.4723 37.5178 54.3895C37.6795 54.684 37.995 54.8179 38.3545 54.7975C38.9325 54.7635 39.5139 54.6681 40.0862 54.5824C40.3877 54.5376 40.6886 54.4865 40.9888 54.432C41.2356 54.3878 41.5838 54.3992 41.7562 54.1999C41.7967 54.1534 41.799 54.0683 41.7353 54.037C41.5646 53.9525 41.457 53.9996 41.2693 54.0359C41.0407 54.0807 40.8114 54.1233 40.5815 54.1631C40.1403 54.2402 39.6981 54.3117 39.2548 54.3747C39.0024 54.4105 38.7494 54.4456 38.4964 54.4734C38.2756 54.4973 38.0266 54.5296 37.8486 54.3623C37.4897 54.024 37.6908 53.457 37.9178 53.1154C37.9224 53.1086 37.9224 53.1023 37.9207 53.0967C38.1348 53.0461 38.3483 52.9871 38.5612 52.9457C38.9708 52.8662 39.3832 52.7993 39.7962 52.7397C40.6446 52.6177 41.4987 52.5371 42.3516 52.456C42.5629 52.4355 42.5651 52.1007 42.3516 52.1206C41.1262 52.2335 39.8948 52.3407 38.6857 52.5786C38.3826 52.6375 38.0817 52.7045 37.7826 52.78C37.6412 52.8152 37.4897 52.8703 37.3415 52.872C37.3325 52.872 37.3234 52.872 37.3145 52.8714C37.0243 52.8623 36.9821 52.6121 37.1415 52.4038C37.1612 52.3782 37.1815 52.3526 37.2024 52.3283C37.484 51.99 37.835 51.7641 38.1967 51.5303C38.6018 51.4747 39.0057 51.351 39.4024 51.2602C40.3815 51.0354 41.3607 50.8107 42.3404 50.5865C42.5324 50.5423 42.4508 50.2449 42.2587 50.2886C41.515 50.4583 40.7714 50.628 40.0277 50.7977L38.9393 51.0463C38.7218 51.0956 38.4502 51.1949 38.1944 51.2307C38.0683 51.2483 37.946 51.2505 37.8356 51.2245C37.479 51.1394 37.4609 50.6904 37.6148 50.4237C37.7871 50.1241 38.1128 49.9367 38.4018 49.767C38.9026 49.4725 39.4356 49.2608 39.9562 49.0168C40.0486 48.9964 40.1409 48.9759 40.2333 48.9555C40.7708 48.8363 41.3849 48.7779 41.8908 48.5594C42.0424 48.4947 41.9595 48.2541 41.8097 48.2575C41.417 48.266 41.0063 48.4067 40.6226 48.4901C40.2074 48.5809 39.7917 48.6712 39.3764 48.7614C39.3348 48.7705 39.088 48.8499 39.0508 48.8323C39.0271 48.821 39.0187 48.7382 39.0108 48.6837C38.9854 48.5043 38.9669 48.316 38.9945 48.136C39.0553 47.7325 39.3894 47.543 39.7274 47.388C40.4801 47.0435 41.3055 46.8279 42.1269 46.7416C42.3162 46.7218 42.5055 46.7093 42.6959 46.703C42.9195 46.6962 43.1038 46.6565 43.217 46.8784C43.395 47.228 43.4931 47.6775 43.5517 48.0765ZM42.5064 60.7516C42.3424 60.1802 42.387 59.5701 42.2746 58.9873C42.2167 58.6867 42.1375 58.3884 42.0511 58.0949C41.9813 57.8578 41.865 57.6056 41.8518 57.3581C41.851 57.3416 41.8704 57.3321 41.8836 57.3397C42.115 57.4732 42.2927 57.7617 42.4247 57.9882C42.5826 58.2592 42.7033 58.5429 42.8006 58.8413C42.9945 59.4356 43.1537 60.1526 42.9036 60.7516C42.8292 60.9299 42.5678 60.9656 42.5064 60.7516ZM37.4378 53.1835C37.5764 53.1699 37.715 53.1432 37.8536 53.112C37.6987 53.2641 37.5556 53.4474 37.4761 53.6506C37.4638 53.4945 37.4479 53.339 37.4271 53.1841C37.4305 53.1841 37.4345 53.1841 37.4378 53.1835ZM36.1059 65.0769C35.8615 64.9052 35.6834 64.665 35.4762 64.453C35.2723 64.2446 35.591 63.9235 35.7949 64.132C35.9717 64.3128 36.1252 64.5387 36.3333 64.6849C36.4335 64.7552 36.4799 64.8824 36.4142 64.9955C36.3562 65.0953 36.2058 65.1471 36.1059 65.0769ZM34.743 58.4741C35.1891 58.2798 35.6279 58.0681 36.0948 57.9282C36.3738 57.8445 36.492 58.2828 36.2146 58.3659C35.7846 58.4949 35.3813 58.6872 34.9705 58.8661C34.7067 58.9809 34.4775 58.5897 34.743 58.4741ZM30.0314 58.3381C29.9223 58.0669 30.3585 57.9501 30.466 58.2175C30.5898 58.5252 30.7317 58.825 30.8554 59.1327C30.9644 59.4038 30.5283 59.5207 30.4208 59.2534C30.2971 58.9457 30.1551 58.6459 30.0314 58.3381ZM25.381 63.7533C25.3083 63.8509 25.1871 63.9038 25.0727 63.8348C24.9768 63.7769 24.9182 63.623 24.9918 63.5242C25.2066 63.2358 25.4243 62.9508 25.676 62.6937C25.8802 62.4852 26.1987 62.8065 25.9948 63.0147C25.7699 63.2443 25.5729 63.4957 25.381 63.7533ZM24.716 33.369C24.9229 33.5114 25.1042 33.6843 25.2809 33.8622C25.4864 34.0691 25.1676 34.3901 24.9621 34.1832C24.8132 34.0333 24.663 33.8811 24.4886 33.7611C24.3878 33.6917 24.3425 33.5627 24.4077 33.4505C24.4661 33.3499 24.6155 33.2999 24.716 33.369ZM31.4817 40.6751C31.3648 40.911 31.2595 41.1422 31.2528 41.4104C31.2457 41.7025 30.795 41.7027 30.8022 41.4104C30.8108 41.0595 30.9393 40.7552 31.0926 40.4459C31.2222 40.1841 31.6109 40.4143 31.4817 40.6751ZM33.9641 34.8074C34.2064 34.6447 34.4318 35.0381 34.1917 35.1994C33.9969 35.3301 33.8022 35.4609 33.6075 35.5917C33.3653 35.7543 33.1399 35.3609 33.38 35.1996C33.5747 35.0689 33.7694 34.9381 33.9641 34.8074ZM23.1971 45.0665C23.1557 45.355 22.7215 45.2316 22.7624 44.9458C22.8258 44.5042 22.9031 44.0684 23.0221 43.6382C23.0999 43.3567 23.5346 43.4771 23.4567 43.7589C23.3377 44.1891 23.2604 44.6249 23.1971 45.0665ZM21.6168 50.2672C21.3268 50.261 21.3267 49.807 21.6168 49.8132C21.8794 49.8188 22.1375 49.8884 22.3907 49.9521C22.6724 50.0229 22.5523 50.4607 22.2709 50.3898C22.0568 50.336 21.8388 50.272 21.6168 50.2672ZM21.0335 60.7435C20.9339 60.7924 20.8316 60.8364 20.7309 60.8828C20.5291 60.9757 20.3275 61.0687 20.1259 61.1619C19.706 61.3562 19.2862 61.551 18.8669 61.7465C18.0275 62.1379 17.1816 62.5155 16.3401 62.9027C15.482 63.2976 14.6262 63.6977 13.7714 64.0998C13.3687 64.2892 12.963 64.4716 12.558 64.6561C12.2118 64.8138 11.7838 65.0894 11.4037 65.1153C11.3841 65.1167 11.3776 65.0918 11.3887 65.079C11.5323 64.9145 11.7614 64.8188 11.9501 64.7119C12.1429 64.6026 12.3393 64.4998 12.5348 64.3955C12.9424 64.178 13.3504 63.9622 13.7619 63.7524C14.585 63.3328 15.4097 62.9163 16.2345 62.5002C17.0758 62.0759 17.9159 61.6487 18.7646 61.2395C19.1641 61.0467 19.564 60.8546 19.9642 60.6631C20.181 60.5594 20.3979 60.4558 20.6148 60.3524C20.7085 60.3077 20.8012 60.2595 20.897 60.2196C21.0243 60.1665 21.121 60.1774 21.2523 60.1447C21.4664 60.0914 21.559 60.3657 21.3947 60.4851C21.2594 60.5834 21.1882 60.6675 21.0335 60.7435ZM18.0247 65.3989C17.9784 65.2857 18.0753 65.148 18.1821 65.1196C18.31 65.0857 18.4126 65.164 18.4593 65.2782C18.5829 65.581 18.7589 65.8588 18.9854 66.0934C19.1879 66.303 18.8693 66.6242 18.6667 66.4144C18.3828 66.1203 18.1789 65.7766 18.0247 65.3989ZM15.8111 58.1114C15.6056 57.9045 15.9244 57.5835 16.1298 57.7904L16.7139 58.3787C16.9194 58.5857 16.6006 58.9067 16.3952 58.6998L15.8111 58.1114ZM9.81841 57.1521C9.39847 57.2762 8.90867 57.3902 8.62236 57.7511C8.60839 57.7688 8.58489 57.7461 8.59329 57.7285C8.95982 56.9631 10.011 56.6946 10.7388 56.4264C11.2535 56.2367 11.7817 56.0794 12.3143 55.9389C12.2611 55.3268 12.4079 54.6708 12.4589 54.0618C12.5134 53.4115 12.5577 52.7596 12.5805 52.1072C12.6038 51.4418 12.6094 50.7719 12.5877 50.1064C12.566 49.4432 12.4806 48.7882 12.4431 48.1273C12.4395 48.0634 12.5279 48.0603 12.5469 48.1131C12.7681 48.7265 12.8626 49.4058 12.9346 50.0525C13.0087 50.7187 13.0333 51.383 13.0239 52.0531C13.0141 52.742 12.9743 53.4293 12.9197 54.1161C12.8939 54.4416 12.8638 54.7667 12.8355 55.092C12.8139 55.3402 12.8038 55.5865 12.7536 55.8268C13.0748 55.7474 13.3968 55.6723 13.7177 55.5992C14.7412 55.3666 15.7689 55.1507 16.788 54.8991C17.2883 54.7757 17.7815 54.6278 18.2795 54.4965C18.7484 54.3728 19.2434 54.2229 19.7249 54.1677C19.8967 54.148 19.9186 54.3847 19.8048 54.4651C19.4135 54.7419 18.8938 54.9346 18.4418 55.0895C17.9882 55.245 17.5166 55.3568 17.0517 55.472C16.082 55.7122 15.1032 55.9086 14.1259 56.1132C13.1499 56.3176 12.172 56.5204 11.207 56.7726C10.7422 56.894 10.2791 57.0159 9.81841 57.1521ZM7.51718 45.006C7.26625 45.1544 7.03971 44.7619 7.28974 44.614C7.61689 44.4205 7.96557 44.2752 8.31706 44.1334C8.58681 44.0247 8.70287 44.464 8.43689 44.5713C8.12101 44.6986 7.81115 44.8322 7.51718 45.006ZM6.60856 61.8734C6.35695 62.0204 6.13025 61.6279 6.38112 61.4814C6.73346 61.2757 7.11932 61.1384 7.48444 60.9584C7.74422 60.8302 7.97239 61.222 7.71188 61.3504C7.34681 61.5304 6.96089 61.6677 6.60856 61.8734ZM6.19988 52.2987C6.44315 52.5315 6.76782 52.6411 7.07396 52.7634C7.34089 52.8699 7.22382 53.3088 6.95413 53.2011C6.57272 53.0488 6.18422 52.9097 5.88118 52.6197C5.67036 52.418 5.98963 52.0975 6.19988 52.2987ZM8.8912 39.2955C9.15864 39.4012 9.04151 39.8401 8.77137 39.7333C8.47177 39.6149 8.16236 39.5248 7.86275 39.4064C7.59537 39.3008 7.71244 38.8619 7.98258 38.9686C8.28219 39.087 8.5916 39.1771 8.8912 39.2955ZM13.639 34.1307C13.9231 34.0824 14.0442 34.52 13.7588 34.5685C13.4048 34.6287 13.0562 34.6991 12.7204 34.83C12.4492 34.9357 12.3329 34.4965 12.6006 34.3922C12.9364 34.2614 13.285 34.1909 13.639 34.1307ZM15.2077 46.7058C14.9471 46.5768 15.1758 46.1854 15.4351 46.3138C15.7085 46.4492 15.9917 46.5538 16.29 46.6178C16.574 46.6787 16.453 47.1164 16.1701 47.0556C15.8345 46.9836 15.5151 46.8581 15.2077 46.7058ZM16.6893 39.6224C16.9699 39.545 17.0886 39.983 16.8092 40.0602C16.3176 40.1959 15.8115 40.2664 15.3164 40.3871C15.0342 40.4559 14.9148 40.018 15.1966 39.9493C15.6917 39.8286 16.1979 39.7581 16.6893 39.6224ZM22.9748 37.3995C23.26 37.4527 23.1385 37.8902 22.855 37.8374C22.5532 37.7811 22.2473 37.7802 21.9413 37.7801C21.6509 37.7799 21.6514 37.3259 21.9413 37.326C22.2889 37.3262 22.6321 37.3357 22.9748 37.3995ZM43.4739 39.7715C42.7376 39.7005 42.0001 39.6438 41.2615 39.6012C41.2271 39.5995 41.1933 39.5972 41.1589 39.5955C41.155 39.5876 41.15 39.5802 41.1448 39.5722C40.9038 39.2158 40.7263 38.8595 40.5725 38.4565C40.4255 38.0728 40.2829 37.6773 40.0564 37.3312C39.7981 36.9367 39.4494 36.6281 39.0672 36.3606C38.8354 36.5177 38.6202 36.7016 38.4234 36.8964C38.2162 37.1015 37.8975 36.7805 38.1047 36.5754C38.2796 36.4022 38.4663 36.2422 38.6637 36.0977C38.4358 35.9582 38.2033 35.8271 37.9764 35.6967C37.1262 35.2081 36.2559 34.7563 35.3674 34.3432C34.9545 34.1507 34.5364 33.9799 34.1156 33.8068C33.8891 33.7138 33.6655 33.594 33.439 33.4862C33.4553 33.325 33.4074 33.1445 33.2846 33.0384C33.1939 32.9607 33.1235 32.9317 33.0153 32.8767C32.9911 32.8682 32.9764 32.8631 32.9697 32.8602C32.9748 32.8614 32.9894 32.8659 33.0136 32.8738C33.0711 32.9006 33.0756 32.8926 33.0271 32.8506C33.0243 32.7587 32.8446 32.5646 32.8035 32.4698C32.6604 32.1446 32.6159 31.8007 32.4046 31.5044C32.1133 31.0964 31.6243 30.9421 31.1685 31.0805C31.1212 30.5896 31.1088 30.0772 30.9252 29.639C30.9201 29.6271 30.9038 29.622 30.8964 29.635C30.7049 29.9637 30.6886 30.3297 30.6739 30.7088C30.6598 31.0646 30.6733 31.4284 30.7195 31.7819C30.6902 31.8046 30.6604 31.8263 30.6294 31.8472C30.484 31.9437 30.3274 32.018 30.1629 32.0731C29.8497 32.1775 29.5212 32.2229 29.1928 32.2388C28.3449 32.2796 27.4711 32.1934 26.6373 32.047C25.7939 31.8988 24.5009 31.6764 23.7505 31.2513C23.2553 30.971 22.7984 30.6287 22.3353 30.2973C22.5032 29.7525 22.546 29.1668 22.377 28.7066C22.3567 28.6515 22.2711 28.6413 22.2548 28.7066C22.1488 29.1458 22.1179 29.5874 21.977 30.0215C21.9748 30.0277 21.9725 30.0346 21.9702 30.0408C21.9263 30.0108 21.8824 29.9812 21.8384 29.9517C21.737 29.8842 21.599 29.9347 21.5381 30.0312C20.5651 31.5754 19.0243 31.6639 17.4063 31.9398C15.6355 32.2416 13.8559 32.5674 12.1533 33.1582C10.5252 33.7235 8.96912 34.5464 7.73644 35.7756C7.4574 36.0539 7.19644 36.3504 6.95013 36.66C7.18844 36.6903 7.42478 36.7374 7.65808 36.8112C7.9343 36.8986 7.8156 37.3368 7.53825 37.249C7.23842 37.1541 6.93526 37.1072 6.62901 37.0838C5.79143 38.238 5.13836 39.5467 4.57363 40.8349C3.49042 43.3048 2.78534 45.9351 2.46089 48.6131C2.63903 48.5055 2.82039 48.4031 3.00625 48.3078C3.2645 48.1755 3.49227 48.5673 3.23374 48.6998C2.94664 48.8469 2.66777 49.0091 2.39757 49.1849C2.27954 50.3571 2.2338 51.5368 2.26151 52.7147C2.32743 55.5228 2.70377 58.4131 3.55503 61.0924C3.9725 62.4073 4.52574 63.7115 5.34996 64.8227C5.72292 65.326 6.14658 65.78 6.64574 66.1586C6.88743 66.3424 7.1432 66.5065 7.41306 66.6449C7.76067 66.8243 8.21363 66.8833 8.51334 67.137C8.61194 67.2204 8.68799 67.3305 8.74546 67.4548C8.71222 67.6909 8.70827 67.9275 8.7725 68.1636C8.79278 68.2374 8.84799 68.2975 8.91616 68.3265C8.91729 68.3469 8.91729 68.3668 8.91729 68.3861C8.91729 68.3951 8.93081 68.3974 8.9325 68.3884C8.93532 68.3707 8.93813 68.3532 8.94095 68.335C8.96292 68.3424 8.98602 68.3458 9.00968 68.3458C9.86546 68.3491 10.7223 68.3281 11.5792 68.2988C11.513 68.0943 11.4412 67.8916 11.3723 67.6871C11.2787 67.4094 11.7141 67.2913 11.8069 67.5665C11.8875 67.8055 11.9718 68.0424 12.0468 68.2823C12.9649 68.2479 13.8828 68.2066 14.799 68.1761C16.7477 68.1108 18.6959 68.0893 20.6451 68.0479C23.6722 67.9832 26.7213 67.8509 29.7531 67.9804C29.858 67.7562 29.9753 67.5372 30.0866 67.3161C30.2179 67.0551 30.6066 67.2851 30.4758 67.5452C30.3984 67.6989 30.3183 67.8506 30.2422 68.0039C30.8562 68.036 31.4696 68.0785 32.0817 68.1364C33.1262 68.2351 34.1607 68.4105 35.204 68.5195C36.2648 68.6307 37.3026 68.6109 38.355 68.4344C38.5443 68.4026 38.6559 68.2873 38.7021 68.1443C38.7037 68.1437 38.7049 68.1427 38.706 68.1409C38.76 68.0773 38.8108 68.0246 38.8631 67.9786C38.9257 67.9378 38.9933 67.9031 39.0728 67.8725C39.2209 67.8157 39.3753 67.7811 39.5319 67.7578C39.7043 67.7318 39.879 67.7295 40.0514 67.7079C40.1967 67.6892 40.3387 67.6613 40.4806 67.6274C40.7359 67.5661 40.9781 67.486 41.2193 67.3799C41.4294 67.2874 41.6192 67.1546 41.7984 67.0098C42.1691 66.7369 42.4902 66.3885 42.7708 66.0263C42.9342 65.8147 43.088 65.595 43.2277 65.3664C43.4711 64.9702 43.6784 64.5587 43.888 64.1439C43.964 64.021 44.0335 63.8951 44.0969 63.7666C43.6873 63.645 43.2738 63.5459 42.8396 63.5389C42.5493 63.5342 42.5494 63.0801 42.8396 63.0849C43.3376 63.0929 43.8086 63.21 44.2766 63.3497C44.2994 63.2887 44.3213 63.2272 44.3415 63.1649C44.3973 63.035 44.4435 62.9016 44.4818 62.7665C44.5043 62.7052 44.5269 62.644 44.5494 62.5827C44.6001 62.3704 44.6508 62.1576 44.7021 61.9448C44.804 61.6043 44.8846 61.2586 44.9438 60.9085C44.9933 60.6781 45.0317 60.446 45.0576 60.211C45.1364 59.6418 45.2007 59.0737 45.2052 58.4983C45.1984 58.1436 45.1759 57.7894 45.1376 57.437C45.1212 57.1975 45.0936 56.9592 45.0564 56.7225C45.008 56.3706 44.9601 56.0222 44.8795 55.6749C44.8193 55.44 44.759 55.205 44.6987 54.97C44.5483 54.4803 44.3708 54.0001 44.1662 53.5308C44.155 53.5013 44.0981 53.4366 44.0638 53.436C44.0379 53.4355 44.0017 53.4593 44.0136 53.4911C44.0148 53.4939 44.0158 53.4973 44.017 53.5002C44.0052 53.4735 43.9939 53.4462 43.9821 53.4196C43.9719 53.3946 43.9325 53.3447 43.9021 53.3453C43.9004 53.3453 43.8986 53.3453 43.8964 53.3458C43.9043 53.3402 43.9117 53.3327 43.919 53.3243C44.1212 53.0831 44.2525 52.7658 44.3973 52.4866C44.5173 52.2562 44.6305 52.0133 44.6632 51.7528C44.6919 51.5241 44.6531 51.2988 44.5105 51.1138C44.3483 50.9032 44.0429 50.8045 44.2125 50.5003C44.4052 50.1541 44.6886 49.8539 44.4063 49.4606C44.2626 49.2603 44.035 49.1502 43.866 48.9759C43.6717 48.7745 43.5792 48.5049 43.5843 48.2296C43.5962 48.2365 43.6119 48.2331 43.6176 48.216C43.7809 47.7189 43.6626 47.173 43.4953 46.6888C43.404 46.4261 43.2108 46.354 42.986 46.341C43.9595 44.4257 44.8705 42.4796 45.6824 40.4887C45.7094 40.4235 45.7359 40.3583 45.7623 40.293C45.8018 40.1953 45.7184 40.0654 45.6221 40.0438C44.9201 39.8889 44.1888 39.8395 43.4739 39.7715Z" fill="black"/>
<path fill-rule="evenodd" clip-rule="evenodd" d="M35.9361 10.4138C35.811 10.0957 35.5897 9.69591 35.2199 9.67996C34.9338 8.7989 34.2225 7.9016 33.233 7.92544C30.3289 4.93384 26.6728 5.07487 22.8503 5.70816C20.8336 6.08493 18.7859 6.8227 17.2818 8.2786C15.4803 9.99261 14.7788 12.9834 16.1896 15.1507C14.9703 15.8089 14.9467 17.3707 15.4681 18.4977C14.8413 18.9343 14.8032 19.994 15.509 20.327C15.4715 20.4818 15.498 20.6419 15.5696 20.7794C15.2196 21.0728 14.7642 21.2896 14.3877 21.4759C14.2213 21.5582 14.1253 21.6927 14.0854 21.8443C12.8491 22.6613 9.7664 24.6579 9.80313 26.247C9.78499 27.076 10.3955 27.6217 11.1373 27.8389C10.6959 28.7278 10.3609 29.7661 10.7834 30.7249C10.9002 31.0147 11.7753 31.8661 11.8193 31.8818C11.8963 31.9483 13.1517 31.3678 13.7618 31.0716C13.8801 31.8469 14.7031 32.253 15.4124 31.9874C16.085 31.7831 16.4985 31.2095 16.9227 30.6878C17.4858 31.9251 19.1426 31.9394 20.2133 31.4059C21.175 30.9584 21.9059 30.1382 22.3132 29.1499C24.4755 30.2162 27.0054 30.527 29.3547 30.1011C29.5055 30.3699 29.8392 30.5504 30.1365 30.4465C31.3858 30.0682 32.767 30.0469 33.8259 29.1802C36.0332 27.5843 36.2191 24.642 36.0652 22.134C35.9287 19.6334 36.0481 17.1119 35.5969 14.6383C35.7927 13.91 36.1185 13.2661 36.4199 12.582C36.7473 11.8645 36.7404 10.798 35.9361 10.4138Z" fill="white"/>
<path fill-rule="evenodd" clip-rule="evenodd" d="M15.4147 21.0282C15.5448 20.9952 15.6146 21.1713 15.5042 21.2421C14.8032 21.6913 14.0789 22.0925 13.4017 22.5812C12.7575 23.0458 12.1626 23.5751 11.6078 24.1441L11.5463 24.2075C11.0447 24.7273 10.4892 25.3886 10.4836 26.1553C10.4793 26.7513 10.9354 27.4019 11.5719 27.3235C11.8117 27.294 12.0321 27.6005 11.9484 27.8214L11.8604 28.0543C11.5062 28.9966 11.146 30.0644 11.4257 31.0558L11.4359 31.0912C11.5036 31.3182 11.5749 31.5188 11.8365 31.5142C12.0793 31.5099 12.3319 31.4275 12.5592 31.3488C13.0308 31.1854 13.4581 30.9129 13.8209 30.5702C14.1418 30.2672 14.5517 30.5751 14.5085 30.9602L14.507 30.9726C14.4479 31.4048 15.1314 31.6054 15.4422 31.5436C16.0558 31.4214 16.4932 30.8021 16.8417 30.33C17.0092 30.1032 17.416 30.0139 17.5632 30.33C17.8548 30.9563 18.4558 31.4244 19.159 31.444C19.5242 31.4541 19.8746 31.3494 20.184 31.1552C20.3103 31.0759 20.4232 30.9816 20.5267 30.8747L20.5524 30.8478C20.7057 30.6841 20.8114 30.5971 21.0072 30.4903C21.2 30.385 21.4495 30.5155 21.4483 30.7452C21.4467 31.0427 21.3602 31.2405 21.1565 31.4562C20.988 31.635 20.7878 31.7918 20.5773 31.9172C20.1543 32.1689 19.6514 32.3106 19.159 32.2942C18.3828 32.2683 17.6419 31.8786 17.1616 31.2725C16.6712 31.8631 16.0629 32.4058 15.2724 32.3912C14.6807 32.3803 14.1292 32.07 13.865 31.5892C13.4919 31.8482 13.0825 32.0508 12.6446 32.1831L12.6055 32.1947C11.9856 32.3764 11.2722 32.4487 10.8731 31.8287C10.4985 31.2467 10.4705 30.4406 10.5564 29.7753C10.6331 29.181 10.8146 28.6166 11.023 28.06C10.4297 27.8815 9.96912 27.32 9.81093 26.7148C9.5716 25.7997 10.0359 24.9121 10.6099 24.2321C11.2333 23.4934 12.0181 22.8687 12.8087 22.3218C13.5972 21.7765 14.4805 21.264 15.4147 21.0282ZM35.6891 13.87C35.6905 13.8445 35.7319 13.8356 35.7357 13.8636C36.008 15.8543 36.1657 17.841 36.2963 19.8454C36.3625 20.8608 36.4376 21.8753 36.5199 22.8895C36.5988 23.862 36.7302 24.8605 36.7005 25.837C36.654 27.3661 35.9169 28.6094 34.7082 29.5041C33.5501 30.3616 32.1133 30.7855 30.7037 30.9646C29.8851 31.0687 29.055 31.0737 28.2355 30.9759C27.8098 30.9252 27.3847 30.8576 26.9678 30.7562L26.7876 30.7107C26.4592 30.6263 26.0927 30.5116 26.0458 30.1199C26.0231 29.9302 26.1232 29.7902 26.2848 29.695C26.4954 29.5708 26.7369 29.6439 26.954 29.7005C27.3198 29.7959 27.6895 29.8777 28.0634 29.9343C28.8663 30.0559 29.6918 30.0632 30.4989 29.9789C31.8565 29.8372 33.2887 29.3936 34.3354 28.4775C34.7903 28.0795 35.1859 27.5944 35.394 27.0182C35.6614 26.2773 35.6218 25.4691 35.6129 24.6933C35.5921 22.8895 35.6104 21.0856 35.5855 19.2816C35.5605 17.4721 35.5823 15.6768 35.6891 13.87ZM22.0364 5.43985C23.6228 5.02772 25.2328 4.92063 26.8623 5.04469C28.399 5.1616 30.1496 5.50795 31.4047 6.46007C31.4656 6.50626 31.4292 6.59372 31.3538 6.58163C30.5147 6.4469 29.6968 6.20185 28.8613 6.03971C28.0577 5.88376 27.2396 5.76668 26.4213 5.73955C23.6539 5.64767 20.5745 6.27937 18.343 8.01739C17.2966 8.83228 16.4981 9.92804 16.1803 11.2318C15.8544 12.569 16.0307 14.0152 16.6852 15.2248C16.7794 15.399 16.7406 15.6745 16.5439 15.7673C15.9473 16.0486 15.5224 16.672 15.5316 17.3447C15.536 17.6709 15.6477 17.9838 15.8271 18.2535C16.0169 18.5387 16.3057 18.7382 16.518 19.0045C16.6015 19.1094 16.6047 19.2538 16.5385 19.3504C16.6626 19.4052 16.7965 19.4346 16.9186 19.4993C17.0222 19.5542 17.0251 19.7255 16.9186 19.7795C16.6493 19.9161 16.3582 19.7711 16.1764 19.5509C16.144 19.5115 16.1159 19.4706 16.0904 19.4289C15.8727 19.3824 15.6776 19.2723 15.5073 19.1218C15.1828 19.3176 15.1384 19.7533 15.4171 20.0863C15.5595 20.2562 15.7617 20.3612 15.9662 20.4366L15.9907 20.4455C16.1896 20.5167 16.3718 20.5564 16.5011 20.7167C16.5863 20.5377 16.6842 20.369 16.7932 20.2153C17.1898 19.6564 17.7994 19.1607 18.5227 19.2236C19.0893 19.2728 19.5802 19.6814 19.6963 20.2452C19.7048 20.2869 19.6424 20.3195 19.6238 20.2759C19.352 19.6374 18.4919 19.614 17.9795 19.9467C17.377 20.3381 17.0477 21.0756 16.9156 21.7624C16.7856 22.439 16.8607 23.2619 17.3634 23.7765C17.5691 23.9871 17.8489 24.1328 18.141 24.1711C18.2838 24.19 18.4097 24.1714 18.5462 24.1437L18.6367 24.1247C18.6995 24.1116 18.7619 24.1011 18.8277 24.1069L18.9258 24.1202V24.1202L18.9815 24.1465C19.0299 24.1684 19.0255 24.1624 18.9684 24.1284C19.1351 24.1147 19.2212 24.2388 19.2304 24.3748C19.2357 24.3782 19.2408 24.3819 19.2451 24.3872C19.8775 25.1668 20.3471 26.063 21.0182 26.8171L21.2147 27.038C21.7198 27.604 22.2964 28.2176 22.9826 28.5112L23.0642 28.5452C23.2638 28.6302 23.4643 28.7464 23.4897 28.9888C23.5126 29.2059 23.3426 29.3693 23.1468 29.42C22.7007 29.5353 22.1922 29.1359 21.8655 28.8739C21.1629 28.3106 20.5725 27.5926 20.0849 26.8371L20.0367 26.7619C19.6359 26.1313 19.2591 25.4121 19.1421 24.6637L19.121 24.6982C19.1194 24.7007 19.1181 24.7025 19.1173 24.7036C19.0935 24.7363 19.0671 24.7639 19.0366 24.7903C18.9546 24.8617 18.8545 24.9033 18.7506 24.9316C18.5555 24.9847 18.3416 24.9951 18.141 24.9744C17.7336 24.9325 17.3528 24.7763 17.0308 24.522C16.0503 23.7474 15.9345 22.306 16.3311 21.1366C16.0057 21.2149 15.635 20.9943 15.3809 20.8053C15.0896 20.5883 14.8493 20.2752 14.7919 19.9069C14.7349 19.5415 14.9662 19.0575 15.3093 18.9164C14.9533 18.4859 14.746 17.8748 14.7246 17.3856C14.6874 16.5345 15.1363 15.7301 15.8254 15.2658C15.1773 13.8668 15.0525 12.2438 15.4888 10.7584C16.3547 7.81075 19.2552 6.16241 22.0364 5.43985ZM19.5677 27.8353L19.5758 27.8094C19.6448 27.5815 19.7339 27.128 20.072 27.3007C20.395 27.4655 20.1888 27.9535 20.0758 28.1911C19.9407 28.4754 19.7073 28.7033 19.3938 28.7643C19.1388 28.814 18.8588 28.7502 18.6805 28.5517C18.6285 28.4939 18.5991 28.4305 18.5683 28.3604C18.5563 28.3332 18.5509 28.3145 18.5486 28.3024C18.5457 28.3157 18.5374 28.3356 18.5161 28.359C18.3737 28.5156 18.2393 28.6979 18.1361 28.8832C18.1116 28.927 18.0345 28.8963 18.054 28.8484C18.1743 28.552 18.1541 28.0938 18.4222 27.8794C18.6585 27.6904 18.8806 27.8392 19.0056 28.0592L19.0119 28.0707C19.1946 28.4048 19.4858 28.0875 19.5677 27.8353ZM16.997 26.7645L17.0217 26.73C17.2744 26.3821 17.7005 25.9636 18.1269 26.2872C18.2625 26.3901 18.2675 26.5618 18.1269 26.6639L18.0737 26.7022C17.8874 26.8352 17.7019 26.9608 17.5651 27.1516C17.4164 27.359 17.2829 27.5787 17.083 27.7414C16.7295 28.0291 16.1582 28.0859 15.8514 27.698L15.8213 27.6595C15.7956 27.6262 15.7661 27.5861 15.7422 27.5461L15.7236 27.5721C15.7218 27.5747 15.7201 27.5772 15.7185 27.5795L15.7142 27.5861C15.5882 27.7891 15.4289 27.9562 15.2305 28.0881C14.8535 28.3386 14.4287 28.3735 14.0021 28.2409C13.9604 28.2278 13.9716 28.1714 14.012 28.1677C14.5174 28.1201 15.0099 27.7585 15.2154 27.2927L15.2386 27.2404C15.3218 27.0552 15.415 26.8791 15.6206 26.8063C15.8206 26.7355 16.0306 26.8103 16.1678 26.9628C16.2825 27.0902 16.3121 27.3434 16.519 27.2876C16.7456 27.2264 16.8731 26.9406 16.997 26.7645ZM15.5494 23.6702C15.6613 23.5845 15.8367 23.6765 15.8675 23.8007C16.0072 24.3628 15.4271 25.0253 14.8697 25.0427C14.7262 25.0471 14.5882 25.0122 14.4611 24.9453C14.3625 24.8934 14.2458 24.7608 14.1376 24.7389C13.9978 24.7106 13.874 24.8981 13.7755 24.9943C13.6535 25.1138 13.5327 25.2247 13.3959 25.3265C13.3412 25.3672 13.2564 25.2988 13.2795 25.2364L13.3258 25.1121C13.4933 24.6699 13.7818 24.0244 14.3216 24.2079C14.5861 24.2978 14.7852 24.601 15.0638 24.3609C15.2868 24.1687 15.3076 23.8553 15.5494 23.6702ZM17.9313 21.407C18.4346 20.8251 19.6176 21.1325 19.8419 21.8404C19.8915 21.9968 19.8398 22.2 19.7186 22.3107C19.5589 22.4565 19.331 22.5006 19.1371 22.3863C18.9702 22.2879 18.9017 22.127 18.7791 21.9889C18.5992 21.7866 18.3545 21.6743 18.1024 21.5938C18.0394 21.6272 17.9807 21.671 17.9281 21.7239C17.9012 21.751 17.8503 21.7139 17.8742 21.682C17.9066 21.6386 17.9463 21.5978 17.9914 21.5602L17.9697 21.5538V21.5538C17.9034 21.5352 17.889 21.4561 17.9313 21.407ZM21.2021 14.982C21.3149 14.9821 21.4463 15.0888 21.4319 15.2134L21.4275 15.248C21.3951 15.4851 21.3194 15.6194 21.0838 15.7296C20.8838 15.823 20.6738 15.8745 20.4546 15.895C20.3717 15.9027 20.2839 15.9032 20.195 15.8965L20.1762 16.0054C20.139 16.2231 20.1046 16.441 20.0981 16.6629C20.0861 17.0743 20.2385 17.4133 20.4019 17.7806C20.7157 18.4861 20.7509 19.1904 20.4093 19.8949C20.3594 19.9979 20.2179 20.0819 20.1038 20.0715C19.9558 20.058 19.8843 20.0149 19.7982 19.8949C19.7259 19.7942 19.7424 19.6519 19.7925 19.5466L19.7982 19.5351C19.9703 19.1992 20.0246 18.8197 19.9367 18.4504C19.8541 18.1034 19.667 17.7915 19.5834 17.4455C19.4473 16.882 19.5923 16.323 19.8755 15.8395C19.6617 15.7775 19.464 15.667 19.3321 15.4983L19.3326 15.4981V15.4981C19.2822 15.4439 19.3097 15.3307 19.3981 15.3375L19.4981 15.3456C19.7841 15.3697 20.0473 15.3948 20.3364 15.3145C20.4847 15.2733 20.6126 15.2046 20.7399 15.1214L20.7671 15.1034C20.9264 14.9968 21.0146 14.9817 21.2021 14.982ZM21.8865 10.8168C22.6033 10.7758 23.2153 11.2523 23.5129 11.8867C23.836 12.5754 23.7004 13.3656 23.4152 14.0432L23.3342 14.2329C23.1923 14.5615 23.0061 14.9522 22.7156 15.1285C22.3893 15.3266 22.1072 15.0969 22.2034 14.7318C22.2608 14.5144 22.416 14.3467 22.5415 14.1672C22.6587 13.9997 22.7681 13.8262 22.864 13.6453C23.0518 13.2905 23.192 12.8952 23.1905 12.4887C23.1878 11.7467 22.7012 10.8964 21.8865 10.9073C21.8283 10.908 21.8293 10.82 21.8865 10.8168ZM25.512 9.6196C25.4673 9.58544 25.5073 9.50945 25.5573 9.54151C26.3885 10.0741 27.0092 11.0744 27.1342 12.0572C27.2035 12.6025 27.1505 13.1852 26.92 13.6884C26.7878 13.9772 26.5609 14.2528 26.2436 14.332C25.9518 14.4047 25.6512 14.2368 25.5606 13.95C25.5255 13.8387 25.5859 13.7223 25.6771 13.6616C25.9729 13.4646 26.2111 13.216 26.3504 12.8816C26.4953 12.534 26.5531 12.165 26.5549 11.79C26.5592 10.9118 26.2112 10.1549 25.512 9.6196ZM35.6664 10.0002C35.6279 9.95728 35.6763 9.89395 35.7272 9.92085C36.3282 10.2392 36.7101 10.8491 36.8195 11.517C36.9267 12.1709 36.7825 13.0611 36.28 13.534C35.9964 13.8009 35.4885 13.4459 35.7242 13.1021C35.8904 12.8596 36.0701 12.6598 36.1652 12.3733C36.2501 12.1176 36.2801 11.8598 36.2755 11.5912C36.2654 11.005 36.0575 10.4372 35.6664 10.0002ZM28.3189 9.18142C29.3457 9.13216 29.9679 10.3129 30.1105 11.1929C30.1985 11.7367 30.1323 12.2967 29.8343 12.7683L29.8167 12.7957C29.5708 13.1725 29.1237 13.6062 28.642 13.4279C28.4381 13.3524 28.3838 13.1324 28.5208 12.9655C28.7304 12.71 29.0543 12.6059 29.2514 12.3331C29.4725 12.0271 29.5449 11.6438 29.5321 11.2717L29.5304 11.2306C29.4961 10.5463 29.1721 9.23269 28.3189 9.25594C28.2711 9.25718 28.2717 9.18363 28.3189 9.18142ZM31.5306 8.98524C32.5237 8.85738 33.1285 10.0343 33.315 10.845C33.4315 11.3519 33.457 11.9173 33.308 12.4204L33.2969 12.4562C33.1756 12.8316 32.8177 13.4749 32.3505 13.283C32.2225 13.2305 32.0919 13.0873 32.1532 12.9329C32.2314 12.7356 32.3444 12.6844 32.4949 12.5581C32.6109 12.4609 32.6918 12.3214 32.7514 12.1839C32.9102 11.8176 32.9456 11.3896 32.9239 10.9949L32.9209 10.9481C32.8648 10.1771 32.4497 9.02795 31.5306 9.04909C31.4886 9.05005 31.4915 8.99024 31.5306 8.98524ZM33.3488 7.87881C33.9015 7.66678 34.3544 8.19917 34.6721 8.57912C35.0701 9.05521 35.4312 9.56807 35.6353 10.1607C35.8171 10.6888 35.8491 11.2759 35.6853 11.8135C35.6043 12.0797 35.478 12.3265 35.3056 12.5437L35.2836 12.5711C35.1041 12.7915 34.9309 12.9269 34.637 12.848C34.5174 12.8158 34.4669 12.6967 34.4875 12.5829C34.5318 12.3396 34.6563 12.2765 34.8175 12.1067C34.9596 11.9569 35.0651 11.7725 35.136 11.5785C35.2822 11.1785 35.2899 10.7451 35.1917 10.333C35.0818 9.8716 34.8656 9.44554 34.6154 9.0463L34.5614 8.96079C34.2964 8.5387 33.9184 7.88869 33.3593 7.95718C33.3114 7.96308 33.3108 7.89333 33.3488 7.87881Z" fill="black"/>
<path fill-rule="evenodd" clip-rule="evenodd" d="M30.1738 26.444C29.7951 26.2884 29.4572 26.0288 29.2102 25.6971C29.1243 25.5819 29.102 25.4601 29.12 25.3488C29.1403 25.2236 29.2138 25.1101 29.3141 25.034C29.4147 24.9576 29.5405 24.92 29.6622 24.9392C29.7679 24.9558 29.8731 25.0141 29.9564 25.1351L29.9738 25.1592C30.1207 25.3594 30.312 25.5236 30.5301 25.6295C30.7403 25.7315 30.9754 25.7791 31.2187 25.7514C31.682 25.6987 32.0013 25.4463 32.3407 25.1036C32.3828 25.0603 32.4249 25.0156 32.4672 24.9703C32.4939 24.9292 32.531 24.9028 32.5722 24.8889C32.6179 24.8735 32.6696 24.8744 32.7169 24.891C32.7626 24.9071 32.8034 24.9375 32.8308 24.978C32.8568 25.0165 32.8716 25.064 32.8668 25.1187C32.8357 25.4739 32.6514 25.791 32.3895 26.0399C32.0986 26.3163 31.7131 26.5076 31.3502 26.5747C30.9503 26.6486 30.5428 26.5956 30.1738 26.444V26.444ZM31.5388 20.9641C31.9642 21.2246 32.6124 21.832 32.1548 22.4778C31.6161 23.0472 30.8404 22.3944 30.4582 22.0991C30.1038 21.8703 29.7056 22.4588 30.0344 22.726C32.7963 24.7858 33.9172 21.0322 31.754 20.6578C31.5158 20.6166 31.4273 20.8835 31.5388 20.9641ZM26.5894 18.568C26.6364 17.9803 27.525 17.8468 27.6134 18.4284C27.6926 18.9494 27.5994 19.428 27.3665 19.897C27.1439 20.3451 26.5844 20.1361 26.5421 19.728C26.4854 19.1811 26.5602 18.9336 26.5894 18.568ZM33.3536 18.3078C33.4775 18.1444 33.6563 18.0328 33.8707 18.0959C34.5402 18.293 34.3429 19.2505 34.1077 19.7166C33.98 19.9697 33.5669 20.0339 33.3803 19.8111C33.0761 19.4476 32.9304 18.7218 33.3171 18.3638C33.3276 18.3453 33.3393 18.3267 33.3536 18.3078ZM27.357 15.9963L27.4628 15.9776C27.79 15.9206 28.1968 15.8659 28.4283 16.1308C28.551 16.2714 28.5933 16.5325 28.4283 16.667C28.138 16.9037 27.8171 16.812 27.4693 16.832C27.1827 16.8486 26.9072 16.8964 26.631 16.9759C26.0253 17.1503 25.5317 17.4687 25.0144 17.8182C24.9465 17.8641 24.8772 17.7766 24.9096 17.7127C25.2082 17.1234 25.787 16.6394 26.3667 16.3443C26.6761 16.1869 27.0147 16.0562 27.357 15.9963ZM32.7432 15.7323L32.8242 15.749C33.7051 15.9345 34.8497 16.3051 35.2669 17.1767C35.2828 17.3 35.266 17.3264 35.2524 17.3437L35.2478 17.3494C35.2366 17.3642 35.2276 17.3845 35.1745 17.4012C35.1598 17.3977 35.145 17.394 35.1299 17.39C34.9387 17.3395 34.7874 17.27 34.6409 17.1978L34.4821 17.119C34.2979 17.028 34.112 16.9403 33.915 16.8756C33.4946 16.7374 33.0622 16.6401 32.623 16.5882C32.5279 16.5769 32.4362 16.5446 32.3639 16.4891C32.2953 16.4365 32.2429 16.3636 32.2189 16.2667C32.188 16.1413 32.1969 16.0464 32.2636 15.9333C32.3139 15.8484 32.3857 15.7895 32.4682 15.7557C32.5523 15.7213 32.648 15.7131 32.7432 15.7323Z" fill="black"/>
<path fill-rule="evenodd" clip-rule="evenodd" d="M36.2868 20.1165C36.1275 20.5532 35.885 21.0079 35.5885 21.3755C34.3888 22.3988 33.2231 21.8322 32.6312 20.4453C32.4063 19.4651 33.0035 18.4093 33.6362 17.6883C34.55 16.7657 36.0413 17.2499 36.4615 18.3467C36.487 18.4888 36.5025 18.6305 36.5098 18.7718C36.5011 19.231 36.4462 19.6235 36.2868 20.0597M24.7555 19.2356C26.3359 17.342 29.2925 17.2407 29.2171 20.1552C28.8776 23.8443 23.1609 22.9388 24.7555 19.2356ZM36.7839 17.6559C36.7285 17.5614 36.667 17.47 36.5999 17.3826C36.5751 17.3677 36.5609 17.2358 36.4697 17.226C35.2513 15.872 33.1109 16.6403 32.3374 17.9895C32.1962 18.1601 32.081 18.3598 31.996 18.5708C31.234 18.43 30.3456 18.4573 29.6369 18.7473C28.9341 16.8988 26.8065 16.7337 25.4044 17.5235C24.5324 17.9556 23.9669 18.8604 23.1188 19.3574C21.125 19.5019 18.9853 19.052 17.0275 19.5557C15.4835 19.8791 16.7742 20.6667 17.0332 20.1411C18.879 19.5917 21.0657 20.056 22.9822 19.9322C23.1814 20.2717 23.5636 20.5496 23.9444 20.5377C24.3558 24.2107 29.6732 23.6017 29.8566 20.3366C30.0647 20.0052 30.3234 19.6881 30.6938 19.4816C30.8356 19.4521 30.9725 19.4136 31.0977 19.3542C31.3117 19.3237 31.6414 19.4151 31.8382 19.5946C32.5125 23.6702 36.3973 23.1956 37.0916 19.6251C37.1054 19.6109 37.144 19.5577 37.1736 19.4723C37.4112 19.1558 37.993 19.0381 37.9 18.5038C37.8173 17.9694 37.1473 17.9757 36.7839 17.6559Z" fill="black"/>
</g>
<defs>
<clipPath id="clip0_2218_69485">
<rect width="48" height="48" rx="16" fill="white"/>
</clipPath>
</defs>
</svg>
