<svg width="48" height="48" viewBox="0 0 48 48" fill="none" xmlns="http://www.w3.org/2000/svg">
<g clip-path="url(#clip0_2218_69453)">
<path fill-rule="evenodd" clip-rule="evenodd" d="M6.7214 76.6564C7.39583 76.6984 8.07022 76.7315 8.74456 76.7568C17.5632 77.0878 26.3746 76.0752 35.1878 75.8536C38.2569 75.7722 41.3104 75.8128 44.3716 76.0611C44.6715 76.0853 45.0145 75.7603 44.9777 75.4505C44.4121 70.5328 43.7046 65.6281 43.3378 60.6901C43.3376 60.429 43.371 60.1682 43.4602 59.9221C43.4769 59.9028 43.564 59.6865 43.6415 59.6731C43.6162 59.6919 43.7309 59.6588 43.6578 59.6645C44.1004 59.5915 44.5345 59.1102 44.2133 58.6497C40.9045 53.5411 36.3877 48.8784 34.9345 42.8107C34.5911 41.1702 33.351 41.0688 32.0299 40.392C31.6177 40.1451 30.6098 39.461 30.4457 38.9854C30.0539 37.2714 30.7439 35.5921 28.728 34.8986C27.3972 34.5269 25.045 34.2125 23.6984 34.6044C22.0559 35.1551 22.1788 37.0196 21.2261 38.3024C20.7333 39.0443 19.8933 40.0602 19.1177 40.1739C18.7417 40.229 18.4648 39.4629 18.0895 39.5157C12.2385 40.9471 4.26704 50.7121 1.75233 56.1177C1.18563 57.8189 3.01328 57.3057 2.90099 59.0156C2.76257 62.2596 2.45983 66.4124 2.63938 69.6602C2.80755 71.5453 2.6831 73.5204 3.26479 75.3346C3.10822 75.5261 3.33318 75.7195 3.51673 75.8027C3.748 76.1989 6.0236 76.6015 6.7214 76.6564Z" fill="white"/>
<path fill-rule="evenodd" clip-rule="evenodd" d="M21.9539 36.2595C22.106 35.57 23.195 35.8657 23.0085 36.5523C22.7195 37.6142 22.1201 38.6176 21.2739 39.3218C20.6203 39.8655 19.7297 40.3507 18.8463 40.4404C18.9291 40.5216 19.0085 40.6084 19.0919 40.6912C19.2801 40.8796 19.4801 41.0544 19.6863 41.2224C20.11 41.5674 20.5505 41.8779 21.0316 42.1378C22.9533 43.1764 25.1241 43.4159 27.2705 43.1741C28.2891 43.0594 29.3229 42.8648 30.2806 42.4897C30.7246 42.3161 31.1561 42.0879 31.537 41.7996L31.6367 41.7242C31.8369 41.5719 32.1042 41.357 32.2294 41.122C31.8485 41.2082 31.3668 40.7996 31.1026 40.5619C30.8136 40.3008 30.5702 39.9642 30.3905 39.6192C30.0384 38.9422 29.8519 38.0688 30.1472 37.3429C30.1668 37.2946 30.2299 37.3026 30.2356 37.3548C30.3229 38.201 30.5494 38.9944 31.1522 39.6209C31.4198 39.8984 31.7403 40.1311 32.0902 40.2928L32.1394 40.3156C32.2885 40.3851 32.4454 40.4665 32.5082 40.6152C32.5325 40.6123 32.5567 40.6146 32.5798 40.6209C32.6006 40.6265 32.6198 40.6328 32.6384 40.6396C32.5967 40.5573 32.5748 40.4603 32.5787 40.3456C32.5934 39.9012 33.199 39.8877 33.2829 40.2832C33.2677 40.231 33.2474 40.2815 33.2857 40.2974C33.2851 40.2928 33.284 40.2877 33.2828 40.2832L33.284 40.2874V40.2874L33.2863 40.2974L33.2857 40.2974C33.2872 40.3046 33.2885 40.312 33.2893 40.3195L33.2901 40.3294L33.2896 40.3211C33.2891 40.315 33.2883 40.3095 33.2875 40.3045L33.2863 40.2974C33.2919 40.3002 33.2998 40.3019 33.3088 40.3019L33.3125 40.3034C33.3266 40.3096 33.3764 40.3329 33.3911 40.3388C33.4919 40.3763 33.6046 40.3882 33.7077 40.4205C33.9314 40.4898 34.1286 40.6044 34.2649 40.7996C34.3629 40.9398 34.4175 41.1004 34.4401 41.2672C35.4299 41.7468 36.3668 42.3699 37.1517 43.1412C38.9032 44.8619 40.1246 47.0156 41.1268 49.2448C41.6369 50.3797 42.0915 51.5387 42.5361 52.7008L42.6063 52.8843C43.0829 54.1334 43.5043 55.3961 43.6079 56.7389C43.6175 56.8592 43.5781 56.9721 43.5099 57.0658C43.5341 57.1668 43.5466 57.2678 43.5432 57.3665C43.5426 57.3819 43.5415 57.3972 43.5403 57.4125C43.7003 57.4097 43.857 57.4772 44.0057 57.6668C44.066 57.6475 44.1313 57.6451 44.1956 57.6661C44.5871 57.7921 44.6502 58.2252 44.724 58.5878C44.8001 58.9624 44.8333 59.346 44.8339 59.7279C44.8339 59.8647 44.7561 60.0373 44.6243 60.0957C44.3764 60.2058 44.1094 60.2779 43.853 60.3778C43.6603 60.4527 43.4671 60.5236 43.2722 60.59C43.3803 60.7801 43.4153 61.0446 43.4739 61.2449C43.5657 61.5576 43.6395 61.8715 43.7015 62.1916C44.1218 64.368 44.413 66.5677 44.8063 68.7486C45.0029 69.8411 45.2317 70.9262 45.4649 72.0113C45.5798 72.5447 45.702 73.077 45.8333 73.6071C45.9032 73.8897 45.9758 74.1724 46.0508 74.4532C46.0725 74.5353 46.0946 74.6172 46.1169 74.6989L46.1561 74.842V74.842C46.2417 74.8897 46.315 74.9618 46.3657 75.0605C46.5511 75.4215 46.4446 75.8284 46.0891 76.0315C45.7026 76.2529 45.2412 76.044 45.0282 75.6847C44.8784 75.4311 44.8294 75.0951 44.7556 74.813C44.6722 74.4964 44.5927 74.178 44.5161 73.8597C43.9956 71.6967 43.647 69.4959 43.3843 67.2867L43.3657 67.1289C43.2322 65.9916 43.1032 64.8515 43.0198 63.7091C42.9787 63.1478 42.946 62.5865 42.9257 62.0241C42.9156 61.7347 42.9319 61.4436 42.9482 61.1546C42.9556 61.0281 42.9663 60.901 42.9702 60.7745L42.9715 60.7565C42.9725 60.7436 42.974 60.7268 42.9752 60.7091L42.9764 60.6876C42.5877 60.8102 42.1933 60.9124 41.795 60.9986C40.9477 61.183 40.0806 61.2858 39.2158 61.2336C39.3364 62.6762 39.4936 64.1154 39.7133 65.5449C39.9251 66.9218 40.1696 68.2957 40.4457 69.6612C40.5838 70.3473 40.733 71.0317 40.8902 71.7139C40.9747 72.0782 41.071 72.4402 41.1472 72.8063C41.1922 73.0242 41.2063 73.2064 41.1156 73.4102C41.2154 73.6841 41.3041 73.9595 41.3914 74.2188L41.4175 74.2961C41.5719 74.7501 41.8648 75.2143 41.5589 75.6604C41.4007 75.8907 41.1427 76.0225 40.8829 76.0304C40.8784 76.0332 40.8733 76.0366 40.8682 76.0394C40.7285 76.1149 40.5674 76.1297 40.4141 76.0974C40.1815 76.1433 39.9482 76.1876 39.7144 76.2279C39.137 76.3283 38.5567 76.4111 37.9753 76.481C36.8682 76.6137 35.7539 76.6864 34.6401 76.7267C30.5623 76.8748 26.4801 76.6149 22.4007 76.6898C20.3223 76.7278 18.244 76.822 16.1691 76.9469C15.1336 77.0094 14.0975 77.0763 13.0615 77.128L12.7408 77.1437C11.8142 77.1883 10.887 77.2228 9.96119 77.1546C9.94316 77.1535 9.92908 77.1461 9.9195 77.1359C9.60006 77.0996 9.27899 76.8033 9.31105 76.4611C9.44908 75.0037 9.58711 73.5464 9.7257 72.0884C9.97189 69.4909 10.2203 66.8934 10.4716 64.2964L10.5079 63.9215C10.5924 63.0464 10.673 62.1693 10.7139 61.2909C10.5077 61.2762 10.3021 61.2574 10.0964 61.2347C7.86793 60.9889 5.73159 60.3099 3.68036 59.4181L3.59725 59.3818C3.41246 59.3006 3.21021 59.2194 3.00288 59.1326C3.00632 59.5293 2.9933 59.9265 2.99161 60.3193C2.9888 60.9714 2.99387 61.6235 2.99556 62.2749C2.9995 63.6177 3.05021 64.961 3.11668 66.3015C3.2333 68.6691 3.37021 71.0334 3.57753 73.3954C3.62992 73.9896 3.70097 74.5826 3.75105 75.1768C3.78097 75.527 3.70936 75.8187 3.39111 76.0026C3.23443 76.0934 3.1133 76.0554 2.95781 75.9822C2.57809 75.8028 2.56739 75.3789 2.53133 75.01C2.50378 74.7319 2.47837 74.4538 2.45359 74.1752C2.40068 73.581 2.35499 72.9868 2.31781 72.3914C2.17083 70.026 2.12795 67.663 2.22936 65.2947C2.27644 64.187 2.34441 63.0768 2.43463 61.9711L2.45584 61.716C2.53021 60.8323 2.57809 59.905 2.7319 59.0157C2.11161 58.7388 1.49697 58.3864 1.2119 57.8006C0.842374 57.0402 1.24852 56.3899 1.82711 55.942C1.82147 55.8665 1.82711 55.7916 1.84288 55.7236C2.00908 54.9988 2.28739 54.2826 2.55612 53.5914C2.82711 52.8967 3.12626 52.2129 3.45528 51.5438C4.77584 48.8634 6.57978 46.4141 8.73021 44.3505C9.79837 43.3257 10.9674 42.3784 12.2153 41.5839C12.8339 41.1907 13.4682 40.8274 14.1251 40.504L14.2223 40.4563C14.6796 40.2328 15.1924 39.9951 15.701 39.8706C15.7539 39.8309 15.8074 39.7935 15.8615 39.7577C16.0615 39.6237 16.333 39.7208 16.4513 39.912C16.5089 39.8672 16.5753 39.8275 16.6513 39.7917L16.7265 39.7571C17.1828 39.5502 17.7307 39.3566 18.226 39.4927C18.5336 39.5772 18.7758 39.8054 18.8846 40.0959C19.1341 39.9631 19.3792 39.8264 19.6187 39.659C20.0034 39.3911 20.3522 39.0585 20.6654 38.7094C21.2936 38.0075 21.7499 37.1852 21.9539 36.2595ZM43.7505 58.3926C43.7077 58.4051 43.6626 58.4096 43.6158 58.4039C43.7003 58.4139 43.5311 58.4642 43.4847 58.4883L43.4812 58.4902C43.3967 58.539 43.3117 58.5861 43.2254 58.6315C43.0243 58.7382 42.8187 58.8341 42.6096 58.9244C42.1978 59.1009 41.7725 59.2365 41.3358 59.3358C40.9088 59.4328 40.4609 59.4896 40.0232 59.4986C39.7302 59.5043 39.3826 59.4908 39.0795 59.4039C39.1145 59.939 39.1533 60.4736 39.1967 61.0077L39.7953 60.8694C40.3939 60.7311 40.9919 60.5893 41.5826 60.4169C42.026 60.2875 42.4632 60.136 42.8953 59.9725C43.1218 59.8868 43.3465 59.7961 43.5685 59.6985C43.679 59.6499 43.7826 59.5921 43.8849 59.5335L43.9725 59.4834C43.9522 59.2444 43.915 59.0101 43.861 58.774C43.8328 58.6491 43.7848 58.5209 43.7505 58.3926ZM2.76006 55.8722C2.68401 56.1208 2.56739 56.353 2.30147 56.4091C2.20739 56.429 2.12857 56.4182 2.06316 56.3859L2.04748 56.4177C1.82884 56.8698 1.76463 57.3469 2.26767 57.6951C2.49477 57.8523 2.74204 57.9885 2.99781 58.1105C3.45521 58.3298 3.94231 58.506 4.40156 58.6853L4.49302 58.7212C5.31443 59.0458 6.1488 59.3415 6.99612 59.5889C7.85589 59.8391 8.73077 60.04 9.61646 60.1677C9.98992 60.2211 10.3663 60.2586 10.7432 60.283C10.7494 59.7722 10.7465 59.2609 10.7449 58.7501C10.6108 58.7331 10.4778 58.715 10.3494 58.6996C9.95837 58.6537 9.56851 58.5975 9.18091 58.5277C8.37133 58.3818 7.5702 58.1804 6.7888 57.9227C5.34091 57.4443 3.99387 56.7604 2.76006 55.8722ZM18.6344 40.227C18.3054 39.8763 17.6761 40.0029 17.279 40.1731C17.1589 40.2248 17.0378 40.277 16.9229 40.34L16.9006 40.3525C16.7668 40.4302 16.7674 40.4763 16.8328 40.631C16.9178 40.8348 17.0361 41.0317 17.1488 41.2207C17.6311 42.0317 18.266 42.7377 18.991 43.3341C21.5589 45.4453 25.2479 46.1899 28.4592 45.4828C30.0004 45.1438 31.487 44.4595 32.6216 43.3371L32.7249 43.2336C33.1824 42.7725 33.8103 42.105 33.7663 41.4217C33.7454 41.093 33.4789 41.0743 33.2068 41.0108C33.0953 40.9847 32.9888 40.9477 32.8964 40.8956C32.9708 41.2185 32.5748 41.6985 32.3702 41.9001C31.9415 42.3228 31.4254 42.6531 30.8796 42.9C29.8406 43.3705 28.7105 43.593 27.5854 43.7337C26.3088 43.8937 25.0046 43.8796 23.7375 43.6429C22.635 43.4369 21.5482 43.047 20.5995 42.4398C20.1646 42.1616 19.7358 41.8444 19.373 41.475L19.2959 41.3965C19.034 41.1292 18.7292 40.806 18.5725 40.4552C18.5127 40.4557 18.4536 40.454 18.3944 40.45C18.3527 40.4478 18.3303 40.3882 18.3719 40.366C18.4187 40.341 18.4654 40.3161 18.5122 40.2917C18.5043 40.2656 18.4975 40.2401 18.4919 40.214C18.4874 40.1918 18.5105 40.1714 18.5308 40.1839C18.5589 40.2009 18.586 40.2191 18.6125 40.2383C18.6198 40.235 18.6271 40.231 18.6344 40.227Z" fill="black"/>
<path fill-rule="evenodd" clip-rule="evenodd" d="M35.3519 24.049C35.2181 22.3042 35.4255 20.4755 34.7577 18.8171C33.5933 16.0655 30.3282 15.148 27.7968 14.1005C26.7828 13.7986 23.3704 13.7564 22.1831 13.3569C19.4957 12.4528 18.8536 11.3755 16.7183 13.097C16.3579 13.3911 16.1323 13.7107 15.9678 14.1474L15.9746 14.1493C15.9276 14.3314 15.978 14.513 16.0838 14.6518C15.158 15.6051 14.7705 17.0343 15.2456 18.3034C16.7958 21.6057 16.7229 23.3912 16.2234 26.9414C15.5712 30.2557 17.0617 31.4663 19.5302 33.2697C19.4297 33.466 19.4089 33.7269 19.5399 33.9001C22.3944 37.9407 27.7765 39.87 32.3879 37.8191C34.2598 36.9798 35.0954 34.9718 35.5723 33.1599C36.1279 31.1311 36.2986 28.9932 35.8463 26.9266C35.6639 25.9708 35.4263 25.0219 35.3519 24.049Z" fill="white"/>
<path fill-rule="evenodd" clip-rule="evenodd" d="M18.8868 4.71828C19.2333 4.66587 19.4949 4.88242 19.6194 5.18764L19.6259 5.20408C19.6659 5.30793 19.7104 5.40895 19.7583 5.50826C20.6254 5.07979 21.8626 5.18989 22.4113 6.05762C22.8028 6.67735 22.564 7.41284 22.4164 8.07003L22.3195 8.50304C22.5068 8.62311 22.648 8.83813 22.6414 9.06079L22.6406 9.07793L22.6011 9.68177C22.7262 9.55408 22.8406 9.41504 22.9426 9.26691C23.013 9.13695 23.089 9.00926 23.1707 8.88554C23.6513 8.15742 24.7302 8.7902 24.3335 9.56997C24.2575 9.72036 24.1719 9.8628 24.08 10.0001C23.9764 10.2027 23.8913 10.411 23.8259 10.625C24.0135 10.7073 24.1578 10.89 24.173 11.1658C24.2085 11.8099 23.8727 12.3474 23.3386 12.6851C23.1814 12.7844 23.0192 12.8037 22.8721 12.7668C22.8462 12.802 22.8203 12.8371 22.7955 12.8729C23.0085 13.0471 23.2006 13.2458 23.3657 13.466C23.8626 13.391 24.3623 13.3559 24.862 13.3547C25.4727 13.0534 26.204 13.0596 26.8603 13.1726C27.2828 13.2452 27.6885 13.3865 28.1042 13.4881C28.5426 13.5948 28.9876 13.5988 29.431 13.6714C29.9899 13.7628 30.48 14.0227 30.7882 14.4375C31.1268 14.4478 31.4828 14.5874 31.778 14.7769C32.4654 15.2184 33.1488 15.6662 33.8344 16.1106C34.0975 16.2812 34.1959 16.5535 34.1475 16.8573L34.1442 16.8767L34.1211 17.0027L34.1754 17.0803C34.3852 17.3787 34.6135 17.6914 34.7493 18.0208C35.0006 18.3857 35.2276 18.7682 35.4288 19.1627C35.6997 19.6927 35.9234 20.2546 36.0749 20.8312C36.1127 20.977 36.1504 21.124 36.1752 21.2727C36.2107 21.4827 36.1561 21.6455 36.1262 21.847C36.089 22.1024 36.0755 22.3612 36.0361 22.6171C36.0096 22.7868 35.8665 22.8702 35.7166 22.8748C35.773 23.3067 35.8135 23.7414 35.8524 24.1727C35.9071 24.789 35.9442 25.407 35.9764 26.0251C36.142 26.2674 36.4806 26.4592 36.7251 26.5256C37.0637 26.617 37.4186 26.5177 37.7386 26.4013C37.9397 26.3281 38.1048 26.5829 38.0068 26.7532C37.6986 27.2878 37.0395 27.2855 36.5403 27.0489C36.329 26.949 36.1437 26.8043 36.0062 26.6158C36.0147 26.7952 36.0237 26.9745 36.0327 27.1544L36.0411 27.3174C36.1426 29.2203 36.3617 31.1888 36.0068 33.073C35.3921 36.3368 32.7109 38.8219 29.4355 39.0149C27.7168 39.1162 26.2855 38.6048 25.5737 38.3195C24.862 38.0342 25.1386 37.4526 25.6327 37.6188C26.4839 37.9053 28.0475 38.332 29.4468 38.1477C32.7448 37.7134 35.5414 36.0529 35.2541 28.9012C35.2134 27.887 35.0879 26.8724 35.0609 25.8582C35.0349 24.8668 35.0445 23.8747 35.0011 22.8839L34.9867 22.5458C34.9697 22.1507 34.9516 21.7539 34.9223 21.3584C34.8868 21.2052 34.8575 21.0497 34.8141 20.8993C34.6964 20.4901 34.5426 20.0923 34.3516 19.7126C34.3093 19.7449 34.262 19.7682 34.2107 19.7773C33.8214 19.8477 33.4564 19.8278 33.0919 19.6644C32.9217 19.5889 32.7719 19.4884 32.6321 19.3641C32.5657 19.3057 32.5211 19.2489 32.4862 19.1899C32.3099 19.1927 32.1335 19.1394 32.0231 19.0117C31.8972 18.8662 31.8762 18.7158 31.9256 18.5767L31.9307 18.5628L31.9183 18.5583C31.7696 18.9459 31.4733 19.287 31.1482 19.5174C30.6344 19.8828 29.9916 19.9884 29.3752 19.998C28.6947 20.0083 27.9769 19.9027 27.3054 19.7949C27.1279 19.7665 26.9516 19.7342 26.7786 19.6905C26.7719 19.6973 26.7651 19.7052 26.7578 19.712C26.1814 20.2676 25.3707 20.4106 24.6395 20.0934C24.2169 19.9101 23.8626 19.615 23.5493 19.2767C23.5448 19.4538 23.5358 19.6309 23.5206 19.8062L23.5143 19.8759C23.4831 20.2025 23.4231 20.5489 23.178 20.7846C22.782 21.1666 22.2073 21.0133 21.7504 20.7648C21.751 20.7767 21.751 20.7892 21.751 20.8016C21.8744 21.2239 21.9983 21.6467 22.1223 22.0695L22.149 22.1595C22.2391 22.4598 22.3379 22.7604 22.3651 23.0745C22.4169 23.675 22.0203 24.268 21.3578 24.0666C21.0102 23.9613 20.7318 23.6669 20.4647 23.4312L20.2964 23.2845C20.7319 24.7186 21.0338 26.2038 21.062 27.7004C21.0637 27.7815 20.9944 27.8428 20.9178 27.8456C20.7386 27.853 20.5459 27.8173 20.3657 27.7452C20.3555 27.7446 20.3454 27.7441 20.3347 27.7424C20.0271 27.6975 19.7414 27.5857 19.4896 27.4206C19.5476 27.6062 19.5735 27.8053 19.5583 28.0136C19.5544 28.0641 19.4761 28.0817 19.4648 28.0261C19.3195 27.3059 18.4828 26.7617 17.7617 26.8996C16.9876 27.0477 16.4175 27.7185 16.2778 28.4818C16.1279 29.3019 16.4147 30.2502 16.9459 30.883C17.1904 31.1747 17.5121 31.4181 17.8941 31.4794C18.0688 31.5072 18.2502 31.4976 18.4197 31.4477C18.4919 31.4261 18.5595 31.396 18.6282 31.3676C18.7285 31.3268 18.8457 31.3205 18.9403 31.2774C19.155 31.1804 19.3707 31.3796 19.262 31.6015C19.1673 31.795 19.0823 31.9255 18.9251 32.0254C19.0524 32.182 19.1679 32.3999 19.2107 32.4584C19.4293 32.7558 19.6513 33.0367 19.9003 33.3085C20.1538 33.5844 20.4304 33.8363 20.7228 34.0696L20.8457 34.1674C21.1274 34.3924 21.3726 34.6009 21.5713 34.9237C21.7279 35.1785 21.5251 35.5241 21.2316 35.5201C20.3133 35.5071 19.6457 34.6944 19.1702 33.9844C19.1026 33.8829 19.0389 33.7756 18.9797 33.6655C18.9583 33.7001 18.9347 33.7325 18.9082 33.762L18.9606 33.9039C19.1161 34.3216 18.4462 34.5945 18.2519 34.2046C18.1104 33.922 17.9465 33.653 17.764 33.3988C17.6564 33.3835 17.551 33.3176 17.4924 33.2325C17.3442 33.0163 17.178 32.7978 17.0378 32.5674C16.96 32.493 16.88 32.4215 16.7983 32.3517C16.7747 32.3727 16.7504 32.3937 16.7273 32.4158C16.6248 32.6514 16.498 32.8664 16.3409 33.069L16.3072 33.1123C16.006 33.4946 15.6138 33.8858 15.1285 33.9793C14.9803 34.0077 14.8378 33.8221 14.969 33.7035C15.3088 33.3959 15.7104 33.1865 16.0237 32.8432C16.178 32.674 16.3197 32.4877 16.4416 32.2925L16.4693 32.2473C16.4896 32.2138 16.5104 32.1803 16.5319 32.1463C16.3904 32.0492 16.249 31.9516 16.1076 31.854C15.7183 32.189 15.2114 32.3423 14.7808 32.6198L14.738 32.648C14.3488 32.9101 13.9386 32.3301 14.2507 32.0118C14.5948 31.6621 14.882 31.2452 15.1868 30.8565C15.0435 30.5906 14.9756 30.2761 14.9502 29.9583C14.9402 29.8684 14.9324 29.7784 14.9245 29.6884C14.7059 29.6918 14.4862 29.6163 14.3003 29.4863L14.2299 29.4358C14.004 29.5085 13.7668 29.5436 13.5397 29.5374C13.0057 29.5215 12.7871 28.9069 13.1211 28.5181C13.462 28.1209 14.0586 28.0341 14.5313 28.227C14.5465 28.2191 14.5623 28.2106 14.5775 28.202C14.555 28.0976 14.56 28.0029 14.5856 27.9197L14.5782 27.869C14.4742 27.7083 14.4059 27.5249 14.38 27.3311C14.3595 27.1776 14.3636 27.0254 14.3989 26.8738C14.4106 26.8234 14.435 26.7711 14.4537 26.7185C14.4152 26.6208 14.3926 26.5198 14.3857 26.4182C14.3749 26.4053 14.3642 26.3921 14.354 26.3778C14.1195 26.0461 14.1669 25.6464 14.3901 25.3779C14.3911 25.3608 14.3927 25.3438 14.395 25.3268C14.3819 25.2972 14.3699 25.2673 14.359 25.237C14.1409 25.0154 13.9808 24.7487 14.0107 24.4183C14.0282 24.2238 14.1075 24.0488 14.2276 23.918C14.2063 23.8545 14.2042 23.781 14.23 23.7197C14.0384 23.2063 14.0627 22.588 14.2006 22.0139C14.1702 21.9265 14.1544 21.8317 14.1578 21.7312C14.1735 21.305 14.5397 20.9135 14.9735 20.9186C15.0258 20.919 15.0747 20.9259 15.1217 20.9359L15.1223 20.9258C15.1389 20.7978 15.1738 20.6796 15.2248 20.5736C15.1997 20.5644 15.1765 20.5513 15.1562 20.5339C14.8782 20.6833 14.5841 20.7975 14.2757 20.8753C14.0489 20.9325 13.8166 20.6728 13.9576 20.4584C14.023 20.3589 14.0952 20.2696 14.1729 20.188C14.0624 20.1886 13.9502 20.1962 13.8366 20.2109C13.6327 20.2375 13.4051 20.0974 13.2727 19.9078C13.1082 20.069 12.9431 20.2296 12.778 20.3902C12.36 20.7982 11.7285 20.498 11.6626 19.96C11.538 19.9265 11.422 19.8698 11.32 19.7886C10.6609 20.0769 9.95157 20.2353 9.2265 20.2653C8.70594 20.2869 8.40171 19.6763 8.64509 19.245C8.80847 18.9555 9.01129 18.6956 9.24509 18.4697C8.88227 18.5815 8.50763 18.6621 8.12509 18.7138C7.91833 18.7416 7.62594 18.569 7.54312 18.3778C7.2265 17.6423 7.25354 16.8756 7.61805 16.1599C7.63213 16.1316 7.64791 16.1043 7.66312 16.0771C7.70087 15.9823 7.74199 15.8887 7.7865 15.7967C7.33805 15.3257 7.29918 14.6254 7.54087 14.0391C7.44396 13.8808 7.40678 13.6901 7.4727 13.5176C7.6603 13.021 7.93072 12.5625 8.27213 12.1686C8.23946 12.1051 8.21072 12.0375 8.1865 11.9649C7.99439 11.3775 8.21692 10.6687 8.66594 10.2595C8.94819 10.0018 9.2727 9.84748 9.61918 9.74873C9.76509 9.48881 9.9527 9.25443 10.1713 9.05693C10.1797 9.03821 10.1882 9.01948 10.1978 9.00075C10.538 8.35492 11.1578 8.00873 11.822 7.92871C11.8479 7.67617 12.0169 7.43498 12.2626 7.35666C12.3302 7.13817 12.431 6.92932 12.5696 6.73977C12.7876 6.44126 13.1499 6.30052 13.4913 6.49631C13.6783 6.60357 13.8575 6.72672 14.0254 6.86292C14.1008 6.8273 14.1863 6.80425 14.2827 6.7969L14.3071 6.79539L14.8626 6.76701C15.0952 6.66316 15.3273 6.55419 15.56 6.44807C15.6997 6.33173 15.8558 6.23468 16.0259 6.16261C16.2186 6.08145 16.4158 6.03549 16.6135 6.02016C16.7741 5.96738 16.9358 5.92085 17.1003 5.88453C17.4868 5.7994 17.8913 5.75173 18.2924 5.7557C18.3006 5.65112 18.3047 5.54528 18.3039 5.43819L18.3031 5.38455C18.2941 5.0412 18.5662 4.76709 18.8868 4.71828ZM18.4975 32.1888C18.4423 32.2007 18.3865 32.2104 18.3307 32.2172C18.3476 32.2592 18.3645 32.3012 18.3809 32.3432C18.4259 32.3687 18.4716 32.3931 18.5172 32.4158C18.5037 32.3387 18.4958 32.2609 18.4975 32.1888ZM15.603 31.3224L15.5656 31.3919C15.5595 31.4032 15.5535 31.4145 15.5476 31.4255C15.6271 31.4193 15.7071 31.421 15.7859 31.4301L15.7857 31.4216C15.7756 31.4181 15.7654 31.415 15.7557 31.4102C15.7013 31.3839 15.6507 31.3544 15.603 31.3224ZM17.1673 28.1527C17.6658 28.1819 18.0881 28.2589 18.5414 28.4785L18.5803 28.4977C18.9809 28.6981 19.6434 29.0681 19.5876 29.5987C19.5719 29.7497 19.4631 29.9086 19.2919 29.8966C18.8226 29.8643 18.5544 29.3876 18.2366 29.0902C17.9161 28.7906 17.5223 28.4824 17.1341 28.2764C17.0792 28.2474 17.1008 28.1556 17.1606 28.1526L17.1673 28.1527ZM14.9071 21.1615C14.7876 21.1654 14.8276 21.2823 14.889 21.1847C14.8941 21.1768 14.9003 21.1688 14.9071 21.1615ZM21.3542 13.3569C20.223 13.3868 19.0846 14.0596 18.2372 14.7397C17.5 15.3313 16.8635 16.035 16.2998 16.7935C16.1548 17.1713 16.0303 17.5569 15.9251 17.9453C15.8558 18.2019 15.8124 18.4612 15.7544 18.72L15.7364 18.7993C15.6908 18.8852 15.6569 18.9775 15.6322 19.0729C15.735 19.1766 15.8682 19.2509 16.0149 19.2862C16.0622 19.2975 16.1014 19.3221 16.1325 19.3547C16.2506 19.1561 16.3538 18.9466 16.4138 18.7245L16.416 18.7142C16.643 18.3397 16.8895 17.9768 17.1538 17.6264C17.8828 16.6588 18.6857 15.7769 19.6507 15.0431C20.3826 14.4869 21.2006 14.0511 22.0704 13.7679C21.8575 13.5948 21.6157 13.458 21.3542 13.3569Z" fill="black"/>
<path fill-rule="evenodd" clip-rule="evenodd" d="M30.1738 34.444C29.7951 34.2884 29.4572 34.0288 29.2102 33.6971C29.1243 33.5819 29.102 33.4601 29.12 33.3488C29.1403 33.2236 29.2138 33.1101 29.3141 33.034C29.4147 32.9576 29.5405 32.92 29.6622 32.9392C29.7679 32.9558 29.8731 33.0141 29.9564 33.1351L29.9738 33.1592C30.1207 33.3594 30.312 33.5236 30.5301 33.6295C30.7403 33.7315 30.9754 33.7791 31.2187 33.7514C31.682 33.6987 32.0013 33.4463 32.3407 33.1036C32.3828 33.0603 32.4249 33.0156 32.4672 32.9703C32.4939 32.9292 32.531 32.9028 32.5722 32.8889C32.6179 32.8735 32.6696 32.8744 32.7169 32.891C32.7626 32.9071 32.8034 32.9375 32.8308 32.978C32.8568 33.0165 32.8716 33.064 32.8668 33.1187C32.8357 33.4739 32.6514 33.791 32.3895 34.0399C32.0986 34.3163 31.7131 34.5076 31.3502 34.5747C30.9503 34.6486 30.5428 34.5956 30.1738 34.444V34.444ZM31.5388 28.9641C31.9642 29.2246 32.6124 29.832 32.1548 30.4778C31.6161 31.0472 30.8404 30.3944 30.4582 30.0991C30.1038 29.8703 29.7056 30.4588 30.0344 30.726C32.7963 32.7858 33.9172 29.0322 31.754 28.6578C31.5158 28.6166 31.4273 28.8835 31.5388 28.9641ZM26.5894 26.568C26.6364 25.9803 27.525 25.8468 27.6134 26.4284C27.6926 26.9494 27.5994 27.428 27.3665 27.897C27.1439 28.3451 26.5844 28.1361 26.5421 27.728C26.4854 27.1811 26.5602 26.9336 26.5894 26.568ZM33.3536 26.3078C33.4775 26.1444 33.6563 26.0328 33.8707 26.0959C34.5402 26.293 34.3429 27.2505 34.1077 27.7166C33.98 27.9697 33.5669 28.0339 33.3803 27.8111C33.0761 27.4476 32.9304 26.7218 33.3171 26.3638C33.3276 26.3453 33.3393 26.3267 33.3536 26.3078ZM27.357 23.9963L27.4628 23.9776C27.79 23.9206 28.1968 23.8659 28.4283 24.1308C28.551 24.2714 28.5933 24.5325 28.4283 24.667C28.138 24.9037 27.8171 24.812 27.4693 24.832C27.1827 24.8486 26.9072 24.8964 26.631 24.9759C26.0253 25.1503 25.5317 25.4687 25.0144 25.8182C24.9465 25.8641 24.8772 25.7766 24.9096 25.7127C25.2082 25.1234 25.787 24.6394 26.3667 24.3443C26.6761 24.1869 27.0147 24.0562 27.357 23.9963ZM32.7432 23.7323L32.8242 23.749C33.7051 23.9345 34.8497 24.3051 35.2669 25.1767C35.2828 25.3 35.266 25.3264 35.2524 25.3437L35.2478 25.3494C35.2366 25.3642 35.2276 25.3845 35.1745 25.4012C35.1598 25.3977 35.145 25.394 35.1299 25.39C34.9387 25.3395 34.7874 25.27 34.6409 25.1978L34.4821 25.119C34.2979 25.028 34.112 24.9403 33.915 24.8756C33.4946 24.7374 33.0622 24.6401 32.623 24.5882C32.5279 24.5769 32.4362 24.5446 32.3639 24.4891C32.2953 24.4365 32.2429 24.3636 32.2189 24.2667C32.188 24.1413 32.1969 24.0464 32.2636 23.9333C32.3139 23.8484 32.3857 23.7895 32.4682 23.7557C32.5523 23.7213 32.648 23.7131 32.7432 23.7323Z" fill="black"/>
<path fill-rule="evenodd" clip-rule="evenodd" d="M38.0806 24.6432C38.0342 24.6355 37.9878 24.6281 37.9414 24.6213C37.9052 24.6006 37.8626 24.5846 37.8132 24.575C37.7002 24.5461 37.588 24.5267 37.476 24.5162C35.8686 24.1518 32.1499 24.6692 31.9964 26.051C31.4846 26.2231 31.0416 26.0689 30.4483 26.0843C29.9967 24.1828 22.1892 24.4512 21.8137 25.5976C21.8123 25.5972 21.8109 25.5968 21.8095 25.5964C21.4487 25.4839 20.9168 25.511 20.5038 25.4932C19.6221 25.4746 18.7393 25.5538 17.8766 25.7411C16.2611 25.9997 14.0563 26.3025 15.1799 28.3346C15.1801 28.335 15.1803 28.3354 15.1806 28.3357L15.1807 28.3355C15.3744 28.5355 15.703 28.3745 15.7152 28.1038C15.3375 27.1411 16.1906 27.0255 16.8471 26.7488C18.4805 26.1577 20.1435 26.0758 21.8328 26.2586C21.9599 26.4093 22.1528 26.5408 22.3566 26.6096C23.4861 26.7984 22.8909 27.6424 23.6048 27.7652C23.4737 30.7073 27.0197 32.3133 29.0742 30.3792C29.8946 29.5713 30.0901 28.3745 30.2803 27.2957C30.3809 27.2729 30.4448 27.2175 30.4822 27.1442C30.724 26.901 30.876 26.6764 31.3542 26.6096C31.8325 26.5428 32.2007 26.6768 32.2505 26.7178C32.263 26.7433 32.2765 26.7689 32.2922 26.7944C32.314 26.8325 32.3438 26.8628 32.3776 26.8867C31.9053 29.8165 34.1631 31.6693 36.4425 30.1498C37.433 29.2113 37.6422 27.7744 37.6836 26.492C37.8179 26.4104 37.9029 26.2522 37.8564 26.0533C37.7923 25.7792 37.9425 25.5419 38.1817 25.4227C38.4926 25.268 38.4376 24.7028 38.0806 24.6432M28.2864 26.0331C28.0035 25.9705 27.8826 26.4099 28.1665 26.4727C28.3674 26.5172 28.5378 26.6193 28.6529 26.7923L28.665 26.8111C28.8194 27.0587 29.2099 26.8301 29.0544 26.581C28.8795 26.3006 28.6076 26.1043 28.2864 26.0331ZM36.5729 25.7607C36.4732 25.6899 36.3223 25.7425 36.2643 25.8425C36.2006 25.9526 36.2424 26.0752 36.3358 26.1473L36.3453 26.1543C36.431 26.2151 36.5144 26.3242 36.5249 26.4359L36.5258 26.4499C36.5371 26.7423 36.9882 26.7438 36.9769 26.4499C36.9659 26.1624 36.8007 25.9222 36.5729 25.7607Z" fill="black"/>
</g>
<defs>
<clipPath id="clip0_2218_69453">
<rect width="48" height="48" rx="16" fill="white"/>
</clipPath>
</defs>
</svg>
