<svg width="48" height="48" viewBox="0 0 48 48" fill="none" xmlns="http://www.w3.org/2000/svg">
<g clip-path="url(#clip0_2218_69405)">
<path fill-rule="evenodd" clip-rule="evenodd" d="M42.5185 51.0173C42.1418 49.8513 42.5905 48.5046 42.2972 47.2477C42.1967 46.7505 42.0057 44.9035 41.8139 43.8234C41.7066 43.2192 42.3485 43.0316 42.4471 42.7905C43.1413 40.6243 38.0772 35.5282 37.7681 35.3404C37.3049 35.0708 36.895 34.8386 36.4424 34.5631C35.1221 34.0959 33.5388 32.7962 32.3418 33.631C30.2679 30.5211 31.0884 26.6896 29.963 26.2342C28.8376 25.7788 25.5144 24.8584 23.6144 26.0337C22.4756 26.8825 22.5596 28.3436 22.04 29.5487C21.735 30.1159 21.5851 30.9376 21.2301 31.3076C20.0237 32.5646 18.5193 32.7813 16.8375 32.9946C16.7094 33.0109 16.5746 32.6599 16.4502 32.7033C13.6132 33.691 10.3121 33.9792 7.09928 39.5099C6.64553 40.3008 5.42147 41.5699 5.83077 42.4839C3.13398 48.8009 0.48044 63.0192 7.88016 66.565C8.11669 66.7174 9.72131 65.9002 9.98277 65.9077C10.4186 65.9204 9.58352 66.9864 9.98277 66.7964C12.914 67.0205 29.0428 66.4425 35.2252 67.0205C39.4767 66.9884 42.1695 67.7393 43.1512 66.9884C42.7587 66.0331 42.7769 65.0098 42.901 63.9997C43.8045 63.3225 42.6876 58.5496 42.7821 57.1519C43.6278 56.1306 42.9544 52.3003 42.5185 51.0173Z" fill="white"/>
<path fill-rule="evenodd" clip-rule="evenodd" d="M41.1707 44.026C40.7651 44.6202 40.3925 45.2319 40.0556 45.8682C39.8819 46.1964 39.7199 46.5311 39.5741 46.8727C39.5437 46.1342 39.5371 45.387 39.4514 44.6558C39.4453 44.6031 39.3579 44.5774 39.3487 44.6418C39.2541 45.3048 39.2384 45.985 39.2027 46.6551C39.1615 46.6424 39.116 46.635 39.0658 46.635C38.5791 46.635 38.0996 46.6752 37.6146 46.7148C37.3973 46.7325 37.1699 46.7461 36.9482 46.781C37.1266 46.5825 37.2928 46.3728 37.4462 46.1541C37.6027 45.931 37.7815 45.5824 37.5089 45.3681C37.2077 45.1314 36.6172 45.4409 36.3259 45.5613C36.1785 45.6223 36.0338 45.6886 35.8915 45.7591C35.7117 45.2518 35.1606 45.1845 34.6883 45.2546C34.3515 45.3046 34.0245 45.4206 33.6963 45.509C33.2796 45.6211 32.8611 45.7267 32.4411 45.8258C31.6848 46.0041 30.9232 46.16 30.1581 46.2951C30.1379 46.2714 30.1098 46.2527 30.0724 46.2433C29.8104 46.1773 29.5213 46.2279 29.2526 46.2329C28.9763 46.238 28.7 46.2376 28.4237 46.2319C27.9301 46.2217 27.437 46.2176 26.9436 46.209C26.8033 46.1233 26.6254 46.0004 26.5819 45.8392C26.5275 45.638 26.6973 45.4151 26.7761 45.2438C27.0788 44.5862 27.1847 43.8503 27.0659 43.134C27.0448 43.0064 27.0012 42.8668 26.9382 42.7359C27.4788 42.7942 28.0125 42.8338 28.5561 42.8517C29.6415 42.8872 30.727 42.9245 31.8129 42.9326C33.9843 42.9489 36.1556 42.949 38.327 42.933C39.5547 42.924 40.7796 42.9127 42.0058 42.8495C41.9058 42.9771 41.8086 43.1074 41.7138 43.2398C41.6942 43.2339 41.6685 43.2445 41.6715 43.269C41.6725 43.2776 41.6735 43.2861 41.6745 43.2946C41.5014 43.5382 41.3347 43.7856 41.1707 44.026M38.7563 66.6396C38.2517 66.6234 37.7472 66.6072 37.2426 66.591C36.2522 66.5593 35.2618 66.5275 34.2714 66.4958C32.3093 66.4329 30.3473 66.3722 28.3849 66.3176C26.4273 66.2633 24.4687 66.2057 22.5105 66.2673C20.5479 66.3289 18.5902 66.4885 16.6312 66.6166C15.5422 66.6877 14.4523 66.7493 13.3612 66.7788C12.3221 66.8068 11.2737 66.7644 10.2362 66.8391C10.2013 66.5807 10.227 66.323 10.2232 66.0657C10.5635 65.8677 10.8976 65.6572 11.2277 65.4504C12.4313 64.6963 13.569 63.8431 14.6421 62.9105C14.8071 62.7672 14.9688 62.6207 15.1289 62.4728C15.0175 62.7181 15.1067 63.0343 15.4261 63.1381C15.8155 63.2647 16.2143 63.2198 16.6188 63.2102C17.0295 63.2005 17.4403 63.1912 17.8511 63.1825C18.654 63.1653 19.4569 63.1499 20.2599 63.1364C21.8284 63.1099 23.397 63.0904 24.9657 63.0775C28.1218 63.0519 31.2756 63.0952 34.4312 63.1525C35.3185 63.1687 36.2049 63.1887 37.0923 63.1684C37.5362 63.1583 37.9819 63.1551 38.4254 63.1311C38.7806 63.1117 39.1381 63.0611 39.4933 63.0156C39.5381 63.6387 39.5849 64.2618 39.637 64.8844C39.6716 65.2955 39.7071 65.7066 39.7421 66.1177C39.7565 66.2872 39.7575 66.4604 39.7813 66.6215C39.4403 66.6403 39.1013 66.6506 38.7563 66.6396M39.1033 49.0423C39.0909 49.5193 39.0843 49.9966 39.0809 50.474C39.04 50.4503 38.9938 50.4331 38.9418 50.4251C38.39 50.3403 37.7995 50.4046 37.2412 50.4141C36.7015 50.4232 36.16 50.4201 35.6209 50.4458C35.0806 50.4715 34.5406 50.5022 34.0005 50.5304C33.7471 50.5437 33.4965 50.5551 33.245 50.5897C33.0728 50.6133 32.8524 50.6116 32.6684 50.661C33.4405 49.9077 34.2084 49.15 34.9784 48.3947C35.0015 48.372 35.0182 48.348 35.0298 48.3236C35.5433 48.0085 36.0361 47.6538 36.4824 47.2476C36.8364 47.3851 37.2394 47.4024 37.6146 47.4331C38.0997 47.4728 38.5789 47.5129 39.0658 47.5129C39.0987 47.5129 39.1295 47.5096 39.1586 47.5039C39.1347 48.0164 39.1166 48.529 39.1033 49.0423M19.0556 58.309C20.2343 58.6882 21.5115 58.684 22.7378 58.7599C24.0451 58.8409 25.3505 58.9082 26.6593 58.9595C29.2733 59.0618 31.8857 59.2008 34.4993 59.3115C35.9922 59.3746 37.4848 59.4443 38.977 59.52C39.0829 59.5253 39.1839 59.4979 39.2729 59.4479C39.323 60.4378 39.3817 61.4273 39.4501 62.4162C39.4586 62.5399 39.468 62.6634 39.4768 62.7871C38.7744 62.6984 38.0774 62.6134 37.3698 62.5533C36.5752 62.4856 35.781 62.4286 34.9853 62.3755C33.4347 62.272 31.8816 62.1332 30.3282 62.0827C27.1615 61.9796 23.9879 62.0147 20.8201 62.0374C19.9237 62.0438 19.0275 62.0525 18.1312 62.0634C17.6831 62.0689 17.235 62.075 16.7868 62.0815C16.3365 62.0882 15.8525 62.041 15.4261 62.1993C15.422 62.2008 15.4186 62.203 15.4146 62.2045C16.701 60.9767 17.8535 59.6197 19.0556 58.309M23.1994 54.3834C25.1693 54.7447 27.1702 54.72 29.167 54.7557C31.2102 54.7924 33.2562 54.7681 35.2997 54.7724C36.4606 54.7748 37.6314 54.8262 38.7881 54.7221C38.9248 54.7098 39.0307 54.6576 39.1062 54.5835C39.1273 55.8228 39.1659 57.0615 39.2191 58.2997C39.1441 58.2676 39.0622 58.2481 38.977 58.243C36.3658 58.0883 33.7543 57.9479 31.1399 57.8621C28.5275 57.7764 25.9119 57.6747 23.2981 57.7065C22.0225 57.7221 20.6737 57.6399 19.4156 57.9199C19.8937 57.4082 20.3821 56.9059 20.8929 56.425C21.6376 55.724 22.4323 55.0673 23.1994 54.3834M24.7044 52.9247C24.7071 52.9217 24.7084 52.9183 24.7103 52.9152C24.7174 52.9205 24.7261 52.9241 24.7375 52.9239C26.5815 52.882 28.6503 53.468 30.3751 52.5686C31.145 52.1672 31.7827 51.5326 32.4017 50.9227C32.402 50.9272 32.4024 50.9318 32.4027 50.9363C32.4068 50.9858 32.4276 51.0454 32.4774 51.0673C32.6808 51.1572 32.9191 51.1631 33.1375 51.1951C33.3887 51.232 33.6354 51.2535 33.8888 51.2689C34.4475 51.3026 35.0062 51.3384 35.565 51.3702C36.1227 51.402 36.6828 51.4046 37.2412 51.4186C37.8011 51.4326 38.3876 51.5009 38.9418 51.4204C38.9927 51.4131 39.0379 51.3969 39.0781 51.3746C39.079 52.0968 39.0855 52.8189 39.0922 53.5406C39.0933 53.6583 39.0956 53.7759 39.0969 53.8934C39.0221 53.8244 38.9193 53.7761 38.7881 53.7644C37.7604 53.6733 36.7248 53.7138 35.6935 53.7173C34.6809 53.7207 33.6681 53.7241 32.6553 53.7275C30.6104 53.7344 28.5672 53.7545 26.5226 53.7937C25.5284 53.8127 24.5384 53.897 23.5587 54.059C23.9554 53.695 24.341 53.3203 24.7044 52.9247M8.68166 66.055C8.30414 66.1713 7.92938 66.1208 7.55113 66.2005C7.52786 66.2054 7.5064 66.2145 7.48673 66.2264C6.354 65.739 5.59896 64.7607 5.08223 63.6645C4.53755 62.5089 4.16211 61.2737 3.91062 60.0215C3.39209 57.4401 3.39118 54.7634 3.65958 52.1519C3.9233 49.5861 4.44544 47.0343 5.19056 44.5668C5.70217 42.8725 6.35417 41.1609 7.25947 39.616C8.30482 40.3216 9.11552 41.3374 9.87924 42.3303C10.7919 43.517 11.6143 44.7726 12.3505 46.0773C12.2743 46.3008 12.2625 46.5812 12.226 46.781C12.1556 47.1662 12.0921 47.5562 12.0421 47.9448C11.9354 48.7752 11.8329 49.6061 11.7238 50.4362C11.508 52.0777 11.2503 53.7147 10.9656 55.3454C10.9426 55.4776 10.9794 55.5893 11.0472 55.6731C10.4826 55.9729 9.92533 56.286 9.3824 56.6253C8.18876 57.3715 7.07321 58.2406 6.19738 59.3553C6.17462 59.3843 6.21028 59.423 6.23845 59.3967C8.11665 57.6486 10.4501 56.551 12.741 55.4663C13.9118 54.912 15.0768 54.3487 16.2001 53.7006C17.3747 53.023 18.495 52.2572 19.5686 51.4273C20.7947 50.4796 21.9488 49.4436 23.0306 48.332C23.1581 48.201 23.1272 48.037 23.0313 47.9334C23.0637 47.9232 23.0898 47.8949 23.0915 47.8475C23.1175 47.1216 23.3339 46.5032 23.7575 45.9157C24.1506 45.3706 24.6515 44.9214 25.1033 44.4283C25.3041 44.2091 25.496 43.9808 25.6673 43.7372C25.8437 43.4865 25.9511 43.2098 26.1046 42.9479C26.284 42.6418 26.4365 42.7982 26.5196 43.0753C26.6139 43.3893 26.608 43.757 26.5702 44.0799C26.5301 44.4215 26.4268 44.7546 26.2781 45.0634C26.1384 45.3534 25.9773 45.6485 26.0714 45.9809C26.2259 46.5273 26.8884 46.8437 27.3903 46.9667C27.9492 47.1037 28.5338 47.0771 29.0997 47.006C29.8085 46.917 30.5138 46.7867 31.2144 46.6481C32.0257 46.4877 32.8323 46.3025 33.6325 46.0932C34.0086 45.9949 34.3822 45.8656 34.762 45.7841C34.8974 45.7551 35.1481 45.7115 35.3072 45.7826C33.2613 47.0112 31.0308 47.8297 28.7654 48.5429C28.484 48.6314 28.5994 49.0596 28.8875 48.9886C31.3212 48.3892 33.6109 47.2767 35.79 46.0583C35.8233 46.0396 35.8516 46.0107 35.8724 45.9765C36.0916 45.8988 36.3145 45.8313 36.5418 45.7757C36.6434 45.7508 37.1658 45.5771 37.2311 45.6439C37.3237 45.7384 37.0034 46.0452 36.9234 46.1344C36.3539 46.7699 35.6766 47.2885 34.9434 47.7173C34.1997 48.1521 33.4084 48.4988 32.6133 48.826C31.7227 49.1925 30.7814 49.4806 29.9157 49.9018C29.5718 50.0692 29.8131 50.6377 30.1754 50.5224C30.6423 50.3738 31.096 50.1553 31.5498 49.9698C31.9352 49.8122 32.3208 49.6547 32.704 49.4918C32.9712 49.3782 33.2366 49.2608 33.4995 49.1381C33.1058 49.5113 32.712 49.8845 32.3184 50.2578C31.6367 50.9043 30.989 51.6408 30.1556 52.0943C29.3323 52.5422 28.393 52.5943 27.4766 52.5847C27.0165 52.5798 26.5584 52.5651 26.0983 52.5838C25.6141 52.6034 25.184 52.6784 24.7252 52.8319C24.7167 52.8347 24.7106 52.8399 24.7054 52.8456C24.6893 52.826 24.6621 52.8161 24.634 52.8328C23.3871 53.5755 22.2505 54.5389 21.1573 55.4911C20.0307 56.4725 18.9706 57.5161 17.9605 58.6185C16.9937 59.6735 16.0346 60.7327 14.9825 61.7035C13.9553 62.6513 12.8576 63.512 11.7113 64.3086C11.0867 64.7426 10.4467 65.1606 9.78454 65.5342C9.43068 65.7339 9.0713 65.935 8.68166 66.055M8.78651 37.4864C9.23304 36.9812 9.71366 36.5129 10.2222 36.0796C10.4466 36.1465 10.6822 36.1653 10.9195 36.1677C11.2817 36.1713 11.6447 36.1865 12.0069 36.1828C12.7043 36.1756 13.4014 36.1534 14.099 36.1496C15.5253 36.1418 16.9521 36.1414 18.3784 36.1538C18.5653 36.1555 18.7001 36.075 18.7833 35.9581C19.072 36.2878 19.3696 36.61 19.6697 36.927C20.1572 37.442 20.6769 37.9335 21.2301 38.3813C21.1224 38.382 21.0147 38.383 20.9076 38.3822C20.4143 38.3789 19.9209 38.3758 19.4276 38.3731C18.4376 38.3676 17.4475 38.3635 16.4575 38.3609C14.4893 38.3556 12.5149 38.3721 10.5492 38.4737C10.0036 38.5018 9.45378 38.5132 8.91011 38.5668C8.61524 38.5959 8.32071 38.6297 8.02611 38.6614C7.96583 38.6678 7.90803 38.6759 7.8513 38.6851C8.1398 38.2675 8.45056 37.8665 8.78651 37.4864M16.6695 32.9828C16.6562 32.9919 16.6418 33 16.6291 33.0097C16.6001 33.0316 16.6047 33.0712 16.6388 33.0845C16.6843 33.1024 16.732 33.1159 16.7811 33.1266C16.9303 33.3445 17.0468 33.614 17.1283 33.7505C17.3621 34.1429 17.631 34.5167 17.9046 34.8816C17.9596 34.9549 18.0156 35.0273 18.0719 35.0996C16.7471 35.0965 15.423 35.1033 14.099 35.1537C13.4019 35.1803 12.7025 35.2026 12.0069 35.2553C11.7209 35.277 11.435 35.3134 11.1499 35.3493C12.6338 34.2688 14.3027 33.4437 16.0315 32.8311C16.0292 32.8338 16.0267 32.8358 16.0244 32.8384C15.9863 32.881 16.0431 32.9361 16.086 32.9005C16.3109 32.7132 16.5061 32.8011 16.6695 32.9828M23.3634 45.6836C23.3257 45.7411 23.2887 45.8004 23.2526 45.8612C23.1657 45.774 23.0444 45.7156 22.888 45.7107C21.1525 45.6562 19.4179 45.6085 17.6814 45.6073C16.8251 45.6068 15.961 45.5777 15.1057 45.6204C14.6763 45.6418 14.247 45.6674 13.8177 45.6919C13.5176 45.709 13.1988 45.7304 12.9057 45.8179C12.2303 44.6278 11.4805 43.4836 10.6617 42.3896C12.5195 42.6192 14.4091 42.5947 16.2774 42.6585C18.3942 42.7307 20.5122 42.7463 22.6297 42.7968C23.2106 42.8106 23.7914 42.8258 24.3721 42.8422C24.6719 42.8506 24.9716 42.8594 25.2714 42.8685C25.3651 42.8713 25.4621 42.874 25.5591 42.8714C25.5518 42.8867 25.5444 42.9019 25.5371 42.917C25.3737 43.2571 25.1681 43.5701 24.9286 43.8605C24.4195 44.4781 23.8044 45.0101 23.3634 45.6836M21.0866 49.3495C21.0223 49.1695 20.8657 49.031 20.6161 49.0424C19.1942 49.1075 17.7696 49.1526 16.3492 49.2469C15.6573 49.2928 14.9626 49.3238 14.2719 49.3847C13.9156 49.4162 13.5599 49.4747 13.2052 49.5213C12.9619 49.5532 12.7073 49.5903 12.474 49.6773C12.5192 49.1742 12.5591 48.6707 12.5938 48.1665C12.6216 47.7614 12.63 47.3526 12.6279 46.9465C12.6268 46.7409 12.6199 46.5342 12.61 46.3287C12.631 46.333 12.652 46.3351 12.6726 46.3325C12.709 46.328 12.743 46.3237 12.7745 46.3151C13.1014 46.444 13.4715 46.4725 13.8177 46.4974C14.2284 46.5268 14.639 46.5582 15.0497 46.5877C15.9236 46.6505 16.8057 46.6465 17.6814 46.6752C19.4054 46.7318 21.1298 46.7647 22.8541 46.8112C22.7741 47.157 22.7713 47.5121 22.8994 47.8469C22.8102 47.8171 22.7075 47.8309 22.6198 47.9181C22.1231 48.4124 21.6116 48.8891 21.0866 49.3495M16.0706 53.0261C16.0355 52.9283 15.9692 52.8385 15.8908 52.7776C15.5893 52.5436 15.0388 52.6783 14.6769 52.6961C14.2485 52.7173 13.82 52.7384 13.3915 52.7595C13.2615 52.7659 12.5978 52.8 12.1104 52.9046C12.2111 52.1384 12.3025 51.371 12.3842 50.6021C12.4013 50.4407 12.4172 50.2792 12.4329 50.1178C12.6626 50.1922 12.9121 50.2195 13.149 50.2308C13.5039 50.2478 13.8605 50.2767 14.2157 50.2823C14.9256 50.2935 15.6393 50.2582 16.3492 50.2463C17.6276 50.2249 18.9062 50.1635 20.1841 50.1127C18.9011 51.1617 17.5454 52.1189 16.1314 52.9896C16.1112 53.002 16.0907 53.0138 16.0706 53.0261M12.0327 53.4808C12.1407 53.4953 12.2478 53.5 12.3297 53.5084C12.741 53.5502 13.1458 53.5881 13.5592 53.5941C13.969 53.6002 14.3788 53.6062 14.7887 53.6122C14.8759 53.6134 14.963 53.6148 15.0502 53.616C13.971 54.2099 12.8586 54.7418 11.762 55.3018C11.8586 54.6957 11.9488 54.0887 12.0327 53.4808M23.7923 39.959C26.2518 41.0118 29.4065 41.1073 31.5201 39.3584C31.7301 39.4163 31.9624 39.4356 32.1479 39.4543C32.5645 39.4964 32.9774 39.5352 33.3961 39.5484C34.2121 39.5741 35.0289 39.6125 35.8453 39.6227C37.4969 39.6432 39.1485 39.6528 40.8001 39.6676C40.9407 39.6689 41.0532 39.6258 41.1384 39.5565C41.3057 39.8421 41.4613 40.135 41.6034 40.4352C41.8105 40.8732 41.9861 41.3258 42.1302 41.7885C42.0993 41.7831 42.0672 41.7794 42.0329 41.7788C39.8623 41.741 37.6902 41.8039 35.5192 41.813C33.3478 41.8221 31.1766 41.8128 29.0053 41.8283C28.4044 41.8327 27.8079 41.8328 27.2085 41.8777C26.8966 41.9011 26.5809 41.9113 26.272 41.962C26.2374 41.9676 26.2023 41.9726 26.1668 41.9776C25.7528 41.7339 25.2388 41.7848 24.7656 41.7758C24.2222 41.7655 23.6789 41.7563 23.1356 41.7482C22.0676 41.7322 20.9996 41.7206 19.9315 41.7132C17.8118 41.6986 15.6973 41.7531 13.5789 41.8275C12.5249 41.8645 11.475 41.9273 10.4346 42.0907C10.3647 41.9996 10.2955 41.908 10.2248 41.8177C9.48758 40.8765 8.61366 39.6716 7.40059 39.38C7.44713 39.3036 7.49434 39.2277 7.54228 39.1523C8.38273 39.3755 9.30989 39.3642 10.1686 39.411C11.1584 39.4648 12.1461 39.5021 13.1371 39.5266C15.107 39.5753 17.0764 39.6059 19.0467 39.6361C19.5935 39.6445 20.1403 39.6533 20.6871 39.6624C20.9821 39.6674 21.277 39.6731 21.572 39.6777C21.7368 39.6802 21.8841 39.6798 22.0412 39.6247C22.1866 39.5736 22.3283 39.4971 22.4689 39.4337C22.518 39.4115 22.5579 39.3788 22.5905 39.3402C22.9766 39.5726 23.3767 39.7811 23.7923 39.959M33.403 36.4581C33.7123 36.5446 34.0316 36.5589 34.3586 36.5838C34.7879 36.6165 35.2162 36.622 35.6466 36.6248C36.3329 36.6293 37.0193 36.6245 37.7053 36.6054C38 36.5972 38.1722 36.3986 38.2233 36.171C38.2304 36.1768 38.2377 36.1824 38.2448 36.1883C39.0798 36.8813 39.8364 37.6739 40.4775 38.5513C38.9335 38.5561 37.3893 38.5572 35.8453 38.5676C35.029 38.5732 34.2121 38.6069 33.3961 38.6281C32.9957 38.6384 32.6013 38.6719 32.2026 38.71C32.1947 38.7108 32.1864 38.7115 32.1783 38.7122C32.2206 38.6631 32.2625 38.6133 32.3035 38.5622C32.78 37.9673 33.1719 37.2344 33.403 36.4581M43.4417 67.6822C43.5779 67.3047 43.525 66.8997 43.5173 66.5027C43.5094 66.0954 43.505 65.6882 43.5037 65.2808C43.501 64.4844 43.4957 63.6881 43.487 62.8917C43.4693 61.2806 43.4508 59.6683 43.3879 58.0583C43.2635 54.8753 43.0239 51.7001 42.6328 48.5385C42.4427 47.0015 42.2067 45.468 41.8866 43.9526C41.8911 43.9466 41.8955 43.9403 41.9 43.9342C42.2188 43.505 42.5814 43.1083 42.8946 42.6763C42.9224 42.6379 42.934 42.5888 42.9337 42.5391C42.9452 42.5335 42.9566 42.5276 42.9683 42.5209C43.2281 42.3719 42.9935 41.9656 42.7337 42.1166C42.7637 42.0992 42.3323 40.9838 42.2866 40.8715C42.1223 40.4681 41.9377 40.0737 41.7294 39.6914C41.6038 39.4609 41.4693 39.2351 41.3285 39.0135C41.3039 38.848 41.2151 38.6946 41.0627 38.6125C40.7952 38.2265 40.5062 37.8555 40.1982 37.502C38.9373 36.0548 37.3624 34.8866 35.6418 34.0544C35.3932 33.9342 35.1372 33.834 34.8821 33.7291C34.6105 33.6172 34.3587 33.471 34.0911 33.3536C33.6556 33.1626 33.2257 33.1736 32.798 33.3758C32.7614 33.3931 32.7876 33.4498 32.8248 33.44C33.1002 33.3677 33.3823 33.3555 33.6583 33.4341C33.9288 33.511 34.1344 33.6811 34.3707 33.8229C34.7916 34.0758 35.2621 34.2406 35.6934 34.4766C36.2639 34.7888 36.8213 35.1316 37.3546 35.508C36.8021 35.5375 36.2492 35.5587 35.6961 35.5735C35.2853 35.5845 34.8747 35.5864 34.4645 35.6104C34.1726 35.6275 33.869 35.6227 33.5772 35.6702C33.6476 35.183 33.6477 34.6914 33.5597 34.2168C33.5597 34.2166 33.5597 34.2165 33.5597 34.2163C33.5384 34.1019 33.5127 33.9884 33.481 33.8762C33.4136 33.6375 33.1975 33.6017 33.0407 33.692C33.0252 33.6805 33.0095 33.6692 32.9945 33.6568C32.8066 33.5032 32.6374 33.3193 32.4903 33.126C32.1848 32.7245 31.9379 32.2597 31.7509 31.7912C31.5615 31.3168 31.4273 30.8204 31.2959 30.3272C31.2299 30.0799 31.1586 29.8339 31.0915 29.5868C31.0331 29.372 30.9906 29.1348 30.8834 28.939C30.8633 28.9024 30.8028 28.9093 30.7932 28.9509C30.7364 29.1961 30.7664 29.4757 30.7768 29.7257C30.7883 30.0032 30.8041 30.2781 30.8408 30.5534C30.9168 31.1248 31.0394 31.6865 31.2359 32.229C31.4242 32.7493 31.6728 33.2348 32.0103 33.6732C32.2346 33.9644 32.5532 34.3498 32.9221 34.5069C32.9703 35.0535 32.9648 35.6007 32.8366 36.1419C32.669 36.8502 32.3479 37.5236 31.9068 38.1005C30.9818 39.3101 29.5508 39.9935 28.0579 40.1344C26.5134 40.2801 24.9328 39.9321 23.5449 39.2478C22.0012 38.4867 20.7205 37.3124 19.5703 36.0449C18.9072 35.3143 18.2196 34.5954 17.6051 33.8224C17.4962 33.6854 17.3219 33.4072 17.1151 33.1567C17.3255 33.1548 17.5415 33.123 17.7277 33.099C18.1131 33.0491 18.4897 32.972 18.8663 32.8755C19.5703 32.6952 20.3128 32.4442 20.928 32.0473C22.2298 31.2072 22.7379 30.1415 22.9115 28.6734C22.9664 28.2093 22.1697 28.0966 22.0955 28.5621C21.9815 29.2778 21.8091 29.626 21.5823 30.3134C21.3643 30.9742 21.0484 31.2203 20.4446 31.5846C19.8778 31.9265 19.2336 32.1252 18.6092 32.3304C18.2631 32.4442 17.913 32.5479 17.564 32.6524C17.3419 32.719 17.0782 32.7771 16.8528 32.8799C16.7352 32.7759 16.6126 32.6976 16.4891 32.6679C16.4982 32.6525 16.4864 32.6286 16.4636 32.6332C16.4274 32.6405 16.3912 32.6485 16.3549 32.6561C16.3185 32.6587 16.2822 32.666 16.2459 32.6791C14.071 33.1536 11.9823 34.1639 10.2111 35.5402C10.1218 35.5778 10.0355 35.6238 9.95327 35.682C9.91096 35.7119 9.8829 35.7594 9.87485 35.8086C9.60859 36.0275 9.35023 36.2547 9.10059 36.4899C7.09011 38.3841 5.81626 40.9039 4.92448 43.4956C4.046 46.0489 3.45135 48.7264 3.12437 51.4072C2.79102 54.1397 2.75259 56.9291 3.23609 59.6462C3.49569 61.1052 3.91597 62.539 4.53631 63.8847C5.09338 65.0932 6.00014 66.47 7.42437 66.6172C7.42893 66.6218 7.43321 66.6266 7.43834 66.6309C7.99716 67.0945 8.82916 66.7743 9.41338 66.4974C9.506 66.4535 9.59789 66.4073 9.68938 66.3599C9.64104 66.5474 9.61924 66.7436 9.60916 66.9276C9.58814 67.3095 10.1228 67.3312 10.2241 67.0142C11.0908 67.1677 11.9859 67.1699 12.8626 67.165C13.8421 67.1596 14.8213 67.1254 15.7997 67.079C17.741 66.9867 19.68 66.8458 21.6226 66.7817C25.556 66.652 29.5002 66.9292 33.4304 67.0688C34.533 67.108 35.6355 67.1471 36.7381 67.1863C37.8645 67.2264 38.9899 67.234 40.1073 67.3875C40.5182 67.4439 40.6756 67.0383 40.5597 66.7856C40.5886 66.6158 40.5598 66.4297 40.544 66.2298C40.5144 65.8562 40.4866 65.4825 40.4604 65.1086C40.4094 64.3797 40.3601 63.6505 40.3133 62.9212C40.2186 61.4435 40.137 59.9647 40.0577 58.486C39.9 55.546 39.7793 52.6038 39.6905 49.6609C39.6688 48.9435 39.6405 48.226 39.6048 47.5091C39.6474 47.4412 39.6898 47.3732 39.7308 47.3043C39.8674 47.0749 40.0013 46.8439 40.1396 46.6155C40.417 46.1577 40.6962 45.7028 40.9879 45.2539C41.2399 44.8663 41.4997 44.4847 41.7713 44.1109C42.1084 46.9787 42.4081 49.8494 42.5457 52.7357C42.6972 55.9145 42.7775 59.0983 42.8213 62.2804C42.8335 63.1694 42.8417 64.0585 42.8511 64.9475C42.856 65.4105 42.8609 65.8731 42.8572 66.3361C42.8535 66.7788 42.7871 67.2632 42.943 67.6822C43.0339 67.9266 43.3519 67.9309 43.4417 67.6822Z" fill="black"/>
<path fill-rule="evenodd" clip-rule="evenodd" d="M35.0325 11.7254C33.3392 9.37779 30.2216 8.70267 27.5179 9.27365C22.2323 10.2442 17.1825 14.3063 16.2486 19.8307C14.7915 23.1729 15.722 28.4371 19.9595 28.8304C20.5628 28.8647 21.1603 28.7248 21.7647 28.8003C25.4532 29.3938 29.8119 31.9345 33.077 28.9383C33.2406 29.0564 33.4562 29.1135 33.6397 29.042C35.0295 28.501 35.0947 26.936 35.2132 25.6495C35.3663 23.9871 35.5098 22.3239 35.6437 20.66C35.6915 17.7906 36.8206 14.2048 35.0325 11.7254V11.7254Z" fill="white"/>
<path fill-rule="evenodd" clip-rule="evenodd" d="M24.7848 5.74332C27.0101 5.62415 31.1105 6.65089 33.0519 7.85465C36.2151 9.81592 36.4603 13.7283 36.3312 14.4047C36.2822 14.6629 36.1256 14.9018 35.8805 14.8224C36.0884 16.5998 36.0721 17.6157 36.107 19.4034L36.131 20.5969C36.1466 21.3926 36.16 22.1884 36.1634 22.9844C36.2434 22.9543 36.3222 22.9912 36.3515 23.0684C36.3589 23.0871 36.3335 23.0974 36.3211 23.0866C36.1803 22.9628 36.2805 23.2449 36.329 23.3022C36.396 23.3811 36.5076 23.4555 36.5859 23.523L36.7986 23.7085V23.7085L37.0112 23.8936C37.286 24.1324 37.5517 24.3716 37.8081 24.6288L37.8777 24.6994C38.3448 25.1773 38.9301 25.6398 39.2208 26.2578C39.4986 26.848 39.4129 27.5171 38.9515 27.9876C38.7836 28.1584 38.5876 28.289 38.3746 28.3877C38.7538 29.0165 38.809 29.8479 38.4135 30.4949C38.0174 31.1441 37.2558 31.4841 36.5222 31.4319C36.4997 31.5244 36.4648 31.6146 36.4186 31.7003C36.1277 32.2387 35.5491 32.3086 35.0005 32.2798L34.9791 32.2786C33.7442 32.207 32.556 31.8955 31.4743 31.29C31.0991 31.3155 30.7645 31.005 30.6912 30.6645C30.4941 30.6572 30.2958 30.6407 30.0935 30.6174C29.4935 30.5477 28.8783 30.4177 28.3493 30.1107C28.2681 30.0636 28.3059 29.9393 28.396 29.937C29.0405 29.9222 29.6856 29.9671 30.329 29.8967C30.9194 29.8326 31.5487 29.6686 32.0991 29.4456C33.0884 29.0438 33.9369 28.3622 34.405 27.4178C35.0112 26.1954 34.956 24.7273 35.022 23.3993C35.095 21.9293 35.1849 20.4607 35.281 18.9922L35.3276 18.2883C35.4209 16.9163 35.4982 16.1824 35.7346 14.7583C35.022 14.8224 32.0615 13.7491 31.1408 11.9933C29.3935 15.7284 20.5408 14.1998 20.1481 19.9499C20.1448 19.9987 20.0681 19.9851 20.0653 19.9385L20.058 19.8075C20.0545 19.7427 20.0513 19.679 20.0491 19.6157L20.0473 19.5527L19.9081 19.5544C19.9081 19.5719 19.8834 19.5782 19.8772 19.5595C19.7459 19.1843 19.1205 19.3052 18.8484 19.3943C18.6034 19.4749 18.3724 19.5986 18.1651 19.7513C17.7487 20.0577 17.4259 20.4703 17.3189 20.9861C17.1155 21.9657 17.7346 22.9634 18.5566 23.4362C19.0749 23.7341 19.6428 23.9265 20.1397 24.2642C20.5786 24.5621 20.9876 24.9111 21.342 25.3078C22.7459 26.8793 23.5718 29.2628 22.9076 31.3371C22.8569 31.4954 22.7228 31.6764 22.5453 31.702C22.2518 31.7446 21.9583 31.7014 21.7938 31.42C21.7296 31.3099 21.6991 31.1844 21.7059 31.0607C21.5921 31.4545 21.2231 31.8439 20.8828 31.9903C20.4191 32.1901 19.8969 32.1304 19.4879 31.8728L19.4362 31.9113C18.771 32.4045 18.028 32.854 17.1758 32.7633C16.5583 32.6974 15.9521 32.3808 15.6107 31.8813C15.1566 32.1384 14.6715 32.3432 14.1712 32.4829L14.118 32.4976C13.4297 32.6864 12.5517 32.8594 11.9093 32.476C11.2924 32.1077 11.0873 31.3036 11.2321 30.6322C11.2496 30.5522 11.2715 30.4745 11.2986 30.399C10.8343 30.4239 10.3707 30.3791 9.93012 30.2418C9.47998 30.1016 9.05068 29.832 8.83491 29.3951C8.59153 28.9007 8.65632 28.3389 8.83773 27.8355C9.12787 27.0279 9.59435 26.3094 10.1752 25.6835C10.7338 25.0811 11.4075 24.57 12.1078 24.144L12.2258 24.0728C12.8561 23.6941 13.6163 23.2503 14.3611 23.2795C14.3589 23.2699 14.3572 23.2607 14.356 23.2512C14.2434 22.4152 14.2563 21.5628 14.2298 20.72C14.2056 19.9448 14.178 19.1696 14.16 18.3938C14.1307 17.0748 14.1403 15.7503 14.311 14.4405C14.4625 13.2782 14.7352 12.1448 15.2327 11.0807C15.7549 9.9628 16.5414 9.0088 17.5127 8.25855C19.551 6.6837 22.2434 5.87953 24.7848 5.74332ZM17.8614 21.2347C18.0834 20.8131 18.5887 20.6803 19.0321 20.7563C19.6535 20.863 20.076 21.4102 20.4388 21.8806C20.8197 22.3738 20.0253 22.8385 19.8208 22.3608L19.7724 22.2479C19.6082 21.8689 19.4144 21.4694 19.0794 21.2223C18.7234 20.9601 18.2208 20.9215 17.9065 21.2699C17.8839 21.2955 17.8462 21.2626 17.8614 21.2347Z" fill="black"/>
<path fill-rule="evenodd" clip-rule="evenodd" d="M27.1745 23.3537C28.1402 23.2356 29.0764 23.5335 30.0205 23.6836C30.5189 23.7628 31.018 23.822 31.5225 23.844C31.6239 23.8484 31.7255 23.851 31.827 23.8531C31.8364 23.7631 31.8865 23.6804 31.9949 23.6309C32.217 23.5295 32.3948 23.4837 32.6388 23.4935C32.8621 23.5024 33.0861 23.5255 33.306 23.566C33.7053 23.6398 34.1063 23.8071 34.3984 24.0978C35.0743 24.7705 34.9714 25.851 34.4491 26.5837C33.3701 28.0977 31.4008 28.1679 29.7142 28.1482L29.5585 28.1461C28.0228 28.124 25.8256 28.3547 25.1279 26.5946C24.8713 25.9474 24.907 25.1971 25.2211 24.5764C25.5958 23.8359 26.3845 23.4503 27.1745 23.3537ZM31.9716 25.8745L31.9578 25.8751C31.2498 25.9026 30.5418 25.9219 29.8334 25.9345C29.8546 26.1178 29.8762 26.3011 29.9009 26.484C29.9203 26.6279 29.9411 26.7716 29.9628 26.9152C29.9719 26.976 30.0056 27.0704 29.9961 27.1306L29.9926 27.1544V27.1544C30.029 27.171 30.062 27.1977 30.0866 27.2364C30.0951 27.2498 30.1013 27.2633 30.1075 27.2768C30.6575 27.2811 31.2494 27.2704 31.8101 27.1697L31.8113 27.1574V27.1574C31.8214 27.0853 31.8512 27.0367 31.8908 27.0034C31.9302 26.7733 31.9266 26.5281 31.9418 26.2998C31.9513 26.158 31.9616 26.0163 31.9716 25.8745ZM29.2923 25.9442C28.7819 25.953 28.2714 25.9597 27.7611 25.9535L27.5295 25.9498V25.9498C27.5784 26.2142 27.6316 26.4777 27.6759 26.7438C27.722 27.0211 27.4797 27.1974 27.2699 27.1903C27.2935 27.1942 27.317 27.1982 27.3405 27.2016C27.9959 27.2949 28.6763 27.2702 29.3414 27.2694C29.3056 27.0591 29.3201 26.8217 29.3147 26.6461L29.3137 26.6189C29.3035 26.3939 29.2964 26.1691 29.2923 25.9442ZM25.8257 25.8957C25.8434 26.0332 25.8779 26.1677 25.9294 26.293C26.1473 26.8221 26.6467 27.0691 27.1752 27.1731C27.0835 27.1412 27.0107 27.0646 26.9923 26.9333C26.9465 26.607 26.93 26.2752 26.9288 25.9439C26.5605 25.9404 26.1897 25.9325 25.8257 25.8957ZM33.8921 25.7827C33.6299 25.8451 33.3252 25.8165 33.068 25.8283C32.827 25.8393 32.5859 25.8489 32.3449 25.8587C32.3562 26.0245 32.3673 26.1902 32.3793 26.3558C32.3948 26.5699 32.3963 26.7961 32.437 27.0093C32.922 26.8426 33.3567 26.5751 33.6827 26.1475C33.7639 26.041 33.8367 25.916 33.8921 25.7827ZM27.0637 24.2219C26.6272 24.326 26.2141 24.546 25.9921 24.9483C25.8604 25.187 25.8024 25.47 25.8135 25.7488C26.1824 25.7056 26.5577 25.6892 26.9311 25.6756C26.9324 25.6078 26.9339 25.5402 26.936 25.4727L26.9417 25.2996C26.9519 24.9695 26.957 24.555 27.0637 24.2219ZM29.3228 24.2622L29.1307 24.2405C28.597 24.1792 28.0636 24.1149 27.5299 24.1518C27.4526 24.1571 27.3742 24.1656 27.2956 24.1772C27.39 24.5201 27.382 24.9228 27.4214 25.2623C27.4367 25.3935 27.4559 25.5237 27.4772 25.6534L27.5698 25.649V25.649C28.1425 25.6177 28.7157 25.5985 29.2889 25.5756C29.2888 25.4672 29.2894 25.3588 29.2911 25.2502L29.2932 25.1417C29.2998 24.8646 29.282 24.5524 29.3228 24.2622ZM32.0028 24.2182C31.4438 24.3091 30.8661 24.3284 30.3171 24.3291C30.0978 24.3294 29.8786 24.3158 29.6595 24.2962C29.6738 24.4137 29.6812 24.5326 29.6919 24.6485C29.7136 24.8826 29.7383 25.1164 29.7652 25.35L29.7891 25.5544V25.5544C30.4936 25.5222 31.198 25.4874 31.9023 25.4514L32.0017 25.446V25.446L32.0295 25.0532C32.0485 24.7913 32.0693 24.5295 32.0988 24.2688L32.0767 24.2607V24.2607C32.0507 24.25 32.0261 24.2352 32.0028 24.2182ZM32.2455 24.3157C32.2763 24.686 32.2934 25.0579 32.316 25.4288L32.7803 25.4038C32.8577 25.3996 32.9351 25.3953 33.0124 25.3908C33.3133 25.3733 33.6999 25.2815 33.9974 25.3671C34.0201 25.0947 33.9428 24.8294 33.6987 24.6464C33.2703 24.325 32.7248 24.4394 32.2455 24.3157ZM30.6592 21.0052C31.3506 20.6063 33.0853 20.1987 33.1952 21.452C33.2457 22.0288 32.82 22.5067 32.323 22.7199L32.3043 22.7278C31.8381 22.9209 31.0118 23.1389 30.6083 22.7203C30.2726 22.3718 30.7179 21.747 31.1352 22.0325C31.3496 22.1791 31.8009 22.0711 32.0402 22.0013L32.0552 21.9969C32.3134 21.9205 32.6576 21.6758 32.5508 21.3556C32.4563 21.0723 32.0543 21.0205 31.8025 21.0113C31.4267 20.9977 31.061 21.0857 30.6886 21.1143C30.6296 21.1188 30.6114 21.0328 30.6592 21.0052ZM33.5232 18.9898C34.4615 18.9455 35.0452 19.9776 34.8295 20.8233C34.7922 20.9692 34.6302 21.1124 34.4738 21.096L34.4344 21.0923C34.4143 21.0904 34.3942 21.0879 34.3757 21.0827C34.2272 21.0413 34.0941 20.8857 34.1049 20.7244L34.1078 20.6774C34.1297 20.2779 34.0867 19.8177 33.6154 19.7209C33.2157 19.6388 32.9925 20.0264 32.9878 20.3831C32.9869 20.4465 32.9162 20.4907 32.8606 20.4566C32.5717 20.2795 32.5216 19.9271 32.632 19.6237C32.7719 19.2392 33.122 19.0087 33.5232 18.9898ZM26.5596 19.2111C27.2425 18.9816 27.9792 19.3483 28.3099 19.9565C28.4259 19.9903 28.5417 20.0803 28.5256 20.2182C28.5023 20.4167 28.4673 20.5417 28.3307 20.6922C28.1171 20.9275 27.7171 20.8072 27.6283 20.5175L27.6245 20.5044C27.5237 20.1299 27.1144 19.8828 26.7416 20.0139C26.3062 20.167 26.3188 20.6303 26.0133 20.9002C25.9774 20.932 25.9344 20.937 25.8913 20.9161C25.5669 20.7581 25.6252 20.2828 25.7409 20.0107C25.8926 19.6537 26.1874 19.3362 26.5596 19.2111ZM25.6296 17.1223C26.183 16.5535 27.6259 16.0031 28.0044 17.0534C28.0765 17.2535 27.923 17.5232 27.7163 17.5647C27.3777 17.6326 27.0773 17.4845 26.7409 17.5111C26.4687 17.5327 26.1847 17.6243 25.967 17.7943C25.364 18.2648 25.2314 19.0608 24.8113 19.6597C24.7909 19.6889 24.7511 19.6767 24.7474 19.6423C24.6517 18.7703 25.0235 17.7452 25.6296 17.1223ZM32.8462 16.5624C33.2135 16.4317 33.6293 16.4429 33.9984 16.5588C34.3702 16.6756 34.7116 16.8974 34.9746 17.1871C35.0939 17.3187 35.2043 17.4639 35.2929 17.6184C35.3399 17.7003 35.3894 17.8695 35.4429 17.9702C35.7321 18.1384 35.8558 18.5218 35.5968 18.7945L35.5851 18.8065L35.5505 18.8411C35.4113 18.9799 35.2013 19.0401 35.0113 18.9846C34.5861 18.8607 34.5344 18.5233 34.3872 18.1652C34.29 17.9287 34.1234 17.7194 33.9214 17.5656C33.4441 17.2024 32.6613 17.0867 32.0866 17.2579C32.0561 17.267 32.0201 17.2277 32.0419 17.1992C32.1508 17.0571 32.2136 16.9405 32.3594 16.8259C32.5074 16.7095 32.6689 16.6255 32.8462 16.5624Z" fill="black"/>
<path fill-rule="evenodd" clip-rule="evenodd" d="M34.6372 16.7437C35.9596 16.7437 36.7142 17.0301 36.9907 17.0524L36.999 17.053C37.1141 17.0604 37.2172 17.0701 37.3255 17.1123C37.7236 17.2667 37.7884 17.6873 37.5561 17.9523C37.5398 18.5007 37.6114 19.1415 37.4886 19.6917C37.337 22.0112 36.2541 22.4027 35.6386 22.5455C35.3296 22.6173 34.9633 22.6458 34.635 22.5701C34.0751 22.5491 33.5214 22.3725 33.0478 22.065C32.3881 21.6364 31.8981 20.9776 31.7391 20.1958C31.6638 19.8232 31.6286 19.4353 31.6696 19.0565L31.6757 19.0043C31.4612 18.901 31.2128 18.8815 30.9566 18.8723C30.8343 18.868 30.7137 18.864 30.5965 18.8693C30.482 18.8822 30.3688 18.8993 30.2553 18.9227C30.1314 18.9603 30.0144 19.0225 29.9063 19.121L29.8988 19.2647C29.8785 19.6237 29.8317 19.9838 29.7596 20.336C29.653 20.8557 29.4816 21.3521 29.1168 21.7207C28.9933 21.9065 28.8405 22.0723 28.655 22.2159C27.9812 22.7385 27.0657 22.9304 26.2255 22.8582C24.5198 22.7115 23.5338 21.3475 23.3066 20.7645L23.2931 20.7292C23.1289 20.2957 22.9981 19.7334 22.4794 19.6402L22.3691 19.6203C22.1325 19.5755 21.9141 19.5132 21.7753 19.2806C21.7145 19.179 21.6832 19.0655 21.6755 18.9497C21.5945 18.9559 21.5137 18.9619 21.4331 18.9677C20.7904 19.1047 16.9353 19.2208 16.6276 19.2208C16.6276 19.2208 16.0361 19.4715 15.7864 19.2772C15.6133 19.1421 15.5563 18.962 15.6516 18.758C15.7954 18.4511 16.4587 18.2665 16.7532 18.208C16.7532 18.208 21.5062 18.2478 21.8482 18.1824C22.0599 17.9626 22.4385 17.9927 22.7549 17.9579C23.0168 17.7698 23.3831 17.6438 23.6725 17.5595C23.7315 17.5369 23.7899 17.5152 23.8467 17.4947C24.3773 17.3043 24.9287 17.2035 25.4886 17.1494C26.066 17.0941 26.645 17.1191 27.219 17.1983C27.4609 17.2314 27.7005 17.2741 27.9384 17.33C28.3645 17.3866 28.788 17.4798 29.2142 17.5903L29.2995 17.6127C29.7483 17.7312 30.2095 17.8337 30.6741 17.7534C31.0523 17.6884 31.416 17.5418 31.7648 17.3832L31.8102 17.3625C32.577 17.0098 33.7745 16.7437 34.6372 16.7437ZM27.8923 18.0332C27.6094 17.9705 27.4886 18.4099 27.7724 18.4728C27.9734 18.5173 28.1437 18.6194 28.2588 18.7923L28.2709 18.8111C28.4253 19.0587 28.8158 18.8302 28.6603 18.581C28.4854 18.3007 28.2135 18.1043 27.8923 18.0332ZM36.1788 17.7607C36.0791 17.69 35.9282 17.7425 35.8703 17.8425C35.8065 17.9526 35.8483 18.0753 35.9417 18.1473L35.9512 18.1543C36.0369 18.2152 36.1204 18.3242 36.1308 18.4359L36.1318 18.4499C36.143 18.7423 36.5941 18.7438 36.5828 18.4499C36.5718 18.1624 36.4066 17.9222 36.1788 17.7607Z" fill="black"/>
</g>
<defs>
<clipPath id="clip0_2218_69405">
<rect width="48" height="48" rx="16" fill="white"/>
</clipPath>
</defs>
</svg>
