<svg width="48" height="48" viewBox="0 0 48 48" fill="none" xmlns="http://www.w3.org/2000/svg">
<g clip-path="url(#clip0_2218_69373)">
<path fill-rule="evenodd" clip-rule="evenodd" d="M41.7215 40.606C40.9395 36.9168 38.166 34.0541 34.436 32.628C33.719 32.2242 33.024 30.4915 32.0604 30.1742C31.906 30.1233 32.1498 30.5281 32.0604 30.5523C31.7418 30.6386 31.3847 30.6476 31.0328 30.3362C30.404 29.7796 30.2067 28.1537 29.8244 27.4188C27.808 23.5432 22.7735 25.0596 22.099 29.344C21.6287 29.6493 20.9639 29.9182 20.452 30.1641C19.9249 30.4174 19.4612 31.0309 18.9179 31.2502C18.4332 31.4459 17.6346 31.3072 17.1461 31.4778C14.8997 32.2625 12.9971 33.2526 11.5054 35.2587C11.1911 35.6818 10.8368 36.2019 10.5507 36.6294C9.07615 38.3197 8.05193 40.2143 7.1086 42.2469C4.46939 48.2131 3.75153 54.819 3.10748 61.2472C3.12212 62.3719 2.3726 65.4907 3.48117 66.0299C3.41491 66.0983 3.43891 66.2357 3.56184 66.2345C6.37272 66.2062 9.17705 66.4567 11.9443 66.9437C13.2795 67.1787 14.6075 67.5009 15.9675 67.5539C18.7906 67.5345 21.6036 67.0634 24.4231 67.5092C27.8125 67.5092 31.9317 67.4108 35.7024 67.2665C39.2265 67.1316 42.7694 67.4363 46.2498 66.8395C46.5253 66.7961 46.6599 66.4615 46.6021 66.2218C46.1938 64.7402 45.9933 63.2153 45.7642 61.6989C45.8098 60.7262 45.7282 59.7108 45.3669 58.8049C44.4227 52.6891 43.2121 46.6132 41.7215 40.606Z" fill="white"/>
<path fill-rule="evenodd" clip-rule="evenodd" d="M40.5842 48.645C40.5098 49.0046 40.4056 49.3641 40.267 49.7047C40.1334 50.0334 39.9323 50.3279 39.7938 50.6527C39.7752 50.6965 39.7448 50.7296 39.7081 50.7548L39.7195 50.8432V50.8432L39.7301 50.9316C39.7992 51.5278 39.8769 52.1224 39.9442 52.7186L39.9769 53.0168C40.1092 54.2616 40.3182 55.5003 40.4805 56.7417C40.6394 57.9574 40.8011 59.1731 40.974 60.3871C41.1526 61.6386 41.3346 62.8885 41.547 64.1351C41.6366 64.6615 41.7302 65.1875 41.8277 65.7131L41.903 66.1154C42.6782 66.301 42.8901 67.377 42.1008 67.7742C41.7425 67.9537 41.2822 67.9105 40.987 67.6284C40.6801 67.3344 40.6674 66.8041 40.5962 66.4059L40.5276 66.0358C40.0143 63.2531 39.5688 60.4383 39.3605 57.6163C39.307 56.8877 39.2619 56.1584 39.2326 55.4285C39.2048 54.742 39.2181 54.0555 39.2074 53.3689L39.2039 53.1817C39.1876 52.4496 39.2011 51.7186 39.2202 50.9865C39.2225 50.8973 39.2264 50.8081 39.2309 50.7184C39.2051 50.6881 39.1864 50.6522 39.1786 50.6174L39.1684 50.5714C39.143 50.453 39.1718 50.3145 39.2631 50.2298C39.3025 49.731 39.3543 49.2329 39.3684 48.7347C39.3695 48.6938 39.4287 48.6949 39.4321 48.7347C39.4653 49.1588 39.5318 49.5841 39.5982 50.0087C40.0258 49.6665 40.3419 49.1022 40.5284 48.6298C40.5419 48.5956 40.5921 48.6079 40.5842 48.645ZM30.467 28.8184C30.5379 29.1415 30.6782 29.4316 30.8664 29.7014C30.956 29.8304 31.0579 29.9505 31.1802 30.0509C31.285 30.1367 31.4045 30.1928 31.516 30.2675C31.6782 30.2422 31.8478 30.3034 31.9616 30.4222L31.9436 30.2484C31.9379 30.1923 32.0315 30.1811 32.0422 30.2354C32.5351 32.7106 32.9846 35.1874 33.3737 37.6805L33.5443 38.7815L33.7048 39.8151C33.9712 41.5374 34.229 43.2591 34.4231 44.994C34.6817 47.3093 34.8991 49.6306 35.0579 51.9553C35.2174 54.2964 35.3155 56.6391 35.3853 58.9846C35.4027 59.5759 35.4214 60.1666 35.4394 60.7579L35.5597 60.051C35.6798 59.3439 35.7976 58.6362 35.8985 57.926C36.2608 55.3842 36.5504 52.8243 36.6917 50.2606C36.8214 47.9146 36.778 45.5219 36.1786 43.2364C36.0275 42.6614 35.8427 42.0953 35.6197 41.5439C35.4033 41.0076 35.1081 40.5105 34.8754 39.9821C34.605 39.3673 34.5239 38.7872 34.6631 38.1253C34.7848 37.5486 34.9983 37.0061 35.0365 36.4126C35.1081 35.3108 34.7481 34.2437 34.2394 33.2794C34.1053 33.0253 33.9639 32.7745 33.8163 32.526C33.3695 31.7748 32.8658 31.0511 32.3431 30.3572C32.3149 30.3202 32.3746 30.2792 32.405 30.3095C32.8816 30.7785 33.4027 31.2397 33.8315 31.7518C34.0399 32.0009 34.2433 32.255 34.436 32.5159C36.5498 32.8677 38.3662 34.1786 39.6078 35.9099C41.0168 37.8745 41.7295 40.2391 42.2569 42.5677C42.8434 45.1556 43.338 47.767 43.8648 50.3677C44.4101 53.0589 44.9526 55.7499 45.5013 58.4404C45.774 59.7761 46.0467 61.1119 46.3188 62.4482C46.4568 63.1247 46.6017 63.7996 46.7532 64.4739C46.831 64.8195 46.9143 65.1645 46.9864 65.5112C47.0675 65.9022 46.992 66.1523 46.7262 66.4396C46.6281 66.5462 46.4732 66.5445 46.3515 66.4879L46.3134 66.47L46.2767 66.4524C46.1261 66.3787 46.008 66.3023 45.9143 66.1383C45.8112 65.9583 45.7948 65.7586 45.7594 65.5583C45.694 65.1897 45.6293 64.8212 45.5639 64.452C45.4663 63.9 45.3601 63.3496 45.252 62.7993L44.7098 60.0491C44.5653 59.3159 44.4205 58.5826 44.2748 57.8497C43.7548 55.2288 43.2343 52.6084 42.7138 49.988C42.214 47.4719 41.7717 44.9385 41.2028 42.437L41.1704 42.2961L41.1375 42.1553C40.6288 39.9989 39.9179 37.9129 38.6281 36.0855C37.6354 34.6802 36.2569 33.4253 34.6332 32.7902C34.7476 32.954 34.8574 33.1212 34.9622 33.2918C35.6203 34.3621 36.1008 35.6328 35.9881 36.9074C35.9329 37.5301 35.6952 38.1421 35.7177 38.7698C35.7385 39.3275 36.085 39.8172 36.3245 40.3024C36.8681 41.402 37.2614 42.5706 37.5149 43.7693C38.0236 46.1766 38.0219 48.6534 37.8467 51.097C37.6563 53.7534 37.2946 56.4091 36.8828 59.0395C36.6715 60.3887 36.3904 61.7267 36.1751 63.0737C36.0687 63.7378 35.9239 64.4004 35.7971 65.0613L35.7367 65.377C35.7029 65.5522 35.6678 65.7269 35.6272 65.8997L35.6022 66.0031V66.0216C35.6011 66.149 35.5661 66.2545 35.5098 66.3387C35.4326 66.5849 35.3369 66.825 35.2096 67.0556C35.1442 67.1734 35.0495 67.2395 34.9464 67.2637C34.8427 67.4999 34.6078 67.6816 34.3273 67.6806L30.6377 67.6665C28.4946 67.658 26.3515 67.644 24.2084 67.6322C23.6676 67.6295 23.1273 67.6194 22.587 67.6054C22.0805 67.5913 21.5949 67.5308 21.0941 67.4679C20.5284 67.3972 20.2219 66.9984 20.3065 66.4357C20.325 66.3117 20.3453 66.1883 20.3645 66.0649C20.2518 66.1019 20.1177 66.0845 20.027 65.9964L19.942 65.9136C19.8241 65.7975 19.7187 65.6834 19.6439 65.5285C19.5667 65.3693 19.5041 65.201 19.436 65.0383C19.2889 64.6882 19.1459 64.337 19.0067 63.9842C18.7279 63.2784 18.449 62.5699 18.1898 61.8568C17.6766 60.4448 17.2225 59.0115 16.8276 57.5619C16.1234 54.9758 15.614 52.3397 15.2929 49.68L15.2161 49.0461L15.1938 48.8589C15.072 47.828 14.9695 46.7812 15.0179 45.7525C15.0479 45.1084 15.1481 44.4594 15.3898 43.858C15.6129 43.3032 15.9571 42.8286 16.2844 42.3327L16.3219 42.2755L16.3595 42.2168C16.6458 41.7664 16.8736 41.2955 16.885 40.7485C16.8966 40.1934 16.7341 39.6531 16.5526 39.1334L16.5073 39.0053L16.4769 38.9204C16.0906 37.8464 15.651 36.7875 15.796 35.6188C16.0101 33.8976 17.0579 32.5103 18.3763 31.4405C17.2039 31.6716 16.0434 32.1282 15.0191 32.7072C13.8095 33.3916 12.7205 34.2948 11.7813 35.3141C10.0067 37.2405 8.73964 39.5519 7.70251 41.9383C6.61682 44.4359 5.81175 47.0529 5.20505 49.7041C4.59491 52.3705 4.18646 55.0796 3.90753 57.7992C3.76843 59.1529 3.65908 60.5099 3.56843 61.8675C3.52223 62.5632 3.4873 63.2599 3.43322 63.9544C3.37913 64.6484 3.35485 65.3529 3.18471 66.0284C3.10527 66.3431 2.5695 66.3751 2.51209 66.0284C2.38468 65.2542 2.42029 64.4535 2.45585 63.6694L2.45908 63.5982C2.49406 62.8173 2.5397 62.037 2.59372 61.2566C2.7042 59.6617 2.85175 58.0691 3.04443 56.4815C3.71992 50.9086 4.96561 45.3649 7.40899 40.2778C8.55941 37.8818 10.036 35.5537 12.0901 33.8236C13.0681 33.0006 14.1706 32.3436 15.3588 31.868C16.4214 31.4422 17.5008 31.2408 18.6298 31.2413C19.196 30.8094 19.8039 30.433 20.4112 30.1114C20.4478 30.0919 20.4861 30.139 20.4557 30.1693C20.44 30.1844 20.4247 30.2001 20.409 30.2147C20.4777 30.2192 20.5487 30.2512 20.6123 30.3179C20.8355 30.5507 21.0236 30.8419 21.192 31.1442C21.4484 31.4629 21.6929 31.7922 21.9487 32.1075C22.3582 32.6123 22.7774 33.1099 23.2017 33.6036C23.9142 34.4333 24.6499 35.2473 25.4172 36.0285L25.5453 36.1584C25.943 36.5595 26.3459 37.0397 26.8163 37.3572L26.8414 37.3738C27.0398 37.5026 27.1805 37.526 27.3498 37.3337C27.5036 37.1587 27.6317 36.9556 27.7633 36.7626L27.7938 36.7183C28.4659 35.7461 29.089 34.738 29.6529 33.7002C29.91 33.2279 30.1545 32.7487 30.3865 32.2642L30.4557 32.1187C30.5819 31.8517 30.7188 31.5897 30.823 31.3148C30.8472 31.2503 30.8709 31.1858 30.894 31.1219C30.5391 30.8902 30.2642 30.3886 30.1645 29.9959C30.0608 29.5881 30.1132 29.1695 30.2979 28.7965C30.3329 28.7264 30.4501 28.7438 30.467 28.8184ZM12.9578 45.3917C12.9087 46.9424 12.8789 48.4946 12.8056 50.0441L12.7803 50.5731C12.8946 50.6999 12.9616 50.8463 12.9081 51.0472C12.8873 51.124 12.8258 51.1936 12.7492 51.2194L12.7253 51.7112C12.6166 53.924 12.4892 56.1322 12.2563 58.3395C11.965 61.1018 11.6281 63.8596 11.2918 66.6169C11.2439 67.0074 10.9712 67.317 10.547 67.2598C10.1177 67.202 9.94364 66.83 9.99998 66.4424C10.2214 64.9216 10.4343 63.3996 10.6208 61.8737L10.8332 60.1353C11.0995 57.9622 11.3721 55.7894 11.6862 53.6232C11.8174 52.7178 11.9538 51.8129 12.0906 50.908L12.0428 50.8463C11.8473 50.5933 11.645 50.3459 11.445 50.0968C11.0608 49.6166 10.6817 49.1403 10.3296 48.6376C10.312 48.6124 10.3476 48.5754 10.3729 48.5945C10.8664 48.9575 11.3335 49.3456 11.8034 49.74L12.2146 50.0867C12.4512 48.5232 12.6856 46.9592 12.8946 45.3917C12.8997 45.3525 12.9589 45.3497 12.9578 45.3917ZM20.0569 30.5524C19.7599 30.8312 19.4563 31.1039 19.1571 31.381L19.0475 31.483L18.9384 31.5855C18.4126 32.082 17.9088 32.5989 17.489 33.1925C16.7183 34.2825 16.2591 35.6114 16.5796 36.9421C16.8456 38.0444 17.4558 39.0436 17.6197 40.1734C17.7019 40.7395 17.6619 41.3083 17.4478 41.8429C17.2292 42.3882 16.8799 42.8555 16.5661 43.3475C15.8844 44.4168 15.7915 45.5904 15.8591 46.829C15.9301 48.1227 16.0794 49.4168 16.2636 50.6988C16.6365 53.2962 17.1988 55.8666 17.943 58.3838C18.3155 59.6443 18.7554 60.878 19.1932 62.1166C19.4112 62.7332 19.6653 63.3351 19.9272 63.9342C20.0653 64.2495 20.2067 64.5631 20.3504 64.8761C20.2974 64.4341 20.2974 63.9802 20.2715 63.541C20.2343 62.9115 20.187 62.2832 20.1436 61.6544C20.0552 60.3781 19.9763 59.1007 19.9059 57.8234C19.6563 53.2681 19.4727 48.7089 19.4861 44.1464C19.4929 41.8648 19.5397 39.5833 19.6383 37.3039C19.6845 36.2306 19.774 35.1582 19.8549 34.0864L19.8721 33.8567C19.9436 32.8946 20.0293 31.9302 20.1763 30.9766C20.1327 30.8788 20.095 30.7797 20.0669 30.6782L20.0569 30.64L20.0642 30.6411C20.0574 30.6113 20.0552 30.5816 20.0569 30.5524ZM22.6248 26.6322C22.6309 26.6059 22.6687 26.6081 22.6754 26.6322C22.8427 27.1932 22.7836 27.8103 22.6394 28.3747C22.5617 28.6804 22.4513 28.9772 22.3177 29.2633L22.271 29.3634C22.1566 29.6071 22.0278 29.8581 21.805 30.01C21.7121 30.0733 21.5458 30.0773 21.4529 30.01L21.4055 29.9741C21.3977 29.9681 21.39 29.9619 21.3825 29.9555C21.2958 29.8832 21.2529 29.7233 21.2929 29.6178C21.396 29.3457 21.6298 29.146 21.7915 28.9037C21.9346 28.6883 22.0614 28.4611 22.1667 28.2249C22.3937 27.7138 22.4957 27.1713 22.6248 26.6322Z" fill="black"/>
<path fill-rule="evenodd" clip-rule="evenodd" d="M26.7495 5.39136C29.2718 5.39136 32.2981 6.60897 32.5555 6.63332L32.5624 6.63369C32.6978 6.63369 33.2267 7.03498 34.1493 7.83756L33.1501 9.77825L33.2309 9.85514C33.6179 10.2246 33.9483 10.5613 34.209 10.8267C36.3381 12.9941 36.7208 21.5037 36.219 24.4713C35.7173 27.4389 34.7879 30.3428 30.4612 30.3428C26.1346 30.3428 21.321 27.7523 20.5795 26.9456C20.0852 26.4078 19.53 26.1501 18.9138 26.1726C18.8884 26.1408 18.8633 26.109 18.8384 26.0774L18.7477 26.0646C17.8949 25.9416 17.2839 25.7761 16.9146 25.5681C16.1933 25.1617 15.4005 23.0255 15.4005 22.5549C15.4005 22.089 14.2167 18.7 14.193 18.3413L14.1927 18.3314C14.1927 18.0316 12.6461 16.6534 12.6461 16.2157C12.6461 15.778 12.3344 15.8045 12.6461 14.2622L12.7367 13.8091C13.0684 12.1669 13.7177 9.44769 16.1933 8.26611C18.9138 6.96768 24.2016 5.39136 26.7495 5.39136Z" fill="white"/>
<path fill-rule="evenodd" clip-rule="evenodd" d="M15.7734 8.20508C17.1302 6.77108 24.8328 4.55303 28.7298 5.0232L28.8467 5.03828C29.1577 5.07755 29.4642 5.13701 29.7666 5.2178C30.7443 5.44517 31.7542 5.78945 32.5621 6.36452C33.2365 6.83497 35.364 7.60324 34.737 8.83395C34.9695 9.27259 35.0562 9.8145 34.8991 10.2465C34.8793 10.3957 34.8331 10.5332 34.774 10.6757C35.2708 11.4056 35.6641 12.231 35.9824 13.0161C36.5388 14.992 36.885 17.0483 36.9357 19.0642C37.1043 22.8942 36.6826 27.4691 33.3326 29.9458C31.3089 31.5152 28.1389 31.5679 25.8647 29.622C25.7356 29.47 25.1287 29.0595 25.3312 28.9876C25.3915 29.051 25.4535 29.1127 25.5166 29.1733C25.5137 29.1665 25.5131 29.1598 25.5143 29.1525L25.455 29.099C25.3432 28.996 25.1984 28.8467 25.3633 28.8759C25.3706 28.8843 25.3785 28.8916 25.3864 28.9001C25.4213 28.9209 25.4477 28.939 25.4682 28.9549L25.4788 28.9634L25.4755 28.96C25.3805 28.8591 25.3236 28.7562 25.4656 28.8219L25.4844 28.8311C25.5475 28.8972 25.6117 28.9606 25.6771 29.0223C25.676 29.0151 25.6771 29.0078 25.6811 28.9999L25.6201 28.9413C25.5607 28.8833 25.5697 28.883 25.5988 28.8361C25.4724 28.6597 25.7084 28.7645 25.725 28.8333C25.8726 28.7985 26.0022 29.0745 26.0973 29.1082C30.2663 32.2997 36.3163 29.4678 36.2183 20.5747L36.2168 20.4007C36.1882 17.5571 35.9478 14.6344 34.7666 12.0602C34.6518 11.8123 34.5233 11.571 34.3819 11.3377C34.2844 11.1626 34.1802 10.9921 34.0681 10.826C33.7542 10.8008 33.4444 10.7436 33.1391 10.6549C33.0342 10.6286 32.9306 10.5994 32.827 10.5652C31.3126 10.6474 29.832 10.7369 28.3134 10.8217L27.8391 10.8511C26.5526 10.9335 25.2222 11.0654 24.1841 11.8577C23.1655 12.579 23.1609 14.0014 22.289 14.7934C21.0456 15.6337 21.0365 16.3914 20.7971 17.6297C20.8148 18.5632 21.4648 19.9195 20.272 20.3124C20.4732 20.5981 20.1927 20.4608 20.1706 20.3606C20.1684 20.3612 20.1661 20.3618 20.1644 20.3618C20.3438 20.6937 20.0802 20.4847 20.0568 20.378C20.0428 20.3741 20.0287 20.364 20.0146 20.35C20.1953 20.6408 19.9032 20.4372 19.9205 20.3842C19.5714 19.8499 18.8528 19.7669 18.3464 19.9085C18.3402 19.9276 18.3177 19.9292 18.3036 19.9191C16.15 20.3839 16.7056 24.8233 18.9126 24.3942C19.0071 24.375 19.0048 24.4201 19.0236 24.4245C18.9726 24.2912 19.1163 24.3454 19.1148 24.3734L19.1236 24.373C19.1305 24.3724 19.1277 24.3716 19.1328 24.3734C19.0835 24.1008 19.361 24.4958 19.339 24.512C19.3475 24.5069 19.3571 24.5041 19.3656 24.503L19.356 24.4771C19.31 24.355 19.3139 24.4058 19.3142 24.3358C19.2797 24.2494 19.2771 24.2872 19.2852 24.2309C19.4068 24.1371 19.4427 24.4216 19.4833 24.4424C19.4137 24.3459 19.469 24.2671 19.5346 24.3195C20.0317 25.3606 20.6737 26.3388 21.5035 27.1094C21.5943 27.1806 21.6861 27.2507 21.7813 27.3169C22.1342 27.6231 22.6757 27.8199 23.0061 28.0911C23.0061 28.0956 23.0039 28.1012 23.0005 28.1068L23.0081 28.1136V28.1136L23.0157 28.1208L23.1306 28.1758C23.1644 28.2044 23.1949 28.2364 23.2219 28.2717C23.2506 28.3048 23.2759 28.3413 23.2974 28.38C23.3081 28.4271 23.2844 28.4468 23.2394 28.4266C23.2196 28.4198 23.1999 28.412 23.1802 28.4047C23.1813 28.4064 23.1819 28.4075 23.183 28.4086C23.1895 28.4184 23.2333 28.5194 23.1828 28.5029L23.1768 28.5006C23.1492 28.4905 23.1216 28.4793 23.0946 28.4687C23.1267 28.5085 23.1559 28.5517 23.1819 28.5881C23.2095 28.6168 23.2264 28.6504 23.2332 28.6886C23.232 28.7099 23.2202 28.7189 23.1988 28.716C23.1661 28.7054 23.134 28.6942 23.1019 28.6824L23.111 28.6998C23.1337 28.7443 23.166 28.8189 23.1087 28.794C23.0596 28.7789 23.0123 28.7615 22.965 28.7424C22.961 28.7503 22.9532 28.7531 22.9374 28.7458C22.787 28.6925 22.6416 28.6274 22.5025 28.5506C22.3802 28.4619 22.2568 28.375 22.134 28.2869C22.0185 28.2179 21.9069 28.141 21.8005 28.0546C21.0881 27.5964 20.4643 27.0143 19.9695 26.3661C19.142 27.0797 17.4874 26.3979 16.4639 25.8393C15.5586 25.34 15.2028 24.4168 15.1108 23.4215C14.9195 22.0815 13.8198 21.6229 13.8963 18.6827C13.8946 18.6833 13.8928 18.6833 13.8906 18.6833C13.8506 18.6715 13.8118 18.6558 13.7752 18.6356C13.7374 18.6176 13.7019 18.5963 13.6686 18.5705L13.6275 18.5139V18.5139C13.6061 18.5021 13.587 18.4897 13.5723 18.4774L13.5647 18.4871C13.5407 18.516 13.5569 18.4726 13.5582 18.4639L13.4868 18.3672C13.3174 18.1369 13.1316 17.8785 12.9802 17.6718L12.9754 17.6802C12.972 17.6865 12.9702 17.6911 12.9718 17.6931C12.6115 17.1777 12.2727 16.5551 12.1785 15.9524C12.0674 15.4881 12.1108 15.0097 12.2078 14.5796C12.6235 13.0736 13.9853 9.66573 15.7734 8.20508ZM25.5507 29.0321L25.5282 29.012L25.548 29.0368C25.5584 29.0496 25.5691 29.0611 25.5864 29.0728C25.5853 29.0689 25.5853 29.065 25.5858 29.0605C25.5743 29.0518 25.5625 29.0422 25.5507 29.0321ZM28.7126 5.77991C26.0699 5.55366 23.4706 6.13339 20.9488 6.83513L20.7748 6.88492C19.3409 7.29235 17.8247 7.65896 16.6129 8.53101C14.9199 9.82225 14.0456 11.8764 13.2827 13.7729C12.6165 15.182 12.9571 16.7709 13.961 17.7548C14.0655 16.7771 14.2435 15.8279 14.5219 14.8864C14.5799 14.7393 14.536 14.6911 14.6612 14.672C14.8502 17.2092 13.919 19.0838 15.7619 22.0909C16.5615 23.5097 15.6358 24.5479 17.8939 25.2945L17.955 25.3178C18.4254 25.4945 18.9391 25.634 19.3999 25.5352L19.3586 25.4684C19.3165 25.3995 19.3037 25.3661 19.365 25.3366C19.3633 25.3333 19.3611 25.3299 19.3588 25.326C19.3092 25.2329 19.2613 25.1386 19.2157 25.0432C19.1971 25.0494 19.1785 25.0539 19.1593 25.0589C19.1718 25.0819 19.1734 25.1049 19.1385 25.1128C19.0144 25.1552 18.8869 25.1722 18.7564 25.1643L18.7284 25.1622C18.581 25.1532 18.4881 25.1264 18.405 25.1016C18.3774 25.0971 18.3498 25.0926 18.3227 25.087C18.0554 25.028 17.7724 24.8779 17.5892 24.7291C15.5015 23.5483 15.7172 19.5289 18.2906 19.1489C18.3434 16.6182 19.5523 12.3486 21.5585 9.93703C23.3719 7.71881 28.3225 6.75738 31.7668 7.09639C31.817 7.11294 31.8672 7.12966 31.9174 7.14654C32.4488 7.19355 32.9552 7.42928 33.487 7.53879C33.1052 7.25386 32.6721 7.06408 32.2259 6.90279C31.337 6.36138 30.318 6.06843 29.3335 5.86181C29.1295 5.81189 28.9228 5.7844 28.7126 5.77991ZM18.1729 21.1819C18.3112 21.1071 18.2954 21.1793 18.3272 21.1584C19.3225 21.0775 20.3957 21.9452 20.952 22.6686C20.9081 22.714 20.7892 22.5794 20.7684 22.558C20.7655 22.5608 20.7622 22.5631 20.7588 22.5642L20.7743 22.586C20.9998 22.9082 20.5527 22.529 20.5109 22.4509C20.5036 22.4548 20.4962 22.4571 20.4878 22.4554C20.5232 22.49 20.6314 22.5803 20.65 22.6444L20.6787 22.6682C20.9493 22.8989 20.9268 23.0725 20.6197 22.7448C20.6269 22.76 20.6298 22.774 20.6247 22.7852L20.6353 22.7923C20.7863 22.8974 20.9105 23.1903 20.5948 22.8896C20.6277 23.1093 20.282 22.6847 20.2709 22.6876C19.6727 22.22 18.792 21.7653 18.0416 21.7042L18.0158 21.7013C17.8781 21.6836 17.813 21.643 17.8613 21.5533C17.6917 21.5131 17.7314 21.43 17.8117 21.4327C17.6921 21.3544 17.7998 21.2795 17.8692 21.3087C17.8215 21.1772 18.0129 21.2648 18.0303 21.2464C18.1296 21.0939 18.1564 21.2211 18.1729 21.1819ZM16.0867 13.0279C16.5647 12.8536 17.9767 13.3755 17.8637 14.0668C17.7965 14.2255 17.5748 14.3164 17.4191 14.2268L17.2157 14.0908C16.8619 13.8549 16.5428 13.648 16.1629 13.4422C15.9562 13.3401 15.8672 13.1232 16.0867 13.0279ZM18.8064 12.0007L18.6218 11.881C17.6255 11.2318 16.2171 10.248 18.7148 11.2658C18.9995 11.3874 19.3778 11.4593 19.5331 11.7293C19.7771 12.2268 19.1349 12.2602 18.8064 12.0007ZM18.9183 9.0875C18.8384 8.7854 19.8332 9.1399 20.1227 9.23336L20.1668 9.24994C20.4485 9.35446 20.7714 9.45142 20.9399 9.69348C21.1373 10.0279 20.7378 10.0972 20.4903 9.94615C19.9828 9.61595 19.4265 9.36682 18.9183 9.0875ZM21.4479 7.68026C20.888 7.07139 22.3865 7.65466 22.611 7.81657L22.6174 7.82135C22.7849 7.93876 22.7509 8.19166 22.5936 8.26593C22.1458 8.2744 21.8164 7.9028 21.4479 7.68026ZM23.9959 7.01317C23.1057 6.37616 24.2783 6.67916 24.6856 6.9288C24.9631 7.17255 24.6772 7.58404 23.9959 7.01317Z" fill="black"/>
<path fill-rule="evenodd" clip-rule="evenodd" d="M29.0227 23.544C29.3378 23.0277 30.0096 24.2923 30.081 24.5097C30.1442 24.7024 30.1859 24.8997 30.2071 25.0993C30.4514 25.1538 30.7052 25.1539 30.9555 25.1061C31.3276 25.035 31.5551 24.8359 31.8785 24.6648C32.1018 24.5466 32.3833 24.6852 32.4995 24.8812C32.6361 25.1119 32.5491 25.3514 32.3694 25.5234C32.0286 25.8495 31.3581 25.9245 30.9132 25.8379C30.6584 25.7883 30.4248 25.6931 30.2185 25.5548C30.2171 25.5806 30.2162 25.6064 30.2142 25.6322L30.2102 25.6769C30.176 26.0386 30.0762 26.4934 29.794 26.7288C29.3313 27.1149 28.7601 26.3724 29.2098 25.9867L29.2237 25.9751C29.5032 25.7503 29.5642 25.1469 29.5492 24.8146C29.5393 24.5977 29.4996 24.378 29.4308 24.1714L29.4167 24.1303C29.396 24.072 29.1703 23.5184 29.0887 23.5889L29.0848 23.5929C29.0512 23.6329 28.9968 23.5863 29.0227 23.544ZM31.539 20.631C31.9644 20.8885 32.6126 21.4889 32.155 22.1273C31.6162 22.6902 30.8406 22.0448 30.4584 21.7529C30.104 21.5267 29.7058 22.1085 30.0346 22.3726C32.7965 24.4088 33.9173 20.6983 31.7541 20.3282C31.516 20.2875 31.4275 20.5513 31.539 20.631ZM26.9961 18.2509C27.4119 18.1775 27.8378 18.2804 28.1819 18.5226L28.2079 18.5413C28.5394 18.7827 28.9103 19.2065 28.7201 19.6226C28.6437 19.7897 28.4151 19.8159 28.27 19.7402C28.0285 19.614 27.9847 19.3038 27.7692 19.132C27.5925 18.9913 27.3545 18.9059 27.1269 18.9265C26.5922 18.9748 26.2633 19.5 26.0972 19.9525C26.076 20.0104 25.9906 20.0329 25.9573 19.9708C25.5657 19.2419 26.2589 18.3811 26.9961 18.2509ZM33.6559 17.9758C34.4523 17.9105 35.3845 18.7327 35.1748 19.5698C35.0743 19.9714 34.4759 19.9599 34.3696 19.5698C34.311 19.3551 34.3169 19.1651 34.1617 18.9869C34.0336 18.8396 33.8515 18.7542 33.6559 18.7673C33.4402 18.7818 33.2413 18.8891 33.0901 19.0399C32.9536 19.1761 32.872 19.3755 32.7306 19.496C32.6957 19.5256 32.6492 19.5275 32.6148 19.496C32.3714 19.2726 32.5175 18.8074 32.6718 18.5741C32.8927 18.2403 33.2523 18.009 33.6559 17.9758ZM25.4794 16.7662C25.9904 16.3158 26.9188 15.8809 27.6077 16.1026C28.0038 16.23 28.1765 16.8655 27.7343 17.067C27.2223 17.3002 26.6319 17.2053 26.1107 17.4471C25.8918 17.5487 25.686 17.6756 25.5336 17.8618C25.4135 18.0086 25.2914 18.2017 25.1177 18.2863C25.0721 18.3085 25.0103 18.3091 24.9737 18.2678C24.5931 17.8391 25.1471 17.0591 25.4794 16.7662ZM32.7777 16.0802C33.0935 15.992 33.4438 15.9938 33.7646 16.0492C34.0852 16.1046 34.4108 16.2369 34.6726 16.43L34.703 16.4526C34.9888 16.667 35.3299 16.9791 35.3116 17.359C35.2963 17.6762 34.9612 17.8908 34.6718 17.7245C34.4359 17.5889 34.3249 17.3173 34.1252 17.1364C33.9604 16.9872 33.7669 16.8695 33.5603 16.787C33.3309 16.6954 33.1011 16.6525 32.8549 16.6484C32.6653 16.6452 32.4746 16.7072 32.2886 16.727C32.3039 16.7583 32.1569 16.7437 32.0726 16.7159C32.0102 16.6894 32.0099 16.6108 32.0315 16.5599C32.1388 16.3072 32.5293 16.1495 32.7777 16.0802Z" fill="black"/>
</g>
<defs>
<clipPath id="clip0_2218_69373">
<rect width="48" height="48" rx="16" fill="white"/>
</clipPath>
</defs>
</svg>
