<svg width="48" height="48" viewBox="0 0 48 48" fill="none" xmlns="http://www.w3.org/2000/svg">
<g clip-path="url(#clip0_2218_69100)">
<path fill-rule="evenodd" clip-rule="evenodd" d="M43.4017 66.221C43.3119 64.5585 43.2015 62.8974 43.0693 61.2377C42.8059 57.9318 42.4611 54.6233 41.8872 51.3553C41.3211 48.131 40.5287 44.9956 39.3872 41.9231C38.8576 40.4977 38.2841 39.2816 37.4521 38.0002C36.6654 36.7886 35.6615 35.9677 34.4108 35.2363C33.2839 34.5774 31.9748 33.4341 30.894 32.6961C30.4428 32.3881 29.5145 32.4086 29.2051 31.9529C28.7999 31.3562 29.0626 30.4428 28.6541 29.8481C28.1873 29.168 27.5332 28.6398 26.7956 28.256C25.9906 27.7132 25.0424 27.4675 24.0917 27.5013C22.6898 27.4166 21.2778 27.8611 20.3778 28.9973C19.9287 29.5643 19.6664 30.2186 19.6301 30.943C19.6207 31.1314 19.6815 31.28 19.7815 31.3872C19.7222 31.4662 19.6631 31.5453 19.6045 31.6247C19.4204 31.3532 18.9901 31.2089 18.7033 31.4139C17.7652 32.0844 16.7513 32.6176 15.6811 33.0084C15.4307 32.8905 15.1277 32.9451 14.9132 33.1377C14.8261 33.2158 14.7338 33.2826 14.6373 33.3393C14.2405 33.4464 13.8376 33.5359 13.4287 33.605C13.3007 33.6266 13.1922 33.699 13.11 33.7966C12.9881 33.6831 12.8206 33.6287 12.6336 33.6997C10.4738 34.5195 8.4343 35.793 6.88405 37.5184C5.16653 39.4298 4.26444 41.8076 3.57768 44.2436C2.83424 46.8807 2.35915 49.5834 1.9601 52.2906C1.55576 55.0337 1.15751 57.7875 0.879314 60.5464C0.722751 62.099 0.663033 63.6657 0.733906 65.2252C0.76923 66.0045 0.840723 66.7813 0.954582 67.5533C0.981117 67.7339 1.00889 67.9419 1.05362 68.1495C0.91768 68.1232 0.755765 68.2376 0.783314 68.4208C0.975202 69.6965 2.52416 70.0681 3.59244 70.215C5.33988 70.4553 7.09638 70.5885 8.86061 70.5988C10.5943 70.6088 12.3277 70.498 14.0578 70.3988C15.8315 70.2971 17.6052 70.1949 19.3789 70.0913C26.4853 69.6765 33.5922 69.2661 40.6986 68.8511C41.3479 68.8131 42.0892 68.7618 42.6453 68.3869C43.4076 67.8728 43.4469 67.0558 43.4017 66.221V66.221Z" fill="white"/>
<path fill-rule="evenodd" clip-rule="evenodd" d="M8.75808 51.952C8.7334 51.906 8.79064 51.8646 8.82861 51.8978C9.69132 52.6516 10.143 53.8623 10.2377 54.9814C10.338 56.168 10.1958 57.3967 10.1414 58.5828C10.0809 59.9041 10.0265 61.2258 9.95267 62.5465C9.87768 63.8863 9.79689 65.2258 9.72765 66.5659L9.57188 69.5806V69.5806C9.55532 69.9018 9.5912 70.297 9.46737 70.5968C9.27549 71.0616 8.7055 70.9897 8.58571 70.6012L8.58196 70.5884L8.57103 70.5968C8.46534 70.2467 8.54444 69.8309 8.56236 69.4689L8.72557 66.1751V66.1751C8.84087 63.847 8.94371 61.5189 9.06757 59.1912L9.10968 58.4153C9.16759 57.3709 9.21198 56.329 9.24764 55.2849L9.2592 54.9367C9.29306 53.8883 9.26619 52.8986 8.75808 51.952ZM29.6713 32.625C30.1519 32.5796 30.5149 32.7383 30.9512 32.9055C31.1413 32.9782 31.3213 33.0623 31.5036 33.1494C31.7319 33.2584 31.8788 33.4511 32.0194 33.6549L32.0945 33.7647C32.6799 34.6187 33.0737 35.6041 33.5181 36.5339C34.0378 37.6216 34.5628 38.707 35.0715 39.7998L35.3225 40.3383C35.448 40.6075 35.5731 40.8769 35.6964 41.1471L35.9094 41.6175C36.1233 42.0945 36.3151 42.5991 36.0102 43.0912C35.7266 43.5488 35.2239 43.9029 34.8259 44.2567C34.4938 44.5519 34.1617 44.847 33.8295 45.1421C34.5162 45.8268 34.9772 46.689 35.2482 47.6137C35.6332 47.4539 36.1031 47.4233 36.5012 47.3542C37.0585 47.2575 37.1267 48.0975 36.6008 48.0873C36.2124 48.0797 35.7568 48.1192 35.3583 48.0377C35.4276 48.3415 35.4778 48.65 35.5098 48.9593C35.6772 50.5803 35.3114 52.2107 34.9298 53.7791L34.8984 53.9078C34.484 55.6054 34.0911 57.3074 33.7396 59.019C33.3874 60.7343 33.0705 62.4568 32.7892 64.1851C32.5029 65.9442 32.3003 67.713 32.0825 69.4814C32.0496 69.749 31.8804 69.9784 31.5834 69.9784C31.336 69.9784 31.0532 69.7485 31.0843 69.4814C31.3089 67.5556 31.6276 65.6399 31.9441 63.7274C32.4894 60.4336 33.1757 57.1685 33.9652 53.9249L34.1031 53.36C34.4583 51.895 34.7805 50.3855 34.6023 48.8743C34.4572 47.6438 33.9405 46.3318 32.9194 45.5675L32.8883 45.5446C32.6497 45.3704 32.558 45.0373 32.7929 44.8079C32.9424 44.6619 33.0921 44.5161 33.2418 44.3703L34.1408 43.4964L34.322 43.3199C34.4731 43.173 34.625 43.027 34.7813 42.8855C34.876 42.7999 35.1326 42.6366 35.1514 42.4958C35.1635 42.4039 35.0543 42.2425 35.01 42.1578L34.8071 41.75V41.75C34.6919 41.5175 34.5802 41.2833 34.4677 41.0494C34.2346 40.5649 33.9981 40.0819 33.77 39.595L32.3998 36.6716V36.6716C32.0133 35.8468 31.6689 34.9761 31.1636 34.2136L31.0639 34.065C30.9808 33.9398 30.9073 33.8194 30.8547 33.6663C30.8042 33.519 30.7408 33.3574 30.6474 33.2317C30.4285 32.9368 30.0101 32.7695 29.6601 32.7077C29.6095 32.6988 29.6279 32.6292 29.6713 32.625ZM19.1331 31.8572C19.1635 31.8572 19.1681 31.9004 19.1401 31.9089C18.7178 32.0353 18.3142 32.2393 17.985 32.5339C17.8274 32.6748 17.6689 32.8347 17.5716 33.0244C17.5344 33.097 17.5138 33.1737 17.4987 33.2533L17.4939 33.2799C17.4688 33.4235 17.4329 33.5035 17.3596 33.6185L17.347 33.638C16.9286 34.2814 16.6353 34.996 16.3672 35.7116L15.7833 37.2718V37.2718L15.1998 38.8322C15.0118 39.3349 14.8237 39.8377 14.6357 40.3405C14.5318 40.6181 14.425 40.8945 14.3182 41.1709C14.272 41.2907 14.2223 41.4096 14.1801 41.5308C14.1743 41.5474 14.1558 41.6472 14.1419 41.6714L14.1467 41.6796V41.6796C14.2643 41.8768 14.5782 42.0415 14.7561 42.1847L15.3687 42.6779V42.6779C15.8055 43.0296 16.2535 43.3714 16.6772 43.7388C16.9433 43.9694 16.7778 44.3826 16.481 44.4789C15.9836 44.6402 15.4963 44.8333 15.0064 45.0159C14.8085 45.0896 14.6025 45.1537 14.4069 45.235L14.2878 45.2863C14.2413 45.3071 14.2637 45.3069 14.2655 45.3923C14.2674 45.482 14.2929 45.5754 14.3076 45.6635C14.4726 46.657 14.6475 47.6488 14.8321 48.6389C15.4852 52.1401 16.2654 55.6157 17.1553 59.0647C17.6047 60.8064 18.0868 62.5395 18.5461 64.2786C19.0043 66.0131 19.6072 67.7227 20.1828 69.4215C20.3452 69.9005 19.5824 70.1068 19.424 69.6298C18.7605 67.6318 18.1536 65.6165 17.5268 63.6072C16.4132 60.0371 15.5357 56.3894 14.7596 52.7329C14.3749 50.9207 14.0231 49.1015 13.7045 47.2766C13.6441 46.9311 13.585 46.5854 13.527 46.2395L13.4426 45.7308C13.3847 45.3681 13.3517 44.9904 13.6348 44.7034C13.9112 44.4233 14.3857 44.324 14.7494 44.1926L14.7758 44.183C15.0073 44.097 15.2404 44.0141 15.4726 43.9287C15.1305 43.6605 14.7927 43.3864 14.4514 43.1184C14.1762 42.9022 13.8966 42.6904 13.6252 42.4692C13.4015 42.2868 13.2191 42.0526 13.1958 41.7559C13.172 41.4527 13.3025 41.1714 13.4077 40.8933L13.4178 40.8664C13.5211 40.5888 13.6247 40.3113 13.731 40.0348L14.3885 38.3227V38.3227C14.8063 37.2347 15.2064 36.138 15.6459 35.0585C15.8197 34.6313 16.0092 34.2109 16.2331 33.8071C16.341 33.6124 16.4568 33.4218 16.5826 33.238C16.7236 33.0319 16.8515 32.9314 17.0699 32.8177C17.4192 32.6359 17.6932 32.3311 18.044 32.1436C18.3882 31.9596 18.7423 31.8615 19.1331 31.8572ZM20.2668 29.9162C20.2802 29.8934 20.3156 29.9036 20.316 29.9295C20.3252 30.4702 20.1961 31.0227 20.1168 31.5574C20.037 32.0939 20.0115 32.6602 19.8961 33.191C19.8938 33.2158 19.889 33.2401 19.8822 33.2641L19.8767 33.2822V33.2822C19.828 33.431 19.7014 33.557 19.5461 33.5964C19.5949 33.8659 19.6409 34.1359 19.6796 34.4073C19.7461 34.8738 19.8068 35.341 19.8665 35.8083L19.9379 36.3692C20.0053 36.8977 20.0709 37.4265 20.1358 37.9554C20.3007 38.024 20.4689 38.0807 20.6413 38.1298C21.0382 38.2429 21.4447 38.2889 21.8543 38.3289C22.6884 38.4103 23.5289 38.4481 24.366 38.4943L24.5453 38.5044C25.4863 38.5581 26.4325 38.5676 27.3712 38.4715C27.8367 38.4238 28.2985 38.3438 28.7524 38.2304C28.9831 38.1728 29.2072 38.0867 29.4374 38.0304C29.5138 38.0117 29.582 37.9687 29.6585 37.9227C29.6925 37.8799 29.7401 37.8475 29.8022 37.835L29.819 37.8321V37.8321L29.8357 37.8297L29.8414 37.8271L29.841 37.8289C29.8881 37.8226 29.9328 37.8226 29.975 37.8284C29.9918 37.416 30.01 37.0037 30.0328 36.5915C30.0941 35.4843 30.2631 34.3293 30.0374 33.2318C30.0299 33.1949 30.0803 33.1819 30.0934 33.2164C30.5363 34.3783 30.4866 35.6488 30.5089 36.8716C30.5307 38.0675 30.5175 39.2642 30.5115 40.4604C30.5976 40.4968 30.6743 40.5462 30.7351 40.6156C30.8565 40.7542 30.8914 40.995 30.7351 41.1288C30.6658 41.1881 30.5891 41.2293 30.5077 41.2578C30.5034 42.2969 30.496 43.3362 30.4856 44.3754C30.684 44.528 30.7026 44.8905 30.4781 45.0411C30.4407 48.4064 30.3793 51.7717 30.3284 55.1365L30.2217 62.1959V62.1959C30.2075 63.1365 30.1839 64.077 30.1755 65.0174L30.1822 65.0201V65.0201L30.2058 65.031C30.2456 65.0496 30.3047 65.0796 30.317 65.1104C30.3202 65.1185 30.321 65.124 30.3206 65.1281C30.3858 65.1372 30.4503 65.1678 30.5061 65.2206C30.6439 65.3509 30.6159 65.5475 30.5061 65.6802L30.4768 65.7157V65.7157C30.4083 65.7985 30.2783 65.8304 30.1722 65.8135C30.1733 66.4005 30.177 66.9876 30.1752 67.5745C30.1746 67.7538 30.1719 67.9331 30.1687 68.1124L30.1613 68.5423C30.1564 68.7876 30.1346 69.0993 29.8822 69.2095C29.5976 69.3339 29.3423 69.232 29.227 68.9441C29.1958 68.8662 29.2025 68.7935 29.2139 68.7164C29.2103 68.6006 29.1921 68.4663 29.1944 68.3589L29.2038 67.9107V67.9107C29.2053 67.8416 29.2081 67.7725 29.2101 67.7034L29.2018 67.7042V67.7042C28.1903 67.7531 27.1717 67.7293 26.1585 67.7287L25.7079 67.7293C25.332 67.7297 24.9552 67.7277 24.5797 67.7133L24.439 67.7074C24.1579 67.6943 23.8623 67.69 23.571 67.665C23.6081 67.9629 23.6428 68.2609 23.6737 68.5592C23.703 68.8422 23.4098 69.0825 23.1482 69.0825C22.8376 69.0825 22.6599 68.8394 22.6227 68.5592C22.4471 67.2378 22.3753 65.904 22.2076 64.5816C22.0573 63.3973 21.9271 62.2102 21.7947 61.0236L21.7505 60.6281C21.2659 56.3098 20.7955 51.9898 20.3456 47.6678L20.1361 45.6474C19.9245 43.611 19.7116 41.5745 19.5321 39.5351C19.4295 38.3692 19.3349 37.203 19.2459 36.0359C19.1806 35.1785 19.1396 34.3258 19.1129 33.4701C19.0076 33.3622 18.9548 33.2047 19.0014 33.042C19.0287 32.9471 19.0604 32.8526 19.0939 32.7584C19.0918 32.6658 19.0896 32.5732 19.0878 32.4805C19.0861 32.3927 19.1756 32.3476 19.2472 32.3621C19.3773 32.0483 19.5207 31.7373 19.6403 31.4265C19.8338 30.9236 19.9934 30.3816 20.2668 29.9162ZM9.45586 35.3523C11.4795 34.0895 13.8883 33.1808 16.3008 33.2787C16.3557 33.2809 16.3711 33.3642 16.3142 33.3768C15.0273 33.6629 13.7263 34.0114 12.508 34.5186C11.2861 35.0273 10.1243 35.7123 9.08955 36.5354C7.18036 38.0541 5.69642 40.0295 4.71929 42.2563C4.14696 43.5607 3.74577 44.9378 3.39546 46.3154C3.02476 47.7734 2.71924 49.2471 2.46521 50.7296C1.96346 53.658 1.67135 56.6187 1.51591 59.5845C1.35777 62.6014 1.42296 65.6205 1.31017 68.6378C1.29067 69.1606 0.540252 69.1504 0.502111 68.6378C0.246562 65.2073 0.388139 61.722 0.624477 58.2939C0.836984 55.2122 1.20808 52.1369 1.80566 49.1047L1.85771 48.8419C2.41635 46.0366 3.09017 43.1633 4.4407 40.6227C5.59372 38.4538 7.37377 36.6517 9.45586 35.3523ZM37.5567 48.7599C37.5672 48.7298 37.6071 48.7302 37.6177 48.7599C37.8484 49.4029 37.8567 50.1284 37.918 50.8063L37.9229 50.8583C37.9816 51.4765 38.0259 52.0955 38.0671 52.715L38.0824 52.9474C38.2476 55.4747 38.4542 57.9991 38.7654 60.5131C39.0756 63.0176 39.4949 65.5046 39.9484 67.9867C39.9989 68.2631 39.876 68.5446 39.5849 68.6242C39.3284 68.6944 38.999 68.537 38.9448 68.2623C38.6632 66.8376 38.4356 65.411 38.2325 63.974C37.875 61.4435 37.6081 58.9014 37.4366 56.3516C37.3505 55.0711 37.2975 53.791 37.2764 52.5077C37.2667 51.9123 37.2822 51.3154 37.3141 50.7206L37.3217 50.5834C37.3569 49.9754 37.3533 49.3396 37.5567 48.7599ZM15.6904 64.8571C15.7174 64.8425 15.7509 64.8725 15.7337 64.9003C15.3419 65.5344 14.8118 66.0811 14.2995 66.62C13.7639 67.1833 13.2415 67.7636 12.6951 68.3158C12.3003 68.7147 11.6652 68.0712 12.0818 67.7052C12.6677 67.1906 13.28 66.7017 13.8763 66.1986L14.1371 65.9785C14.626 65.5672 15.1294 65.1596 15.6904 64.8571ZM34.3011 64.5395C34.2719 64.484 34.3387 64.439 34.3841 64.4758C34.7002 64.7317 34.9834 65.037 35.2886 65.3071C35.5909 65.5746 35.9044 65.8241 36.2265 66.0675C36.5499 66.3119 36.8804 66.5465 37.2198 66.7684C37.5013 66.9526 37.7914 67.1001 38.0863 67.2529C38.2228 67.2704 38.3492 67.3371 38.4504 67.4636C38.6104 67.6637 38.6274 68.0409 38.4055 68.2146L38.3656 68.2457V68.2457C38.1066 68.4484 37.7992 68.4731 37.5443 68.2457C37.2596 67.9919 36.9906 67.7126 36.7172 67.4443L36.635 67.3642C36.3413 67.0799 36.0547 66.7864 35.7845 66.4797L35.5399 66.2026C35.0861 65.6874 34.6138 65.132 34.3011 64.5395ZM32.8452 34.8331C32.7927 34.7985 32.8251 34.7051 32.89 34.7274L33.009 34.7683C33.5063 34.9404 34.0182 35.1313 34.4698 35.3962C34.955 35.6809 35.4031 36.0201 35.8311 36.384C36.7172 37.1371 37.471 38.0633 38.1116 39.0286C39.397 40.9656 40.1919 43.184 40.8337 45.4037C41.5181 47.7704 42.0449 50.188 42.4751 52.6125C42.9123 55.0764 43.2495 57.5626 43.4711 60.055C43.5803 61.2828 43.6536 62.5113 43.6905 63.7434C43.7094 64.3772 43.7088 65.0105 43.7035 65.6446C43.7022 65.8076 43.7033 65.9706 43.7051 66.1336L43.7114 66.6225C43.7147 66.9317 43.7519 67.2566 43.6781 67.5586C43.5593 68.0448 42.752 67.9541 42.7785 67.4572C42.7542 67.2919 42.7532 67.121 42.7595 66.9498C42.7557 66.9277 42.7515 66.9052 42.7469 66.8823C42.7337 66.8166 42.7449 66.7558 42.7709 66.7035C42.775 66.6214 42.7788 66.5397 42.7802 66.4595C42.7854 66.1331 42.7851 65.8079 42.776 65.4816C42.7569 64.7935 42.7294 64.1054 42.7017 63.4176C42.6462 62.0432 42.569 60.6681 42.4571 59.2971C42.0678 54.5247 41.2458 49.7251 39.865 45.1338C39.2237 43.0017 38.3396 40.9087 37.0717 39.0663C36.5089 38.2484 35.8739 37.4929 35.17 36.7917C34.4616 36.0862 33.6809 35.3842 32.8452 34.8331ZM23.291 65.5979L23.3867 66.287C23.4345 66.6317 23.4819 66.9764 23.5268 67.3214C23.8323 67.2798 24.1447 67.2623 24.439 67.2364C24.9542 67.1909 25.473 67.1689 25.9897 67.1477C27.0583 67.1038 28.1322 67.0277 29.2018 67.033C29.2128 67.0331 29.2232 67.0338 29.2336 67.0346L29.2866 65.6748V65.6748L28.5351 65.6737V65.6737C27.8983 65.6727 27.2617 65.6673 26.625 65.6618C26.0515 65.6569 25.4779 65.6561 24.9045 65.6443L24.6588 65.6384C24.224 65.6268 23.7439 65.6508 23.291 65.5979ZM29.3497 63.6241C29.319 63.6277 29.2878 63.6308 29.2546 63.6322C29.1058 63.6384 28.9557 63.6341 28.8068 63.6353C28.4896 63.6381 28.1725 63.6402 27.8552 63.6401C27.2209 63.6401 26.5866 63.6439 25.9523 63.6515C25.2994 63.6594 24.6468 63.6707 23.9938 63.6719C23.6774 63.6725 23.3621 63.6641 23.0458 63.6553C23.0969 64.1029 23.1504 64.5501 23.2094 64.9963C23.7006 64.9302 24.2288 64.9635 24.7089 64.9589L24.7712 64.9581C25.4263 64.947 26.0821 64.9552 26.7374 64.956C27.4115 64.9568 28.0856 64.959 28.7598 64.9645L29.3137 64.969V64.969L29.3147 64.9412V64.9412C29.331 64.5027 29.3414 64.0635 29.3497 63.6241ZM22.8021 61.4831C22.8635 62.0114 22.9212 62.5405 22.9799 63.0696C23.019 63.0635 23.0585 63.0584 23.0988 63.0542C23.4156 63.0212 23.7318 62.9929 24.0498 62.9733C24.6836 62.9342 25.3174 62.9135 25.9523 62.8966C26.6052 62.8792 27.2581 62.8658 27.9112 62.8566C28.2285 62.8522 28.5455 62.8526 28.8628 62.8548C29.0116 62.8558 29.162 62.8512 29.3106 62.8611C29.3283 62.8623 29.3452 62.8641 29.362 62.866L29.3732 62.0718C29.3751 61.9394 29.3771 61.8071 29.3792 61.6748C28.8889 61.7049 28.3903 61.6934 27.9003 61.6935L27.7874 61.6938C27.1716 61.6966 26.5557 61.6882 25.9401 61.6754C25.305 61.6622 24.6712 61.6416 24.0372 61.6011C23.7804 61.5848 23.5254 61.563 23.2699 61.5349L23.1422 61.5204C23.031 61.5073 22.9165 61.4968 22.8021 61.4831ZM29.4298 59.2417C28.2488 59.335 27.0741 59.374 25.89 59.3856L25.7123 59.3871C24.6658 59.3951 23.6108 59.438 22.5619 59.4104C22.6246 59.9518 22.6871 60.4933 22.7502 61.0346C22.9004 61.0276 23.0513 61.0275 23.1981 61.0223C23.4968 61.0116 23.7944 61.0089 24.0932 61.0082C24.7088 61.0068 25.3244 61.0121 25.9401 61.0109C26.5746 61.0095 27.2089 60.9989 27.8433 60.987C28.3576 60.9774 28.8774 60.9388 29.3931 60.9403L29.4298 59.2417V59.2417ZM29.4798 56.9319C29.343 56.9771 29.1814 56.98 29.0042 56.9881L28.5471 57.0108C28.3352 57.0211 28.1232 57.0308 27.9112 57.0386C27.2047 57.0643 26.4981 57.0884 25.7915 57.1108C25.0674 57.1336 24.3397 57.1469 23.6155 57.1242C23.2608 57.1131 22.909 57.0945 22.5553 57.0651C22.4679 57.0578 22.3787 57.053 22.2894 57.0467C22.3717 57.7641 22.4544 58.4813 22.5373 59.1985C23.5812 59.071 24.6332 58.9915 25.6757 58.8596L26.6185 58.7397C27.5608 58.62 28.5023 58.5025 29.448 58.4034L29.4798 56.9319V56.9319ZM29.5301 54.5965C29.3293 54.6459 29.1005 54.6434 28.9076 54.6555L28.8719 54.658C28.5066 54.6856 28.1403 54.6994 27.7741 54.7084C27.0563 54.726 26.3381 54.7348 25.6201 54.7392L25.1884 54.7418C24.6128 54.7452 24.0376 54.7466 23.4619 54.7333C23.0926 54.7247 22.7241 54.7067 22.3551 54.6883C22.2446 54.6828 22.1316 54.6791 22.0182 54.6735C22.0954 55.3526 22.1733 56.0316 22.251 56.7106C22.3723 56.6914 22.4941 56.6768 22.6102 56.6573C22.9076 56.6073 23.2044 56.5673 23.504 56.5316C24.1528 56.4542 24.8049 56.3985 25.4568 56.3515C26.1259 56.3032 26.7957 56.2623 27.465 56.2156L27.939 56.1823C28.097 56.1714 28.255 56.1608 28.4131 56.1512C28.6831 56.1347 28.9969 56.1533 29.2647 56.0948C29.3372 56.0647 29.4177 56.0578 29.4983 56.075L29.5301 54.5965V54.5965ZM29.5909 51.863C29.5214 51.9508 29.4177 51.9969 29.2939 52.0128C28.6495 52.096 27.9884 52.1094 27.3385 52.1486L27.224 52.1559C26.5529 52.1999 25.8815 52.2344 25.2099 52.27C24.5201 52.3064 23.8303 52.3362 23.1399 52.3601C22.8468 52.3703 22.5522 52.3715 22.2587 52.3677L22.1329 52.3658C22.0124 52.3638 21.8861 52.3641 21.7596 52.36C21.8296 52.995 21.9003 53.63 21.972 54.2648C22.101 54.2509 22.23 54.2402 22.3551 54.227C22.7239 54.1882 23.0923 54.1498 23.4619 54.1208C24.1623 54.0659 24.8632 54.0328 25.5649 53.9983C26.2828 53.9629 27.0011 53.9393 27.7191 53.9059C28.0672 53.8897 28.4152 53.8696 28.7623 53.8377C29.0056 53.8154 29.2946 53.733 29.5484 53.7633C29.5622 53.1298 29.5766 52.4964 29.5909 51.863ZM29.6475 49.4142C29.6365 49.4312 29.6237 49.4476 29.6081 49.4628C29.3244 49.7419 28.9747 49.7204 28.5987 49.7497L28.5756 49.7516C28.2071 49.7824 27.8385 49.8118 27.4696 49.8382C26.7321 49.8912 25.9933 49.9283 25.2548 49.9614C24.499 49.9952 23.7384 50.0185 22.9819 50.0031C22.4974 49.9932 21.9901 49.995 21.4959 49.948C21.5718 50.6473 21.6481 51.3467 21.725 52.046C21.864 52.0199 22.0038 51.9999 22.1363 51.9791C22.4701 51.9269 22.8042 51.8743 23.1399 51.8358C23.8108 51.7589 24.4818 51.687 25.154 51.6221C25.7288 51.5666 26.3035 51.5102 26.8787 51.4595L27.224 51.4298C27.9103 51.3723 28.6054 51.2775 29.2939 51.2635C29.4074 51.2612 29.5357 51.3227 29.6008 51.4197C29.616 50.7512 29.6317 50.0827 29.6475 49.4142ZM29.6952 47.4319C29.5199 47.4531 29.3311 47.441 29.1693 47.4463C28.7604 47.4596 28.3514 47.4719 27.9423 47.4839L25.4882 47.5561V47.5561C24.6526 47.5806 23.8142 47.599 22.9783 47.5872C22.6106 47.582 22.2413 47.5814 21.8737 47.5615L21.7512 47.5542C21.6 47.5441 21.4143 47.5427 21.233 47.5244L21.4471 49.4983V49.4983C21.9388 49.4276 22.4456 49.4011 22.9332 49.3596L23.0373 49.3505C23.7564 49.2853 24.479 49.2421 25.1994 49.1935C25.9383 49.1437 26.6763 49.0832 27.4142 49.0214C27.7831 48.9905 28.1519 48.9597 28.5204 48.9259L28.566 48.9215C28.9141 48.8853 29.2415 48.8083 29.5498 49.0127C29.595 49.0425 29.6303 49.0825 29.6545 49.1272C29.6679 48.5621 29.6811 47.9969 29.6952 47.4319ZM29.7524 45.1281C28.2578 45.1881 26.763 45.2335 25.2672 45.2535C24.4253 45.2647 23.5845 45.2568 22.7427 45.2393C22.3777 45.2316 22.0096 45.2143 21.6449 45.1864L21.5083 45.1755C21.3348 45.161 21.1526 45.1504 20.9712 45.133C21.0462 45.8117 21.1206 46.4905 21.1944 47.1694C21.3728 47.1364 21.5593 47.1212 21.7157 47.1012L21.7512 47.0966C22.1398 47.0433 22.532 47.0123 22.9225 46.9781C23.6828 46.9114 24.447 46.8684 25.2093 46.8319C25.99 46.7945 26.7711 46.7628 27.5519 46.7282L28.3327 46.6934C28.4629 46.6877 28.593 46.682 28.7231 46.6765C28.9091 46.6687 29.095 46.6613 29.2809 46.6536C29.3726 46.6498 29.468 46.6374 29.5598 46.6421L29.5859 46.6387C29.598 46.6371 29.6086 46.6359 29.6184 46.6349C29.6434 46.6159 29.6703 46.6002 29.6987 46.5883L29.716 46.5816L29.7524 45.1281ZM20.7262 42.945C20.7956 43.556 20.8642 44.1671 20.9319 44.7783C21.1451 44.7541 21.3608 44.7407 21.5644 44.7224C21.9748 44.6858 22.3871 44.6537 22.7988 44.6349L23.6215 44.5968C24.17 44.5716 24.7184 44.5471 25.2672 44.5272C26.7693 44.4726 28.2714 44.4101 29.7725 44.3337C29.7831 43.9192 29.7941 43.5047 29.8052 43.0902C29.7332 43.167 29.629 43.2176 29.4923 43.2172C27.9163 43.213 26.339 43.2221 24.7632 43.1963C23.9744 43.1834 23.1865 43.1643 22.3986 43.1241C22.0131 43.1044 21.6254 43.0642 21.2428 43.0114C21.0797 42.9889 20.9012 42.9729 20.7262 42.945ZM20.4739 40.7678C20.548 41.3937 20.6207 42.0197 20.6922 42.6459C20.8879 42.6111 21.0901 42.5926 21.2727 42.5679C21.665 42.5148 22.0598 42.4725 22.455 42.4503C23.2239 42.4069 23.9932 42.3851 24.7632 42.3689C26.3389 42.3355 27.9162 42.3358 29.4923 42.3234C29.6403 42.3222 29.7502 42.3805 29.8224 42.4676C29.8333 42.0767 29.8449 41.6859 29.8568 41.295C29.7045 41.279 29.5536 41.2564 29.4139 41.2466C28.9847 41.2168 28.5553 41.1895 28.1257 41.165C27.2293 41.1138 26.332 41.0701 25.4349 41.0312C24.5376 40.9923 23.64 40.9544 22.7425 40.9213L22.3499 40.907C21.7257 40.8839 21.0909 40.8547 20.4739 40.7678ZM20.1917 38.4107C20.2688 39.0446 20.3448 39.6786 20.4205 40.3127L20.4436 40.5089V40.5089C21.1943 40.3636 21.9854 40.321 22.7425 40.289C23.6402 40.2509 24.5364 40.2314 25.4349 40.2341C26.3325 40.2368 27.2288 40.258 28.1257 40.2949C28.5739 40.3133 29.022 40.3346 29.4699 40.3588C29.593 40.3654 29.7374 40.3619 29.8861 40.364C29.8893 40.2644 29.892 40.1648 29.8955 40.0652C29.9091 39.6616 29.9225 39.258 29.9364 38.8545C29.6334 39.0095 29.2395 39.0719 28.9351 39.138L28.9004 39.1456C28.3977 39.258 27.8844 39.3309 27.3712 39.3755C26.3636 39.463 25.3454 39.4303 24.3387 39.3455L24.1624 39.3305C23.2784 39.2542 22.3619 39.1574 21.5049 38.9396C21.0967 38.8358 20.6746 38.6907 20.3088 38.4802C20.2708 38.4583 20.2315 38.4352 20.1917 38.4107ZM28.7037 30.878C28.7124 30.8437 28.7639 30.8359 28.7809 30.8679C28.8999 31.0931 28.9442 31.3634 29.0269 31.6047C29.1158 31.8641 29.1988 32.1254 29.297 32.3816C29.502 32.9171 29.7438 33.4315 30.0322 33.9275C30.3177 34.4186 29.5181 34.7692 29.308 34.2315C29.091 33.6767 28.9127 33.103 28.8048 32.5167C28.7522 32.2307 28.7052 31.9407 28.69 31.6501C28.6769 31.4004 28.6416 31.1215 28.7037 30.878Z" fill="black"/>
<path fill-rule="evenodd" clip-rule="evenodd" d="M34.5398 19.9847C34.5174 18.7279 34.4926 17.4461 34.305 16.2016C34.1215 14.9849 33.6169 13.8851 32.7498 13.0016C30.9079 11.1249 28.238 10.6665 25.7528 10.2465L21.5039 9.52822C20.2076 9.30916 18.8247 8.95899 17.515 9.26966C16.8696 9.42276 16.3216 9.77843 15.8207 10.1992C15.3379 10.6048 14.8188 11.0404 14.4916 11.5861C14.1639 12.1325 14.0512 12.7713 13.9446 13.3894C13.8245 14.0862 13.7311 14.7884 13.6648 15.4923C13.5319 16.9027 13.5138 18.3236 13.6101 19.7369C13.6568 20.4223 13.7312 21.1059 13.826 21.7863C13.8731 22.1238 13.9263 22.4604 13.9863 22.7958C14.004 22.8947 14.0175 23.0042 14.0356 23.1148C13.9016 23.4944 13.8254 23.8875 13.8316 24.2789C13.8496 25.4318 14.8269 26.1577 15.8122 26.5474C16.3834 26.7734 16.9807 26.9269 17.542 27.1794C18.1325 27.4449 18.5344 27.8753 18.9381 28.3664C19.7081 29.3029 20.577 30.1446 21.5691 30.8469C23.6727 32.3358 26.337 33.04 28.8894 32.5055C29.5018 32.3772 30.1196 32.1781 30.67 31.878C31.2512 31.5612 31.6882 31.1022 32.0552 30.5594C32.7366 29.5518 33.2253 28.4172 33.595 27.2626C33.9721 26.0849 34.2397 24.905 34.3857 23.6769C34.5312 22.4529 34.5618 21.2163 34.5398 19.9847V19.9847Z" fill="white"/>
<path fill-rule="evenodd" clip-rule="evenodd" d="M20.981 5.15054C22.7393 4.90971 25.1662 5.69246 26.0418 7.27075C30.2224 6.28936 35.4953 6.25721 38.941 9.52426C42.5364 13.3997 38.0203 18.5095 35.0258 19.6615C35.2438 20.7166 34.9039 27.4757 32.4985 30.4906C30.5896 33.0452 26.1441 34.2241 24.0871 31.1729L24.071 31.1477C23.8506 30.7954 24.0404 30.8067 24.2667 31.0688C26.281 32.8327 29.0197 32.8628 31.1302 31.0013C35.0856 27.5989 34.6778 19.2564 32.7956 14.4301C27.4362 13.844 21.6979 15.4615 17.9962 19.4787L18.2465 20.9793C18.2892 21.2349 18.3376 21.4903 18.3746 21.7469C18.3983 21.9112 18.4009 22.0747 18.2865 22.2078C17.9089 22.647 17.2725 21.987 16.7488 21.7244C16.5942 21.7028 16.4393 21.6944 16.2875 21.7051C13.7715 22.0277 14.2672 26.8876 17.0324 26.0358C17.2647 25.8916 17.4644 25.9356 17.5545 26.1448C18.2136 26.7459 18.6482 27.8181 19.7432 28.8508C20.1296 29.2381 20.4812 29.5622 20.9158 29.8729C21.1711 30.13 21.9413 30.3921 21.6971 30.832C21.2354 31.8329 18.5125 28.6888 18.0311 27.8193C16.5228 28.4124 14.8512 28.2109 13.2881 28.066C5.04193 27.6391 6.14278 18.9835 12.902 13.5189C14.1743 12.5861 15.5781 11.8253 17.0373 11.2398C17.2365 11.1598 17.1495 10.8341 16.9475 10.9152C15.9819 11.3027 15.0407 11.7638 14.1435 12.2976L14.1421 11.9785C14.1408 11.441 14.1492 10.8814 14.243 10.3903C14.2899 10.05 14.3687 9.68655 14.49 9.41313C14.6401 8.57484 16.9902 5.6974 20.981 5.15054ZM16.1774 22.8208C16.3047 22.7004 16.5424 22.844 16.6558 22.8404C16.9456 22.8799 17.221 23.0018 17.4358 23.1522C17.5776 23.2313 17.6769 23.3056 17.76 23.3739L17.7622 23.3733C17.7616 23.3733 17.7608 23.3739 17.7602 23.3741L17.768 23.3794C17.8889 23.4649 18.3315 23.9468 18.0519 23.8172C18.031 23.7902 18.0097 23.7643 17.9882 23.7389C17.9859 23.7423 17.9826 23.7458 17.9788 23.7491L17.9945 23.7723C18.2322 24.1283 17.8218 23.7532 17.7587 23.6536C17.7557 23.656 17.7523 23.6576 17.749 23.6594L17.8312 23.759C17.8427 23.7732 17.8518 23.7845 17.8593 23.794L17.8766 23.8107C18.1514 24.0797 18.16 24.3217 17.8407 23.924C17.8533 23.9428 17.8634 23.9626 17.8648 23.9803L17.8837 24.0043C18.1344 24.3259 17.9305 24.2117 17.8059 24.0743L17.7955 24.0625L17.7976 24.0657C17.9135 24.2435 17.6836 24.1187 17.6429 24.0237L17.6412 24.0194C17.597 23.9834 17.5697 23.943 17.5604 23.9328L17.5586 23.9311C17.3431 23.7112 17.0306 23.5251 16.7652 23.4406C16.7268 23.4333 16.6878 23.4275 16.6485 23.4233C16.4889 23.3879 16.3275 23.3636 16.1645 23.3504C16.1446 23.3481 16.1243 23.3335 16.1092 23.3146C15.8627 23.3064 15.9388 23.2057 16.0411 23.187L16.0429 23.1867L16.0226 23.185C15.8644 23.1697 15.7563 23.1131 15.9163 23.0784L15.9366 23.0744C15.9341 23.0706 15.9319 23.0667 15.9297 23.0628C15.7927 23.0478 15.8821 22.9152 15.9582 22.9473C15.9262 22.8431 16.0724 22.8951 16.0907 22.8796C16.1046 22.8643 16.1219 22.8507 16.1319 22.85C16.1759 22.819 16.1546 22.8218 16.1774 22.8208ZM17.0157 21.1341L16.9836 21.1528C16.9576 21.1679 16.9309 21.178 16.9041 21.1838C16.942 21.1999 16.9794 21.2172 17.0164 21.2357C17.0158 21.2131 17.0154 21.1905 17.0154 21.168L17.0157 21.1341Z" fill="black"/>
<path fill-rule="evenodd" clip-rule="evenodd" d="M29.5517 28.005C29.1366 28.1247 28.6912 28.1354 28.2681 28.0118C27.8844 27.8997 27.4904 27.6529 27.208 27.3264C26.9572 27.0363 26.7947 26.6838 26.8011 26.3076C26.8018 26.2646 26.8172 26.2287 26.841 26.2009C26.8665 26.1709 26.9022 26.1503 26.9404 26.1414C26.9798 26.1322 27.0213 26.1355 27.0567 26.1515C27.0888 26.166 27.1162 26.1906 27.1334 26.2266C27.1768 26.2834 27.22 26.3393 27.2634 26.3937C27.6124 26.8227 27.9503 27.1434 28.4751 27.2584C28.7598 27.3208 29.0441 27.2931 29.305 27.1979C29.5843 27.096 29.8367 26.9167 30.0346 26.6874C30.124 26.5838 30.2295 26.5414 30.3327 26.5407C30.4497 26.5399 30.5653 26.594 30.6524 26.6805C30.738 26.7656 30.7953 26.8811 30.8005 27.002C30.8051 27.108 30.7703 27.2188 30.6779 27.3177C30.3733 27.6433 29.9787 27.8819 29.5517 28.005ZM29.5388 22.6312C29.9643 22.8887 30.6125 23.4891 30.1548 24.1275C29.6161 24.6904 28.8405 24.045 28.4583 23.7531C28.1039 23.5269 27.7057 24.1087 28.0345 24.3728C30.7964 26.409 31.9172 22.6985 29.754 22.3284C29.5158 22.2877 29.4274 22.5515 29.5388 22.6312ZM25.5592 21.4982C25.4224 21.4111 25.2616 21.3812 25.0833 21.4619C24.944 21.525 24.6997 21.7353 24.5297 22.0118C24.4133 22.2009 24.3308 22.4227 24.348 22.6538C24.352 22.7075 24.3321 22.7471 24.3007 22.7763C24.2759 22.7995 24.24 22.8164 24.1979 22.8217C24.1622 22.8263 24.1222 22.8222 24.0897 22.8121C24.0278 22.7929 23.9951 22.7529 23.9827 22.7203C23.8637 22.4054 23.915 22.0541 24.0484 21.7371C24.2285 21.3094 24.5555 20.9511 24.7697 20.8355C25.1363 20.6378 25.5689 20.6287 25.936 20.8301C26.2485 21.0016 26.444 21.2784 26.6383 21.5606C26.6796 21.6206 26.7207 21.6801 26.763 21.7386C26.848 21.8559 26.8564 21.9721 26.8235 22.0718C26.7871 22.1822 26.6942 22.2754 26.578 22.3242C26.4706 22.3693 26.346 22.3756 26.2357 22.3293C26.1425 22.2902 26.057 22.2139 26.0029 22.0845C25.9118 21.8665 25.76 21.626 25.5592 21.4982V21.4982ZM32.5037 21.9831C32.4101 22.0317 32.3368 22.0463 32.2329 22.0153C32.1755 21.9982 32.1187 21.9652 32.0743 21.921C32.0302 21.8771 31.9984 21.8225 31.9861 21.762C31.9557 21.6127 31.8736 21.4729 31.7567 21.3817C31.6567 21.3038 31.5305 21.2625 31.3906 21.2858C31.2396 21.3109 31.0957 21.4074 30.9966 21.5211C30.9635 21.5591 30.9375 21.6023 30.9114 21.6452C30.8626 21.7255 30.8152 21.8001 30.7478 21.8591C30.7223 21.8815 30.6839 21.897 30.6466 21.897C30.6315 21.897 30.6161 21.8946 30.6015 21.89C30.4512 21.7398 30.4222 21.6258 30.4271 21.5128C30.4322 21.3943 30.4791 21.2743 30.5549 21.1623C30.7328 20.8997 31.0706 20.6843 31.2985 20.6355C31.6107 20.5687 31.9206 20.6489 32.1692 20.8225C32.4249 21.0011 32.6144 21.2785 32.6735 21.591C32.6877 21.6663 32.6817 21.7475 32.6529 21.818C32.6247 21.8868 32.5757 21.9458 32.5037 21.9831ZM26.2476 18.6978C26.0603 18.8796 25.8385 18.9077 25.6142 18.9327C25.4896 18.9468 25.3901 18.9581 25.2922 18.9801C25.0231 19.0406 24.7572 19.1317 24.5145 19.2629C24.2608 19.4 23.9844 19.5654 23.7855 19.7773C23.7382 19.8278 23.6936 19.8807 23.649 19.9337C23.6083 19.982 23.5691 20.0286 23.5277 20.0735C23.4803 20.125 23.4352 20.179 23.3904 20.2329C23.3626 20.2784 23.3572 20.2896 23.3516 20.3012C23.3432 20.3187 23.3334 20.3383 23.3223 20.3593C23.307 20.3881 23.2891 20.4196 23.2703 20.4481C23.2391 20.5003 23.2224 20.5147 23.2079 20.5211C23.1839 20.5317 23.1612 20.537 23.1391 20.5341C23.1184 20.5315 23.0989 20.5216 23.0796 20.5054C22.9834 20.4245 22.9551 20.2917 22.958 20.1507C22.9624 19.9368 23.0416 19.7 23.1146 19.5544C23.2845 19.2162 23.52 18.8645 23.8032 18.6121C24.1263 18.3239 24.4799 18.1057 24.886 17.9554C25.1383 17.8619 25.4305 17.7761 25.7054 17.787C25.9033 17.7948 26.0923 17.8534 26.2483 17.9996C26.3441 18.0894 26.3901 18.2172 26.3901 18.3448C26.3901 18.475 26.3423 18.6059 26.2476 18.6978ZM32.8847 20.362C32.8728 20.3814 32.8563 20.3948 32.8379 20.4029C32.8187 20.4113 32.7972 20.4138 32.7766 20.4103C32.7561 20.4069 32.7366 20.3976 32.7212 20.3834C32.7063 20.3699 32.695 20.3519 32.69 20.3299C32.5656 19.7859 32.3241 19.3813 31.8087 19.1203C31.5552 18.9919 31.2636 18.9104 30.9876 18.8453C30.9074 18.8264 30.8226 18.8142 30.7373 18.8018C30.4698 18.7629 30.2004 18.7184 30.026 18.5031C29.921 18.3734 29.8769 18.2075 29.9018 18.0558C29.9253 17.913 30.0091 17.7821 30.1614 17.7036C30.5407 17.5083 31.0121 17.6999 31.3951 17.8632C31.4235 17.8753 31.4514 17.8872 31.4787 17.8986C31.8533 18.0561 32.1949 18.2639 32.4757 18.5611C32.6985 18.7969 32.905 19.1454 32.9881 19.504C33.0573 19.8023 33.041 20.1068 32.8847 20.362Z" fill="black"/>
<path fill-rule="evenodd" clip-rule="evenodd" d="M29.6007 24.8169C28.9741 24.5359 27.8491 24.7811 27.4406 24.8786C26.491 25.1054 25.5358 25.5954 25.2406 26.3631C24.9079 27.2283 25.5717 27.5007 25.6693 27.4562C26.3266 27.5023 27.1095 27.0908 27.7983 26.9846C28.3575 26.8977 28.9474 26.8218 29.4714 26.5259C29.8539 26.7354 30.7179 26.8487 31.4152 27.0319C32.0091 27.1879 32.2664 27.5261 32.8169 27.4542C33.4767 27.368 33.2066 25.9861 32.4713 25.4263C31.6664 24.8136 30.3052 24.5652 29.6007 24.8169ZM30.8412 30.7256C30.2931 30.8586 30.2563 29.6623 30.1949 29.2397C30.1469 28.9095 29.8763 28.0579 29.1904 28.0947C28.5044 28.1314 28.2465 28.8449 28.2813 29.2886C28.3039 29.5763 28.5702 31.0339 27.7202 31.2183C27.1783 31.2164 26.5514 31.18 25.9816 31.0753C25.3109 30.9241 24.4389 30.3946 24.2085 31.4374C24.1256 31.8127 27.0798 32.9278 28.3908 33.0287C29.7202 33.2969 31.2757 32.8844 32.2223 31.8717C32.4376 31.6413 33.0441 30.685 33.0874 30.4507C33.1782 29.9584 32.9679 29.6416 32.3562 29.8151C31.9241 30.0449 31.1937 30.64 30.8412 30.7256Z" fill="black"/>
<path fill-rule="evenodd" clip-rule="evenodd" d="M33.4923 23.5864C32.6467 23.9918 31.4671 23.3938 30.8986 22.7673C30.6917 22.5392 30.532 21.8866 30.6116 21.4727C30.8272 20.3518 31.6374 19.679 32.4926 19.4493C33.6782 19.1308 34.8714 19.9377 34.7323 20.8899C34.6004 21.7924 34.4005 23.1015 33.4923 23.5864M27.7373 21.4332C27.6695 22.6547 26.6843 23.7239 25.5068 24.0407C23.6097 24.5678 22.6721 23.2399 22.2475 21.8093C22.2053 21.6671 22.1061 21.2333 22.3723 20.8611C23.4192 19.3972 25.9664 19.6467 27.2386 20.0486C27.611 20.4032 27.7632 20.915 27.7373 21.4332M34.4109 19.3262C34.4103 19.327 34.4097 19.3276 34.4091 19.3283C34.4048 19.3257 34.4005 19.323 34.396 19.3204C34.4009 19.3224 34.4061 19.3242 34.4109 19.3262M35.9982 19.4674C35.888 18.2237 31.9689 18.6999 31.5107 18.8019C30.2603 19.1681 29.1802 20.1644 27.7821 19.7264C26.3335 18.1185 21.4552 18.5796 20.4326 19.3987C20.239 19.3231 20.0036 19.3637 19.7542 19.435C18.4734 19.389 12.6265 19.8286 13.8224 21.4563C14.0039 21.5817 14.1853 21.4541 14.1903 21.1959C20.4248 18.9549 19.8205 21.0539 20.5599 20.8088C20.6728 20.8411 20.7906 20.8616 20.8936 20.8832C21.4659 21.0665 21.6602 21.0098 21.7356 21.6495C22.2535 26.5891 28.8594 24.8843 28.3176 20.8326C28.8541 20.8032 29.3233 20.5722 29.8906 20.7977C30.2844 24.6145 33.369 24.7686 34.2973 23.4455C34.9973 22.5271 34.7197 21.1413 35.6819 20.4188C36.0617 20.7353 36.0862 19.6671 35.9982 19.4674" fill="black"/>
</g>
<defs>
<clipPath id="clip0_2218_69100">
<rect width="48" height="48" rx="16" fill="white"/>
</clipPath>
</defs>
</svg>
