<svg width="48" height="48" viewBox="0 0 48 48" fill="none" xmlns="http://www.w3.org/2000/svg">
<g clip-path="url(#clip0_2218_69549)">
<path fill-rule="evenodd" clip-rule="evenodd" d="M3.46893 72.5284C3.39225 72.5309 3.41642 72.5086 3.44459 72.5032C3.4527 72.5116 3.46081 72.52 3.46893 72.5284ZM5.73287 74.2042C7.87524 74.4571 10.0202 74.2258 12.1521 73.9938C16.471 73.675 20.7595 74.6038 25.0868 74.3205C30.4948 74.0936 35.9175 73.6675 41.3076 74.3856C42.7984 74.4197 45.1764 74.8203 44.6357 72.5223C43.9255 66.614 42.976 60.7355 41.9588 54.8727C41.0968 51.5859 41.0345 45.9008 38.674 43.6151C38.3289 43.3014 37.0911 42.2864 36.7639 42.1502C35.1369 41.547 32.2038 41.0763 30.9937 39.7977C30.0135 38.1462 30.4695 35.8927 28.9454 34.5631C27.6096 33.4772 24.6941 33.7067 23.266 34.5222C22.1392 35.2497 21.9627 36.6627 21.2606 37.7077C21.0875 37.958 20.6761 38.5616 20.4438 38.7563C19.8784 39.2984 17.8924 39.8679 17.3189 39.9725C14.0824 40.6329 12.4686 41.041 9.92312 43.1825C3.27197 49.9438 4.21479 61.9025 2.37439 70.7441C2.29907 71.716 1.70566 73.035 2.76436 73.6608C3.67619 74.0958 4.74831 74.0484 5.73287 74.2042Z" fill="white"/>
<path fill-rule="evenodd" clip-rule="evenodd" d="M30.2518 37.55C30.2598 37.527 30.2969 37.5231 30.3025 37.55C30.3933 37.9634 30.5634 38.4168 30.7358 38.8044C30.911 39.1971 31.1504 39.5578 31.453 39.8641C32.0868 40.5059 32.902 40.7987 33.7961 40.7993L33.8175 40.7998C33.8216 40.7699 33.8262 40.74 33.8305 40.7101L33.8366 40.6652C33.9183 40.0504 34.6513 40.0683 34.7944 40.5323C34.8671 40.5553 34.9397 40.5783 35.0118 40.6024L35.0263 40.6075C35.1476 40.6536 35.5589 40.8575 35.6344 40.8032C35.8006 40.6842 35.9904 40.8206 36.0535 40.9726C36.1567 41.2215 36.1739 41.5292 36.2074 41.7993L36.2118 41.8343L36.2169 41.8763C38.569 42.4851 39.889 44.8283 40.5628 46.987C40.9279 48.1573 41.1668 49.3645 41.4068 50.565C41.6637 51.8491 41.9003 53.1366 42.151 54.4213C42.6451 56.953 43.1127 59.4904 43.5189 62.0373L43.6367 62.7769C44.0088 65.1189 44.3712 67.4595 44.6761 69.8121C44.8406 71.0805 44.9949 72.35 45.1437 73.6207C45.1703 73.8473 45.1968 74.0739 45.2229 74.3007L45.262 74.6411C45.2969 74.9463 45.3561 75.2481 45.2045 75.5336C44.8761 76.1529 43.8811 76.1484 43.8248 75.3552C43.8136 75.1976 43.8671 75.077 43.9555 74.9928L43.9543 74.9795C43.9534 74.9716 43.9525 74.9657 43.9522 74.9631C43.9228 74.8055 43.9149 74.6389 43.8969 74.4795C43.8575 74.1396 43.8192 73.7996 43.7803 73.4591C43.7054 72.8105 43.6299 72.1621 43.5516 71.5141C43.3933 70.1997 43.2259 68.887 43.0485 67.5754L42.8726 66.2786C42.2845 61.9557 41.6715 57.6338 40.8648 53.3453C40.6451 52.1779 40.4192 51.0121 40.1876 49.847C39.9679 48.7435 39.7211 47.6451 39.3527 46.5797C38.751 44.8395 37.6992 43.2099 36.2389 42.0677C36.2614 42.2859 36.2778 42.5053 36.2986 42.7235C36.3521 43.2839 36.409 43.8438 36.4665 44.4037C36.6755 46.4322 36.9589 48.4574 37.4423 50.441C37.6817 51.4239 37.9735 52.3939 38.329 53.3414C38.5042 53.8081 38.6952 54.2687 38.9048 54.7209C39.1121 55.168 39.4756 55.6459 39.4975 56.1441C39.5076 56.3747 39.2654 56.5794 39.0412 56.5547C39.1459 57.4725 39.2051 58.3998 39.2676 59.3154C39.3589 60.6415 39.4316 61.97 39.538 63.295C39.7285 65.6686 39.9673 68.0388 40.2175 70.4067C40.2671 70.8762 40.321 71.3453 40.3743 71.8143L40.4189 72.2081C40.449 72.4634 40.4944 72.7693 40.3583 72.9957C40.48 73.288 40.5634 73.5881 40.6119 73.9012C40.6732 74.2905 40.4496 74.7269 39.9932 74.7101C39.9414 74.7084 39.8896 74.7039 39.8378 74.6983C39.4147 74.7959 38.9927 74.8818 38.5532 74.8846C37.9921 74.8885 37.4299 74.8773 36.8687 74.8734C35.7832 74.8661 34.6975 74.8588 33.6118 74.8498C29.6817 74.8184 25.7499 74.8201 21.8203 74.7572L20.248 74.7324C18.8067 74.7093 17.3652 74.6827 15.9245 74.6304C14.9324 74.5945 13.9403 74.5581 12.9487 74.5182L12.7469 74.5106C11.8719 74.4788 10.996 74.4625 10.1307 74.3292C10.109 74.3255 10.0996 74.3031 10.103 74.2834L10.1042 74.2781L10.0665 74.2697C10.0445 74.364 9.58818 73.9679 9.59156 73.7048C9.40226 73.4597 9.49072 73.0681 9.511 72.7842C9.53072 72.5076 9.5555 72.2305 9.57748 71.9539C9.62424 71.3632 9.66424 70.7719 9.71212 70.1812C9.90536 67.7992 10.0721 65.4111 10.1803 63.0241C10.2349 61.8208 10.2789 60.6169 10.3251 59.4135C10.3459 58.8657 10.3748 58.3173 10.4288 57.772L10.4428 57.6357C10.502 57.0826 10.4963 56.488 10.7009 55.9668C10.7037 55.9595 10.7133 55.9595 10.7161 55.9668C10.9228 56.474 10.9425 57.0636 10.9842 57.6201C10.9916 57.6178 10.9989 57.6167 11.0068 57.615C11.2924 57.4798 11.5809 57.3581 11.8513 57.1909C11.8879 57.1685 11.9234 57.1448 11.9594 57.1219C12.3848 55.826 12.8778 54.5514 13.3313 53.264C14.7966 49.1008 15.6056 44.6673 15.7848 40.2591C14.6671 40.9766 13.4497 41.5348 12.2663 42.1342L12.1555 42.1905C10.9899 42.7841 9.87381 43.4578 9.04395 44.4872C8.32057 45.3837 7.8479 46.476 7.40564 47.5289C6.93072 48.6605 6.50255 49.8122 6.111 50.9746C5.31663 53.333 4.70142 55.7491 4.22142 58.19C3.74762 60.5989 3.40903 63.0257 3.18255 65.4694C3.06705 66.716 2.9617 67.9636 2.87325 69.2129C2.82818 69.8452 2.78818 70.478 2.751 71.1113C2.73297 71.4188 2.71945 71.7267 2.69917 72.0342C2.68677 72.2114 2.68452 72.3943 2.62593 72.5626C2.57691 72.7028 2.49015 72.8201 2.40903 72.9441C2.26086 73.1702 1.88677 73.2111 1.74762 72.9441L1.68736 72.8284C1.60761 72.6744 1.53477 72.5193 1.52395 72.3416C1.51381 72.1733 1.53466 71.9977 1.54424 71.8288C1.56283 71.4872 1.58424 71.145 1.60565 70.8034C1.65072 70.0847 1.70086 69.3661 1.75719 68.648C1.86931 67.2096 2.01353 65.7752 2.19494 64.3435C2.83325 59.3154 3.75494 54.3136 5.51381 49.5418C5.94874 48.362 6.43381 47.1917 6.98142 46.0591C7.511 44.9641 8.18086 43.9302 9.15325 43.1762C10.0483 42.482 11.0888 42.0174 12.1227 41.5664L12.2518 41.5101C13.4107 41.0057 14.5673 40.4627 15.7775 40.0879C15.7504 40.0913 15.724 40.0947 15.7009 40.1025C15.6744 40.111 15.6587 40.0767 15.675 40.0582C15.7437 39.9825 15.7724 39.9045 15.8513 39.8299C15.9058 39.7783 15.9625 39.7295 16.0208 39.6825L16.1047 39.616C16.2583 39.4947 16.4197 39.3707 16.613 39.3284C16.8863 39.2689 17.0203 39.5163 16.9437 39.7098C16.9831 39.6588 17.089 39.6739 17.1166 39.7441C18.0158 42.0531 18.6062 44.4973 19.8163 46.679C20.7099 48.2908 21.9087 49.7791 23.4997 50.7524C24.3544 51.2752 25.3325 51.6769 26.3425 51.7403C27.2496 51.797 28.1223 51.5675 28.8936 51.0935C30.3888 50.1751 31.3651 48.5628 32.0614 47.0005C32.8271 45.2805 33.3735 43.4477 33.6947 41.5897C32.6772 41.6037 31.6034 41.1415 30.9268 40.3881C30.5707 39.9915 30.3054 39.5084 30.1707 38.9935C30.0349 38.474 30.0783 38.0471 30.2518 37.55ZM21.716 36.2008C21.84 35.9804 22.115 35.9074 22.3398 35.9972C22.5893 36.097 22.6643 36.3383 22.6288 36.5834C22.5876 36.8706 22.4022 37.1809 22.2581 37.4316C22.1071 37.6942 21.9127 37.936 21.7115 38.162C21.333 38.5884 20.9279 38.9727 20.4474 39.2869C19.9691 39.5993 19.4282 39.8332 18.8722 39.964L18.74 39.9947C18.3075 40.0931 17.6921 40.206 17.3318 39.9719C17.3144 39.9606 17.3149 39.9376 17.3318 39.9264C17.5268 39.7912 17.7877 39.767 18.0118 39.7031C18.2563 39.633 18.5015 39.5534 18.7352 39.4535C19.1967 39.256 19.6384 38.9957 20.0315 38.6849C20.4265 38.373 20.8084 38.0011 21.0727 37.5719C21.2057 37.3565 21.3189 37.1304 21.4276 36.9027C21.5375 36.6743 21.5927 36.4207 21.716 36.2008Z" fill="black"/>
<path fill-rule="evenodd" clip-rule="evenodd" d="M35.9726 25.522C35.5859 20.8279 34.4084 16.6704 28.8757 16.4932C26.379 16.5154 23.8303 17.0436 21.5343 18.0208C15.9537 20.807 14.183 30.988 19.0997 35.0862C19.0704 35.1028 19.0634 35.1506 19.0979 35.1737C20.1137 35.8542 21.2428 36.4141 22.3736 36.8845C25.3858 38.1526 28.9317 38.7034 32.0037 37.3279C36.6917 35.3415 36.7621 29.8144 35.9726 25.522V25.522Z" fill="white"/>
<path fill-rule="evenodd" clip-rule="evenodd" d="M45.2004 23.3341C45.393 23.1613 45.5367 22.9347 45.6094 22.6805C45.6759 22.4488 45.6804 22.1958 45.6099 21.9647C45.5345 21.7167 45.3716 21.5193 45.4083 21.2612C45.4122 21.236 45.4173 21.2096 45.4252 21.1832C45.566 20.6974 45.9125 20.3468 45.7885 19.8083C45.7536 19.6562 45.6877 19.5193 45.5959 19.4116C45.606 19.295 45.615 19.1771 45.6223 19.0593C45.8257 18.5853 45.8184 18.0221 45.6015 17.5553C45.575 17.3163 45.535 17.0796 45.4787 16.8468C45.5046 16.6409 45.4685 16.4143 45.4021 16.2342C45.2853 15.9173 45.1409 15.6051 44.9843 15.298C45.0027 15.214 44.9945 15.1253 44.9479 15.0463C44.8633 14.9029 44.7515 14.7768 44.6372 14.6535C44.5563 14.5097 44.4749 14.3671 44.3942 14.2264C44.3568 14.1617 44.3155 14.09 44.2699 14.0139C44.394 13.7847 44.4603 13.5613 44.329 13.2918C44.2797 13.1905 44.1442 13.1159 44.0326 13.1225C43.9106 13.1297 43.7875 13.1352 43.6637 13.1398C43.4324 12.8617 43.1703 12.612 42.8894 12.4682C42.6049 12.2281 42.3164 11.9925 42.0359 11.7519C41.9564 11.6834 41.8764 11.615 41.797 11.5465C41.7964 11.5449 41.7959 11.5426 41.7953 11.5409C41.7367 11.3283 41.6708 11.1185 41.6049 10.9076C41.5637 10.7769 41.5514 10.64 41.4235 10.5687C41.1564 10.4201 40.7457 10.3965 40.4392 10.3713C40.4088 10.3443 40.3784 10.318 40.348 10.291C40.4871 9.9219 40.4623 9.52977 40.2871 9.16008C40.2274 9.03441 40.0201 8.97775 39.9063 9.06078C39.6437 9.25264 39.3322 9.32052 39.024 9.29247C38.5711 8.94578 36.744 7.37803 36.4617 7.21254C36.4582 7.20659 36.4554 7.20065 36.4517 7.19475C36.293 6.94242 36.1003 6.73979 35.8836 6.57733C35.8527 6.54518 35.8217 6.51298 35.7908 6.48078C35.818 6.28842 35.8896 6.10267 36.0049 5.94728C36.0173 5.92933 36.0314 5.91194 36.0454 5.89511C36.2471 5.65612 36.0009 5.3487 35.7192 5.4738C35.699 5.48278 35.6787 5.49175 35.6584 5.50129C35.4418 5.59744 35.2022 5.70196 34.9527 5.79014C34.8614 5.75609 34.7683 5.72524 34.6834 5.69124L33.7743 5.32733C33.6247 5.26741 33.4665 5.21664 33.3218 5.14624C33.2713 4.81194 32.9348 4.59271 32.5854 4.60415C32.6056 4.53997 32.6357 4.47765 32.6781 4.41858C32.6905 4.40118 32.704 4.38436 32.7181 4.36809C32.8978 4.15996 32.6578 3.774 32.4009 3.95912C32.3829 3.97203 32.3643 3.98493 32.3463 3.99783C32.2749 4.0477 32.2018 4.09449 32.128 4.13982C32.0097 4.08843 31.8765 4.07671 31.7372 4.13107C31.4285 4.2514 31.144 4.37375 30.8723 4.56236C30.8613 4.57004 30.8498 4.57649 30.8387 4.58373C30.7038 4.42149 30.4897 4.313 30.2968 4.31418C30.2929 4.31418 30.2898 4.31412 30.2863 4.31406C30.1422 4.09533 29.8779 3.96821 29.6227 3.99912C29.6399 3.68525 29.3244 3.40514 29.0371 3.37109C28.7014 3.33137 28.3989 3.52542 28.2982 3.85147C28.2701 3.94224 28.2421 4.03306 28.2141 4.12389C27.9534 3.9929 27.6784 3.89253 27.3911 3.84244C26.7368 3.72833 26.0971 3.84984 25.4666 4.03071C25.4036 4.04877 25.3407 4.06734 25.2778 4.08585C25.1879 3.98212 25.1035 3.87593 25.0229 3.7768C24.8837 3.6057 24.5497 3.74258 24.5722 3.96249C24.5879 4.11424 24.5259 4.22341 24.4263 4.30099C24.3168 4.31692 24.211 4.32175 24.0515 4.31855C23.8406 4.31429 23.7447 4.30772 23.5241 4.22212C23.4214 4.18229 23.2934 4.07755 23.2336 3.98353C23.004 3.62298 22.4208 3.52587 22.1431 3.86965C21.8508 3.74224 21.4818 3.91795 21.3195 4.16568C21.2346 4.29521 21.0575 4.36764 20.8345 4.42991C20.6671 4.47658 20.496 4.51192 20.324 4.54284C20.2474 4.43933 20.0861 4.36994 19.9677 4.45672C19.8875 4.51568 19.8097 4.57621 19.7329 4.63826C19.1408 4.71949 18.5517 4.72241 17.9872 4.49251C17.5092 4.29785 17.0703 4.8295 17.1492 5.27583C17.0108 5.34758 16.8606 5.39532 16.7239 5.47049C16.4256 5.63464 16.1806 5.8941 16.0313 6.19894C16.0045 6.25352 15.9804 6.30895 15.9573 6.36466C15.8458 6.45503 15.7356 6.54782 15.628 6.64571C15.4488 6.55427 15.2702 6.46283 15.0911 6.37139C14.957 6.30295 14.7311 6.35063 14.7046 6.5279C14.6612 6.81962 14.5559 7.06141 14.4054 7.26392C13.9164 7.51974 13.446 7.80696 12.9959 8.12617C12.4781 8.28773 11.9277 8.38198 11.4753 8.48801C11.3204 8.52447 11.2359 8.72587 11.3232 8.85995C11.4156 9.00188 11.508 9.14381 11.5998 9.28574C11.3423 9.53594 11.1007 9.79736 10.8725 10.0678C10.2376 10.8195 9.70629 11.6436 9.23079 12.5165C9.04262 12.5922 8.85446 12.6674 8.66629 12.7431C8.48488 12.8161 8.40319 13.0259 8.55023 13.1801C8.62009 13.2536 8.68262 13.331 8.73615 13.4124C8.46967 13.8516 8.15586 14.2522 7.71699 14.5147C7.58347 14.5944 7.48319 14.7195 7.42967 14.8614C7.38403 14.8917 7.33896 14.9243 7.29446 14.9574C7.17051 15.0505 7.09558 15.2536 7.24093 15.3742C7.34291 15.4594 7.43868 15.5604 7.51981 15.6721C7.53727 15.7355 7.5553 15.7994 7.57333 15.8628C7.16544 16.2364 6.82629 16.6706 6.57164 17.1576C6.51136 17.148 6.44938 17.1542 6.39924 17.1912C5.94403 17.5261 5.93051 18.0596 6.11361 18.5365C6.00319 19.2551 6.07417 19.9917 6.28713 20.6879C6.00713 20.9661 5.83868 21.3678 5.76995 21.7549C5.64882 22.4348 5.64037 23.4805 5.60882 24.1745C5.30347 24.4679 5.086 24.8476 4.96488 25.256C4.86291 25.3065 4.76093 25.357 4.65896 25.4075C4.56826 25.4524 4.50178 25.5708 4.50741 25.6706C4.53333 26.1536 4.73333 26.5351 4.99868 26.8807C5.09277 27.1471 5.23192 27.3929 5.41446 27.6285C5.54065 27.79 5.66403 27.9449 5.77277 28.1193C5.78403 28.1367 5.79079 28.153 5.79586 28.1642C5.75305 28.2102 5.71755 28.2865 5.68657 28.3409C5.42629 28.7976 5.42234 29.3328 5.79192 29.7305C5.65277 29.8438 5.64826 30.0727 5.77107 30.213C6.57051 31.1223 7.23699 32.228 8.34629 32.7111C8.35136 32.7195 8.35586 32.7279 8.35981 32.7363C8.13502 33.2749 8.1046 33.5548 8.28826 34.1113C8.28938 34.1163 8.29107 34.1208 8.29276 34.1259C8.39079 34.4176 8.57107 34.8849 8.89615 34.9758C8.99868 35.0044 9.09953 35.0173 9.19924 35.0167C9.45727 35.2641 9.71474 35.5121 9.9722 35.7601C9.99474 35.8829 10.0088 36.0069 10.0133 36.132C10.0207 36.3412 10.2184 36.5107 10.4314 36.449C10.5063 36.4271 10.9209 36.026 10.997 36.0282C11.0353 36.0664 11.0725 36.1045 11.1097 36.1432C11.2466 36.2863 11.4364 36.5118 11.4522 36.6616C11.4826 36.9437 11.6685 37.2669 11.9688 37.3241C12.0815 37.438 12.2618 37.4722 12.3998 37.3235C12.4088 37.314 12.4178 37.3045 12.4274 37.296C12.4421 37.2944 12.4561 37.2927 12.4708 37.291C12.5373 37.4885 12.6038 37.6859 12.6708 37.8828C12.8021 38.2711 13.3035 38.5207 13.6595 38.294C13.717 38.3283 13.7733 38.3647 13.8297 38.4012C13.9153 38.4556 14.0021 38.5112 14.0911 38.5633C14.0961 38.5779 14.1012 38.5925 14.1057 38.6065C14.1632 38.781 14.4021 38.8747 14.5491 38.7743C14.5947 38.7888 14.6415 38.8006 14.6888 38.8102C14.9373 38.859 15.1874 38.8455 15.4274 38.763C15.5992 38.7047 15.7632 38.5931 15.948 38.5779C15.9595 38.577 15.9714 38.5777 15.9831 38.5774C16.1339 38.8849 16.4784 39.15 16.7499 39.24C17.1055 39.358 17.4694 39.3158 17.7933 39.1713C17.8807 39.3453 17.9904 39.51 18.1215 39.6623C18.1942 39.7465 18.3254 39.7285 18.4004 39.6623C18.5427 39.5367 18.6841 39.4105 18.8253 39.2841C18.9275 39.2449 19.0306 39.1978 19.1382 39.154C19.4748 39.0172 19.8438 38.9605 20.155 38.7626C20.3028 38.6687 20.4418 38.5489 20.5563 38.4101C20.7719 38.2861 20.9701 38.1316 21.1485 37.9546C21.2376 37.9552 21.3305 37.9345 21.4207 37.889C21.7976 37.6983 21.9959 37.3101 22.0133 36.9129C22.3187 36.1976 22.499 35.4347 22.5485 34.6538C22.5643 34.3974 22.5671 34.1388 22.5474 33.8824C22.5339 33.7018 22.4883 33.5812 22.4195 33.4179C22.3964 33.3646 22.3756 33.3158 22.3592 33.262C22.3632 33.0892 22.3654 32.9164 22.3677 32.7442C22.4145 32.5989 22.4978 32.4637 22.6139 32.3498C22.7936 32.1736 22.8759 31.8079 22.7125 31.5902C22.606 31.4494 22.5001 31.3086 22.3936 31.1678C22.4235 30.5636 22.5688 29.602 22.2466 29.5011C22.2595 29.4113 22.2871 29.3227 22.3029 29.2335C22.3784 28.8049 22.3333 28.4217 22.1046 28.047C22.0567 27.969 22.0161 27.9 21.9829 27.8327C21.9621 27.7093 21.9412 27.5858 21.9204 27.4624C21.8883 27.2722 21.8567 27.0804 21.8297 26.8874C21.8156 26.6417 21.8026 26.396 21.7885 26.1497C21.7756 25.9231 21.7609 25.6964 21.7457 25.4692C21.7519 25.3677 21.7609 25.2661 21.7739 25.1646C21.8511 24.5593 22.0995 24.3355 22.5299 23.9147C22.5976 23.9041 22.6646 23.8923 22.7305 23.8788C23.0376 23.8154 23.3587 23.7172 23.6747 23.7526C24.0178 23.7907 24.3249 23.9383 24.6584 23.7498C24.7564 23.6937 24.9722 23.5388 24.9908 23.416C24.9919 23.4081 24.9936 23.4014 24.9959 23.3964C25.019 23.393 25.0488 23.3902 25.0674 23.3896C25.3322 23.3806 25.5852 23.4844 25.8522 23.4558C26.1683 23.4222 26.4511 23.2825 26.637 23.0755C26.8753 23.1338 27.1187 23.1602 27.366 23.1276C27.5733 23.1007 27.7592 23.0334 27.9429 22.9335C28.0764 22.8617 28.0342 22.841 28.1795 22.8993C28.5102 23.0328 28.8094 23.209 29.1818 23.1175C29.375 23.0704 29.5418 22.9666 29.6821 22.827C29.7153 22.7944 29.7716 22.7456 29.8094 22.6996C29.9863 22.7888 30.4314 22.9902 30.5046 23.0082C30.7119 23.0586 30.9316 23.0508 31.1333 22.9835C31.2815 22.9341 31.4629 22.7995 31.593 22.772C31.7615 22.7361 32.1356 22.9694 32.3367 23.0497C32.6894 23.1905 33.0629 23.2253 33.4201 23.08C33.5429 23.03 33.7818 22.8309 33.8736 22.8326C34.0229 23.016 34.4398 24.0196 34.5649 24.3859C35.0714 25.867 35.2026 30.4912 34.9688 31.671C34.9598 31.7058 34.9502 31.74 34.9407 31.7748C34.6533 32.8008 34.3542 33.8443 33.8736 34.8002C33.4201 35.7011 32.793 36.5123 31.8933 37.0043C30.9604 37.5148 29.8652 37.6489 28.8161 37.5799C28.1406 37.5362 27.4764 37.4009 26.8229 37.2315C26.4815 37.1435 26.1429 37.0453 25.806 36.9432C25.659 36.8989 25.5097 36.8574 25.3654 36.8057C25.1108 36.7143 24.9773 36.707 24.7333 36.8243C24.5114 36.9308 24.4545 37.2456 24.5699 37.4436C24.7581 37.7667 25.1029 37.7892 25.4359 37.8834C25.775 37.9793 26.1153 38.0713 26.4578 38.1538C27.1142 38.3109 27.7812 38.4315 28.4539 38.487C29.6584 38.5874 30.8995 38.4326 31.9959 37.9092C32.1198 37.8497 32.2392 37.7864 32.3547 37.7179C32.3119 37.7774 32.2685 37.8368 32.2246 37.8957C32.1029 38.059 32.193 38.3367 32.3637 38.4259C32.4178 38.4539 32.4719 38.4809 32.5266 38.5072C32.5339 38.5246 32.5418 38.542 32.5508 38.5594C32.7068 38.8713 33.0336 39.0553 33.3666 39.135C33.7621 39.2292 34.2049 39.1625 34.6071 39.1507C34.9801 39.1395 35.353 39.1282 35.7254 39.117C35.8133 39.1148 35.9012 39.112 35.9891 39.1092C36.4319 39.0957 36.8742 39.0828 37.3164 39.0693C37.7108 39.0576 37.6922 39.0879 38.0623 38.9308C38.2274 38.8601 38.3626 38.7602 38.4764 38.6273C38.5474 38.5959 38.6161 38.56 38.6821 38.519C38.8939 38.3877 39.0821 38.2116 39.2556 38.0175C39.5502 38.11 39.9632 38.0242 40.0206 37.6556C40.113 37.066 40.8826 36.8142 41.2421 36.3878C41.5322 36.0439 41.7395 35.5934 41.7288 35.1609C42.4601 34.8086 42.8578 33.8802 42.9508 33.0925C42.9942 32.7273 42.9874 32.3363 43.0499 31.9649C43.0776 31.9352 43.1023 31.9038 43.1232 31.8701C43.3068 31.5745 43.4668 31.2699 43.6077 30.958C43.7992 30.8205 44.0297 30.7358 44.2708 30.7218C44.8635 30.6876 44.975 29.8915 44.4099 29.6997C44.4071 29.6985 44.4049 29.698 44.4021 29.6969C44.5553 29.3154 44.5423 28.8638 44.3564 28.5025C44.3643 28.4632 44.3716 28.4245 44.379 28.3853C44.6961 28.0459 44.8781 27.5741 44.8578 27.1146C45.0026 27.0131 45.1649 26.9345 45.3423 26.8857C45.6167 26.8106 45.6184 26.4773 45.4156 26.3281C45.3339 26.2681 45.2663 26.198 45.2099 26.1205C45.3502 25.7009 45.295 25.2157 45.0083 24.8712C45.1902 24.639 45.3722 24.4067 45.5542 24.1745C45.6747 24.0207 45.7384 23.7599 45.5542 23.614C45.4364 23.5203 45.3187 23.4272 45.2004 23.3341Z" fill="black"/>
<path fill-rule="evenodd" clip-rule="evenodd" d="M32.1828 33.2086L32.2218 33.1996C32.5331 33.1265 32.8326 33.0271 33.1225 33.2192C33.3987 33.4021 33.437 33.7405 33.2218 33.9874C33.0006 34.2411 32.7068 34.2269 32.3967 34.2304L32.3773 34.2307C32.1197 34.2342 31.8579 34.2304 31.6014 34.2077C31.3623 34.1865 31.1216 34.1526 30.8853 34.1081L30.7455 34.0808C30.6026 34.052 30.462 34.0146 30.3884 33.877C30.26 33.637 31.2139 33.4488 31.3298 33.4158C31.6111 33.3359 31.8976 33.2729 32.1828 33.2086ZM32.7119 30.3155C32.5598 30.4726 32.359 30.5798 32.1335 30.6466C31.5668 30.8144 30.8438 30.725 30.381 30.554C30.2849 30.5186 30.1952 30.4463 30.1437 30.3559C30.0966 30.2733 30.0806 30.1762 30.1165 30.0771C30.1267 30.049 30.1391 30.0214 30.1516 29.9942C30.1855 29.9202 30.2547 29.8626 30.336 29.8297C30.4204 29.7955 30.5164 29.7885 30.5933 29.8126C30.6037 29.8159 30.6143 29.8192 30.6252 29.8226C30.9184 29.9147 31.3994 30.0671 31.7978 30.0375C32.0369 30.0198 32.2472 29.9357 32.356 29.7178C32.4133 29.6029 32.3975 29.4893 32.3466 29.3853C32.27 29.2285 32.1164 29.092 31.987 28.9979C31.8047 28.8653 31.6102 28.8124 31.409 28.7565C31.3332 28.7354 31.2564 28.7141 31.1789 28.6885C31.1534 28.6802 31.131 28.6637 31.1143 28.6422C31.0977 28.621 31.0868 28.5952 31.0834 28.5692C31.0799 28.5424 31.0843 28.5156 31.0968 28.4925C31.1084 28.4711 31.1269 28.4523 31.1546 28.4399C31.5482 28.2643 32.0573 28.3803 32.4415 28.6566C32.6335 28.7946 32.7937 28.972 32.8924 29.1702C32.984 29.3541 33.0229 29.5559 32.987 29.7616C32.9469 29.992 32.8489 30.174 32.7119 30.3155ZM26.2613 26.3976C26.3719 26.3491 26.4628 26.5762 26.4855 26.6381L26.5326 26.7666C26.6094 26.9738 26.6975 27.1844 26.859 27.3382C26.9941 27.4669 27.2107 27.5761 27.3675 27.4254C27.5162 27.2825 27.4437 27.1216 27.4656 26.9463C27.5052 26.6292 27.9394 26.3123 28.2004 26.6432C28.7902 27.3908 27.8777 28.4304 27.0373 28.248C26.6099 28.1552 26.2658 27.814 26.1244 27.4081L26.1172 27.3867C26.0326 27.1296 25.947 26.5356 26.2613 26.3976ZM33.8716 26.9182L33.8676 26.9087C33.5867 26.2725 34.5887 25.9991 34.6736 26.5704L34.679 26.6089C34.7617 27.2431 34.5875 28.0959 33.8075 28.1591C32.9319 28.2301 32.5673 27.2573 32.6455 26.5434C32.6595 26.4156 32.8152 26.398 32.8633 26.5141L32.8736 26.5394C33.0149 26.8982 33.1492 27.5881 33.6473 27.5874C33.9801 27.5869 33.9643 27.1396 33.8716 26.9182V26.9182ZM34.5069 25.0765C35.0102 25.0587 35.0096 25.8431 34.5069 25.8548C32.8279 25.8942 31.1477 25.9465 29.4682 25.9554L29.1629 25.9573C27.5853 25.9678 26.0023 25.9893 24.4294 25.8574C24.2951 25.8462 24.3201 25.6585 24.4323 25.6661C26.0813 25.4324 27.7505 25.364 29.4122 25.2752C31.1089 25.1845 32.8089 25.1365 34.5069 25.0765Z" fill="black"/>
<path fill-rule="evenodd" clip-rule="evenodd" d="M37.5264 27.1678C36.9893 30.7856 33.2397 31.1857 32.5735 27.5941C32.6805 27.5475 32.7574 27.4557 32.7413 27.2776C32.7375 26.4949 32.9815 25.6676 33.6906 25.2324C34.4233 24.7832 35.2809 24.7387 36.1288 24.75C37.7469 24.7116 37.7129 26.0584 37.5264 27.1678M31.9866 25.5944C31.4787 25.5731 30.8362 25.5909 30.3813 25.899C30.2562 25.5637 29.9313 25.2056 29.6029 25.0141C30.8233 25.0497 32.0796 24.9301 33.3091 24.8372C33.0148 25.037 32.741 25.3371 32.563 25.6841C32.3979 25.5964 32.1614 25.6046 31.9866 25.5944M29.7481 27.5514C28.34 32.3779 24.825 30.2742 24.4418 29.6557C23.7506 28.6321 23.6205 26.1438 24.2226 25.4786C25.0845 24.877 26.3046 25.0318 27.3227 25.017C29.1932 25.0422 30.5216 25.5994 29.7481 27.5514M39.1891 25.3315C38.8065 25.2817 38.3976 25.2716 38.0419 25.4394C37.9324 24.9758 37.5886 24.5883 37.2004 24.4177C37.1534 24.3591 37.1604 24.3275 36.9999 24.3363C36.0143 24.0414 34.9113 24.1974 33.9642 24.4999C32.4683 24.6254 30.8989 24.7243 29.3904 24.8971C27.9774 24.2652 23.713 24.1726 23.448 25.7301C23.1146 25.6804 22.5469 25.4192 22.2668 25.7735C20.2121 25.4267 18.089 25.9087 16.0254 26.1234C15.5059 26.2187 15.2384 27.2452 15.828 27.2312C16.1595 27.1416 15.8178 26.592 16.2642 26.5506C18.2552 26.3341 20.2027 26.0269 22.2142 25.9909C22.1442 26.3368 23.5445 26.3593 23.5652 26.1573C23.5682 26.1588 23.5713 26.1598 23.5744 26.1612C23.2284 27.4453 23.5407 29.2933 24.166 30.0896C25.0422 31.1322 27.2419 31.4314 28.2173 30.7605C29.4755 30.1414 30.7844 27.0334 30.4167 26.0008C31.084 25.7902 31.7437 25.8534 32.4362 25.9607C32.2776 26.4066 32.004 27.5044 32.3977 27.5996C32.3254 29.779 34.3174 31.1389 36.1537 30.2449C37.743 29.5019 38.2988 27.1504 38.1044 25.723C38.3022 26.1037 39.9635 25.6893 39.1891 25.3315" fill="black"/>
</g>
<defs>
<clipPath id="clip0_2218_69549">
<rect width="48" height="48" rx="16" fill="white"/>
</clipPath>
</defs>
</svg>
