<svg width="48" height="48" viewBox="0 0 48 48" fill="none" xmlns="http://www.w3.org/2000/svg">
<g clip-path="url(#clip0_2218_69575)">
<path fill-rule="evenodd" clip-rule="evenodd" d="M6.92516 70.393C8.80502 70.3988 10.6316 70.4629 12.5168 70.4692C20.1798 70.4946 27.9134 70.4576 35.6042 70.1482C37.7779 70.0608 38.3205 70.063 40.4849 69.9273C41.7628 69.9228 45.6014 69.8175 45.4093 68.0843C45.3244 64.8562 44.5218 61.6418 44.269 58.4225C43.7838 52.3704 43.3706 46.129 40.9343 40.4684C40.3703 39.1166 39.1592 38.2325 37.9603 37.4376C36.7579 36.5801 36.4628 35.6279 35.3531 34.6591C35.1185 34.4543 33.786 34.3709 33.0691 33.8513C32.0256 33.095 31.5082 31.8568 31.1188 31.646C30.8324 31.4909 30.8376 30.4209 30.2634 30.0422C29.4929 29.534 27.0375 29.1561 26.1442 29.0854C25.2868 29.0176 23.7955 29.1601 22.991 29.4727C21.6495 29.9941 21.1144 30.9886 20.5236 32.2698C12.7182 34.672 5.58381 38.7396 3.36814 46.9443C1.45744 53.8256 1.38741 61.2027 2.12555 68.2602C2.27321 68.7762 2.16972 69.5853 2.61761 69.9273C1.0611 70.0162 6.714 70.3358 6.92516 70.393Z" fill="white"/>
<path fill-rule="evenodd" clip-rule="evenodd" d="M42.4271 63.5984C42.2794 63.5249 42.1254 63.441 41.9567 63.4351C41.667 63.4251 41.6666 62.9762 41.9567 62.9863C42.2097 62.9951 42.4319 63.1002 42.6546 63.2108C42.9144 63.34 42.6858 63.727 42.4271 63.5984M41.9567 50.9659C42.1544 50.966 42.3537 50.9909 42.5055 51.1285C42.5958 51.2105 42.5886 51.3631 42.5055 51.4459C42.4165 51.5344 42.2767 51.5275 42.1867 51.4459C42.2161 51.4724 42.187 51.4461 42.1764 51.4402C42.1738 51.4389 42.1724 51.4379 42.1718 51.4373C42.1695 51.4368 42.1673 51.4363 42.1636 51.4354C42.14 51.4295 42.1168 51.4237 42.0929 51.4194C42.0925 51.4205 42.0426 51.4161 42.0309 51.4157C42.0061 51.4148 41.9814 51.4147 41.9567 51.4147C41.8345 51.4146 41.7314 51.312 41.7314 51.1903C41.7314 51.0691 41.8349 50.9658 41.9567 50.9659M39.8376 56C39.773 56.2819 39.3386 56.1618 39.403 55.8806C39.4966 55.4719 39.4795 55.053 39.403 54.6428C39.3502 54.36 39.7847 54.2399 39.8376 54.5235C39.9294 55.0156 39.95 55.5094 39.8376 56M39.2683 39.8709C38.9327 39.7915 38.6007 39.7821 38.2573 39.782C37.9669 39.7819 37.9673 39.3331 38.2573 39.3332C38.6403 39.3333 39.0141 39.3497 39.3882 39.4382C39.6706 39.505 39.5503 39.9376 39.2683 39.8709M38.1436 50.8024C37.9489 50.7054 37.7542 50.6085 37.5595 50.5116C37.2997 50.3823 37.5283 49.9953 37.787 50.124L38.3711 50.4149C38.6308 50.5442 38.4023 50.9312 38.1436 50.8024M38.0625 59.6403C37.8156 59.9948 37.4684 60.215 37.0517 60.325C36.7706 60.3993 36.6517 59.9662 36.9319 59.8923C37.2298 59.8136 37.4946 59.6704 37.6733 59.4138C37.8377 59.1778 38.2282 59.4024 38.0625 59.6403M36.5052 43.8392C36.4384 43.7149 36.3378 43.6624 36.2129 43.6596C35.9229 43.6529 35.9229 43.2041 36.2129 43.2108C36.4975 43.2172 36.7584 43.3594 36.8943 43.6127C37.0311 43.8676 36.6419 44.0941 36.5052 43.8392M33.6465 46.8898C33.5657 46.9774 33.409 46.9752 33.3278 46.8898C33.278 46.8375 33.2362 46.7791 33.2033 46.7151C33.1908 46.6908 33.179 46.666 33.1653 46.6424C33.1591 46.6319 33.1523 46.6215 33.1453 46.6114C33.143 46.6093 33.1381 46.6043 33.133 46.5989C33.0464 46.5078 33.0486 46.3732 33.133 46.2816C33.2138 46.194 33.3705 46.1961 33.4518 46.2816C33.5015 46.3339 33.5433 46.3923 33.5762 46.4563C33.5887 46.4806 33.6004 46.5053 33.6142 46.529C33.6204 46.5395 33.6272 46.5498 33.6342 46.5599C33.6366 46.562 33.6414 46.5671 33.6465 46.5724C33.7331 46.6636 33.7309 46.7981 33.6465 46.8898M33.4061 53.5167C33.1126 53.6504 32.7907 53.6504 32.4972 53.5167C32.386 53.466 32.3597 53.3062 32.4164 53.2097C32.4821 53.0978 32.6141 53.0788 32.7247 53.1292C32.8578 53.1898 33.0457 53.1897 33.1787 53.1292C33.2898 53.0786 33.4205 53.0965 33.487 53.2097C33.544 53.3068 33.5168 53.4663 33.4061 53.5167M32.6055 58.2074C32.5551 58.3263 32.4462 58.3895 32.3189 58.3943C32.1927 58.3991 32.0988 58.2876 32.0935 58.1699C32.0901 58.0938 32.1314 58.0288 32.1907 57.9885C32.1908 57.9844 32.1909 57.9802 32.1909 57.976C32.191 57.8502 32.2941 57.7571 32.4163 57.7516C32.5379 57.7462 32.6417 57.8586 32.6416 57.976C32.6416 58.0552 32.6367 58.1338 32.6055 58.2074M31.4427 65.6647C31.083 65.6705 30.7316 65.7558 30.3719 65.7617C30.0812 65.7663 30.0821 65.3175 30.3719 65.3129C30.7315 65.307 31.083 65.2217 31.4427 65.2159C31.7333 65.2112 31.7324 65.66 31.4427 65.6647M29.947 36.905C29.7365 37.1047 29.4764 37.2031 29.22 37.3279C28.9602 37.4543 28.7319 37.0671 28.9925 36.9403C29.2097 36.8347 29.4502 36.7566 29.6284 36.5877C29.8385 36.3884 30.1576 36.7054 29.947 36.905M29.3819 42.0779C29.2342 42.0045 29.0802 41.9205 28.9116 41.9147C28.6218 41.9046 28.6215 41.4558 28.9116 41.4659C29.1646 41.4746 29.3867 41.5797 29.6094 41.6904C29.8693 41.8195 29.6407 42.2065 29.3819 42.0779M26.6726 62.8393C26.6058 62.7149 26.5053 62.6624 26.3804 62.6596C26.0904 62.6531 26.0902 62.2043 26.3804 62.2108C26.6649 62.2173 26.9258 62.3595 27.0618 62.6128C27.1986 62.8677 26.8094 63.0941 26.6726 62.8393M25.7343 53.0938C25.6446 53.0118 25.6509 52.8596 25.7343 52.7765C25.8316 52.6796 25.929 52.5826 26.0264 52.4857C26.1154 52.397 26.2551 52.4035 26.3451 52.4857C26.4347 52.5677 26.4285 52.7199 26.3451 52.803C26.2476 52.9 26.1504 52.9969 26.053 53.0938C25.9639 53.1826 25.8243 53.1761 25.7343 53.0938M24.628 68.2821C24.3029 68.2745 23.9981 68.1816 23.692 68.0802C23.4177 67.9893 23.536 67.556 23.8118 67.6474C24.0779 67.7356 24.3452 67.8267 24.628 67.8333C24.9181 67.84 24.9182 68.2888 24.628 68.2821M23.1678 58.6851C22.874 58.677 22.6304 58.528 22.4243 58.3285C22.2159 58.1268 22.535 57.8097 22.743 58.0112C22.8609 58.1253 22.997 58.2316 23.1678 58.2363C23.4577 58.2443 23.458 58.6931 23.1678 58.6851M24.0746 46.3433C24.0781 46.4628 24.1288 46.5908 24.2033 46.6693C24.4025 46.8794 24.0842 47.1971 23.8846 46.9867C23.72 46.8131 23.6308 46.5808 23.6239 46.3433C23.6155 46.0539 24.0663 46.0552 24.0746 46.3433M20.6368 36.5688C20.5425 36.3849 20.4189 36.1693 20.2309 36.0677C19.9755 35.9297 20.2033 35.5424 20.4584 35.6801C20.7139 35.8182 20.8968 36.0904 21.026 36.3423C21.1578 36.5993 20.7687 36.8261 20.6368 36.5688M20.0526 41.2361C19.948 41.2331 19.8442 41.2153 19.7434 41.1881C19.7003 41.1764 19.6577 41.163 19.6145 41.1513C19.596 41.1463 19.5176 41.1366 19.5658 41.1391C19.4438 41.1326 19.3404 41.0416 19.3404 40.9147C19.3404 40.7981 19.4441 40.6838 19.5658 40.6903C19.7331 40.6993 19.8852 40.7826 20.0526 40.7873C20.3424 40.7954 20.3426 41.2442 20.0526 41.2361M18.5923 48.4095H18.1055C17.815 48.4095 17.8155 47.9607 18.1055 47.9607H18.5923C18.8827 47.9607 18.8822 48.4095 18.5923 48.4095M18.0245 68.2514C17.8769 68.325 17.7029 68.3946 17.5834 68.5072C17.3726 68.7056 17.0535 68.3887 17.2647 68.1898C17.4169 68.0465 17.6117 67.9563 17.7971 67.8639C17.9063 67.8095 18.0406 67.8341 18.1054 67.9444C18.1639 68.0442 18.1333 68.1972 18.0245 68.2514M16.9369 62.5809C16.918 62.5757 16.8981 62.572 16.879 62.5695C16.8024 62.5591 16.7222 62.5627 16.6452 62.5627C16.3547 62.5625 16.3552 62.1137 16.6452 62.1139C16.8738 62.114 17.1117 62.1172 17.2914 62.2766C17.3826 62.3575 17.3737 62.5118 17.2914 62.5939C17.2018 62.6831 17.0635 62.6745 16.9727 62.5939C16.9822 62.6025 16.9494 62.5844 16.9369 62.5809M16.6453 54.9546C16.7108 54.8202 16.7118 54.7325 16.7119 54.5831C16.7122 54.2939 17.1629 54.2943 17.1626 54.5831C17.1625 54.8 17.1301 54.9847 17.0345 55.1811C16.9812 55.2906 16.825 55.3192 16.7262 55.2616C16.6155 55.1971 16.5923 55.0636 16.6453 54.9546M15.3422 44.4271C15.0808 44.5156 14.8474 44.6409 14.6172 44.7922C14.3742 44.9519 14.1487 44.563 14.3897 44.4047C14.6524 44.2321 14.9242 44.0953 15.2224 43.9943C15.4981 43.9009 15.6153 44.3345 15.3422 44.4271M13.822 36.8738C13.6278 36.8792 13.4274 36.9534 13.2543 37.0371C12.9942 37.1628 12.766 36.7757 13.0269 36.6495C13.2741 36.5299 13.5446 36.4328 13.822 36.425C14.1127 36.4169 14.1114 36.8657 13.822 36.8738M13.1406 57.0371C13.0642 57.0406 12.9989 56.9994 12.9584 56.9403C12.9542 56.9403 12.95 56.9402 12.9458 56.9402C12.8195 56.9401 12.726 56.8374 12.7205 56.7158C12.715 56.5947 12.828 56.4913 12.9458 56.4914C13.0254 56.4915 13.1043 56.4963 13.1782 56.5274C13.2976 56.5775 13.3611 56.686 13.3659 56.8127C13.3707 56.9384 13.2588 57.0319 13.1406 57.0371M12.0322 41.5189C11.7554 41.6089 11.6379 41.1754 11.9124 41.0861C12.2346 40.9813 12.5638 40.9001 12.886 40.7953C13.1627 40.7052 13.2803 41.1387 13.0057 41.2281C12.6837 41.3328 12.3544 41.414 12.0322 41.5189M11.0215 49.9897C10.9356 50.2652 10.5007 50.1469 10.5868 49.8704C10.67 49.6035 10.6759 49.3349 10.6761 49.0576C10.6763 48.7683 11.127 48.7688 11.1268 49.0576C11.1266 49.3732 11.116 49.686 11.0215 49.9897M8.0081 60.1356C7.99171 60.2474 7.90269 60.3279 7.78619 60.3331C7.6676 60.3383 7.55655 60.2261 7.56083 60.1087C7.56912 59.8828 7.75407 59.6986 7.98089 59.6904C8.10709 59.6858 8.20095 59.7969 8.20624 59.9148C8.21143 60.0294 8.11531 60.1189 8.0081 60.1356M6.48314 47.2383C6.245 47.3175 5.99052 47.3928 5.80382 47.5683C5.59283 47.7666 5.27374 47.4497 5.48512 47.251C5.73131 47.0196 6.04799 46.9103 6.36337 46.8055C6.63954 46.7137 6.75689 47.1473 6.48314 47.2383M5.44962 55.9566C5.38416 56.068 5.2516 56.0882 5.14134 56.0371C4.99351 55.9687 4.8303 55.971 4.67092 55.9708C4.3805 55.9706 4.38095 55.5218 4.67092 55.522C4.91678 55.5222 5.1436 55.5453 5.36883 55.6496C5.47965 55.701 5.50664 55.8596 5.44962 55.9566M4.86562 66.5372C4.73943 66.5418 4.64557 66.4307 4.64027 66.3128C4.63509 66.1982 4.73114 66.1087 4.83847 66.092C4.85481 65.9802 4.94388 65.8997 5.06033 65.8945C5.17898 65.8892 5.29002 66.0014 5.28568 66.1189C5.2774 66.3448 5.09255 66.5289 4.86562 66.5372M45.9262 68.2341C45.8497 67.9598 45.6745 67.7382 45.5421 67.4913C45.4977 67.4081 45.4822 67.3564 45.4582 67.2955C45.4255 67.3606 45.3621 67.4096 45.2667 67.4096C45.0837 67.4097 44.8697 67.398 44.6989 67.476C44.5879 67.5266 44.4571 67.5086 44.3906 67.3955C44.3336 67.2982 44.3608 67.1389 44.4715 67.0884C44.7231 66.9736 44.9937 66.961 45.2667 66.9608C45.3341 66.9608 45.3852 66.9855 45.4212 67.0227C45.5256 65.6 45.523 64.1763 45.4243 62.7526C45.319 61.2312 45.0767 59.7401 44.8231 58.2383C44.7004 57.5102 44.5409 56.7747 44.5719 56.0331C44.6029 55.2965 44.9201 54.6098 44.6953 53.871C44.6052 53.5748 44.4508 53.3033 44.3505 53.0105C44.2429 52.6952 44.2525 52.3838 44.3015 52.0573C44.4024 51.3926 44.5696 50.7356 44.302 50.0866C44.1838 49.7988 43.9922 49.5418 43.8998 49.2445C43.7849 48.8748 43.8007 48.4659 43.7815 48.0827C43.7426 47.3097 43.7325 46.5316 43.6682 45.7602C43.6395 45.4146 43.577 45.087 43.4345 44.77C43.2975 44.4649 43.0942 44.1872 43.0035 43.8635C42.9133 43.5448 42.9055 43.2088 42.857 42.8829C42.8063 42.5384 42.7269 42.199 42.6198 41.868C42.2063 40.5867 41.4486 39.4356 40.5533 38.4376C39.6018 37.3767 38.4643 36.5779 37.257 35.8335C36.6221 35.442 35.9873 35.0505 35.3529 34.6591C35.3394 34.7325 35.2923 34.8 35.202 34.8301C34.9638 34.9093 34.7094 34.9846 34.5226 35.1601C34.3117 35.3583 33.9926 35.0414 34.2039 34.8428C34.4244 34.6355 34.7016 34.5263 34.9836 34.4305C34.6945 34.249 34.4024 34.0612 34.0762 33.9564C33.7905 33.8644 33.3691 33.9446 33.1375 33.7359C32.9556 33.5715 32.8981 33.2669 32.8283 33.0436C32.7409 32.7665 32.6655 32.4742 32.5545 32.205C32.479 32.021 32.3691 31.8442 32.2305 31.7017C32.1697 31.4684 32.0581 31.2552 31.8609 31.1256C31.3449 30.7856 30.7111 31.1234 30.484 31.6081C30.2964 31.6075 30.0987 31.6485 29.9162 31.6597C29.5409 31.6832 29.1652 31.6939 28.7894 31.6928C28.0542 31.6905 27.3184 31.6428 26.5894 31.5458C25.2857 31.3719 24.0209 31.0213 22.7393 30.7481C22.7319 30.7312 22.7235 30.7144 22.7133 30.6976C22.4373 30.2364 21.7494 30.3144 21.3161 30.4889C21.1302 30.5635 20.9409 30.6577 20.8345 30.8328C20.7218 30.9085 20.6243 31.0005 20.5595 31.0976C20.4255 31.2978 20.3218 31.7017 20.0497 31.7354C19.8705 31.7573 19.6886 31.7231 19.5066 31.7489C19.279 31.7803 19.075 31.8599 18.8649 31.9508C17.2649 32.6425 15.6108 33.4117 13.8744 33.6798C13.4671 33.7426 13.0525 33.8077 12.6987 34.0349C12.4114 34.2195 12.1893 34.473 11.9522 34.7137C11.7212 34.9482 11.5308 35.052 11.2012 35.0941C10.8012 35.1451 10.4548 35.2551 10.1624 35.5445C9.91954 35.7852 9.76123 36.0926 9.57081 36.372C9.37695 36.657 9.0925 36.8174 8.79729 36.9829C8.09926 37.3745 7.44912 37.8474 6.88292 38.4146C5.69024 39.6106 4.96799 41.1477 4.2401 42.6456C3.45306 44.2657 2.71729 45.9055 2.20686 47.6356C1.70658 49.3343 1.40912 51.0818 1.27165 52.8455C1.12686 54.6962 1.10658 56.5542 0.986018 58.4061C0.925737 59.3311 0.880103 60.2573 0.833906 61.183C0.788835 62.0974 0.72292 63.0135 0.733568 63.929C0.753906 65.699 1.10934 67.4745 1.73081 69.1317C1.88574 69.544 2.05751 69.9507 2.24061 70.3513C2.40123 70.703 2.95053 70.6637 3.12292 70.3513C3.16236 70.2795 3.19334 70.2054 3.21926 70.1302C3.66996 70.1342 4.12517 70.0994 4.57306 70.1409C5.36405 70.2144 6.15667 70.2553 6.94991 70.3041C8.51954 70.4012 10.0919 70.4657 11.6621 70.5549C11.8144 70.5635 11.9668 70.5722 12.119 70.5813C11.0001 67.1327 11.1452 63.4044 10.9682 59.8179C10.9539 59.5287 11.4047 59.5304 11.4189 59.8179C11.5967 63.4198 11.4453 67.1576 12.6038 70.6118C13.0532 70.6421 13.5021 70.6791 13.9494 70.7333C14.311 70.7765 14.6745 70.8275 15.0395 70.8096C15.4536 70.79 15.8581 70.6957 16.2621 70.6138C16.9962 70.4651 17.7032 70.5325 18.4401 70.6239C19.2283 70.7221 20.0193 70.7765 20.8125 70.8107C23.9888 70.9493 27.1866 71.0755 30.3618 70.864C31.1302 70.813 31.897 70.7411 32.6604 70.6435C33.4469 70.5431 34.2249 70.3743 35.0107 70.2783C35.7854 70.1841 36.4976 70.4427 37.2632 70.4904C38.044 70.5392 38.8457 70.3771 39.6193 70.2839C39.8716 70.2535 40.1242 70.2239 40.3769 70.1945C40.0516 67.9743 39.8666 65.7375 39.687 63.5016C39.6638 63.2131 40.1147 63.2156 40.1377 63.5016C40.3159 65.72 40.4967 67.9402 40.8215 70.1428C42.1609 69.9877 43.5017 69.8307 44.8271 69.5889C45.2046 69.5204 45.5798 69.4088 45.8057 69.0733C45.973 68.8248 46.0069 68.5202 45.9262 68.2341" fill="black"/>
<path fill-rule="evenodd" clip-rule="evenodd" d="M39.0912 18.4341C38.5756 15.6348 37.3044 12.9713 35.3521 10.8873C35.1268 10.6398 34.9244 10.2495 34.5807 10.1871C34.2356 9.48691 33.5778 8.99195 33.052 8.42653C31.9044 7.2871 30.8063 6.01382 29.3261 5.29429C22.4602 2.48249 15.853 10.5 14.451 16.5295C13.0583 21.3786 14.5794 28.0677 20.6144 28.264C21.4682 29.3884 22.6463 30.1667 23.8565 30.8619C25.5092 31.9155 27.312 32.3432 29.224 31.7569C31.1282 32.2523 33.1021 30.6624 34.2465 29.268C35.151 28.1879 35.7709 26.8697 36.5982 25.7517C37.575 25.7274 38.419 24.9039 38.5498 23.9386C39.4621 22.2693 39.4206 20.2689 39.0912 18.4341V18.4341Z" fill="white"/>
<path fill-rule="evenodd" clip-rule="evenodd" d="M24.1358 4.34172C25.3851 4.05107 26.6953 4.11132 27.9327 4.43075C30.3854 5.06394 32.4035 6.71051 34.0768 8.54635C35.709 10.337 37.0549 12.3898 38.038 14.6012L38.0878 14.7137C38.7831 16.29 39.3874 17.9285 39.4133 19.6643C39.4356 21.1581 39.2841 22.7144 38.7994 24.1353C38.3676 25.4011 37.5734 26.6765 36.2071 26.98C35.4192 28.9742 33.8778 30.7011 31.9361 31.6252C30.7318 32.1984 29.4093 32.4542 28.0778 32.327C26.7193 32.1973 25.4504 31.5473 24.3887 30.7185C24.3596 30.6958 24.397 30.6517 24.4271 30.6689C25.7053 31.4024 27.2171 31.6646 28.6812 31.6163C31.0873 31.5371 33.2931 30.244 34.5606 28.2113C34.876 27.7054 35.157 27.1718 35.3811 26.6167C35.368 26.5711 35.3604 26.5248 35.3604 26.4797C35.3604 26.2884 35.4516 26.1423 35.5876 26.0479C35.6506 25.8517 35.7064 25.6533 35.753 25.4526C35.8586 24.9981 35.9175 24.537 35.9531 24.0722C35.9819 23.6946 35.9659 23.294 36.004 22.9068C35.9902 22.5965 35.9709 22.2865 35.9427 21.9772C35.8518 20.9804 35.668 19.9861 35.314 19.0467C34.9554 18.0951 34.3891 17.256 33.6747 16.5337C32.1422 14.9846 30.2341 13.8535 28.7439 12.2621L28.6659 12.1779L28.6606 12.1762C28.4757 12.365 28.2909 12.5538 28.1056 12.7422L27.259 13.602C25.5312 15.3588 23.8173 17.1327 22.3142 19.0876C21.4486 20.2133 20.671 21.3934 20.001 22.6447C19.6837 23.2374 19.396 23.8448 19.1359 24.4645L19.0336 24.7112C18.9118 25.0064 18.7803 25.3369 18.7072 25.6702C18.9246 25.885 19.0837 26.2007 19.2596 26.4445C19.4591 26.721 19.6891 26.9842 19.9259 27.2299C20.1655 27.4786 20.4283 27.7169 20.7073 27.9212L20.7408 27.9453C21.0609 28.1715 21.4283 28.3277 21.4764 28.7583C21.4972 28.9453 21.3293 29.0957 21.1739 29.1539C20.7484 29.3131 20.3076 28.8559 20.024 28.5929C19.8471 28.4288 19.6845 28.2521 19.5338 28.0654C19.387 28.0864 19.2393 28.0969 19.0931 28.0796C18.8665 28.0528 18.6422 28.0133 18.4215 27.9555C16.5912 27.477 15.2365 25.964 14.5055 24.279C13.5242 22.0167 13.5471 19.4089 13.955 17.0167C14.7004 12.6448 17.1129 8.56206 20.7558 5.97729C21.776 5.25339 22.9073 4.62749 24.1358 4.34172ZM26.1078 4.92655C23.7545 4.80308 21.6089 6.01146 19.8875 7.51564C16.7532 10.2544 14.8226 14.2644 14.4342 18.3822C14.2278 20.5701 14.3823 22.9283 15.528 24.8613C15.9725 25.6113 16.545 26.2648 17.2207 26.8158C17.8575 27.3351 18.5834 27.6344 19.3594 27.8381C19.3241 27.7896 19.2892 27.7408 19.2553 27.6913C19.0748 27.4281 18.9314 27.1484 18.8113 26.8553C18.8007 26.8659 18.7807 26.868 18.769 26.8519C18.2792 26.1827 18.4325 25.3842 18.6659 24.6483C18.9107 23.8764 19.221 23.1253 19.5751 22.3968C20.8657 19.7417 22.7854 17.4287 24.778 15.2703C25.7957 14.168 26.8472 13.0976 27.8947 12.0236C28.4179 11.4873 28.9396 10.9494 29.4548 10.4054C29.7112 10.1345 29.966 9.86227 30.2185 9.58783C30.4682 9.31648 30.6929 9.02909 31.0037 8.82584C31.2516 8.66388 31.4989 8.97344 31.3831 9.20367C31.205 9.55778 30.8986 9.83851 30.6275 10.1265L30.5996 10.1563C30.3353 10.4404 30.0685 10.7222 29.8002 11.0024C29.4916 11.3248 29.1805 11.6449 28.8685 11.9642C29.1346 11.9336 29.4038 11.9159 29.6683 11.8759C30.0276 11.8216 30.3819 11.7416 30.7345 11.6546C31.106 11.563 31.4728 11.446 31.8268 11.3006C32.1593 11.1641 32.4736 10.9453 32.8396 10.9238C33.1493 10.9057 33.246 11.2875 33.0744 11.4885C32.8379 11.7654 32.4127 11.8744 32.0669 11.9772L32.0181 11.9919C31.6356 12.1081 31.2442 12.1953 30.8486 12.2536C30.3281 12.3304 29.7265 12.3655 29.1696 12.2869C30.2817 12.9362 31.3051 13.7409 32.3256 14.5257L32.5056 14.6639C33.5027 15.4278 34.4757 16.2512 35.1866 17.2963C35.8502 18.2719 36.2508 19.4077 36.4757 20.5586C36.5866 21.1264 36.6598 21.7001 36.7089 22.2763C36.892 22.7872 36.8626 23.3946 36.8165 23.9564L36.8 24.1503L36.8013 24.2072C36.8081 24.5586 36.9499 25.341 36.616 25.6064C36.6103 25.6347 36.605 25.6631 36.599 25.6914C36.6406 25.6658 36.6816 25.6395 36.7224 25.6124C36.7391 25.6013 36.7553 25.589 36.7717 25.5769L36.8179 25.5392C36.8196 25.5377 36.8212 25.5364 36.8224 25.5354C36.926 25.4448 37.0249 25.3502 37.1171 25.2479C37.2874 25.0589 37.4493 24.8188 37.6027 24.5421C37.9396 23.934 38.1549 23.2729 38.3214 22.5894C38.6257 21.3398 38.7513 19.9976 38.6125 18.7161C38.5931 18.5372 38.5533 18.3129 38.4916 18.0828C38.3451 17.5364 38.1766 16.9957 37.988 16.4624C37.6105 15.3954 37.1479 14.3604 36.6085 13.3649C35.5129 11.3431 34.1033 9.4739 32.4144 7.90531C30.7041 6.31675 28.486 5.05132 26.1078 4.92655ZM22.7891 11.3864C22.8739 11.3348 22.9612 11.435 22.9192 11.5159C22.7154 11.9074 22.3727 12.2379 22.0881 12.5734C21.7934 12.9208 21.5008 13.2701 21.209 13.6198C20.6148 14.332 20.0348 15.0573 19.4776 15.7987L19.3306 15.9948C18.8408 16.6495 18.3569 17.3146 17.9287 18.0102C17.7047 18.3741 17.5073 18.7505 17.3281 19.1381C17.1574 19.5071 17.0787 19.9524 16.8736 20.299C16.8607 20.3209 16.8207 20.3191 16.8158 20.2914C16.7488 19.9183 16.9142 19.4688 17.0323 19.1193C17.1728 18.7038 17.3727 18.3079 17.5866 17.9256C18.033 17.1281 18.5677 16.3806 19.105 15.6421C19.6506 14.8922 20.2171 14.1577 20.8114 13.4453C21.0905 13.1107 21.3759 12.7828 21.6699 12.4614L21.7805 12.3411C22.0884 12.0086 22.3987 11.6237 22.7891 11.3864ZM21.3623 10.227C21.5019 10.124 21.621 10.3344 21.532 10.4459C21.0002 11.1121 20.3951 11.7106 19.8131 12.3318C19.2543 12.9284 18.7201 13.5474 18.216 14.1907C17.1882 15.5024 16.3655 16.9418 15.6687 18.4504C15.6556 18.4788 15.6143 18.4576 15.6205 18.4301C15.9895 16.7984 16.8524 15.3164 17.8349 13.9773L17.8722 13.9266C18.866 12.58 20.0083 11.2264 21.3623 10.227Z" fill="black"/>
<path fill-rule="evenodd" clip-rule="evenodd" d="M31.8329 27.9761C31.4728 27.979 31.068 27.8445 30.7973 27.7391L30.7267 27.7113C30.4924 27.6179 30.2518 27.5106 30.0723 27.3306C30.0149 27.2721 29.9538 27.2059 29.9228 27.1363C29.9046 27.0955 29.897 27.0533 29.9146 27.0113C29.9795 27.005 30.041 26.9967 30.0993 26.9861C30.127 26.981 30.1536 26.9758 30.1739 26.9757C30.249 26.9752 30.3233 26.9847 30.3975 26.994C30.4083 26.9954 30.419 26.9968 30.4298 26.9981C30.4875 27.0052 30.545 27.0129 30.6024 27.0206C30.7694 27.0429 30.9355 27.065 31.1049 27.0731C31.2272 27.079 31.3554 27.0721 31.4847 27.0651C31.8203 27.0469 32.1671 27.0221 32.4257 27.2561C32.4934 27.3174 32.5217 27.3946 32.5217 27.4732C32.5217 27.5688 32.4813 27.6661 32.4197 27.7424C32.2801 27.9152 32.0653 27.9742 31.8329 27.9761ZM33.7964 24.9625C33.6398 25.1965 33.3788 25.347 33.0211 25.3306C32.3103 25.2983 31.462 25.0312 30.8667 24.6451C30.7117 24.5446 30.6112 24.3838 30.5931 24.2117L30.5611 23.9053L30.3877 24.1604C30.3697 24.187 30.3515 24.2135 30.3332 24.24C30.2831 24.3131 30.2329 24.3861 30.1856 24.4609C30.004 24.7483 29.8375 25.0385 29.6863 25.3428C29.5793 25.5584 29.501 25.7994 29.4225 26.0426C29.2901 26.4532 29.1621 26.8571 28.879 27.1457C28.8362 27.1893 28.7704 27.2049 28.7102 27.1972C28.6571 27.1904 28.6051 27.1645 28.5796 27.1129C28.2414 26.428 28.6963 25.6028 29.0653 25.029L29.1044 24.9691C29.4465 24.4506 30.0054 23.7645 30.6454 23.6712L30.7186 23.7876L30.8252 23.7168C30.9994 23.6011 31.2294 23.6065 31.4307 23.697L31.6321 23.7875C32.0069 23.955 32.3766 24.1096 32.7822 24.1942C32.8117 24.2004 32.8413 24.2061 32.8707 24.2115C32.8986 24.2165 32.9266 24.2212 32.9547 24.2256C32.9486 24.1981 32.9422 24.1707 32.9357 24.1434C32.9288 24.1145 32.9219 24.0855 32.9144 24.0566C32.9068 24.0268 32.8986 23.9971 32.8904 23.9676C32.858 23.8498 32.8213 23.733 32.7777 23.6187C32.614 23.1891 32.3525 22.7872 32.0982 22.4039L32.0682 22.3588C32.0318 22.3039 31.9918 22.2466 31.9505 22.1873C31.7521 21.9029 31.5322 21.5942 31.5166 21.2843C31.7799 21.3008 32.0002 21.4637 32.1942 21.6056C32.4603 21.8001 32.707 22.0225 32.9308 22.2641C33.3648 22.7329 33.7544 23.3322 33.9252 23.9517C34.023 24.3065 33.98 24.6882 33.7964 24.9625V24.9625ZM26.8519 21.4282L26.8518 21.4156C26.8526 21.0578 27.0619 20.2411 27.5791 20.2411C27.9022 20.2411 28.0983 20.7969 28.1323 21.37L28.1335 21.3933C28.1485 21.7496 28.0503 22.5283 27.5791 22.5283C27.1029 22.5283 26.8568 21.7908 26.8519 21.4282V21.4282ZM34.4663 21.316L34.4664 21.3034C34.4656 20.9456 34.2563 20.1289 33.7391 20.1289C33.4241 20.1289 33.2298 20.6573 33.1888 21.2148L33.1859 21.2578C33.1655 21.602 33.2573 22.4161 33.7391 22.4161C34.2153 22.4161 34.4614 21.6786 34.4663 21.316V21.316ZM28.5937 19.0072C28.5252 19.0152 28.457 19.0257 28.3888 19.0365C28.1899 19.068 27.9921 19.1059 27.7957 19.15C27.4226 19.2339 27.0525 19.3398 26.6894 19.4595C26.3497 19.5715 26.0153 19.6981 25.6809 19.8247C25.6631 19.8314 25.6453 19.8382 25.6274 19.845C25.5094 19.8897 25.3917 19.9397 25.2737 19.99C25.0941 20.0665 24.9136 20.1434 24.7295 20.2015C25.2146 19.5335 25.9621 19.0386 26.6814 18.6845C27.0918 18.4824 27.5272 18.3195 27.9651 18.186L28.209 18.113C28.5682 18.0075 28.9608 17.9101 29.2982 18.1204C29.4316 18.2036 29.5168 18.333 29.5436 18.4728C29.5699 18.6099 29.5399 18.7569 29.4448 18.8796C29.3619 18.9865 29.2587 19.0474 29.1488 19.0683C29.0275 19.0913 28.899 19.066 28.782 19.0038C28.6883 18.9968 28.6606 18.9993 28.6329 19.0024L28.5937 19.0072ZM33.9964 19.0752C33.756 19.0231 33.518 19.0022 33.2714 19.0097C33.1599 19.0131 33.052 19.0302 32.9444 19.0475C32.7773 19.0743 32.6108 19.102 32.4308 19.0695C32.3369 19.0525 32.2569 18.9978 32.1951 18.9263C32.1228 18.8429 32.075 18.7362 32.0597 18.6347C32.0439 18.5299 32.0596 18.4382 32.0986 18.3573C32.1446 18.2617 32.2221 18.1811 32.3157 18.1105C32.5992 17.8968 33.0855 17.9482 33.42 17.9914C33.7505 18.0342 34.0793 18.1363 34.3715 18.2984C34.6598 18.4584 34.9104 18.6739 35.106 18.9374C35.2708 19.1595 35.3484 19.4151 35.4286 19.6753C35.0514 19.3602 34.4742 19.1784 33.9964 19.0752Z" fill="black"/>
<path fill-rule="evenodd" clip-rule="evenodd" d="M26.5196 28.3996C26.9757 27.3355 27.9712 26.5535 29.1174 26.2676C29.9591 26.0582 30.8425 26.0649 31.7005 26.148C32.15 26.1912 32.6322 26.2267 33.0559 26.3929C33.4176 26.5349 33.7125 26.8034 33.9341 27.1185C34.198 27.4919 34.3775 27.9192 34.5035 28.3573C34.5214 28.4196 34.5382 28.4823 34.5539 28.5454C34.4991 28.8759 34.3828 29.1572 34.0754 29.365C33.7754 29.5679 33.4174 29.6509 33.0606 29.6803C33.0256 29.6636 32.9918 29.6464 32.9608 29.6288C32.4047 29.3118 32.0134 28.5628 31.3115 28.6641C30.6852 28.7547 30.2729 29.5394 29.9004 29.9995C28.7049 30.1383 27.5102 29.7805 26.5374 29.0998C26.488 28.8668 26.4851 28.6318 26.5196 28.3996M35.3665 27.5924C35.2709 27.3251 35.1504 27.0663 35.0076 26.8225C34.5356 26.0161 33.8109 25.3736 32.9506 25.0063C30.9156 24.1386 28.2825 24.7502 26.639 26.1733C26.0776 26.6597 25.51 27.3746 25.3383 28.1435C25.2871 28.1536 25.2387 28.1802 25.1989 28.2176C24.0115 27.4732 22.7887 26.757 21.8319 25.7251C21.137 24.9754 20.6537 24.0881 20.3578 23.1131C20.3336 23.0329 20.2036 23.0446 20.2076 23.1334C20.2087 23.1542 20.2098 23.1749 20.211 23.1957C20.1986 23.1575 20.1401 23.1772 20.1356 23.2142C19.9763 24.3986 19.7772 25.6543 19.9606 26.8449C20.0703 27.5553 20.3944 28.0754 20.8276 28.637C21.2918 29.239 21.8173 29.7989 22.3546 30.3358C22.6955 30.6767 23.0517 31.0698 23.4692 31.3197C23.9547 31.61 24.5055 31.8308 25.0237 32.0548C25.5509 32.2834 26.086 32.4945 26.6312 32.6776C27.721 33.0449 28.8474 33.2987 29.9935 33.4099C30.9111 33.4987 31.9599 33.5953 32.8392 33.2516C33.5133 32.9882 34.0573 32.512 34.4889 31.9391C34.9587 31.3152 35.3301 30.6045 35.5354 29.8551C35.7487 29.0766 35.4115 27.7179 35.3665 27.5924" fill="black"/>
<path fill-rule="evenodd" clip-rule="evenodd" d="M34.6369 18.4592C35.9593 18.4592 36.7139 18.7424 36.9905 18.7645L36.9988 18.765C37.1138 18.7724 37.217 18.7819 37.3253 18.8236C37.7233 18.9763 37.7881 19.392 37.5559 19.654C37.5396 20.1961 37.6112 20.8296 37.4883 21.3734C37.3368 23.6663 36.2539 24.0532 35.6384 24.1944C35.3293 24.2653 34.9631 24.2936 34.6348 24.2187C34.0748 24.1979 33.5212 24.0233 33.0475 23.7194C32.3879 23.2957 31.8979 22.6445 31.7389 21.8717C31.6635 21.5034 31.6283 21.1199 31.6693 20.7455L31.6754 20.6939C31.461 20.5918 31.2125 20.5725 30.9564 20.5635C30.834 20.5591 30.7134 20.5552 30.5963 20.5604C30.4817 20.5731 30.3686 20.5901 30.2551 20.6132C30.1312 20.6504 30.0141 20.7119 29.906 20.8092L29.8986 20.9513C29.8783 21.3062 29.8315 21.6621 29.7593 22.0103C29.6528 22.524 29.4814 23.0147 29.1166 23.3791C28.9931 23.5627 28.8403 23.7266 28.6548 23.8686C27.981 24.3852 27.0655 24.5749 26.2253 24.5034C24.5196 24.3585 23.5336 23.0102 23.3064 22.4339L23.2928 22.3989C23.1287 21.9705 22.9979 21.4146 22.4792 21.3225L22.3689 21.3028C22.1322 21.2585 21.9138 21.197 21.775 20.967C21.7142 20.8666 21.6829 20.7544 21.6752 20.6399C21.5943 20.6461 21.5134 20.652 21.4329 20.6578C20.7901 20.7931 16.9351 20.9079 16.6273 20.9079C16.6273 20.9079 16.0359 21.1558 15.7861 20.9637C15.613 20.8301 15.5561 20.6521 15.6514 20.4505C15.7951 20.147 16.4584 19.9645 16.753 19.9067C16.753 19.9067 21.5059 19.946 21.848 19.8815C22.0597 19.6641 22.4383 19.6939 22.7546 19.6595C23.0165 19.4736 23.3829 19.349 23.6723 19.2657C23.7313 19.2434 23.7897 19.2219 23.8465 19.2016C24.377 19.0135 24.9285 18.9138 25.4884 18.8603C26.0657 18.8057 26.6448 18.8304 27.2187 18.9087C27.4606 18.9414 27.7002 18.9836 27.9382 19.0389C28.3642 19.0948 28.7878 19.1869 29.214 19.2962L29.2992 19.3183C29.748 19.4354 30.2093 19.5368 30.6738 19.4574C31.0521 19.3931 31.4158 19.2482 31.7645 19.0914L31.8099 19.0709C32.5767 18.7223 33.7742 18.4592 34.6369 18.4592ZM27.8921 19.7339C27.6091 19.672 27.4883 20.1063 27.7721 20.1685C27.9731 20.2125 28.1435 20.3134 28.2585 20.4844L28.2707 20.503C28.4251 20.7477 28.8156 20.5218 28.6601 20.2755C28.4851 19.9983 28.2133 19.8042 27.8921 19.7339ZM36.1786 19.4646C36.0789 19.3947 35.9279 19.4466 35.87 19.5455C35.8063 19.6543 35.8481 19.7755 35.9415 19.8467L35.951 19.8537C36.0367 19.9138 36.1201 20.0216 36.1306 20.1321L36.1315 20.1459C36.1427 20.4349 36.5939 20.4364 36.5826 20.1459C36.5716 19.8617 36.4063 19.6243 36.1786 19.4646Z" fill="black"/>
</g>
<defs>
<clipPath id="clip0_2218_69575">
<rect width="48" height="48" rx="16" fill="white"/>
</clipPath>
</defs>
</svg>
