<svg width="425" height="345" viewBox="0 0 425 345" fill="none" xmlns="http://www.w3.org/2000/svg">
<path d="M77.7904 70.4951C77.7904 52.822 92.1173 38.4951 109.79 38.4951H325.79C343.464 38.4951 357.79 52.822 357.79 70.4951V286.495C357.79 304.168 343.464 318.495 325.79 318.495H109.79C92.1173 318.495 77.7904 304.168 77.7904 286.495V70.4951Z" fill="#FFD6AD"/>
<path d="M357.79 141.929V105.171C303.413 155.773 241.185 190.736 163.371 214.359C130.228 224.521 102.245 235.514 77.7904 248.348L77.7904 279.485C106.049 259.849 136.897 246.137 179.799 232.167C252.55 208.414 310.123 179.38 357.79 141.929Z" fill="#F8F4E7"/>
<path d="M312.999 318.495H220.087C226.307 316.621 232.523 314.793 238.727 312.967C276.728 301.788 314.314 290.731 349.99 270.132C352.662 268.59 355.261 267.06 357.79 265.54V286.495C357.79 291.983 356.409 297.149 353.975 301.662C339.993 308.512 326.416 313.888 312.999 318.495Z" fill="#F8F4E7"/>
<path d="M77.7904 154.818C85.3966 152.408 93.6539 150.03 102.693 147.593C243.595 109.274 264.79 99.9887 308.654 56.7136C313.672 51.7586 319.156 45.3954 324.548 38.4951H288.543C242.517 90.4445 183.068 105.652 139.001 116.925L139 116.925L138.998 116.926C134.58 118.056 130.317 119.146 126.238 120.23C119.741 121.966 113 123.692 106.114 125.456L106.113 125.456C96.8526 127.827 87.3307 130.265 77.7904 132.884L77.7904 154.818Z" fill="#F8F4E7"/>
<path fill-rule="evenodd" clip-rule="evenodd" d="M325.79 46.4951H109.79C96.5356 46.4951 85.7904 57.2403 85.7904 70.4951V286.495C85.7904 299.75 96.5356 310.495 109.79 310.495H325.79C339.045 310.495 349.79 299.75 349.79 286.495V70.4951C349.79 57.2403 339.045 46.4951 325.79 46.4951ZM109.79 38.4951C92.1173 38.4951 77.7904 52.822 77.7904 70.4951V286.495C77.7904 304.168 92.1173 318.495 109.79 318.495H325.79C343.464 318.495 357.79 304.168 357.79 286.495V70.4951C357.79 52.822 343.464 38.4951 325.79 38.4951H109.79Z" fill="white"/>
<path fill-rule="evenodd" clip-rule="evenodd" d="M258.697 196.676C257.812 194.246 259.104 191.821 259.821 189.469C262.368 181.314 265.149 173.158 269.083 165.552C270.573 163.008 268.121 159.887 265.28 160.604C260.417 161.286 255.402 160.743 250.53 160.442C248.749 155.831 243.993 153.918 240.251 151.262C236.004 148.611 231.872 145.565 227.456 143.24C227.21 141.044 224.547 140.499 222.919 142.07C218.447 139.288 213.085 139.804 208.291 137.981C204.649 132.091 204.376 125.898 203.411 120.216C202.991 117.739 203.438 115.35 201.746 113.141C196.063 105.145 173.607 101.678 165.328 106.417C160.872 103.636 160.764 108.672 160.056 111.78C159.27 113.335 158.844 115.096 158.976 116.951C154.189 126.954 143.237 131.476 133.429 135.139C132.198 133.955 130.44 134.104 129.269 135.084C120.767 136.933 112.516 140.183 105.394 145.258C97.3012 147.626 91.602 154.21 87.4809 161.27C87.0268 162.014 86.9198 162.773 87.0525 163.47C74.3795 182.054 68.3311 204.302 67.4815 226.772C59.3319 231.665 71.355 275.619 74.1539 284.745C74.1567 284.743 74.1595 284.742 74.1623 284.741C75.9781 287.957 78.0398 297.133 82.584 296.423C85.7012 299.949 90.6688 299.256 94.899 299.527C94.2099 302.171 94.5485 305.196 95.3685 307.809C96.3384 310.918 101.098 311.024 101.773 307.633C143.898 315.821 187.12 309.288 229.719 310.517C242.035 310.604 254.351 310.986 266.638 311.863C268.368 311.987 270.122 310.218 270.004 308.495C267.363 280.379 264.882 243.393 261.928 215.552C261.227 209.203 260.673 202.784 258.697 196.676Z" fill="white"/>
<path fill-rule="evenodd" clip-rule="evenodd" d="M234.161 103.94C233.045 102.288 230.356 90.3007 228.639 88.4569C228.768 81.3752 230.725 56.8566 225.136 45.8348C226.311 44.6454 229.436 34.4006 228.639 30.5277C231.272 22.4169 214.356 9.5349 207.917 6.05386C177.996 -9.99713 134.638 7.72044 121.03 37.4546C112.853 55.3616 112.702 75.4107 111.778 94.6788C111.668 98.8031 111.29 102.96 111.294 107.079C111.885 110.699 114.754 114.385 112.579 117.395C110.177 119.057 105.321 123.107 107.483 125.404C108.75 126.459 110.774 125.847 112.149 126.862C112.849 127.253 113.285 128.112 114.104 128.243C121.582 127.959 126.858 127.934 134.359 127.631C137.643 127.524 142.643 128.913 146.412 126.147C159.578 133.472 154.071 122.844 156.733 115.277C164.84 118.02 180.989 126.764 189.631 127.047C196.653 127.915 203.219 123.824 210.123 124.755C218.7 127.942 228.751 128.651 236.607 123.258C238.568 121.846 240.749 123.482 243.22 121.957C248.022 119.659 236.585 106.489 234.161 103.94Z" fill="white"/>
<path fill-rule="evenodd" clip-rule="evenodd" d="M160.751 108.152C160.872 107.822 161.364 107.866 161.374 108.236C161.568 116.142 159.6 125.802 153.277 131.142C150.031 133.883 145.74 135.137 141.799 136.579L141.354 136.743L134.391 139.338C132.544 140.026 130.552 141.085 128.921 140.112C130.241 143.387 131.349 146.752 132.957 149.908C134.958 153.836 137.377 157.43 140.339 160.7C152.07 173.651 170.636 177.601 187.297 173.807C195.877 171.852 204.225 168.149 210.078 161.394C214.527 156.26 217.082 149.369 217.685 142.571C217.509 142.6 217.324 142.598 217.135 142.557C215.027 142.097 212.898 140.966 211.043 139.858L210.865 139.751C209.08 138.676 207.22 137.444 205.939 135.774C204.667 134.116 203.332 128.706 203.332 128.706C202.968 126.673 202.627 122.623 202.685 120.567C202.691 120.373 203.551 120.259 203.642 120.461C204.437 122.205 204.694 126.039 205.307 127.855L205.431 128.217C206.086 130.113 206.648 132.422 208.006 133.955C210.555 136.834 214.402 138.052 217.836 139.496C218.082 136.242 223.277 136.318 223.211 139.711C223.207 139.895 223.199 140.079 223.192 140.262C223.602 140.487 223.996 140.745 224.364 140.994L224.724 141.238C226.084 142.163 227.454 143.043 228.902 143.828C231.706 145.348 234.674 146.553 237.547 147.933C240.453 149.33 243.171 150.993 245.709 152.984C246.901 153.919 248.044 154.915 249.127 155.973L249.422 156.263C250.453 157.291 251.796 158.44 252.384 159.791C252.513 160.089 253.163 160.782 253.515 160.805C258.973 161.163 264.419 161.668 269.843 162.426C271.247 162.622 271.802 163.346 271.283 164.517C269.5 168.541 262.517 184.609 260.66 188.922C260.877 192.09 260.584 195.819 260.779 198.988C261.065 203.613 261.44 208.235 261.888 212.847C263.494 229.342 265.928 245.758 268.128 262.181C269.228 270.401 270.232 278.633 271.223 286.866C271.723 291.027 272.148 295.192 272.474 299.37C272.61 301.111 272.734 302.854 272.843 304.597L272.937 306.143C273.066 308.088 273.364 309.946 272.16 311.616C271.615 312.374 270.368 312.801 269.651 311.94C268.749 310.858 268.414 310.05 268.328 308.629C268.262 307.541 268.246 306.448 268.196 305.359C268.089 302.999 267.955 300.64 267.797 298.282C267.482 293.569 267.123 288.856 266.707 284.151C265.249 267.65 262.477 251.274 260.633 234.815C259.703 226.517 259.043 218.203 258.693 209.859C258.519 205.693 258.455 201.526 258.496 197.356C258.512 195.798 258.586 194.248 258.692 192.701C255.93 198.979 253.025 205.198 249.988 211.333L249.269 212.786C247.344 216.664 245.368 220.557 243.055 224.213L242.658 224.836C241.721 226.321 240.441 228.663 238.732 229.132C237.542 229.458 236.088 229.228 234.867 229.205C233.656 229.182 232.444 229.177 231.234 229.128C229.876 229.073 228.581 228.895 227.269 228.541C227.051 228.482 226.845 228.418 226.657 228.337C225.335 230.501 223.09 232.149 220.794 233.109C218.955 233.878 217.027 234.405 215.096 234.893L214.415 235.064C212.345 235.58 209.977 235.825 208.81 237.825L208.539 238.288C207.671 239.763 206.838 241.059 205.402 242.116C203.855 243.255 202.024 243.971 200.199 244.529C198.33 245.099 196.418 245.536 194.521 246.003L194.004 246.132C192.752 246.446 191.488 246.733 190.243 247.075C189.712 247.22 189.171 247.37 188.65 247.549C188.04 247.759 187.597 248.086 187.115 248.442C186.683 249.955 184.833 250.776 183.313 250.67C182.514 250.615 181.798 250.344 181.146 249.947C180.008 250.916 178.756 251.783 177.596 252.681C175.972 253.938 174.342 255.186 172.702 256.422C169.322 258.971 165.916 261.486 162.475 263.952C156.366 268.328 150.126 272.504 143.778 276.526C141.132 278.202 138.468 279.876 135.777 281.51L136.064 281.617L136.634 281.832C137.98 282.335 139.48 283.147 139.741 284.718C139.948 285.964 139.252 286.823 138.022 286.975C136.56 287.156 135.423 286.123 134.513 285.137C134.111 284.702 133.661 284.298 133.277 283.85C133.12 283.667 132.999 283.456 132.893 283.235C130.238 284.8 127.554 286.313 124.828 287.727L124.146 288.079C117.386 291.537 110.807 295.325 103.99 298.685C102.211 299.561 100.043 300.509 97.7833 301.156C98.383 303.482 98.3737 306.035 98.3889 308.395C98.4033 310.695 94.7495 310.684 94.8267 308.395L94.8639 307.29C94.9304 305.431 95.0391 303.501 95.4799 301.692C88.8212 302.797 82.1692 300.396 80.9306 299.675C79.5636 298.88 78.3227 297.607 77.2901 296.427C75.0802 293.9 73.5467 290.871 72.1861 287.824C69.2717 281.299 67.207 274.324 65.6974 267.348C60.132 241.629 62.5258 214.102 71.5639 189.449C73.8219 183.289 76.4878 177.265 79.5427 171.459L79.9221 170.741C82.9705 165 86.3587 159.28 90.6625 154.394C95.1453 149.305 100.675 145.347 106.696 142.275C109.634 140.776 112.658 139.476 115.748 138.325C116.244 138.14 116.744 137.974 117.245 137.816C120.465 135.762 124.373 133.797 128.283 133.874C128.548 133.879 128.764 133.98 128.924 134.132C129.113 134.165 129.301 134.205 129.49 134.26C129.906 134.381 130.346 134.837 130.287 135.307L130.266 135.463C130.255 135.539 130.241 135.613 130.218 135.685C130.357 135.705 130.495 135.739 130.629 135.785C134.37 134.728 138.05 133.112 141.7 131.808L142.531 131.514C145.588 130.443 148.725 129.392 151.233 127.271C153.728 125.161 155.604 122.428 156.96 119.473C158.631 115.833 159.379 111.889 160.751 108.152ZM235.641 300.148C236.382 299.597 237.257 300.237 237.535 300.919C238.444 303.158 237.995 306.637 236.712 308.617C235.383 310.668 232.202 309.858 232.125 307.374C232.045 304.783 233.55 301.705 235.641 300.148ZM243.291 238.325C243.358 238.034 243.81 238.037 243.877 238.325C244.494 240.952 244.479 243.781 244.66 246.475L244.681 246.774C244.899 249.744 245.081 252.723 245.211 255.698C245.467 261.553 245.772 267.407 246.114 273.257C246.284 276.158 246.466 279.059 246.66 281.958C247.268 281.619 247.894 281.322 248.543 281.059C249.516 280.666 250.463 280.621 251.507 280.632C252.78 280.645 253.738 281.764 253.569 283.011C253.386 284.369 252.19 284.951 250.949 284.757C249.575 284.542 248.194 284.209 246.806 284.071C246.961 286.313 247.121 288.554 247.29 290.794C247.514 293.76 247.807 296.722 248.013 299.689C248.032 299.972 248.054 300.256 248.075 300.54C248.903 300.11 249.782 299.889 250.778 299.618L251.037 299.545C252.483 299.13 254.03 298.555 255.369 299.528C256.269 300.182 256.448 301.258 255.703 302.121C254.573 303.43 252.901 303.176 251.34 303.109L250.5 303.079C249.708 303.047 248.978 302.997 248.247 302.797C248.381 304.73 248.452 306.67 248.215 308.575C248.087 309.604 246.732 309.874 246.373 308.824C245.437 306.079 245.243 303.12 244.9 300.245C244.58 297.56 244.386 294.856 244.176 292.159L244.112 291.35C243.641 285.417 243.264 279.481 242.988 273.536C242.712 267.592 242.547 261.649 242.481 255.698C242.451 252.997 242.496 250.285 242.601 247.584L242.635 246.774C242.757 243.995 242.672 241.047 243.291 238.325ZM119.51 300.586C119.546 300.207 119.85 299.735 120.302 299.794C120.719 299.848 121.148 299.822 121.56 299.891C122.104 299.981 122.542 300.303 123.048 300.505C123.87 300.834 124.766 301.004 125.61 301.273C127.193 301.778 128.055 303.445 127.4 305.002C126.711 306.638 124.978 307.01 123.482 306.323C122.302 305.782 121.423 304.917 120.63 303.915L120.405 303.63C120.063 303.2 119.675 302.72 119.532 302.199C119.392 301.691 119.461 301.103 119.51 300.586ZM196.411 292.893C198.382 292.616 200.066 293.29 201.89 293.925L202.039 293.977C203.895 294.618 206.604 295.062 207.556 296.963C208.13 298.109 207.684 299.632 206.333 299.971C204.193 300.508 202.275 298.943 200.506 297.89L200.413 297.835C198.705 296.834 196.942 295.993 195.852 294.267C195.561 293.807 195.813 292.978 196.411 292.893ZM127.588 136.045C126.799 136.222 126.009 136.379 125.22 136.529C122.218 138.138 119.305 139.808 116.206 141.242C112.918 142.764 109.642 144.335 106.519 146.175C100.21 149.894 95.0084 154.728 90.7103 160.654C83.2861 170.891 77.7636 182.696 73.8112 194.674C72.7957 197.751 71.887 200.863 71.083 204.001C72.5044 202.686 74.1872 201.877 76.0743 201.185C76.874 200.891 77.8695 201.388 78.2748 202.081C78.4571 202.392 78.5599 202.699 78.541 203.064C78.4991 203.87 77.9751 204.785 77.1103 204.944C75.0943 205.316 73.134 206.04 71.1901 206.677C70.8954 206.773 70.6422 206.737 70.4399 206.623C68.5101 214.8 67.3027 223.146 66.8751 231.542C66.5134 238.65 66.7365 245.814 67.5236 252.913C68.1284 252.641 68.7199 252.386 69.383 252.231C70.243 252.031 71.0889 251.788 71.9278 251.513C74.3487 250.718 75.4529 254.716 72.9785 255.326C72.0577 255.553 71.1312 255.741 70.1929 255.879C69.3751 255.999 68.6517 255.946 67.8808 255.82C68.4698 260.248 69.2743 264.645 70.2991 268.979L70.5252 269.927C71.8564 275.462 73.4078 281.049 75.6515 286.28C76.752 288.846 78.2092 291.283 80.0084 293.423C80.8923 294.475 81.8734 295.376 82.9433 296.231C83.834 296.942 86.8617 298.485 90.4475 298.485C94.0333 298.485 95.004 298.146 96.8132 297.523C100.391 296.291 103.788 294.324 107.143 292.572L107.49 292.392C108.974 291.624 110.452 290.845 111.926 290.059C111.74 288.556 112.066 287.293 112.849 285.904C113.695 284.402 115.793 285.15 115.948 286.687L115.953 286.745C115.977 287.092 116.035 287.445 116.107 287.797C125.964 282.395 135.612 276.616 145.106 270.593C151.222 266.713 157.273 262.718 163.235 258.606C166.215 256.55 169.17 254.457 172.095 252.323C173.628 251.206 175.153 250.079 176.671 248.942C177.304 248.469 177.924 247.972 178.558 247.496C178.404 247.303 178.254 247.111 178.108 246.92C175.742 243.82 174.206 240.125 173.441 236.313C172.979 234.013 172.756 231.626 172.688 229.281L172.658 228.261C172.611 226.543 172.599 224.745 172.916 223.08C172.485 223.317 172.045 223.549 171.606 223.798C170.033 224.69 168.457 225.58 166.88 226.465C163.72 228.238 160.551 229.991 157.342 231.673C151.611 234.677 145.822 237.534 139.878 240.095L136.985 241.342C131.965 243.503 126.904 245.624 121.685 247.229C118.741 248.135 115.775 248.909 112.789 249.6L113.996 251.015C114.815 251.975 114.829 253.351 113.783 254.159C112.754 254.953 111.374 254.622 110.689 253.568L109.439 251.645C109.172 251.235 109.021 250.85 108.935 250.444C107.559 250.732 106.18 251.008 104.797 251.276L102.183 251.775C98.4499 252.496 94.8305 253.923 91.4938 255.75C90.3338 256.385 90.0106 255.151 91.2396 254.291C94.8333 251.778 99.0252 250.356 103.35 249.163L103.563 249.104C105.149 248.669 106.733 248.216 108.314 247.747C108.14 247.118 108.04 246.465 108.06 245.745C108.104 244.142 108.246 242.533 108.331 240.931C108.51 237.569 108.738 234.217 109.005 230.861C109.107 229.568 109.222 228.271 109.354 226.976C108.506 226.521 107.775 225.918 106.83 225.621L106.671 225.575C105.66 225.302 106.001 223.999 106.899 223.888C107.712 223.787 108.521 223.833 109.323 224.006C109.447 224.033 109.565 224.063 109.677 224.097C109.824 222.897 109.988 221.7 110.173 220.51C110.664 217.366 111.011 214.053 112.033 211.032C112.109 210.808 112.441 210.728 112.564 210.962C114.051 213.792 114.103 217.263 114.27 220.413L114.291 220.79C114.489 224.227 114.5 227.698 114.436 231.14C114.371 234.688 114.249 238.226 114.09 241.77C114.026 243.197 114.029 244.678 113.786 246.043C122.633 243.165 131.324 239.722 139.655 235.644C145.531 232.767 151.357 229.776 157.116 226.672C160.001 225.117 162.9 223.587 165.783 222.026C166.793 221.479 167.802 220.93 168.811 220.38L170.324 219.555C171.74 218.782 172.921 218.013 174.57 217.959C175.062 217.943 175.503 218.173 175.816 218.522C176.702 217.893 177.726 217.507 178.801 217.516C180.419 215.28 182.062 213.063 183.77 210.893L185.032 209.287C187.216 206.516 189.53 203.703 192.315 201.594C193.558 200.653 194.926 199.947 196.351 199.364C196.016 199.282 195.688 199.117 195.395 198.846C194.033 197.582 193.845 195.236 193.569 193.473C193.282 191.645 193.393 190.009 193.676 188.186C193.786 187.478 194.959 187.331 195.245 187.981C195.848 189.353 196.486 190.667 197.035 192.054L197.197 192.472C197.786 194.033 199.041 195.676 198.958 197.369C198.935 197.833 198.78 198.238 198.54 198.563C199.737 198.165 200.951 197.811 202.146 197.441C205.909 196.278 209.686 195.148 213.521 194.245C214.542 194.005 215.568 193.782 216.598 193.578C217.137 191.015 217.924 188.499 218.851 186.028C217.973 185.578 217.405 184.824 216.649 184.153C215.941 183.524 215.455 182.759 214.851 182.038C214.302 181.382 214.61 180.196 215.598 180.234L215.878 180.246C216.901 180.293 217.892 180.399 218.82 180.877L219.15 181.047C219.604 181.283 220.1 181.553 220.542 181.871C221.119 180.541 221.72 179.224 222.327 177.921L223.115 176.235C225.158 171.846 227.195 167.291 229.76 163.205C230.9 161.389 232.418 160.254 234.596 160.079C236.839 159.898 239.171 160.132 241.417 160.212C244.02 160.305 246.623 160.416 249.224 160.552C248.557 159.854 247.949 159.076 247.279 158.406C246.168 157.294 244.993 156.24 243.759 155.266C241.316 153.338 238.63 151.749 235.84 150.382C233.049 149.013 230.176 147.821 227.557 146.13C225.899 145.061 224.417 143.715 223.065 142.259C222.214 151.443 217.781 159.975 211.122 166.385C204.204 173.043 194.646 176.701 185.295 178.256C175.757 179.843 165.802 179.261 156.678 175.945C151.973 174.234 147.461 171.791 143.437 168.726C143.393 168.993 143.34 169.257 143.235 169.504C143.095 169.837 142.923 170.121 142.727 170.413L142.376 170.926C142.155 171.249 141.929 171.568 141.678 171.868C141.07 172.592 140.208 172.91 139.28 172.906C137.503 172.9 136.157 171.157 136.635 169.433C136.936 168.349 137.579 167.697 138.583 167.273C138.9 167.139 139.223 167.027 139.549 166.916L139.793 166.833C140.122 166.721 140.448 166.614 140.786 166.551C138.881 164.869 137.113 163.039 135.53 161.065C130.564 154.874 125.667 146.202 127.327 137.98C127.356 137.839 127.483 137.75 127.62 137.727C127.716 137.15 128.023 136.592 128.444 136.217C128.16 136.142 127.875 136.085 127.588 136.045ZM179.149 278.212C180.132 277.665 181.148 278.965 180.349 279.768L179.155 280.962C178.048 282.075 176.97 283.2 176.022 284.469L175.793 284.779C174.513 286.521 173.149 288.538 171.053 289.189C168.517 289.976 166.08 286.886 167.548 284.629C168.831 282.656 171.301 281.912 173.431 281.097C175.446 280.325 177.265 279.26 179.149 278.212ZM97.3455 269.109C97.9233 268.352 99.4298 268.751 99.0351 269.822C97.7531 273.299 97.2306 278.04 93.9928 280.35C92.9483 281.094 91.3075 280.752 90.4475 279.892C89.4703 278.914 89.4312 277.538 89.99 276.345C90.6716 274.89 92.3481 273.836 93.5232 272.727L93.6286 272.627C94.8928 271.398 96.2602 270.531 97.3455 269.109ZM232.666 273.111C233.697 272.666 236.385 271.801 237.181 272.825C237.218 272.862 237.25 272.903 237.276 272.948C237.471 273.288 237.5 273.767 237.276 274.104C236.348 275.499 235.381 276.541 234.061 277.534L233.913 277.644C232.477 278.701 231.127 279.942 229.377 280.418C226.951 281.079 225.256 278.04 226.96 276.265C228.333 274.836 230.428 274.094 232.247 273.297L232.666 273.111ZM135.234 253.244C134.828 252.51 135.657 251.61 136.408 252.069C138.55 253.379 141.046 254.362 143.452 255.068C144.426 255.353 145.304 256.341 145.232 257.406L145.221 257.568C145.192 257.944 145.14 258.318 144.901 258.631C144.063 259.727 142.864 260.15 141.584 259.501C138.731 258.054 136.778 256.035 135.234 253.244ZM197.847 251.022C197.795 250.713 198.021 250.475 198.334 250.535C200.145 250.878 201.817 251.753 203.371 252.758C204.205 253.297 205.009 253.89 205.841 254.434C206.869 255.107 207.254 255.662 207.405 256.897C207.506 257.711 206.745 258.455 206.048 258.68C204.148 259.293 201.971 257.281 200.684 255.974L200.626 255.916C199.278 254.542 198.167 252.917 197.847 251.022ZM252.222 248.887C251.809 247.772 253.232 246.848 254.162 247.396C255.038 247.911 255.988 248.338 256.814 248.929C257.573 249.472 258.265 250.115 258.993 250.704L259.353 250.989C260.688 252.063 262.892 254.719 260.983 256.259C259.166 257.725 256.757 255.853 255.538 254.484L255.452 254.387C254.751 253.576 253.886 252.695 253.377 251.748C252.898 250.857 252.572 249.833 252.222 248.887ZM234.304 162.587C232.028 163.028 231.1 165.839 230.142 167.67C227.88 171.993 225.8 176.395 223.711 180.803C223.068 182.158 222.442 183.525 221.81 184.888C221.771 184.995 221.722 185.1 221.664 185.204C220.369 187.992 219.036 190.762 217.478 193.408C218.904 193.141 220.337 192.913 221.776 192.734C221.703 191.379 222.631 189.565 223.09 188.425L223.128 188.329C223.7 186.867 224.3 184.564 225.772 183.805C226.263 183.553 226.788 183.869 226.826 184.41C226.937 186.019 225.364 187.86 224.595 189.226C224.13 190.052 223.677 190.882 223.235 191.721C223.069 192.035 222.931 192.343 222.761 192.62C223.503 192.54 224.246 192.468 224.991 192.416L225.476 192.383C228.237 192.201 231.17 192.149 233.664 193.511C235.979 194.774 237.162 197.471 235.891 199.927C234.306 202.987 230.818 203.392 227.75 203.64C223.919 203.949 220.079 204.508 216.274 205.052C212.339 205.615 208.633 207.066 204.757 207.812C204.396 207.882 204.171 207.41 204.502 207.208C207.56 205.346 211.278 204.322 214.696 203.278L214.973 203.193C216.827 202.623 218.64 201.972 220.558 201.649C222.42 201.336 224.294 201.081 226.172 200.888L226.355 200.871C228.423 200.698 233.699 200.757 233.476 197.694C233.328 195.667 230.034 195.317 228.53 195.292C221.636 195.182 214.693 197.012 208.141 198.974L206.678 199.413C203.995 200.22 201.309 201.051 198.676 201.998C195.693 203.07 193.343 204.743 191.17 207.032C188.761 209.57 186.428 212.165 183.929 214.618C182.353 216.164 180.758 217.683 179.149 219.189C178.786 219.659 178.495 220.171 178.293 220.836C177.953 221.958 178.031 223.001 178.16 224.153C178.484 227.064 178.555 230.005 178.961 232.907C179.338 235.595 179.864 238.381 180.98 240.875C181.421 241.863 181.996 242.832 182.651 243.7L183.18 244.387C183.41 244.686 183.668 245.013 183.939 245.32C184.336 244.835 184.91 244.52 185.578 244.599C186.998 244.766 188.113 244.726 189.506 244.399C190.584 244.147 191.653 243.852 192.726 243.578C194.833 243.04 196.959 242.551 199.044 241.934L199.403 241.826C200.957 241.349 202.512 240.752 203.805 239.748C205.308 238.581 205.77 236.899 206.883 235.444C209.26 232.337 214.397 232.402 217.874 231.551C220.83 230.828 223.674 229.687 225.719 227.542L225.839 227.414C225.748 227.031 225.895 226.599 226.251 226.401L226.328 226.358C226.467 226.28 226.616 226.248 226.762 226.251C226.952 225.972 227.135 225.684 227.302 225.378C227.439 225.125 227.781 225.311 227.736 225.561C227.71 225.71 227.672 225.855 227.637 226.001C229.618 225.491 231.794 225.588 233.806 225.59L236.416 225.58C236.868 225.575 237.541 225.552 237.601 225.525L237.663 225.498C237.825 225.427 237.594 225.544 237.708 225.393C237.833 225.226 237.956 225.058 238.077 224.888C238.51 224.282 238.919 223.658 239.32 223.029C234.949 224.143 230.42 224.836 225.957 225.414C221.168 226.035 216.316 226.465 211.485 226.47C210.153 226.471 210.165 224.46 211.485 224.409C216.601 224.214 221.69 223.943 226.772 223.287C229.4 222.948 232.017 222.522 234.619 222.024C235.623 221.832 236.626 221.628 237.625 221.412L238.375 221.249C238.845 221.145 240.173 220.995 240.821 220.56C240.949 220.341 241.076 220.123 241.202 219.904C241.14 219.136 239.189 219.239 238.731 219.238C237.434 219.236 236.137 219.246 234.839 219.249C232.244 219.257 229.65 219.234 227.055 219.214C221.871 219.171 216.667 218.99 211.487 219.212C210.23 219.265 209.569 217.248 210.812 216.717C216.299 214.374 222.389 213.865 228.248 213.144C231.329 212.766 234.411 212.328 237.423 211.562L238.168 211.372C240.06 210.887 242.149 210.295 243.742 209.139C241.348 208.17 238.371 208.281 235.889 208.144L235.699 208.133C232.223 207.919 228.741 207.81 225.259 207.805C218.134 207.795 211.006 208.047 203.889 208.385C203.711 208.394 203.674 208.112 203.847 208.074C211.162 206.477 218.597 205.708 226.083 205.59C229.57 205.534 233.058 205.584 236.541 205.738L237.82 205.797C240.79 205.925 244.085 205.96 246.57 207.754C246.949 208.027 247.149 208.376 247.18 208.746C250.513 202.1 253.591 195.315 256.681 188.576C259.084 183.336 261.397 178.051 263.887 172.852L264.693 171.17C265.773 168.925 266.878 166.68 268.106 164.517C263.515 163.903 258.897 163.477 254.277 163.15C250.067 162.853 236.33 162.193 234.304 162.587ZM232.27 234.613C232.794 234.322 233.596 234.56 233.725 235.205C233.821 235.686 233.985 236.22 233.985 236.712C233.985 237.302 233.774 237.943 233.662 238.519C233.404 239.845 233.086 240.923 232.412 242.104C231.99 242.843 231.138 243.345 230.283 243.325C229.605 243.31 229.004 243.128 228.539 242.603C227.982 241.975 227.6 241.05 227.905 240.203C228.706 237.986 230.177 235.776 232.27 234.613ZM121.201 232.401C122.426 230.254 125.331 228.335 127.865 228.525C131.671 228.81 132.448 233.937 128.763 235.16C126.56 235.891 123.53 235.14 121.603 233.937C121.084 233.613 120.894 232.939 121.201 232.401ZM82.0854 225.066C81.8071 224.661 82.2671 224.199 82.6818 224.29C83.6015 224.492 84.593 224.58 85.4939 224.854C86.4164 225.135 87.3094 225.601 88.2232 225.921C90.1376 226.592 92.1823 226.928 94.035 227.738C94.7756 228.062 95.3581 229.135 95.2897 229.926L95.2722 230.111C95.2312 230.504 95.1632 230.846 94.9438 231.205C94.3542 232.168 93.186 232.666 92.0835 232.369C90.0381 231.82 88.0395 230.408 86.2956 229.234L85.9733 229.02C85.2114 228.518 84.3921 227.993 83.7781 227.347C83.1373 226.672 82.6105 225.83 82.0854 225.066ZM152.395 217.257C152.159 216.409 153.214 215.849 153.829 216.422C155.058 217.567 156.342 218.629 157.546 219.803L157.627 219.883C158.488 220.749 159.742 222.419 158.621 223.54C157.185 224.976 155.186 222.845 154.415 221.734C153.438 220.325 152.852 218.905 152.395 217.257ZM246.424 210.244C244.601 212.176 241.793 213.064 239.32 213.799C236.388 214.671 233.368 215.192 230.344 215.62C227.422 216.034 224.522 216.404 221.647 216.879C223.822 216.906 225.997 216.922 228.167 216.961C230.67 217.006 233.171 217.06 235.673 217.133C237.495 217.186 239.633 216.936 241.365 217.613C241.677 217.735 241.969 217.904 242.223 218.11C243.679 215.52 245.074 212.895 246.424 210.244ZM133.99 192.182C135.893 191.578 137.682 190.776 139.699 190.984C140.235 191.039 140.619 191.561 140.326 192.077C139.37 193.759 137.816 194.709 136.286 195.835L136.151 195.935C134.476 197.181 132.678 198.316 130.857 199.339C127.722 201.099 124.912 196.061 128.078 194.583C129.984 193.693 131.985 192.82 133.99 192.182ZM168.244 187.809C171.154 188 174.063 188.131 176.978 188.248C180.353 188.385 179.218 193.582 176.398 192.53C173.613 191.491 170.826 190.465 168.015 189.495C167.16 189.2 167.229 187.794 168.189 187.807L168.244 187.809ZM93.5882 178.564C94.3426 178.511 95.1034 178.675 95.8589 178.749L96.6628 178.827C98.3199 178.992 99.8737 179.195 101.454 179.87C104.37 181.115 102.804 185.804 99.8767 185.697C97.713 185.617 95.8629 184.687 94.0358 183.605C92.4386 182.659 91.4595 181.476 90.3809 179.99C90.0237 179.498 90.5214 178.947 91.0079 178.897C91.8648 178.81 92.731 178.624 93.5882 178.564ZM239.762 168.987C239.28 171.999 238.082 174.822 236.277 177.28C235.37 178.515 233.778 178.562 232.879 177.28C231.607 175.467 232.391 173.389 233.349 171.647L233.633 171.137C234.062 170.372 234.72 169.257 235.473 168.487L235.486 168.408C235.889 165.254 240.259 165.884 239.762 168.987ZM122.034 149.656C122.76 149.002 124.096 149.199 124.332 150.263C124.661 151.753 124.862 153.432 124.646 154.945C124.529 155.764 124.485 156.685 124.163 157.449C123.816 158.27 123.15 158.902 122.522 159.52C121.268 160.753 118.626 160.345 118.29 158.402L118.248 158.164C118.079 157.245 117.863 156.262 118.113 155.351C118.301 154.663 118.723 153.962 119.072 153.324L119.146 153.188C119.845 151.886 120.935 150.646 122.034 149.656ZM224.032 152.826L224.294 152.829C226.32 152.869 230.022 153.362 230.042 155.866C230.047 156.456 229.61 157.068 229.024 157.204C227.814 157.484 227.031 156.769 226.168 156.046C225.463 155.454 224.64 154.982 223.786 154.643C222.863 154.275 222.923 152.825 224.032 152.826Z" fill="black"/>
<path fill-rule="evenodd" clip-rule="evenodd" d="M224.36 44.8943C224.254 44.2825 225.096 43.8263 225.422 44.4462C227.79 48.9497 228.738 54.1653 229.577 59.1396C230.424 64.1664 230.984 69.214 231.015 74.3168C231.038 78.242 230.682 82.2126 230.013 86.1406L230.094 86.4201C230.244 86.9336 230.396 87.4466 230.549 87.9593L230.78 88.7281C231.227 90.2042 231.65 91.687 232.109 93.1594C233.067 96.2324 234.076 99.3142 235.311 102.288C236.517 105.19 237.983 107.989 239.726 110.604C241.406 113.126 244.071 115.258 245.255 118.058C245.667 119.034 245.057 120.324 243.918 120.169C243.844 120.258 243.731 120.323 243.578 120.336C242.693 120.413 241.864 120.34 240.982 120.257C240.489 120.211 240.49 119.537 240.982 119.491C241.357 119.456 241.722 119.425 242.087 119.403C239.563 117.907 237.762 114.986 236.322 112.594C234.472 109.522 233.075 106.164 231.936 102.769C230.766 99.2832 229.937 95.7246 229.272 92.1114C229.195 91.6954 229.123 91.2792 229.053 90.8624C228.212 94.4393 227.129 97.9508 225.845 101.326L225.665 101.795C222.706 109.47 218.698 117.218 212.032 122.291C211.729 122.52 211.42 122.739 211.109 122.952L211.488 123.17C211.865 123.386 212.237 123.592 212.601 123.762C213.948 124.391 215.41 124.87 216.857 125.21C219.844 125.912 222.982 125.71 226.029 125.808C227.029 125.84 227.598 127.34 226.576 127.827C223.209 129.43 219.573 129.09 216.098 127.962C214.379 127.403 212.766 126.621 211.273 125.6C210.656 125.178 209.939 124.657 209.334 124.055C202.667 127.787 194.381 128.205 186.961 126.87C183.105 126.176 179.368 124.91 176.08 122.743C172.918 120.659 170.664 118.021 169.055 114.603C168.912 114.3 169.309 113.923 169.553 114.219C174.607 120.361 183.307 122.923 190.96 123.411C195.043 123.671 199.22 123.455 203.146 122.233C206.87 121.073 210.066 118.947 212.734 116.12C218.142 110.389 221.383 102.592 223.71 95.1729C226.242 87.1012 227.447 78.6089 227.696 70.1617C227.822 65.882 227.664 61.5662 226.992 57.3338C226.325 53.1364 225.088 49.074 224.36 44.8943ZM148.571 8.5334C148.929 8.35136 149.181 8.82507 148.878 9.05812C142.574 13.8941 136.929 20.0261 132.36 26.5162C123.934 38.4862 118.53 52.3379 116.042 66.7311C114.572 75.231 114.189 83.8598 114.335 92.473C114.394 95.8945 114.589 99.3056 114.806 102.718L115.051 106.5C115.165 108.262 115.261 110.009 115.187 111.78L115.167 112.189C115.05 114.25 115.253 116.327 114.736 118.337C114.471 119.368 113.018 119.53 112.492 118.63C112.389 118.454 112.292 118.272 112.199 118.089C110.966 120.101 109.368 121.9 107.596 123.507C108.443 123.326 109.299 123.211 110.177 123.316C111.568 123.483 112.817 124.021 113.7 124.963C114.577 124.568 115.479 124.296 116.516 124.29C117.279 124.286 117.852 125.189 117.416 125.86C116.547 127.199 115.334 127.95 113.956 128.692C112.979 129.218 111.813 128.768 111.452 127.728L111.432 127.665C111.026 126.35 108.867 126.562 107.848 126.766L107.549 126.827C105.653 127.221 103.801 127.727 101.869 127.206C100.624 126.87 100.298 124.993 101.499 124.371C105.293 122.404 108.479 119.761 111.752 117.109C111.029 115.336 110.619 113.355 110.146 111.552C109.48 109.015 109.285 106.285 109.044 103.679C108.587 98.723 108.413 93.7138 108.462 88.7389C108.628 71.9357 111.5 55.0803 118.838 39.8645C122.053 33.1991 126.276 27.0313 131.268 21.572C136.23 16.1448 142.026 11.8592 148.571 8.5334ZM142.697 90.823C142.502 90.553 142.882 90.196 143.148 90.371C148.918 94.1621 152.921 99.9187 155.505 106.243C158.062 112.503 159.632 120.172 157.11 126.701C156.709 127.741 154.786 128.127 154.589 126.701C153.71 120.333 153.573 113.957 151.64 107.766C149.724 101.629 146.444 96.0095 142.697 90.823ZM138.223 111.495C138.255 111.383 138.438 111.402 138.43 111.523C138.286 113.769 138.188 116.041 137.906 118.274C137.769 119.359 137.587 120.438 137.433 121.52C137.274 122.631 137.298 123.752 136.653 124.7C135.798 125.957 133.526 125.603 133.602 123.873C133.655 122.68 134.203 121.914 134.716 120.867C135.046 120.195 135.333 119.501 135.61 118.803L136.021 117.757C136.838 115.683 137.621 113.644 138.223 111.495ZM127.892 105.547C127.927 105.37 128.212 105.413 128.203 105.589C128.049 108.767 127.691 111.909 127.13 115.041C126.874 116.469 126.576 117.888 126.26 119.303L126.124 119.91C125.787 121.4 125.569 123.153 124.813 124.485C124.057 125.816 122.263 124.849 122.496 123.507C122.767 121.941 123.728 120.366 124.287 118.861C124.802 117.473 125.253 116.06 125.674 114.64C126.561 111.65 127.288 108.605 127.892 105.547ZM147.131 114.37L147.198 114.301C147.46 114.016 147.852 114.206 147.977 114.507C148.49 115.742 148.234 117.198 148.197 118.508L148.19 118.794C148.163 120.122 148.182 121.365 147.58 122.591C146.849 124.079 144.924 123.155 144.775 121.831C144.612 120.386 145.295 118.972 145.736 117.619C146.017 116.758 146.221 115.864 146.647 115.083C146.283 115.146 145.919 115.272 145.585 115.363C145.436 115.404 145.38 115.184 145.522 115.134C146.073 114.938 146.695 114.792 147.131 114.37ZM223.936 118.751C223.76 118.554 223.979 118.292 224.208 118.398C226.951 119.68 229.518 120.514 232.545 120.787C233.857 120.906 233.865 122.967 232.545 122.848C229.385 122.563 226.074 121.146 223.936 118.751ZM127.408 75.4404C129.823 70.0048 137.465 65.1829 142.589 70.2378C142.685 70.3322 142.587 70.5382 142.448 70.4804C139.261 69.1591 135.359 70.8397 133.153 73.2435C131.403 75.1501 130.351 77.5984 130.142 80.1789C129.934 82.7616 130.551 85.4573 132.265 87.455C133.165 88.503 134.379 89.4949 135.809 89.6209C137.252 89.748 138.455 88.7312 139.819 88.4551C140.847 88.2471 141.624 88.8927 141.725 89.9069C141.947 92.1452 139.719 93.6475 137.788 94.0125C135.711 94.4047 133.591 93.9761 131.801 92.85C126.02 89.2131 124.773 81.3692 127.408 75.4404ZM181.646 22.1626C182.696 21.1582 184.483 22.1566 184.095 23.5893C183.271 26.6384 181.519 29.2155 179.578 31.6615C177.711 34.0148 175.711 36.2763 173.566 38.381C171.436 40.472 169.122 42.4068 166.689 44.1351L165.957 44.6542C164.233 45.8699 162.407 47.0993 160.477 47.9749C160.011 51.9906 159.1 55.9527 157.721 59.746C156.393 63.3987 154.702 66.9288 152.655 70.2324L152.36 70.7055C150.479 73.7226 148.216 77.0945 145.022 78.7484C144.927 78.7982 144.831 78.8287 144.736 78.8464C145.45 79.323 146.054 79.9223 146.413 80.7835C146.806 81.7264 145.984 82.6161 145.196 82.9275C143.53 83.586 141.905 82.4712 140.407 81.282C140.344 81.4246 140.284 81.5686 140.233 81.7138C139.898 82.6634 139.799 83.6339 138.935 84.264C138.525 84.5636 138.019 84.2956 137.761 83.9563C136.914 82.8432 137.791 81.3268 138.535 80.4172C138.638 80.2915 138.745 80.172 138.855 80.0573C138.54 79.826 138.233 79.6208 137.935 79.4633C136.186 78.5367 133.594 78.3724 132.587 80.4237C132.509 80.5812 132.267 80.4998 132.267 80.3369C132.269 77.8173 134.849 76.4489 137.088 76.2629C138.724 76.1271 140.306 76.701 141.779 77.3692L142.053 77.4955C142.601 77.7499 143.166 77.99 143.706 78.2586C143.618 78.0267 143.62 77.7539 143.758 77.4834C145.451 74.1753 148.359 71.4853 150.456 68.4215C152.535 65.382 154.32 62.1292 155.745 58.7327C157.129 55.4359 158.212 52.0357 158.97 48.5675C158.72 48.6191 158.439 48.3968 158.457 48.1361C158.499 47.5054 158.807 46.9373 159.349 46.6953C159.946 43.4331 160.25 40.1158 160.233 36.7717C160.231 36.5124 160.607 36.5217 160.629 36.7717C160.892 39.7449 160.914 42.7472 160.692 45.7321C162.101 44.4352 163.587 43.2023 164.944 41.8711C166.985 39.8681 168.96 37.8115 170.865 35.6786C172.809 33.5025 174.646 31.2464 176.326 28.8593L177.205 27.6074C178.557 25.6882 179.945 23.7892 181.646 22.1626ZM178.995 0.738411C190.588 0.014466 202.97 1.43981 213.383 6.88391C219.103 9.87354 223.523 14.3922 226.682 20.0155C228.568 23.3735 229.998 27.0918 230.54 30.9147C231.097 34.8427 230.443 38.3452 227.936 41.4676C226.941 42.7075 225.263 41.3225 225.509 40.0538C227.01 32.2919 224.575 24.623 220.258 18.1971C213.993 8.8723 203.052 4.73011 192.399 2.88235C187.165 1.97495 181.857 1.59565 176.547 1.78023C172.499 1.92113 168.346 2.29846 164.504 3.66096C164.342 3.71845 164.278 3.46596 164.434 3.4065C169.016 1.65567 174.132 1.04219 178.995 0.738411ZM196.189 18.2898C196.786 17.9113 197.516 18.2996 197.721 18.9137C198.445 21.0785 196.928 23.9384 195.914 25.8119C194.767 27.9318 193.291 29.914 191.767 31.7759C188.718 35.4996 184.711 38.6067 180.314 40.5596C180.045 40.6794 179.731 40.3542 179.978 40.1242C183.38 36.9548 186.465 33.5569 189.135 29.7449C190.448 27.8718 191.542 25.8958 192.587 23.866C193.522 22.0495 194.402 19.4232 196.189 18.2898ZM215.687 20.8399C216.068 19.5076 218.241 19.7344 218.151 21.1736C217.919 24.8914 216.165 28.6232 214.26 31.774C212.299 35.0184 209.814 37.9097 206.967 40.4067C206.826 40.5299 206.634 40.3402 206.761 40.2013C209.218 37.5107 211.203 34.4458 212.672 31.1104C214.14 27.7798 214.694 24.3046 215.687 20.8399ZM204.89 20.238C205.305 19.0795 207.294 19.1654 207.172 20.5471C206.837 24.3452 204.609 28.3256 202.545 31.4626C200.355 34.791 197.56 37.7231 194.436 40.1858C194.319 40.2779 194.154 40.1252 194.268 40.0175C197.074 37.3728 199.349 34.3178 201.151 30.9103C202.07 29.1716 202.842 27.361 203.451 25.4907C204.014 23.7605 204.278 21.9434 204.89 20.238Z" fill="black"/>
<path fill-rule="evenodd" clip-rule="evenodd" d="M205.549 104.311C203.474 104.912 201.246 104.966 199.131 104.345C197.212 103.782 195.243 102.542 193.831 100.902C192.576 99.4449 191.764 97.6743 191.796 95.7842C191.799 95.5683 191.877 95.3881 191.995 95.2483C192.123 95.0977 192.301 94.9944 192.493 94.9495C192.689 94.9033 192.897 94.9197 193.074 95.0001C193.234 95.0729 193.372 95.1966 193.457 95.3773C193.674 95.6625 193.891 95.9434 194.108 96.2166C195.852 98.3719 197.542 99.9826 200.166 100.56C201.589 100.874 203.011 100.735 204.315 100.256C205.712 99.7444 206.974 98.8442 207.963 97.6921C208.41 97.1715 208.938 96.959 209.454 96.9554C210.039 96.9513 210.617 97.2232 211.052 97.6577C211.48 98.0848 211.767 98.6651 211.793 99.2722C211.816 99.8051 211.642 100.362 211.18 100.858C209.657 102.494 207.684 103.692 205.549 104.311ZM205.485 77.3167C207.612 78.6102 210.853 81.6264 208.565 84.833C205.871 87.6605 201.993 84.4186 200.082 82.9525C198.31 81.8162 196.319 84.7386 197.963 86.0654C211.772 96.2934 217.377 77.655 206.56 75.7959C205.37 75.5911 204.927 76.9166 205.485 77.3167ZM185.586 71.6252C184.903 71.1878 184.098 71.0377 183.207 71.4433C182.51 71.7602 181.289 72.8165 180.439 74.2052C179.857 75.1552 179.445 76.2697 179.53 77.4305C179.55 77.7001 179.451 77.8989 179.294 78.0459C179.17 78.162 178.99 78.2473 178.78 78.274C178.601 78.2966 178.401 78.2762 178.239 78.2254C177.929 78.1288 177.766 77.9281 177.704 77.7642C177.109 76.1827 177.365 74.4178 178.032 72.8256C178.933 70.6769 180.568 68.877 181.639 68.2967C183.472 67.3033 185.635 67.2576 187.47 68.2696C189.033 69.1309 190.01 70.5215 190.982 71.9389C191.189 72.2403 191.394 72.5394 191.606 72.8332C192.03 73.422 192.073 74.006 191.908 74.5068C191.726 75.0615 191.261 75.5297 190.68 75.7747C190.143 76.0011 189.52 76.033 188.969 75.8003C188.503 75.6038 188.075 75.2206 187.805 74.5705C187.349 73.4756 186.59 72.2676 185.586 71.6252ZM220.309 74.0612C219.841 74.3052 219.474 74.3788 218.955 74.2231C218.668 74.1368 218.384 73.9714 218.162 73.7491C217.941 73.5287 217.782 73.2547 217.721 72.9507C217.569 72.2005 217.158 71.4982 216.574 71.0404C216.074 70.6491 215.443 70.4417 214.743 70.5587C213.988 70.6848 213.269 71.1692 212.773 71.7404C212.608 71.9315 212.478 72.1485 212.348 72.3641C212.103 72.7673 211.866 73.142 211.53 73.4381C211.402 73.5508 211.21 73.6288 211.023 73.6288C210.948 73.6288 210.871 73.6165 210.798 73.5936C210.046 72.8391 209.902 72.2666 209.926 71.6989C209.951 71.1035 210.186 70.5007 210.565 69.9382C211.455 68.6188 213.143 67.5371 214.283 67.292C215.844 66.9565 217.394 67.3593 218.636 68.2313C219.915 69.1286 220.862 70.5217 221.158 72.0916C221.229 72.4697 221.199 72.8778 221.055 73.2317C220.914 73.5775 220.669 73.8736 220.309 74.0612ZM189.028 57.5585C188.092 58.4713 186.983 58.6128 185.862 58.7385C185.238 58.8091 184.741 58.8659 184.252 58.9764C182.906 59.2802 181.576 59.7378 180.363 60.3969C179.094 61.0858 177.712 61.9167 176.718 62.9811C176.481 63.2343 176.258 63.5001 176.035 63.7665C175.832 64.0093 175.636 64.2432 175.429 64.4686C175.192 64.7276 174.966 64.999 174.742 65.2697C174.604 65.4981 174.576 65.5543 174.548 65.6128C174.506 65.7006 174.457 65.799 174.402 65.9045C174.325 66.049 174.236 66.2072 174.142 66.3506C173.986 66.6127 173.902 66.6849 173.83 66.7172C173.71 66.7706 173.596 66.797 173.486 66.7827C173.382 66.7694 173.285 66.7196 173.188 66.6382C172.707 66.2317 172.566 65.5647 172.58 64.8567C172.602 63.7823 172.998 62.5927 173.364 61.8614C174.213 60.1622 175.39 58.3958 176.806 57.1276C178.422 55.68 180.19 54.5841 182.22 53.829C183.482 53.3595 184.943 52.9286 186.318 52.983C187.307 53.0222 188.252 53.3165 189.032 54.0513C189.511 54.5024 189.741 55.144 189.741 55.7851C189.741 56.4391 189.502 57.0969 189.028 57.5585ZM222.214 65.918C222.154 66.0157 222.072 66.083 221.98 66.1234C221.884 66.1658 221.777 66.178 221.674 66.1606C221.571 66.1433 221.473 66.0968 221.396 66.0258C221.322 65.9576 221.266 65.8673 221.24 65.7566C220.618 63.0244 219.411 60.9916 216.834 59.6807C215.566 59.0358 214.108 58.6261 212.728 58.2994C212.327 58.2045 211.904 58.143 211.477 58.0807C210.139 57.8853 208.792 57.6616 207.92 56.5801C207.395 55.9287 207.175 55.0955 207.299 54.3336C207.417 53.6162 207.836 52.9584 208.597 52.5642C210.494 51.5832 212.851 52.5458 214.766 53.3658C214.908 53.4266 215.047 53.4863 215.184 53.5439C217.057 54.3348 218.765 55.3787 220.169 56.8716C221.283 58.0559 222.315 59.8068 222.731 61.608C223.077 63.1065 222.996 64.6363 222.214 65.918Z" fill="black"/>
<rect x="206.79" y="198.495" width="217" height="68" rx="17" fill="#F5F4F3"/>
<rect x="223.79" y="215.495" width="32" height="32" rx="16" fill="#E1D6CC"/>
<path d="M244.457 226.162H243.79V225.495C243.79 225.128 243.49 224.828 243.124 224.828C242.757 224.828 242.457 225.128 242.457 225.495V226.162H237.124V225.495C237.124 225.128 236.824 224.828 236.457 224.828C236.09 224.828 235.79 225.128 235.79 225.495V226.162H235.124C234.384 226.162 233.797 226.762 233.797 227.495L233.79 236.828C233.79 237.562 234.384 238.162 235.124 238.162H244.457C245.19 238.162 245.79 237.562 245.79 236.828V227.495C245.79 226.762 245.19 226.162 244.457 226.162ZM243.79 236.828H235.79C235.424 236.828 235.124 236.528 235.124 236.162V229.495H244.457V236.162C244.457 236.528 244.157 236.828 243.79 236.828ZM237.124 230.828H239.124C239.49 230.828 239.79 231.128 239.79 231.495V233.495C239.79 233.862 239.49 234.162 239.124 234.162H237.124C236.757 234.162 236.457 233.862 236.457 233.495V231.495C236.457 231.128 236.757 230.828 237.124 230.828Z" fill="black"/>
<path d="M276.59 228.495H278.114L280.394 222.723V228.495H282.05V219.879H279.866L277.358 226.263L274.862 219.879H272.678V228.495H274.334V222.771L276.59 228.495ZM289.439 222.087H287.771L286.307 226.479L284.699 222.087H282.899L285.419 228.423L284.507 230.811H286.319L289.439 222.087ZM299.435 225.819C299.435 224.547 298.619 223.851 297.107 223.551L295.631 223.251C295.007 223.131 294.467 222.879 294.467 222.291C294.467 221.691 294.971 221.187 295.859 221.187C296.771 221.187 297.395 221.799 297.455 222.699H299.303C299.183 220.899 297.767 219.771 295.835 219.771C293.975 219.771 292.619 220.875 292.619 222.411C292.619 223.839 293.627 224.547 294.935 224.799L296.351 225.075C297.083 225.219 297.503 225.543 297.503 226.083C297.503 226.779 296.843 227.187 295.919 227.187C294.803 227.187 294.191 226.575 294.143 225.627H292.295C292.427 227.451 293.783 228.615 295.955 228.615C298.115 228.615 299.435 227.463 299.435 225.819ZM303.336 228.615C305.052 228.615 306.252 227.523 306.444 225.759H304.692C304.596 226.635 304.104 227.139 303.336 227.139C302.46 227.139 301.92 226.443 301.92 225.291C301.92 224.151 302.472 223.443 303.336 223.443C304.092 223.443 304.608 223.971 304.692 224.823H306.444C306.24 223.095 305.004 221.967 303.336 221.967C301.536 221.967 300.216 223.371 300.216 225.291C300.216 227.247 301.488 228.615 303.336 228.615ZM309.183 225.003C309.183 223.971 309.747 223.443 310.407 223.443C311.163 223.443 311.535 223.971 311.535 224.919V228.495H313.191V224.355C313.191 222.807 312.303 221.967 311.019 221.967C310.179 221.967 309.627 222.339 309.183 222.927V219.879H307.515V228.495H309.183V225.003ZM317.412 228.603C318.972 228.603 320.088 227.775 320.448 226.323H318.792C318.6 226.959 318.108 227.319 317.376 227.319C316.524 227.319 316.02 226.743 315.912 225.699H320.46C320.76 223.611 319.416 221.967 317.388 221.967C315.54 221.967 314.208 223.359 314.208 225.267C314.208 227.271 315.492 228.603 317.412 228.603ZM317.352 223.191C318.144 223.191 318.648 223.755 318.696 224.643H315.936C316.08 223.695 316.572 223.191 317.352 223.191ZM321.04 225.291C321.04 227.163 322.156 228.615 323.884 228.615C324.712 228.615 325.408 228.243 325.912 227.571V228.495H327.436V219.879H325.78V222.915C325.3 222.303 324.652 221.967 323.884 221.967C322.156 221.967 321.04 223.395 321.04 225.291ZM322.756 225.291C322.756 224.067 323.44 223.443 324.256 223.443C325.072 223.443 325.768 224.055 325.768 225.267C325.768 226.479 325.084 227.127 324.256 227.127C323.44 227.127 322.756 226.491 322.756 225.291ZM332.825 225.795C332.825 226.659 332.249 227.139 331.649 227.139C330.977 227.139 330.533 226.743 330.533 225.843V222.087H328.865V226.167C328.865 227.835 329.801 228.615 331.085 228.615C331.901 228.615 332.609 228.219 332.957 227.655V228.495H334.481V222.087H332.825V225.795ZM337.66 228.495V219.879H335.98V228.495H337.66ZM341.939 228.603C343.499 228.603 344.615 227.775 344.975 226.323H343.319C343.127 226.959 342.635 227.319 341.903 227.319C341.051 227.319 340.547 226.743 340.439 225.699H344.987C345.287 223.611 343.943 221.967 341.915 221.967C340.067 221.967 338.735 223.359 338.735 225.267C338.735 227.271 340.019 228.603 341.939 228.603ZM341.879 223.191C342.671 223.191 343.175 223.755 343.223 224.643H340.463C340.607 223.695 341.099 223.191 341.879 223.191Z" fill="#BBA28B"/>
<path d="M276.662 246.495H277.79L280.526 239.895V246.495H281.75V237.879H280.118L277.238 244.875L274.346 237.879H272.726V246.495H273.938V239.907L276.662 246.495ZM288.797 240.135H287.573L285.857 244.983L284.009 240.135H282.701L285.209 246.411L284.297 248.811H285.617L288.797 240.135ZM295.754 245.319C295.502 245.439 295.25 245.487 294.962 245.487C294.314 245.487 293.894 245.175 293.894 244.299V241.167H295.814V240.135H293.894V238.251H292.682V240.135H291.278V241.167H292.682V244.575C292.682 245.979 293.498 246.615 294.674 246.615C295.058 246.615 295.382 246.555 295.754 246.387V245.319ZM299.458 246.615C301.258 246.615 302.578 245.199 302.578 243.315C302.578 241.431 301.258 240.015 299.458 240.015C297.658 240.015 296.338 241.431 296.338 243.315C296.338 245.199 297.658 246.615 299.458 246.615ZM299.458 245.547C298.414 245.547 297.598 244.707 297.598 243.315C297.598 241.923 298.414 241.095 299.458 241.095C300.502 241.095 301.33 241.923 301.33 243.315C301.33 244.707 300.502 245.547 299.458 245.547ZM309.886 243.315C309.886 241.395 308.77 240.015 307.078 240.015C306.178 240.015 305.398 240.483 304.942 241.299V240.135H303.814V248.811H305.026V245.415C305.482 246.183 306.214 246.615 307.078 246.615C308.782 246.615 309.886 245.235 309.886 243.315ZM308.626 243.315C308.626 244.743 307.87 245.535 306.826 245.535C305.806 245.535 305.026 244.719 305.026 243.315C305.026 241.887 305.818 241.083 306.826 241.083C307.87 241.083 308.626 241.887 308.626 243.315ZM312.591 238.659C312.591 238.191 312.231 237.855 311.715 237.855C311.199 237.855 310.827 238.191 310.827 238.659C310.827 239.115 311.199 239.463 311.715 239.463C312.231 239.463 312.591 239.115 312.591 238.659ZM312.327 246.495V240.135H311.115V246.495H312.327ZM316.517 246.627C318.113 246.627 319.241 245.595 319.457 243.915H318.197C318.053 244.947 317.429 245.547 316.529 245.547C315.485 245.547 314.801 244.671 314.801 243.315C314.801 241.971 315.485 241.083 316.529 241.083C317.417 241.083 318.053 241.695 318.185 242.715H319.457C319.229 241.059 318.089 240.015 316.517 240.015C314.801 240.015 313.553 241.395 313.553 243.315C313.553 245.259 314.777 246.627 316.517 246.627ZM324.973 246.495V241.167H326.749V240.135H324.973V239.679C324.973 239.067 325.309 238.803 325.885 238.803C326.101 238.803 326.317 238.827 326.509 238.911V237.927C326.269 237.831 325.981 237.771 325.621 237.771C324.421 237.771 323.761 238.443 323.761 239.667V240.135H322.357V241.167H323.761V246.495H324.973ZM330.162 246.615C331.962 246.615 333.282 245.199 333.282 243.315C333.282 241.431 331.962 240.015 330.162 240.015C328.362 240.015 327.042 241.431 327.042 243.315C327.042 245.199 328.362 246.615 330.162 246.615ZM330.162 245.547C329.118 245.547 328.302 244.707 328.302 243.315C328.302 241.923 329.118 241.095 330.162 241.095C331.206 241.095 332.034 241.923 332.034 243.315C332.034 244.707 331.206 245.547 330.162 245.547ZM335.729 243.243C335.729 241.839 336.725 241.239 338.093 241.311V240.051C337.049 240.051 336.089 240.603 335.645 241.479V240.135H334.517V246.495H335.729V243.243ZM342.772 242.907C342.772 241.779 343.468 241.083 344.296 241.083C345.196 241.083 345.676 241.695 345.676 242.787V246.495H346.888V242.379C346.888 240.855 346.024 240.015 344.716 240.015C343.84 240.015 343.12 240.483 342.688 241.191V240.135H341.56V246.495H342.772V242.907ZM351.114 246.615C352.614 246.615 353.706 245.763 354.018 244.347H352.818C352.614 245.175 351.99 245.667 351.09 245.667C350.022 245.667 349.374 244.911 349.278 243.615H354.018C354.234 241.551 352.974 240.015 351.078 240.015C349.326 240.015 348.042 241.395 348.042 243.279C348.042 245.283 349.278 246.615 351.114 246.615ZM351.054 240.927C352.038 240.927 352.674 241.635 352.734 242.811H349.29C349.422 241.623 350.082 240.927 351.054 240.927ZM355.697 246.495L357.377 243.963L359.081 246.495H360.473L358.241 243.279L360.329 240.135H359.021L357.449 242.535L355.877 240.135H354.473L356.585 243.243L354.329 246.495H355.697ZM365.035 245.319C364.783 245.439 364.531 245.487 364.243 245.487C363.595 245.487 363.175 245.175 363.175 244.299V241.167H365.095V240.135H363.175V238.251H361.963V240.135H360.559V241.167H361.963V244.575C361.963 245.979 362.779 246.615 363.955 246.615C364.339 246.615 364.663 246.555 365.035 246.387V245.319ZM374.015 246.495H375.227L377.075 240.135H375.875L374.591 244.779L373.175 240.135H371.975L370.535 244.767L369.251 240.135H368.063L369.899 246.495H371.123L372.575 241.767L374.015 246.495ZM380.539 246.615C382.039 246.615 383.131 245.763 383.443 244.347H382.243C382.039 245.175 381.415 245.667 380.515 245.667C379.447 245.667 378.799 244.911 378.703 243.615H383.443C383.659 241.551 382.399 240.015 380.503 240.015C378.751 240.015 377.467 241.395 377.467 243.279C377.467 245.283 378.703 246.615 380.539 246.615ZM380.479 240.927C381.463 240.927 382.099 241.635 382.159 242.811H378.715C378.847 241.623 379.507 240.927 380.479 240.927ZM387.231 246.615C388.731 246.615 389.823 245.763 390.135 244.347H388.935C388.731 245.175 388.107 245.667 387.207 245.667C386.139 245.667 385.491 244.911 385.395 243.615H390.135C390.351 241.551 389.091 240.015 387.195 240.015C385.443 240.015 384.159 241.395 384.159 243.279C384.159 245.283 385.395 246.615 387.231 246.615ZM387.171 240.927C388.155 240.927 388.791 241.635 388.851 242.811H385.407C385.539 241.623 386.199 240.927 387.171 240.927ZM392.635 246.495V243.483L395.503 246.495H397.063L393.847 243.219L396.787 240.135H395.359L392.635 242.979V237.879H391.423V246.495H392.635ZM399.56 245.631C399.56 245.067 399.188 244.683 398.636 244.683C398.096 244.683 397.712 245.067 397.712 245.631C397.712 246.171 398.096 246.555 398.636 246.555C399.188 246.555 399.56 246.171 399.56 245.631ZM402.677 245.631C402.677 245.067 402.305 244.683 401.753 244.683C401.213 244.683 400.829 245.067 400.829 245.631C400.829 246.171 401.213 246.555 401.753 246.555C402.305 246.555 402.677 246.171 402.677 245.631ZM405.794 245.631C405.794 245.067 405.422 244.683 404.87 244.683C404.33 244.683 403.946 245.067 403.946 245.631C403.946 246.171 404.33 246.555 404.87 246.555C405.422 246.555 405.794 246.171 405.794 245.631Z" fill="black"/>
<rect x="206.79" y="198.495" width="217" height="68" rx="17" stroke="#4E4F51" stroke-width="2"/>
<path fill-rule="evenodd" clip-rule="evenodd" d="M297.029 15.4526C295.894 15.908 296.026 18.0948 297.258 19.4797C298.296 20.6438 303.615 22.3644 307.688 22.9074C318.864 24.3409 323.977 28.8752 321.646 35.2119C318.267 44.5162 316.306 51.2051 316.032 54.591C315.699 58.5098 315.694 58.2132 314.688 56.931C313.71 55.6986 311.411 53.0997 310.1 51.6938C309.012 50.5584 307.074 48.8157 306.251 50.1561C304.899 52.3674 301.782 55.498 299.218 57.5109C293.398 62.0689 284.784 61.153 278.025 58.0342C275.171 56.7209 275.366 55.6764 276.086 53.4643C278.631 45.5398 284.92 24.274 287.077 20.0004C288.161 17.8439 288.818 17.5979 290.726 17.5609C294.068 17.5281 292.343 15.4628 288.567 14.9149C285.924 14.5442 284.214 15.0987 282.412 18.2019C279.632 23.068 277.237 32.636 271.071 51.8676C269.611 56.3704 271.866 58.6621 275.618 60.0894C277.838 60.9373 281.281 61.9442 287.085 63.5839C294.307 65.6033 297.897 66.6917 300.432 66.9914C303.293 67.3361 304.777 66.679 308.624 65.3894C320.794 61.225 320.231 61.7493 322.718 52.6276C328.408 31.7077 326.929 25.5738 315.189 21.8375C311.767 20.7519 308.527 19.4617 307.362 18.7699C304.299 16.9786 298.164 14.9972 297.029 15.4526ZM301.04 28.5091C298.103 27.9753 296.55 29.8373 298.811 31.1604C300.671 32.2494 310.716 35.0675 314.157 35.6098C316.267 35.922 315.831 34.2441 314.367 33.0926C312.211 31.3759 307.318 29.6427 301.04 28.5091ZM293.929 35.2102C287.074 33.711 288.35 36.0356 291.183 37.4277C296.928 40.2328 312.986 44.7041 313.408 43.1296C313.988 40.9646 306.526 37.9527 293.929 35.2102ZM290.435 48.4073C293.251 49.0774 298.967 50.1028 300.075 50.0621C301.994 49.9857 300.059 47.4423 297.105 46.1866C293.13 44.4887 291.44 43.8672 290.435 43.6822C285.165 42.5655 286.309 47.4285 290.435 48.4073ZM314.643 59.6189C314.075 59.8466 308.325 63.1998 302.281 64.0273C300.002 64.3448 298.971 63.942 300.774 62.5686C302.353 60.9246 308.197 53.7574 309.103 54C309.604 54.1765 314.643 59.6189 314.643 59.6189Z" fill="black"/>
<path d="M89.6765 130.688C79.7199 99.3724 79.9374 91.3113 67.7719 92.6573C65.2898 92.9164 65.2357 92.931 64.6702 90.8208C62.3216 82.0555 44.6081 84.7721 46.7945 93.5809C47.1318 95.0563 47.9532 97.0399 47.9532 97.0399L31.069 102.202L30.4601 99.9294C29.3109 95.424 24.0641 92.0746 18.1124 93.6693C15.5152 94.3652 13.0932 96.58 13.6993 99.4911C14.4252 103.066 16.6173 110.598 16.8899 112.264C17.5338 116.615 21.6343 118.068 24.5773 116.931C27.0624 116.034 29.4701 113.765 29.3963 109.377L29.2675 107.382L51.5596 101.409L52.4177 103.962C53.7451 112.595 64.8824 108.277 63.822 102.588C63.6006 101.546 63.1869 99.569 62.8602 97.9168C64.5916 97.4529 71.3636 96.9721 72.0893 97.2996C73.2121 97.8106 74.7578 104.877 75.7832 108.488C73.1426 109.022 63.7628 110.375 47.3104 114.552C27.5971 119.544 11.4241 124.979 8.82699 125.675C5.52648 126.559 6.89675 116.74 10.5082 113.336C14.4152 109.738 13.3851 108.274 8.61415 110.596C-0.942289 115.187 -1.83579 119.427 2.46468 140.022C6.82702 161.064 11.2427 172.349 15.585 173.621C22.2481 175.547 65.6546 165.482 72.1474 163.742C75.3938 162.872 90.5111 140.728 90.4715 140.797C91.5342 139.352 91.8568 137.526 91.2847 135.824L89.6765 130.688ZM25.6573 111.655C25.8457 112.358 25.4495 113.044 24.7606 113.287L23.127 113.899C22.3444 114.224 21.521 113.749 21.2494 112.952C19.4817 107.22 16.6628 100.379 19.5457 97.2867C20.1727 96.5967 21.3457 96.8624 21.6318 97.7136C23.0003 101.522 22.8592 101.212 25.6573 111.655ZM59.1389 106.105C56.6104 106.84 52.5939 94.2306 54.5792 91.9009C55.8584 90.3983 57.3174 91.5151 58.9267 97.521C60.7785 104.216 60.2066 105.761 59.1389 106.105ZM60.6498 159.574C58.0615 161.602 21.0293 170.132 19.3142 169.142C16.0897 167.281 8.45635 129.486 8.45635 129.486C8.45635 129.486 27.7394 123.971 48.6218 119.013C67.0549 114.654 74.8764 113.544 77.0697 113.073C77.6794 112.967 84.677 129.128 85.7162 135.17C82.4426 134.424 77.6106 133.921 75.3555 133.945C70.0838 133.966 66.0374 135.746 65.8966 138.683C65.6209 146.528 62.7155 157.977 60.6498 159.574ZM66.9591 158.232C67.3686 156.73 67.4926 157.625 69.7826 147.558C72.1441 136.893 71.4164 138.074 75.8369 138.339C77.836 138.442 82.4333 138.717 85.273 138.71C81.0165 145.766 74.2979 151.858 66.9591 158.232Z" fill="black"/>
<path d="M45.0265 126.587C40.2651 127.863 34.8505 129.082 33.007 129.344C29.2659 129.883 25.8252 131.327 28.6585 134.975C31.311 138.381 37.7857 139.604 36.1689 136.384L35.4924 134.941C52.5902 130.36 54.0617 129.792 51.914 132.165C50.6204 133.613 46.1305 144.559 45.1792 148.583C44.7735 150.316 43.9929 152.381 43.3949 153.179C42.1341 154.967 42.6761 155.691 45.5091 156.092C49.9083 156.711 53.5181 154.816 52.8512 152.327C51.8799 148.702 54.6232 140.544 59.6362 132.415L60.72 130.617C61.5662 129.231 61.0339 127.46 59.6077 126.682C54.2102 124.069 54.5638 124.09 45.0265 126.587Z" fill="#FB554C"/>
<rect x="12.7904" y="275.495" width="250" height="68" rx="17" fill="#F5F4F3"/>
<rect x="29.7904" y="292.495" width="32" height="32" rx="16" fill="#E1D6CC"/>
<path d="M45.7912 314.995C46.5246 314.995 47.1246 314.395 47.1246 313.662H44.4579C44.4579 314.395 45.0512 314.995 45.7912 314.995ZM49.7912 310.995V307.662C49.7912 305.615 48.6979 303.902 46.7912 303.448V302.995C46.7912 302.442 46.3446 301.995 45.7912 301.995C45.2379 301.995 44.7912 302.442 44.7912 302.995V303.448C42.8779 303.902 41.7912 305.608 41.7912 307.662V310.995L40.9312 311.855C40.5112 312.275 40.8046 312.995 41.3979 312.995H50.1779C50.7712 312.995 51.0712 312.275 50.6512 311.855L49.7912 310.995Z" fill="black"/>
<path d="M80.5024 305.495V302.447H81.6424L83.5864 305.495H85.7584L83.5384 302.171C84.7624 301.763 85.4824 300.839 85.4824 299.675C85.4824 297.887 84.2224 296.879 82.0504 296.879H78.6784V305.495H80.5024ZM80.5024 298.391H81.9664C83.0704 298.391 83.6584 298.823 83.6584 299.675C83.6584 300.515 83.0704 300.947 81.9664 300.947H80.5024V298.391ZM89.2637 305.603C90.8237 305.603 91.9397 304.775 92.2997 303.323H90.6437C90.4517 303.959 89.9597 304.319 89.2277 304.319C88.3757 304.319 87.8717 303.743 87.7637 302.699H92.3117C92.6117 300.611 91.2677 298.967 89.2397 298.967C87.3917 298.967 86.0597 300.359 86.0597 302.267C86.0597 304.271 87.3437 305.603 89.2637 305.603ZM89.2037 300.191C89.9957 300.191 90.4997 300.755 90.5477 301.643H87.7877C87.9317 300.695 88.4237 300.191 89.2037 300.191ZM95.0969 305.495V301.919C95.0969 300.959 95.6249 300.443 96.2969 300.443C97.0289 300.443 97.4129 300.983 97.4129 301.883V305.495H99.0689V301.919C99.0689 300.959 99.6089 300.443 100.269 300.443C101.001 300.443 101.385 300.983 101.385 301.883V305.495H103.041V301.355C103.041 299.819 102.165 298.967 100.869 298.967C99.9089 298.967 99.2609 299.399 98.7569 300.107C98.4329 299.375 97.7609 298.967 96.8849 298.967C96.0329 298.967 95.4329 299.351 94.9649 299.999V299.087H93.4289V305.495H95.0969ZM106.4 297.599C106.4 297.011 105.944 296.591 105.284 296.591C104.636 296.591 104.18 297.011 104.18 297.599C104.18 298.163 104.636 298.583 105.284 298.583C105.944 298.583 106.4 298.163 106.4 297.599ZM106.136 305.495V299.087H104.468V305.495H106.136ZM109.288 302.003C109.288 300.971 109.852 300.443 110.512 300.443C111.268 300.443 111.64 300.971 111.64 301.919V305.495H113.296V301.355C113.296 299.807 112.408 298.967 111.124 298.967C110.284 298.967 109.624 299.363 109.156 299.999V299.087H107.62V305.495H109.288V302.003ZM114.314 302.291C114.314 304.163 115.43 305.615 117.158 305.615C117.986 305.615 118.682 305.243 119.186 304.571V305.495H120.71V296.879H119.054V299.915C118.574 299.303 117.926 298.967 117.158 298.967C115.43 298.967 114.314 300.395 114.314 302.291ZM116.03 302.291C116.03 301.067 116.714 300.443 117.53 300.443C118.346 300.443 119.042 301.055 119.042 302.267C119.042 303.479 118.358 304.127 117.53 304.127C116.714 304.127 116.03 303.491 116.03 302.291ZM124.982 305.603C126.542 305.603 127.658 304.775 128.018 303.323H126.362C126.17 303.959 125.678 304.319 124.946 304.319C124.094 304.319 123.59 303.743 123.482 302.699H128.03C128.33 300.611 126.986 298.967 124.958 298.967C123.11 298.967 121.778 300.359 121.778 302.267C121.778 304.271 123.062 305.603 124.982 305.603ZM124.922 300.191C125.714 300.191 126.218 300.755 126.266 301.643H123.506C123.65 300.695 124.142 300.191 124.922 300.191ZM130.816 302.387C130.816 300.971 131.764 300.635 133.18 300.743V299.015C132.148 299.015 131.152 299.507 130.684 300.323V299.087H129.148V305.495H130.816V302.387Z" fill="#BBA28B"/>
<path d="M82.3144 320.267L85.4224 314.879H84.0784L81.6904 319.031L79.3264 314.879H77.8864L80.9824 320.267V323.495H82.3144V320.267ZM87.8803 323.615C89.6803 323.615 91.0003 322.199 91.0003 320.315C91.0003 318.431 89.6803 317.015 87.8803 317.015C86.0803 317.015 84.7603 318.431 84.7603 320.315C84.7603 322.199 86.0803 323.615 87.8803 323.615ZM87.8803 322.547C86.8363 322.547 86.0203 321.707 86.0203 320.315C86.0203 318.923 86.8363 318.095 87.8803 318.095C88.9243 318.095 89.7523 318.923 89.7523 320.315C89.7523 321.707 88.9243 322.547 87.8803 322.547ZM96.2079 320.879C96.2079 321.875 95.5479 322.547 94.7319 322.547C93.9399 322.547 93.3879 322.091 93.3879 320.987V317.135H92.1759V321.227C92.1759 322.859 93.0639 323.615 94.3479 323.615C95.2119 323.615 95.9559 323.147 96.2919 322.487V323.495H97.4199V317.135H96.2079V320.879ZM102.823 319.907C102.823 318.779 103.519 318.083 104.347 318.083C105.247 318.083 105.727 318.695 105.727 319.787V323.495H106.939V319.379C106.939 317.855 106.075 317.015 104.767 317.015C103.891 317.015 103.243 317.471 102.823 318.155V314.879H101.611V323.495H102.823V319.907ZM112.4 323.495H113.408V319.415C113.408 317.903 112.496 317.015 110.924 317.015C109.436 317.015 108.416 317.963 108.356 319.391H109.46C109.496 318.503 110.036 317.975 110.924 317.975C111.764 317.975 112.256 318.491 112.256 319.403V319.871C111.74 319.811 111.44 319.799 111.068 319.799C109.172 319.799 108.176 320.447 108.176 321.695C108.176 322.859 109.04 323.615 110.36 323.615C111.296 323.615 112.004 323.219 112.4 322.511V323.495ZM109.328 321.659C109.328 320.915 109.928 320.555 111.14 320.555C111.452 320.555 111.788 320.567 112.256 320.627V321.143C112.256 322.115 111.62 322.751 110.6 322.751C109.82 322.751 109.328 322.319 109.328 321.659ZM120.11 317.135H118.874L117.086 322.103L115.322 317.135H114.014L116.402 323.495H117.722L120.11 317.135ZM123.387 323.615C124.887 323.615 125.979 322.763 126.291 321.347H125.091C124.887 322.175 124.263 322.667 123.363 322.667C122.295 322.667 121.647 321.911 121.551 320.615H126.291C126.507 318.551 125.247 317.015 123.351 317.015C121.599 317.015 120.315 318.395 120.315 320.279C120.315 322.283 121.551 323.615 123.387 323.615ZM123.327 317.927C124.311 317.927 124.947 318.635 125.007 319.811H121.563C121.695 318.623 122.355 317.927 123.327 317.927ZM135.115 322.415H131.695L133.327 320.567C134.659 319.151 135.007 318.503 135.007 317.579C135.007 316.247 133.903 315.263 132.391 315.263C130.783 315.263 129.655 316.343 129.655 317.843H130.843C130.843 316.943 131.443 316.355 132.343 316.355C133.171 316.355 133.735 316.919 133.735 317.723C133.735 318.455 133.363 319.019 132.403 320.063L129.871 322.799V323.495H135.115V322.415ZM141.61 323.615C143.11 323.615 144.202 322.763 144.514 321.347H143.314C143.11 322.175 142.486 322.667 141.586 322.667C140.518 322.667 139.87 321.911 139.774 320.615H144.514C144.73 318.551 143.47 317.015 141.574 317.015C139.822 317.015 138.538 318.395 138.538 320.279C138.538 322.283 139.774 323.615 141.61 323.615ZM141.55 317.927C142.534 317.927 143.17 318.635 143.23 319.811H139.786C139.918 318.623 140.578 317.927 141.55 317.927ZM150.883 317.135H149.647L147.859 322.103L146.095 317.135H144.787L147.175 323.495H148.495L150.883 317.135ZM154.16 323.615C155.66 323.615 156.752 322.763 157.064 321.347H155.864C155.66 322.175 155.036 322.667 154.136 322.667C153.068 322.667 152.42 321.911 152.324 320.615H157.064C157.28 318.551 156.02 317.015 154.124 317.015C152.372 317.015 151.088 318.395 151.088 320.279C151.088 322.283 152.324 323.615 154.16 323.615ZM154.1 317.927C155.084 317.927 155.72 318.635 155.78 319.811H152.336C152.468 318.623 153.128 317.927 154.1 317.927ZM159.565 319.907C159.565 318.779 160.261 318.083 161.089 318.083C161.989 318.083 162.469 318.695 162.469 319.787V323.495H163.681V319.379C163.681 317.855 162.817 317.015 161.509 317.015C160.633 317.015 159.913 317.483 159.481 318.191V317.135H158.353V323.495H159.565V319.907ZM168.855 322.319C168.603 322.439 168.351 322.487 168.063 322.487C167.415 322.487 166.995 322.175 166.995 321.299V318.167H168.915V317.135H166.995V315.251H165.783V317.135H164.379V318.167H165.783V321.575C165.783 322.979 166.599 323.615 167.775 323.615C168.159 323.615 168.483 323.555 168.855 323.387V322.319ZM175.088 321.599C175.088 320.687 174.488 320.135 173.228 319.907L172.148 319.703C171.38 319.559 171.056 319.319 171.056 318.803C171.056 318.251 171.572 317.927 172.34 317.927C173.192 317.927 173.756 318.371 173.828 319.139H174.992C174.884 317.831 173.852 317.015 172.328 317.015C170.852 317.015 169.88 317.795 169.88 318.911C169.88 319.871 170.54 320.471 171.716 320.699L172.748 320.891C173.54 321.047 173.864 321.275 173.864 321.803C173.864 322.403 173.3 322.703 172.448 322.703C171.476 322.703 170.84 322.211 170.792 321.419H169.628C169.748 322.787 170.744 323.615 172.424 323.615C174.116 323.615 175.088 322.847 175.088 321.599ZM181.427 323.627C183.023 323.627 184.151 322.595 184.367 320.915H183.107C182.963 321.947 182.339 322.547 181.439 322.547C180.395 322.547 179.711 321.671 179.711 320.315C179.711 318.971 180.395 318.083 181.439 318.083C182.327 318.083 182.963 318.695 183.095 319.715H184.367C184.139 318.059 182.999 317.015 181.427 317.015C179.711 317.015 178.463 318.395 178.463 320.315C178.463 322.259 179.687 323.627 181.427 323.627ZM188.193 323.615C189.993 323.615 191.313 322.199 191.313 320.315C191.313 318.431 189.993 317.015 188.193 317.015C186.393 317.015 185.073 318.431 185.073 320.315C185.073 322.199 186.393 323.615 188.193 323.615ZM188.193 322.547C187.149 322.547 186.333 321.707 186.333 320.315C186.333 318.923 187.149 318.095 188.193 318.095C189.237 318.095 190.065 318.923 190.065 320.315C190.065 321.707 189.237 322.547 188.193 322.547ZM193.76 323.495V319.847C193.76 318.779 194.42 318.083 195.26 318.083C196.148 318.083 196.616 318.707 196.616 319.763V323.495H197.828V319.847C197.828 318.779 198.5 318.083 199.328 318.083C200.216 318.083 200.684 318.707 200.684 319.763V323.495H201.896V319.379C201.896 317.867 201.056 317.015 199.748 317.015C198.776 317.015 198.044 317.519 197.6 318.335C197.312 317.495 196.604 317.015 195.668 317.015C194.792 317.015 194.108 317.459 193.676 318.191V317.135H192.548V323.495H193.76ZM204.993 315.659C204.993 315.191 204.633 314.855 204.117 314.855C203.601 314.855 203.229 315.191 203.229 315.659C203.229 316.115 203.601 316.463 204.117 316.463C204.633 316.463 204.993 316.115 204.993 315.659ZM204.729 323.495V317.135H203.517V323.495H204.729ZM207.624 319.907C207.624 318.779 208.32 318.083 209.148 318.083C210.048 318.083 210.528 318.695 210.528 319.787V323.495H211.74V319.379C211.74 317.855 210.876 317.015 209.568 317.015C208.692 317.015 207.972 317.483 207.54 318.191V317.135H206.412V323.495H207.624V319.907ZM215.893 325.943C217.693 325.943 218.761 324.947 218.761 323.279V317.135H217.633V318.263C217.201 317.459 216.481 317.015 215.569 317.015C213.973 317.015 212.893 318.287 212.893 320.183C212.893 322.055 214.021 323.363 215.605 323.363C216.469 323.363 217.189 322.919 217.549 322.151V323.303C217.549 324.395 216.973 324.983 215.881 324.983C214.897 324.983 214.321 324.503 214.249 323.615H213.073C213.145 325.055 214.225 325.943 215.893 325.943ZM214.117 320.183C214.117 318.875 214.777 318.059 215.821 318.059C216.865 318.059 217.549 318.899 217.549 320.219C217.549 321.479 216.853 322.307 215.821 322.307C214.765 322.307 214.117 321.503 214.117 320.183ZM226.919 320.879C226.919 321.875 226.259 322.547 225.443 322.547C224.651 322.547 224.099 322.091 224.099 320.987V317.135H222.887V321.227C222.887 322.859 223.775 323.615 225.059 323.615C225.923 323.615 226.667 323.147 227.003 322.487V323.495H228.131V317.135H226.919V320.879ZM235.886 320.315C235.886 318.395 234.77 317.015 233.078 317.015C232.178 317.015 231.398 317.483 230.942 318.299V317.135H229.814V325.811H231.026V322.415C231.482 323.183 232.214 323.615 233.078 323.615C234.782 323.615 235.886 322.235 235.886 320.315ZM234.626 320.315C234.626 321.743 233.87 322.535 232.826 322.535C231.806 322.535 231.026 321.719 231.026 320.315C231.026 318.887 231.818 318.083 232.826 318.083C233.87 318.083 234.626 318.887 234.626 320.315ZM238.583 322.631C238.583 322.067 238.211 321.683 237.659 321.683C237.119 321.683 236.735 322.067 236.735 322.631C236.735 323.171 237.119 323.555 237.659 323.555C238.211 323.555 238.583 323.171 238.583 322.631ZM241.7 322.631C241.7 322.067 241.328 321.683 240.776 321.683C240.236 321.683 239.852 322.067 239.852 322.631C239.852 323.171 240.236 323.555 240.776 323.555C241.328 323.555 241.7 323.171 241.7 322.631ZM244.817 322.631C244.817 322.067 244.445 321.683 243.893 321.683C243.353 321.683 242.969 322.067 242.969 322.631C242.969 323.171 243.353 323.555 243.893 323.555C244.445 323.555 244.817 323.171 244.817 322.631Z" fill="black"/>
<rect x="12.7904" y="275.495" width="250" height="68" rx="17" stroke="#4E4F51" stroke-width="2"/>
</svg>
